<svg xmlns="http://www.w3.org/2000/svg" xmlns:xlink="http://www.w3.org/1999/xlink" width="820" height="411.577" viewBox="0 0 820 411.577">
  <defs>
    <clipPath id="clip-path">
      <path id="Trazado_238042" data-name="Trazado 238042" d="M93.04,1392.421H24.271v20.771H156.6l7.388-10.386v-10.385Z" fill="none"/>
    </clipPath>
    <linearGradient id="linear-gradient" x1="-0.174" y1="40.48" x2="-0.167" y2="40.48" gradientUnits="objectBoundingBox">
      <stop offset="0" stop-color="#b3009d"/>
      <stop offset="1" stop-color="#3c0061"/>
    </linearGradient>
    <clipPath id="clip-path-2">
      <path id="Trazado_238043" data-name="Trazado 238043" d="M10,1402.806a28.236,28.236,0,1,0,28.236-28.236A28.237,28.237,0,0,0,10,1402.806" fill="none"/>
    </clipPath>
    <linearGradient id="linear-gradient-2" x1="-0.177" y1="15.205" x2="-0.159" y2="15.205" gradientUnits="objectBoundingBox">
      <stop offset="0" stop-color="#c238b2"/>
      <stop offset="1" stop-color="#9c0088"/>
    </linearGradient>
  </defs>
  <g id="Grupo_242682" data-name="Grupo 242682" transform="translate(8714 6131.031)">
    <g id="Grupo_242678" data-name="Grupo 242678">
      <g id="Grupo_240273" data-name="Grupo 240273">
        <rect id="Rectángulo_314623" data-name="Rectángulo 314623" width="820" height="411.577" transform="translate(-8714 -6131.031)" fill="#f0f0f0"/>
        <path id="Trazado_238040" data-name="Trazado 238040" d="M790,1563.071V1738.4l-5.771,5.771-5.771,5.772h-86.9" transform="translate(-8714 -7494.002)" fill="none" stroke="#b3009d" stroke-miterlimit="10" stroke-width="0.847" stroke-dasharray="2.541 2.541"/>
        <path id="Trazado_238041" data-name="Trazado 238041" d="M38.236,1576.066V1415.1l6.179-6.178,6.178-6.179H414.965" transform="translate(-8714 -7494.002)" fill="none" stroke="#b3009d" stroke-miterlimit="10" stroke-width="0.847" stroke-dasharray="2.541 2.541"/>
        <g id="Grupo_240229" data-name="Grupo 240229" transform="translate(-8714 -7494.002)">
          <g id="Grupo_240228" data-name="Grupo 240228" clip-path="url(#clip-path)">
            <rect id="Rectángulo_314625" data-name="Rectángulo 314625" width="139.714" height="20.771" transform="translate(24.271 1392.421)" fill="url(#linear-gradient)"/>
          </g>
        </g>
        <text id="Potencia" transform="translate(-8638.547 -6087.688)" fill="#fff" font-size="12" font-family="Roboto-Bold, Roboto" font-weight="700"><tspan x="0" y="0" letter-spacing="-0.006em">P</tspan><tspan y="0">otencia</tspan></text>
        <g id="Grupo_240231" data-name="Grupo 240231" transform="translate(-8714 -7494.002)">
          <g id="Grupo_240230" data-name="Grupo 240230" clip-path="url(#clip-path-2)">
            <rect id="Rectángulo_314626" data-name="Rectángulo 314626" width="56.473" height="56.473" transform="translate(10 1374.57)" fill="url(#linear-gradient-2)"/>
          </g>
        </g>
        <path id="Trazado_238044" data-name="Trazado 238044" d="M32.41,1405.583V1415.6H29.034V1390.01h9.441a9.48,9.48,0,0,1,6.582,2.144,7.269,7.269,0,0,1,2.382,5.678,7.171,7.171,0,0,1-2.329,5.738q-2.33,2.015-6.671,2.013Zm0-2.76h6.065a6.069,6.069,0,0,0,4.148-1.275,4.676,4.676,0,0,0,1.441-3.69,4.829,4.829,0,0,0-1.441-3.663,5.7,5.7,0,0,0-3.955-1.427H32.41Z" transform="translate(-8714 -7494.002)" fill="#fff"/>
        <text id="Unidad:_" data-name="Unidad: " transform="translate(-8638.547 -6033.999)" font-size="14" font-family="Roboto-Bold, Roboto" font-weight="700"><tspan x="0" y="0">Unidad: </tspan></text>
        <text id="Wattio_W_." data-name="Wattio (W)." transform="translate(-8587.055 -6033.999)" font-size="14" font-family="Roboto-Regular, Roboto"><tspan x="0" y="0" letter-spacing="-0.016em">W</tspan><tspan y="0">attio </tspan><tspan y="0" letter-spacing="0.007em">(W</tspan><tspan y="0">).</tspan></text>
        <text id="Medida:_" data-name="Medida: " transform="translate(-8638.547 -6017.199)" font-size="14" font-family="Roboto-Bold, Roboto" font-weight="700"><tspan x="0" y="0">Medida: </tspan></text>
        <text id="se_debe_conectar_en_serie_las_borneras_de_la_corriente_o_la_bobina_de_corriente_del_" data-name="se debe conectar en serie las borneras de la corriente o la bobina de corriente del " transform="translate(-8584.283 -6017.199)" font-size="14" font-family="Roboto-Regular, Roboto"><tspan x="0" y="0">se debe conectar en serie las borne</tspan><tspan y="0" letter-spacing="-0.024em">r</tspan><tspan y="0">as de la corriente o la bobina de corriente del </tspan></text>
        <text id="wattimetro_y_en_paralelo_las_borneras_de_potencial." data-name="wattimetro y en paralelo las borneras de potencial." transform="translate(-8638.547 -6000.399)" font-size="14" font-family="Roboto-Regular, Roboto"><tspan x="0" y="0">wattimet</tspan><tspan y="0" letter-spacing="-0.01em">r</tspan><tspan y="0">o y en pa</tspan><tspan y="0" letter-spacing="-0.02em">r</tspan><tspan y="0">alelo las borne</tspan><tspan y="0" letter-spacing="-0.021em">r</tspan><tspan y="0">as de potencial.</tspan></text>
        <text id="Precauciones:_" data-name="Precauciones: " transform="translate(-8638.547 -5983.599)" font-size="14" font-family="Roboto-Bold, Roboto" font-weight="700"><tspan x="0" y="0">P</tspan><tspan y="0" letter-spacing="-0.009em">r</tspan><tspan y="0">ecauciones: </tspan></text>
        <text id="se_debe_tener_precaución_en_no_confundir_las_borneras_de_corriente_y_voltaje." data-name="se debe tener precaución en no confundir las borneras de corriente y voltaje." transform="translate(-8545.363 -5983.599)" font-size="14" font-family="Roboto-Regular, Roboto"><tspan x="0" y="0">se debe tener p</tspan><tspan y="0" letter-spacing="-0.012em">r</tspan><tspan y="0">ecaución en no confundir las borne</tspan><tspan y="0" letter-spacing="-0.021em">r</tspan><tspan y="0">as de corriente y </tspan><tspan y="0" letter-spacing="-0.009em">v</tspan><tspan y="0">oltaje.</tspan></text>
        <rect id="Rectángulo_314628" data-name="Rectángulo 314628" width="420.126" height="29.528" transform="translate(-8637.524 -5969.795)" fill="#75ffe6"/>
        <text id="Esquema_eléctrico_de_la_conexión_del_instrumento_o_pictograma" data-name="Esquema eléctrico de la conexión del instrumento o pictograma" transform="translate(-8625.637 -5950.939)" font-size="14" font-family="Roboto-Regular, Roboto"><tspan x="0" y="0">Esquema eléctrico de la conexión del instrumen</tspan><tspan y="0" letter-spacing="-0.013em">t</tspan><tspan y="0">o o pic</tspan><tspan y="0" letter-spacing="-0.009em">t</tspan><tspan y="0">og</tspan><tspan y="0" letter-spacing="-0.019em">r</tspan><tspan y="0">ama</tspan></text>
        <line id="Línea_322" data-name="Línea 322" x2="15.516" transform="translate(-8254.724 -5784.088)" fill="none" stroke="blue" stroke-miterlimit="10" stroke-width="3.082"/>
        <line id="Línea_323" data-name="Línea 323" x2="15.516" transform="translate(-8254.724 -5769.411)" fill="none" stroke="blue" stroke-miterlimit="10" stroke-width="3.082"/>
        <path id="Trazado_238047" data-name="Trazado 238047" d="M249.56,1685.469H381.8v-11.151" transform="translate(-8714 -7494.002)" fill="none" stroke="red" stroke-miterlimit="10" stroke-width="3.082"/>
        <path id="Trazado_238048" data-name="Trazado 238048" d="M249.56,1748.634H426.724v-24.043h32.552" transform="translate(-8714 -7494.002)" fill="none" stroke="red" stroke-miterlimit="10" stroke-width="3.082"/>
        <rect id="Rectángulo_314630" data-name="Rectángulo 314630" width="3.082" height="20.667" transform="translate(-8465.981 -5810.095)"/>
        <rect id="Rectángulo_314631" data-name="Rectángulo 314631" width="3.082" height="20.615" transform="translate(-8465.981 -5764.473)"/>
        <path id="Trazado_238049" data-name="Trazado 238049" d="M504.984,1685.469H474.791v62.763H520.08v-62.763Z" transform="translate(-8714 -7494.002)" fill="none" stroke="blue" stroke-miterlimit="10" stroke-width="3.142"/>
        <path id="Trazado_238050" data-name="Trazado 238050" d="M317.926,1586.585a3.523,3.523,0,0,1,1.835-.373q17.814,0,35.628.006a4.834,4.834,0,0,1,5.106,5.134q.018,24.181.006,48.362a4.2,4.2,0,0,1-.335,1.961q-20.092.008-40.185.009c-1.375,0-1.981-.654-1.982-2.1q-.009-7.255,0-14.511c0-.354-.005-3.724-.005-3.98q0-4.217,0-8.432c0-.257-.026-.525.23-.7.967,2.5,2.811,3.548,5.468,3.536,9.263-.044,18.526-.017,27.788-.019a9.631,9.631,0,0,0,1.114-.044,4.713,4.713,0,0,0,4.448-4.841q.073-8.089,0-16.181a4.717,4.717,0,0,0-3.771-4.657c-1.478-.372-2.12-.007-2.572,1.459l-3.392-.025c-.385-1.287-.759-1.566-2.163-1.567q-10.809,0-21.617,0a5.058,5.058,0,0,0-5.31,3.567c-.374-.327-.2-.764-.216-1.153-.055-1.817.078-3.637-.077-5.453" transform="translate(-8714 -7494.002)" fill="#857e87"/>
        <path id="Trazado_238051" data-name="Trazado 238051" d="M317.926,1586.585c.155,1.816.022,3.636.077,5.453.011.389-.158.826.216,1.153-.082,6.257-.1,12.514.008,18.772-.256.174-.23.442-.23.7,0,2.811,0,22.086,0,26.923,0,1.445.607,2.1,1.982,2.1q20.093,0,40.185-.009a5.075,5.075,0,0,1-5.141,3.323q-4.8.006-9.606,0-12.567,0-25.133,0c-3.569,0-5.634-2.046-5.634-5.585q0-23.961,0-47.921a4.77,4.77,0,0,1,3.273-4.907" transform="translate(-8714 -7494.002)" fill="#6f6571"/>
        <path id="Trazado_238052" data-name="Trazado 238052" d="M331.17,1650.076c0,.408.014.817,0,1.224a1.689,1.689,0,0,1-1.607,1.78,1.761,1.761,0,0,1-1.889-1.634c-.068-.96-.012-1.928-.023-2.893-.006-.443.227-.583.628-.567.259.01.519,0,.779,0,2.118,0,2.118,0,2.115,2.09" transform="translate(-8714 -7494.002)" fill="#6f6571"/>
        <path id="Trazado_238053" data-name="Trazado 238053" d="M347.474,1650.059c0,.444.028.89-.006,1.331a1.686,1.686,0,0,1-1.584,1.69,1.662,1.662,0,0,1-1.834-1.413,18.384,18.384,0,0,1-.072-3.21c0-.316.181-.463.491-.464s.592-.006.888-.007c2.124,0,2.124,0,2.117,2.073" transform="translate(-8714 -7494.002)" fill="#6f6571"/>
        <path id="Trazado_238054" data-name="Trazado 238054" d="M318.226,1611.963c-.1-6.257-.09-12.514-.008-18.772a5.059,5.059,0,0,1,5.311-3.567q10.808,0,21.616,0c1.4,0,1.779.279,2.163,1.566-.45,1.285-.751,1.512-2.1,1.513q-10.935.006-21.871.006c-1.552,0-2.167.616-2.179,2.154-.013,1.749,0,3.5,0,5.245,0,3.385-.009,6.77,0,10.155.005,1.406.613,2.126,1.852,2.145,2.009.033,4.018,0,6.026.019.441,0,.7-.12.788-.575a10.542,10.542,0,0,1,1.317-2.8,10.4,10.4,0,0,1,1.288-1.225c.531-.362.481-.691.248-1.195-.921-1.99-1.806-4-2.7-6a5.149,5.149,0,0,1-.389-1.04,1.387,1.387,0,0,1,.829-1.653,1.407,1.407,0,0,1,1.869.509,4.935,4.935,0,0,1,.46.887c.9,2,1.784,4.009,2.686,6.009.157.346.2.825.807.723a8.135,8.135,0,0,1,7.829,3.03,8.57,8.57,0,0,1,1.178,2.506c.134.72.518.846,1.161.834,1.783-.034,3.567-.007,5.35-.014,1.65-.006,2.224-.564,2.231-2.193.011-2.6,0-5.2,0-7.8,0-2.563.01-5.127-.006-7.691-.007-1.266-.446-1.85-1.616-2a1.776,1.776,0,0,1-1.669-1.516c.451-1.466,1.094-1.83,2.571-1.458a4.715,4.715,0,0,1,3.772,4.656q.069,8.091,0,16.181a4.715,4.715,0,0,1-4.449,4.842,9.614,9.614,0,0,1-1.113.043c-9.263,0-18.526-.025-27.788.019-2.658.013-4.5-1.033-5.469-3.536m19.37.434c1.265,0,2.531.013,3.795-.005.823-.012.916-.193.51-.917a4.986,4.986,0,0,0-8.605-.049c-.457.834-.379.963.616.97,1.228.007,2.456,0,3.684,0" transform="translate(-8714 -7494.002)" fill="#010101"/>
        <path id="Trazado_238055" data-name="Trazado 238055" d="M331.139,1609.048a10.525,10.525,0,0,0-1.317,2.8c-.09.455-.347.579-.788.575-2.009-.018-4.018.014-6.026-.018-1.239-.02-1.847-.74-1.852-2.146-.013-3.385-.005-6.77-.005-10.155,0-1.748-.009-3.5,0-5.244.011-1.539.627-2.154,2.179-2.155q10.935-.01,21.871-.006c1.352,0,1.654-.228,2.1-1.512l3.393.025a1.776,1.776,0,0,0,1.669,1.515c1.17.149,1.609.733,1.616,2,.015,2.564.005,5.128.005,7.692,0,2.6.008,5.2,0,7.8-.007,1.63-.581,2.188-2.231,2.194-1.783.006-3.567-.021-5.35.013-.644.013-1.027-.114-1.161-.834a8.6,8.6,0,0,0-1.178-2.506c1.116-.01,2.232,0,3.347-.036a3.145,3.145,0,0,0,3.2-3.066q.092-3.4,0-6.805a3.137,3.137,0,0,0-3.163-3.085q-9.932-.014-19.861,0a2.871,2.871,0,0,0-2.883,2.3,29.174,29.174,0,0,0-.1,7.875c.173,1.874,1.51,2.777,3.413,2.784,1.041,0,2.083-.006,3.124-.01" transform="translate(-8714 -7494.002)" fill="#b3e59f"/>
        <path id="Trazado_238056" data-name="Trazado 238056" d="M331.139,1609.048c-1.041,0-2.083.014-3.124.01-1.9-.007-3.24-.91-3.413-2.784a29.174,29.174,0,0,1,.1-7.875,2.871,2.871,0,0,1,2.883-2.3q9.93-.015,19.861,0a3.137,3.137,0,0,1,3.163,3.085q.086,3.4,0,6.805a3.145,3.145,0,0,1-3.2,3.066c-1.115.033-2.231.026-3.347.036a8.133,8.133,0,0,0-7.829-3.029c-.6.1-.65-.377-.807-.724-.9-2-1.788-4.006-2.686-6.008a4.909,4.909,0,0,0-.46-.888,1.407,1.407,0,0,0-1.869-.509,1.387,1.387,0,0,0-.829,1.653,5.184,5.184,0,0,0,.388,1.04c.892,2.005,1.777,4.012,2.7,6,.233.5.282.833-.248,1.195a10.463,10.463,0,0,0-1.288,1.225" transform="translate(-8714 -7494.002)" fill="#ccf49f"/>
        <path id="Trazado_238057" data-name="Trazado 238057" d="M337.6,1612.4c-1.228,0-2.456.006-3.684,0-.995-.006-1.073-.136-.616-.97a4.986,4.986,0,0,1,8.605.049c.406.724.313.906-.51.918-1.264.018-2.53.005-3.795.005" transform="translate(-8714 -7494.002)" fill="#6f6571"/>
        <path id="Trazado_238058" data-name="Trazado 238058" d="M344.29,1622.883a3.949,3.949,0,1,0,3.949-3.949,3.949,3.949,0,0,0-3.949,3.949" transform="translate(-8714 -7494.002)" fill="#010101"/>
        <path id="Trazado_238059" data-name="Trazado 238059" d="M347.3,1622.883a.941.941,0,1,0,.941-.941.941.941,0,0,0-.941.941" transform="translate(-8714 -7494.002)" fill="#ccf49f"/>
        <path id="Trazado_238060" data-name="Trazado 238060" d="M323.078,1622.883a3.949,3.949,0,1,0,3.949-3.949,3.949,3.949,0,0,0-3.949,3.949" transform="translate(-8714 -7494.002)" fill="#010101"/>
        <path id="Trazado_238061" data-name="Trazado 238061" d="M326.086,1622.883a.941.941,0,1,0,.941-.941.941.941,0,0,0-.941.941" transform="translate(-8714 -7494.002)" fill="#ff8086"/>
        <path id="Trazado_238062" data-name="Trazado 238062" d="M327.978,1634.3h2.466a.918.918,0,0,0,.95-.915.936.936,0,0,0-.95-.9h-2.466v-2.624a.94.94,0,0,0-.951-.915.929.929,0,0,0-.951.915v2.624h-2.465a.948.948,0,0,0-.951.9.928.928,0,0,0,.951.915h2.465v2.624a.914.914,0,0,0,.951.9.937.937,0,0,0,.951-.9Z" transform="translate(-8714 -7494.002)"/>
        <path id="Trazado_238063" data-name="Trazado 238063" d="M351.656,1634.3a.918.918,0,0,0,.951-.915.937.937,0,0,0-.951-.9h-6.833a.949.949,0,0,0-.951.9.929.929,0,0,0,.951.915Z" transform="translate(-8714 -7494.002)"/>
        <line id="Línea_324" data-name="Línea 324" y2="18.963" transform="translate(-8384.57 -5838.646)" fill="none" stroke="#000" stroke-miterlimit="10" stroke-width="3.082"/>
        <rect id="Rectángulo_314632" data-name="Rectángulo 314632" width="3.082" height="18.962" transform="translate(-8369.828 -5838.646)"/>
        <path id="Trazado_238064" data-name="Trazado 238064" d="M323.692,1648c.711-.03,1.03.147.966.919-.063.74-.012,1.489-.013,2.234a4.581,4.581,0,0,0,2.641,4.434.912.912,0,0,1,.589.786h3.091a.881.881,0,0,1,.575-.754,4.619,4.619,0,0,0,2.655-4.433c.006-.782.035-1.566-.008-2.346-.034-.624.167-.867.817-.837,1,.046,2.012-.01,3.017.018.923.026,2.118-.4,2.7.161.639.613.146,1.834.224,2.786.006.074,0,.149,0,.223a4.608,4.608,0,0,0,2.679,4.414.9.9,0,0,1,.574.768h3.052v0a.784.784,0,0,1,.552-.721,4.774,4.774,0,0,0,2.718-4.632c0-.745.03-1.492-.008-2.235-.03-.579.174-.789.761-.775,1.3.031,2.607.016,3.911.005a8.023,8.023,0,0,0,8.376-8.368q.024-24.081,0-48.162a8,8,0,0,0-8.4-8.343q-17.6-.014-35.2,0a8.583,8.583,0,0,0-1.554.112,8.037,8.037,0,0,0-6.832,8.267c-.017,8.008-.005,16.017-.005,24.025s-.011,16.016.005,24.025a8.1,8.1,0,0,0,8.432,8.443c1.229.01,2.46.04,3.687-.013m7.476,3.305a1.689,1.689,0,0,1-1.607,1.779,1.759,1.759,0,0,1-1.889-1.633c-.068-.961-.013-1.929-.024-2.894-.005-.442.228-.583.628-.567.26.01.52,0,.779,0,2.118,0,2.118,0,2.118,2.09,0,.408.012.817-.005,1.224m16.3.09a1.687,1.687,0,0,1-1.584,1.689,1.661,1.661,0,0,1-1.834-1.413,18.18,18.18,0,0,1-.072-3.209c0-.317.181-.464.491-.465s.592-.006.888-.006c2.124,0,2.124,0,2.117,2.072,0,.444.028.89-.006,1.332m-32.817-11.978q0-23.96,0-47.92a4.772,4.772,0,0,1,3.273-4.908,3.523,3.523,0,0,1,1.835-.373q17.814,0,35.629.006a4.834,4.834,0,0,1,5.1,5.135q.018,24.18.007,48.361a4.205,4.205,0,0,1-.336,1.962,5.074,5.074,0,0,1-5.141,3.322q-4.8.006-9.606,0-12.567,0-25.133,0c-3.568,0-5.633-2.046-5.634-5.586" transform="translate(-8714 -7494.002)" fill="#010101"/>
        <path id="Trazado_238065" data-name="Trazado 238065" d="M370.323,1586.585a3.523,3.523,0,0,1,1.835-.373q17.814,0,35.628.006a4.834,4.834,0,0,1,5.106,5.134q.018,24.181.006,48.362a4.2,4.2,0,0,1-.335,1.961q-20.092.008-40.185.009c-1.375,0-1.981-.654-1.982-2.1q-.009-7.255,0-14.511c0-.354,0-3.724,0-3.98q0-4.217,0-8.432c0-.257-.026-.525.23-.7.967,2.5,2.811,3.548,5.468,3.536,9.263-.044,18.526-.017,27.788-.019a9.631,9.631,0,0,0,1.114-.044,4.713,4.713,0,0,0,4.448-4.841q.074-8.089,0-16.181a4.717,4.717,0,0,0-3.771-4.657c-1.478-.372-2.12-.007-2.571,1.459l-3.393-.025c-.385-1.287-.759-1.566-2.163-1.567q-10.809,0-21.617,0a5.058,5.058,0,0,0-5.31,3.567c-.374-.327-.2-.764-.216-1.153-.055-1.817.078-3.637-.077-5.453" transform="translate(-8714 -7494.002)" fill="#857e87"/>
        <path id="Trazado_238066" data-name="Trazado 238066" d="M370.323,1586.585c.155,1.816.022,3.636.077,5.453.011.389-.158.826.216,1.153-.082,6.257-.1,12.514.008,18.772-.256.174-.23.442-.23.7,0,2.811,0,22.086,0,26.923,0,1.445.607,2.1,1.982,2.1q20.093,0,40.185-.009a5.075,5.075,0,0,1-5.141,3.323q-4.8.006-9.606,0-12.567,0-25.133,0c-3.569,0-5.634-2.046-5.634-5.585q0-23.961,0-47.921a4.77,4.77,0,0,1,3.273-4.907" transform="translate(-8714 -7494.002)" fill="#6f6571"/>
        <path id="Trazado_238067" data-name="Trazado 238067" d="M383.567,1650.076c0,.408.014.817,0,1.224a1.689,1.689,0,0,1-1.607,1.78,1.761,1.761,0,0,1-1.889-1.634c-.067-.96-.012-1.928-.023-2.893-.006-.443.227-.583.628-.567.259.01.519,0,.779,0,2.118,0,2.118,0,2.115,2.09" transform="translate(-8714 -7494.002)" fill="#6f6571"/>
        <path id="Trazado_238068" data-name="Trazado 238068" d="M399.871,1650.059c0,.444.028.89-.006,1.331a1.686,1.686,0,0,1-1.584,1.69,1.662,1.662,0,0,1-1.834-1.413,18.384,18.384,0,0,1-.072-3.21c0-.316.181-.463.491-.464s.592-.006.888-.007c2.124,0,2.124,0,2.117,2.073" transform="translate(-8714 -7494.002)" fill="#6f6571"/>
        <path id="Trazado_238069" data-name="Trazado 238069" d="M370.623,1611.963c-.1-6.257-.09-12.515-.008-18.772a5.059,5.059,0,0,1,5.311-3.567q10.808,0,21.616,0c1.4,0,1.779.28,2.163,1.567-.45,1.285-.752,1.512-2.1,1.513q-10.935.006-21.871.005c-1.552,0-2.167.616-2.179,2.155-.013,1.748,0,3.5,0,5.245,0,3.385-.008,6.769.005,10.154.005,1.406.613,2.126,1.852,2.146,2.009.032,26.967.015,28.75.009,1.65-.006,2.224-.564,2.231-2.193.011-2.6,0-5.2,0-7.8,0-2.564.011-5.128-.005-7.691-.007-1.267-.446-1.85-1.616-2a1.778,1.778,0,0,1-1.669-1.516c.451-1.466,1.094-1.831,2.571-1.459a4.717,4.717,0,0,1,3.772,4.657q.069,8.09,0,16.181a4.713,4.713,0,0,1-4.449,4.841,9.614,9.614,0,0,1-1.113.044c-9.263,0-18.526-.025-27.788.019-2.658.012-4.5-1.033-5.469-3.536" transform="translate(-8714 -7494.002)" fill="#010101"/>
        <path id="Trazado_238070" data-name="Trazado 238070" d="M383.535,1609.048a10.556,10.556,0,0,0-1.317,2.8c-.09.455-.347.579-.788.575-2.008-.018-4.018.014-6.026-.018-1.239-.02-1.847-.74-1.852-2.146-.013-3.385-.005-6.77-.005-10.155,0-1.748-.009-3.5,0-5.244.012-1.539.627-2.154,2.179-2.155q10.935-.01,21.871-.006c1.352,0,1.654-.228,2.1-1.512l3.393.025a1.776,1.776,0,0,0,1.669,1.515c1.17.149,1.609.733,1.616,2,.015,2.564.005,5.128.005,7.692,0,2.6.008,5.2,0,7.8-.007,1.63-.581,2.188-2.231,2.194-1.783.006-3.567-.021-5.35.013-.644.013-1.027-.114-1.161-.834a8.6,8.6,0,0,0-1.178-2.506c1.116-.01,2.232,0,3.347-.036a3.145,3.145,0,0,0,3.2-3.066q.092-3.4,0-6.805a3.137,3.137,0,0,0-3.163-3.085q-9.932-.014-19.861,0a2.869,2.869,0,0,0-2.882,2.3,29.134,29.134,0,0,0-.105,7.875c.173,1.874,1.51,2.777,3.413,2.784,1.041,0,2.083-.006,3.124-.01" transform="translate(-8714 -7494.002)" fill="#b3e59f"/>
        <path id="Trazado_238071" data-name="Trazado 238071" d="M380.411,1609.058c-1.9-.007-3.24-.91-3.413-2.784a29.134,29.134,0,0,1,.105-7.875,2.869,2.869,0,0,1,2.882-2.3q9.93-.015,19.861,0a3.137,3.137,0,0,1,3.163,3.085q.086,3.4,0,6.806a3.145,3.145,0,0,1-3.2,3.065c-1.115.033-18.36.007-19.4,0" transform="translate(-8714 -7494.002)" fill="#ccf49f"/>
        <path id="Trazado_238072" data-name="Trazado 238072" d="M389.993,1612.4c-1.228,0-2.456.006-3.684,0-.995-.006-1.073-.136-.616-.97a4.985,4.985,0,0,1,8.605.049c.406.724.313.906-.51.918-1.264.018-2.53.005-3.795.005" transform="translate(-8714 -7494.002)" fill="#6f6571"/>
        <path id="Trazado_238073" data-name="Trazado 238073" d="M396.687,1622.883a3.949,3.949,0,1,0,3.949-3.949,3.949,3.949,0,0,0-3.949,3.949" transform="translate(-8714 -7494.002)" fill="#010101"/>
        <path id="Trazado_238074" data-name="Trazado 238074" d="M399.7,1622.883a.941.941,0,1,0,.941-.941.941.941,0,0,0-.941.941" transform="translate(-8714 -7494.002)" fill="#ccf49f"/>
        <path id="Trazado_238075" data-name="Trazado 238075" d="M375.475,1622.883a3.949,3.949,0,1,0,3.949-3.949,3.949,3.949,0,0,0-3.949,3.949" transform="translate(-8714 -7494.002)" fill="#010101"/>
        <path id="Trazado_238076" data-name="Trazado 238076" d="M378.483,1622.883a.941.941,0,1,0,.94-.941.94.94,0,0,0-.94.941" transform="translate(-8714 -7494.002)" fill="#ff8086"/>
        <path id="Trazado_238077" data-name="Trazado 238077" d="M380.374,1634.3h2.466a.918.918,0,0,0,.95-.915.936.936,0,0,0-.95-.9h-2.466v-2.624a.94.94,0,0,0-.951-.915.929.929,0,0,0-.951.915v2.624h-2.465a.948.948,0,0,0-.951.9.928.928,0,0,0,.951.915h2.465v2.624a.914.914,0,0,0,.951.9.937.937,0,0,0,.951-.9Z" transform="translate(-8714 -7494.002)"/>
        <path id="Trazado_238078" data-name="Trazado 238078" d="M404.052,1634.3a.918.918,0,0,0,.951-.915.937.937,0,0,0-.951-.9h-6.833a.949.949,0,0,0-.951.9.929.929,0,0,0,.951.915Z" transform="translate(-8714 -7494.002)"/>
        <line id="Línea_325" data-name="Línea 325" y2="18.963" transform="translate(-8332.174 -5838.646)" fill="none" stroke="#000" stroke-miterlimit="10" stroke-width="3.082"/>
        <rect id="Rectángulo_314633" data-name="Rectángulo 314633" width="3.082" height="18.962" transform="translate(-8317.431 -5838.646)"/>
        <path id="Trazado_238079" data-name="Trazado 238079" d="M376.088,1648c.711-.03,1.03.147.966.919-.063.74-.012,1.489-.013,2.234a4.581,4.581,0,0,0,2.641,4.434.912.912,0,0,1,.589.786h3.091a.881.881,0,0,1,.575-.754,4.619,4.619,0,0,0,2.655-4.433c.006-.782.035-1.566-.008-2.346-.034-.624.167-.867.817-.837,1,.046,2.012-.01,3.017.018.923.026,2.118-.4,2.7.161.639.613.146,1.834.224,2.786.006.074,0,.149,0,.223a4.608,4.608,0,0,0,2.679,4.414.9.9,0,0,1,.574.768h3.052v0a.784.784,0,0,1,.552-.721,4.774,4.774,0,0,0,2.718-4.632c0-.745.03-1.492-.008-2.235-.03-.579.174-.789.761-.775,1.3.031,2.607.016,3.911.005a8.023,8.023,0,0,0,8.376-8.368q.024-24.081,0-48.162a8,8,0,0,0-8.4-8.343q-17.6-.014-35.2,0a8.583,8.583,0,0,0-1.554.112,8.036,8.036,0,0,0-6.831,8.267c-.018,8.008-.006,16.017-.006,24.025s-.011,16.016.005,24.025a8.1,8.1,0,0,0,8.432,8.443c1.229.01,2.46.04,3.687-.013m7.476,3.305a1.689,1.689,0,0,1-1.607,1.779,1.759,1.759,0,0,1-1.889-1.633c-.068-.961-.013-1.929-.024-2.894-.005-.442.228-.583.628-.567.26.01.52,0,.779,0,2.118,0,2.118,0,2.118,2.09,0,.408.012.817-.005,1.224m16.3.09a1.687,1.687,0,0,1-1.584,1.689,1.661,1.661,0,0,1-1.834-1.413,18.186,18.186,0,0,1-.072-3.209c0-.317.181-.464.491-.465s.592-.006.888-.006c2.124,0,2.124,0,2.117,2.072,0,.444.028.89-.006,1.332m-32.817-11.978q0-23.96,0-47.92a4.772,4.772,0,0,1,3.273-4.908,3.523,3.523,0,0,1,1.835-.373q17.814,0,35.629.006a4.834,4.834,0,0,1,5.1,5.135q.018,24.18.007,48.361a4.205,4.205,0,0,1-.336,1.962,5.074,5.074,0,0,1-5.141,3.322q-4.8.006-9.606,0-12.567,0-25.133,0c-3.568,0-5.633-2.046-5.634-5.586" transform="translate(-8714 -7494.002)" fill="#010101"/>
        <path id="Trazado_238080" data-name="Trazado 238080" d="M395.1,1607.855a6.6,6.6,0,0,1,2.6,4.029.6.6,0,0,0,.488.549H381.569c.374-.068.61-.274.709-.8a8.594,8.594,0,0,1,1.177-2.506,8.137,8.137,0,0,1,7.83-3.03c.6.1.65-.377.806-.723.9-2,1.789-4.007,2.686-6.009a4.937,4.937,0,0,1,.461-.887,1.407,1.407,0,0,1,1.869-.509,1.386,1.386,0,0,1,.828,1.653,5.062,5.062,0,0,1-.388,1.04c-.891,2-1.776,4.012-2.7,6-.233.5-.283.833.248,1.195" transform="translate(-8714 -7494.002)" fill="#010101"/>
        <path id="Trazado_238081" data-name="Trazado 238081" d="M394.228,1611.457a4.986,4.986,0,0,0-8.605.049c-.406.724-.313.905.51.917,1.264.019,2.53.005,3.8.005,1.228,0,2.456.006,3.684,0,.995-.006,1.073-.136.616-.97" transform="translate(-8714 -7494.002)" fill="#857e87"/>
        <path id="Trazado_238082" data-name="Trazado 238082" d="M459.276,1709.914H426.724v-24.445H398.11v-11.151" transform="translate(-8714 -7494.002)" fill="none" stroke="red" stroke-miterlimit="10" stroke-width="3.082"/>
        <text id="CIRCUITO" transform="translate(-8182.293 -5773.645)" fill="blue" font-size="12" font-family="Roboto-Bold, Roboto" font-weight="700"><tspan x="0" y="0">CIRCU</tspan><tspan y="0" letter-spacing="-0.013em">IT</tspan><tspan y="0">O</tspan></text>
        <text id="V2" transform="translate(-8445.405 -5773.645)" font-size="12" font-family="Roboto-Bold, Roboto" font-weight="700"><tspan x="0" y="0">V2</tspan></text>
        <line id="Línea_326" data-name="Línea 326" x2="29.794" transform="translate(-8479.338 -5789.428)" fill="none" stroke="#000" stroke-miterlimit="10" stroke-width="3.082"/>
        <line id="Línea_327" data-name="Línea 327" x2="15.241" transform="translate(-8472.061 -5781.11)" fill="none" stroke="#000" stroke-miterlimit="10" stroke-width="3.082"/>
        <line id="Línea_328" data-name="Línea 328" x2="29.794" transform="translate(-8479.338 -5772.792)" fill="none" stroke="#000" stroke-miterlimit="10" stroke-width="3.082"/>
        <line id="Línea_329" data-name="Línea 329" x2="15.241" transform="translate(-8472.061 -5764.473)" fill="none" stroke="#000" stroke-miterlimit="10" stroke-width="3.082"/>
        <text id="Wattimetro" transform="translate(-8456.184 -5875.871)" font-size="8.806" font-family="Roboto-Medium, Roboto" font-weight="500"><tspan x="0" y="0" letter-spacing="-0.016em">W</tspan><tspan y="0">attimet</tspan><tspan y="0" letter-spacing="-0.017em">r</tspan><tspan y="0">o</tspan></text>
        <path id="Trazado_238083" data-name="Trazado 238083" d="M454.234,1615.557a13.814,13.814,0,1,1-13.814-13.813,13.814,13.814,0,0,1,13.814,13.813" transform="translate(-8714 -7494.002)" fill="#010101"/>
        <path id="Trazado_238084" data-name="Trazado 238084" d="M436.638,1617.9l.244,1.673.357-1.507,2.509-8.852h1.412l2.448,8.852.348,1.533.27-1.708,1.969-8.677h1.682L444.8,1621.9h-1.524l-2.614-9.244-.2-.967-.2.967-2.709,9.244h-1.525l-3.067-12.685h1.673Z" transform="translate(-8714 -7494.002)" fill="#fff"/>
        <line id="Línea_330" data-name="Línea 330" y2="73.914" transform="translate(-8368.275 -5819.684)" fill="none" stroke="red" stroke-miterlimit="10" stroke-width="3.082"/>
        <line id="Línea_331" data-name="Línea 331" y2="11.151" transform="translate(-8384.582 -5819.684)" fill="none" stroke="red" stroke-miterlimit="10" stroke-width="3.082"/>
        <path id="Trazado_238085" data-name="Trazado 238085" d="M341.617,1748.634a4.1,4.1,0,1,1,4.1,4.1,4.1,4.1,0,0,1-4.1-4.1" transform="translate(-8714 -7494.002)" fill="red"/>
        <path id="Trazado_238086" data-name="Trazado 238086" d="M325.322,1685.469a4.1,4.1,0,1,1,4.1,4.1,4.1,4.1,0,0,1-4.1-4.1" transform="translate(-8714 -7494.002)" fill="red"/>
        <path id="Trazado_238087" data-name="Trazado 238087" d="M338.472,1630.368l1.934-6.416h1.957l-2.971,8.531h-1.834l-2.959-8.531h1.951Z" transform="translate(-8714 -7494.002)" fill="#fff"/>
        <rect id="Rectángulo_314636" data-name="Rectángulo 314636" width="1.758" height="8.531" transform="translate(-8324.863 -5870.05)" fill="#fff"/>
      </g>
    </g>
  </g>
</svg>
