<svg xmlns="http://www.w3.org/2000/svg" xmlns:xlink="http://www.w3.org/1999/xlink" width="400" height="382.56" viewBox="0 0 400 382.56">
  <defs>
    <clipPath id="clip-path">
      <rect id="Rectángulo_314497" data-name="Rectángulo 314497" width="400" height="382.56" fill="none"/>
    </clipPath>
    <clipPath id="clip-path-2">
      <rect id="Rectángulo_314449" data-name="Rectángulo 314449" width="416.667" height="382.56" fill="none"/>
    </clipPath>
    <clipPath id="clip-path-3">
      <rect id="Rectángulo_314448" data-name="Rectángulo 314448" width="207.327" height="4.656" fill="none"/>
    </clipPath>
    <clipPath id="clip-path-5">
      <rect id="Rectángulo_314455" data-name="Rectángulo 314455" width="157.743" height="2.886" fill="none"/>
    </clipPath>
    <clipPath id="clip-path-9">
      <rect id="Rectángulo_314470" data-name="Rectángulo 314470" width="205.097" height="246.174" fill="none"/>
    </clipPath>
    <clipPath id="clip-path-10">
      <rect id="Rectángulo_314471" data-name="Rectángulo 314471" width="186.171" height="225.13" fill="none"/>
    </clipPath>
    <clipPath id="clip-path-11">
      <rect id="Rectángulo_314472" data-name="Rectángulo 314472" width="36.326" height="34.46" fill="none"/>
    </clipPath>
    <clipPath id="clip-path-12">
      <rect id="Rectángulo_314473" data-name="Rectángulo 314473" width="36.324" height="34.461" fill="none"/>
    </clipPath>
    <clipPath id="clip-path-14">
      <rect id="Rectángulo_314475" data-name="Rectángulo 314475" width="36.323" height="34.462" fill="none"/>
    </clipPath>
    <clipPath id="clip-path-15">
      <rect id="Rectángulo_314476" data-name="Rectángulo 314476" width="75.524" height="7.506" fill="none"/>
    </clipPath>
    <clipPath id="clip-path-16">
      <rect id="Rectángulo_314477" data-name="Rectángulo 314477" width="62.594" height="7.506" fill="none"/>
    </clipPath>
    <clipPath id="clip-path-17">
      <rect id="Rectángulo_314478" data-name="Rectángulo 314478" width="75.525" height="7.506" fill="none"/>
    </clipPath>
    <clipPath id="clip-path-20">
      <rect id="Rectángulo_314481" data-name="Rectángulo 314481" width="34.884" height="7.506" fill="none"/>
    </clipPath>
    <clipPath id="clip-path-21">
      <rect id="Rectángulo_314482" data-name="Rectángulo 314482" width="21.952" height="7.506" fill="none"/>
    </clipPath>
    <clipPath id="clip-path-23">
      <rect id="Rectángulo_314484" data-name="Rectángulo 314484" width="62.593" height="7.508" fill="none"/>
    </clipPath>
    <clipPath id="clip-path-24">
      <rect id="Rectángulo_314485" data-name="Rectángulo 314485" width="10.599" height="13.172" fill="none"/>
    </clipPath>
    <clipPath id="clip-path-25">
      <rect id="Rectángulo_314486" data-name="Rectángulo 314486" width="69.006" height="24.602" fill="none"/>
    </clipPath>
    <clipPath id="clip-path-26">
      <rect id="Rectángulo_314487" data-name="Rectángulo 314487" width="27.986" height="3.324" fill="none"/>
    </clipPath>
    <clipPath id="clip-path-27">
      <rect id="Rectángulo_314488" data-name="Rectángulo 314488" width="5.926" height="3.324" fill="none"/>
    </clipPath>
    <clipPath id="clip-path-29">
      <rect id="Rectángulo_314491" data-name="Rectángulo 314491" width="9.31" height="18.789" fill="none"/>
    </clipPath>
    <clipPath id="clip-path-30">
      <rect id="Rectángulo_314492" data-name="Rectángulo 314492" width="8.655" height="9.825" fill="none"/>
    </clipPath>
    <clipPath id="clip-path-31">
      <rect id="Rectángulo_314493" data-name="Rectángulo 314493" width="11.278" height="10.893" fill="none"/>
    </clipPath>
    <clipPath id="clip-path-32">
      <rect id="Rectángulo_314494" data-name="Rectángulo 314494" width="23.182" height="24.282" fill="none"/>
    </clipPath>
    <clipPath id="clip-path-33">
      <rect id="Rectángulo_314495" data-name="Rectángulo 314495" width="11.602" height="63.196" fill="none"/>
    </clipPath>
  </defs>
  <g id="Grupo_242671" data-name="Grupo 242671" transform="translate(-285 -3288)">
    <g id="Grupo_240019" data-name="Grupo 240019" transform="translate(285 3288)">
      <g id="Grupo_240018" data-name="Grupo 240018" clip-path="url(#clip-path)">
        <rect id="Rectángulo_314443" data-name="Rectángulo 314443" width="45.182" height="115.926" transform="translate(179.123 218.106)" fill="#f0f0f0"/>
        <rect id="Rectángulo_314444" data-name="Rectángulo 314444" width="161.674" height="115.926" transform="translate(17.449 218.106)" fill="#f5f5f5"/>
        <rect id="Rectángulo_314445" data-name="Rectángulo 314445" width="26.986" height="23.605" transform="translate(27.357 299.136)" fill="#fff"/>
        <rect id="Rectángulo_314446" data-name="Rectángulo 314446" width="26.986" height="23.605" transform="translate(27.357 266.866)" fill="#ebebeb"/>
        <g id="Grupo_239932" data-name="Grupo 239932">
          <g id="Grupo_239931" data-name="Grupo 239931" clip-path="url(#clip-path-2)">
            <g id="Grupo_239930" data-name="Grupo 239930" transform="translate(16.977 233.07)" opacity="0.7" style="mix-blend-mode: multiply;isolation: isolate">
              <g id="Grupo_239929" data-name="Grupo 239929">
                <g id="Grupo_239928" data-name="Grupo 239928" clip-path="url(#clip-path-3)">
                  <rect id="Rectángulo_314447" data-name="Rectángulo 314447" width="207.328" height="4.655" transform="translate(0)" fill="#e6e6e6"/>
                </g>
              </g>
            </g>
          </g>
        </g>
        <rect id="Rectángulo_314450" data-name="Rectángulo 314450" width="47.675" height="18.777" transform="translate(179.123 215.858)" fill="#f0f0f0"/>
        <rect id="Rectángulo_314451" data-name="Rectángulo 314451" width="164.167" height="18.777" transform="translate(14.956 215.858)" fill="#f5f5f5"/>
        <rect id="Rectángulo_314452" data-name="Rectángulo 314452" width="35.111" height="35.73" transform="translate(172.065 180.42)" fill="#f0f0f0"/>
        <rect id="Rectángulo_314453" data-name="Rectángulo 314453" width="122.265" height="35.73" transform="translate(49.8 180.42)" fill="#f5f5f5"/>
        <g id="Grupo_239937" data-name="Grupo 239937">
          <g id="Grupo_239936" data-name="Grupo 239936" clip-path="url(#clip-path-2)">
            <g id="Grupo_239935" data-name="Grupo 239935" transform="translate(49.433 185.807)" opacity="0.7" style="mix-blend-mode: multiply;isolation: isolate">
              <g id="Grupo_239934" data-name="Grupo 239934">
                <g id="Grupo_239933" data-name="Grupo 239933" clip-path="url(#clip-path-5)">
                  <rect id="Rectángulo_314454" data-name="Rectángulo 314454" width="157.743" height="2.886" transform="translate(0)" fill="#e6e6e6"/>
                </g>
              </g>
            </g>
          </g>
        </g>
        <rect id="Rectángulo_314457" data-name="Rectángulo 314457" width="37.05" height="8.349" transform="translate(172.065 178.673)" fill="#f0f0f0"/>
        <rect id="Rectángulo_314458" data-name="Rectángulo 314458" width="124.202" height="8.349" transform="translate(47.862 178.673)" fill="#f5f5f5"/>
        <rect id="Rectángulo_314459" data-name="Rectángulo 314459" width="34.374" height="173.935" transform="translate(248.529 160.097)" fill="#e6e6e6"/>
        <path id="Trazado_237696" data-name="Trazado 237696" d="M238.658,311.728H231.3V299.394h15.077Z" transform="translate(17.231 22.304)" fill="#f0f0f0"/>
        <rect id="Rectángulo_314460" data-name="Rectángulo 314460" width="34.375" height="173.935" transform="translate(363.193 160.097)" fill="#e6e6e6"/>
        <rect id="Rectángulo_314461" data-name="Rectángulo 314461" width="121.087" height="171.445" transform="translate(248.529 160.097)" fill="#f0f0f0"/>
        <rect id="Rectángulo_314462" data-name="Rectángulo 314462" width="109.669" height="47.017" transform="translate(254.238 167.696)" fill="#e6e6e6"/>
        <g id="Grupo_239939" data-name="Grupo 239939">
          <g id="Grupo_239938" data-name="Grupo 239938" clip-path="url(#clip-path-2)">
            <path id="Trazado_237697" data-name="Trazado 237697" d="M295.351,177.516a7.208,7.208,0,1,1-7.208-7.208,7.207,7.207,0,0,1,7.208,7.208" transform="translate(20.929 12.688)" fill="#fafafa"/>
            <path id="Trazado_237698" data-name="Trazado 237698" d="M337.675,311.728h7.36V299.394H329.958Z" transform="translate(24.581 22.304)" fill="#f0f0f0"/>
            <rect id="Rectángulo_314463" data-name="Rectángulo 314463" width="109.669" height="101.631" transform="translate(254.238 222.311)" fill="#e6e6e6"/>
            <path id="Trazado_237699" data-name="Trazado 237699" d="M332.288,221.494a7.208,7.208,0,1,1-7.209-7.208,7.208,7.208,0,0,1,7.209,7.208" transform="translate(23.681 15.964)" fill="#fafafa"/>
            <rect id="Rectángulo_314464" data-name="Rectángulo 314464" width="353.555" height="140.735" transform="translate(32.337)" fill="#e6e6e6"/>
            <rect id="Rectángulo_314465" data-name="Rectángulo 314465" width="353.555" height="140.735" transform="translate(30.775)" fill="#f0f0f0"/>
            <rect id="Rectángulo_314466" data-name="Rectángulo 314466" width="335.561" height="122.741" transform="translate(39.771 8.997)" fill="#fff"/>
            <path id="Trazado_237700" data-name="Trazado 237700" d="M74.252,55.972,62.444,76.423H86.06Z" transform="translate(4.652 4.17)" fill="#e6e6e6"/>
            <rect id="Rectángulo_314467" data-name="Rectángulo 314467" width="19.282" height="19.282" transform="translate(120.877 60.726)" fill="#e6e6e6"/>
            <path id="Trazado_237701" data-name="Trazado 237701" d="M170.4,54.011l-12.967,9.421,4.953,15.243h16.027l4.953-15.243Z" transform="translate(11.729 4.024)" fill="#e6e6e6"/>
            <path id="Trazado_237702" data-name="Trazado 237702" d="M225.3,54.5H211.668l-6.817,11.808,6.817,11.808H225.3l6.817-11.808Z" transform="translate(15.261 4.06)" fill="#e6e6e6"/>
            <path id="Trazado_237703" data-name="Trazado 237703" d="M266.5,53.428l-10.659,5.133L253.2,70.1l7.378,9.25h11.83l7.378-9.25-2.633-11.535Z" transform="translate(18.863 3.98)" fill="#e6e6e6"/>
            <path id="Trazado_237704" data-name="Trazado 237704" d="M319.7,53.766H309.266l-7.379,7.379V71.58l7.379,7.379H319.7l7.379-7.379V61.144Z" transform="translate(22.49 4.005)" fill="#e6e6e6"/>
          </g>
        </g>
        <g id="Grupo_239941" data-name="Grupo 239941">
          <g id="Grupo_239940" data-name="Grupo 239940" clip-path="url(#clip-path-2)">
            <path id="Trazado_237705" data-name="Trazado 237705" d="M398.319,345.557c0,6.72-89.167,12.167-199.16,12.167S0,352.276,0,345.557,89.167,333.39,199.16,333.39s199.16,5.448,199.16,12.167" transform="translate(0 24.837)" fill="#f5f5f5"/>
          </g>
        </g>
        <g id="Grupo_240000" data-name="Grupo 240000">
          <g id="Grupo_239999" data-name="Grupo 239999" clip-path="url(#clip-path-2)">
            <path id="Trazado_237706" data-name="Trazado 237706" d="M184.8,57.98h176.92a6.391,6.391,0,0,1,6.436,6.863L353.737,297.29a7.426,7.426,0,0,1-7.289,6.863H169.528a6.392,6.392,0,0,1-6.437-6.863L177.514,64.843A7.426,7.426,0,0,1,184.8,57.98" transform="translate(12.149 4.319)" fill="#407bff"/>
            <g id="Grupo_239944" data-name="Grupo 239944" transform="translate(175.226 62.299)" opacity="0.4">
              <g id="Grupo_239943" data-name="Grupo 239943">
                <g id="Grupo_239942" data-name="Grupo 239942" clip-path="url(#clip-path-9)">
                  <path id="Trazado_237707" data-name="Trazado 237707" d="M184.8,57.98h176.92a6.391,6.391,0,0,1,6.436,6.863L353.737,297.29a7.426,7.426,0,0,1-7.289,6.863H169.528a6.392,6.392,0,0,1-6.437-6.863L177.514,64.843A7.426,7.426,0,0,1,184.8,57.98" transform="translate(-163.077 -57.98)"/>
                </g>
              </g>
            </g>
            <path id="Trazado_237708" data-name="Trazado 237708" d="M181.021,57.98H357.941a6.392,6.392,0,0,1,6.437,6.863L349.955,297.29a7.426,7.426,0,0,1-7.289,6.863H165.746a6.392,6.392,0,0,1-6.437-6.863L173.732,64.843a7.426,7.426,0,0,1,7.289-6.863" transform="translate(11.867 4.319)" fill="#407bff"/>
            <g id="Grupo_239947" data-name="Grupo 239947" transform="translate(180.765 72.857)" opacity="0.4">
              <g id="Grupo_239946" data-name="Grupo 239946">
                <g id="Grupo_239945" data-name="Grupo 239945" clip-path="url(#clip-path-10)">
                  <path id="Trazado_237709" data-name="Trazado 237709" d="M168.232,290.871l172.2,2.065L354.4,67.806H182.074Z" transform="translate(-168.232 -67.806)"/>
                </g>
              </g>
            </g>
            <path id="Trazado_237710" data-name="Trazado 237710" d="M163.55,288.782H337.939c9.611-88.008,12.56-135.521,13.871-223.529H177.421c-1.311,88.008-4.259,135.521-13.871,223.529" transform="translate(12.184 4.861)" fill="#fff"/>
            <g id="Grupo_239950" data-name="Grupo 239950" transform="translate(310.922 96.872)" opacity="0.3">
              <g id="Grupo_239949" data-name="Grupo 239949">
                <g id="Grupo_239948" data-name="Grupo 239948" clip-path="url(#clip-path-11)">
                  <path id="Trazado_237711" data-name="Trazado 237711" d="M321.61,124.617H291.583a2.219,2.219,0,0,1-2.213-2.354l1.863-30.027a2.218,2.218,0,0,1,2.213-2.079h30.027a2.218,2.218,0,0,1,2.213,2.354l-1.863,30.026a2.219,2.219,0,0,1-2.213,2.08m-27.668-4.434h25.585l1.588-25.591H295.53Z" transform="translate(-289.365 -90.156)" fill="#407bff"/>
                </g>
              </g>
            </g>
            <g id="Grupo_239953" data-name="Grupo 239953" transform="translate(308.085 142.61)" opacity="0.3">
              <g id="Grupo_239952" data-name="Grupo 239952">
                <g id="Grupo_239951" data-name="Grupo 239951" clip-path="url(#clip-path-12)">
                  <path id="Trazado_237712" data-name="Trazado 237712" d="M318.969,167.183H288.943a2.219,2.219,0,0,1-2.213-2.354l1.862-30.028a2.218,2.218,0,0,1,2.213-2.079h30.027a2.219,2.219,0,0,1,2.213,2.354L321.182,165.1a2.219,2.219,0,0,1-2.213,2.08M291.3,162.749h25.584l1.588-25.592H292.889Z" transform="translate(-286.725 -132.722)" fill="#407bff"/>
                </g>
              </g>
            </g>
            <g id="Grupo_239956" data-name="Grupo 239956" transform="translate(305.247 188.346)" opacity="0.3">
              <g id="Grupo_239955" data-name="Grupo 239955">
                <g id="Grupo_239954" data-name="Grupo 239954" clip-path="url(#clip-path-12)">
                  <path id="Trazado_237713" data-name="Trazado 237713" d="M316.328,209.748H286.3a2.219,2.219,0,0,1-2.213-2.354l1.863-30.028a2.218,2.218,0,0,1,2.213-2.079H318.19a2.219,2.219,0,0,1,2.213,2.354l-1.862,30.027a2.219,2.219,0,0,1-2.213,2.08m-27.668-4.434h25.585l1.587-25.592H290.247Z" transform="translate(-284.083 -175.287)" fill="#407bff"/>
                </g>
              </g>
            </g>
            <g id="Grupo_239959" data-name="Grupo 239959" transform="translate(302.41 234.082)" opacity="0.3">
              <g id="Grupo_239958" data-name="Grupo 239958">
                <g id="Grupo_239957" data-name="Grupo 239957" clip-path="url(#clip-path-14)">
                  <path id="Trazado_237714" data-name="Trazado 237714" d="M313.686,252.314H283.66a2.218,2.218,0,0,1-2.213-2.354l1.863-30.028a2.216,2.216,0,0,1,2.212-2.079h30.027a2.219,2.219,0,0,1,2.213,2.354L315.9,250.234a2.219,2.219,0,0,1-2.214,2.08m-27.667-4.434H311.6l1.588-25.592H287.606Z" transform="translate(-281.443 -217.852)" fill="#407bff"/>
                </g>
              </g>
            </g>
            <g id="Grupo_239962" data-name="Grupo 239962" transform="translate(215.424 102.669)" opacity="0.3">
              <g id="Grupo_239961" data-name="Grupo 239961">
                <g id="Grupo_239960" data-name="Grupo 239960" clip-path="url(#clip-path-15)">
                  <path id="Trazado_237715" data-name="Trazado 237715" d="M204.016,103.057h68a4.062,4.062,0,0,0,3.986-3.753,3.5,3.5,0,0,0-3.521-3.753h-68A4.061,4.061,0,0,0,200.5,99.3a3.5,3.5,0,0,0,3.52,3.753" transform="translate(-200.488 -95.551)" fill="#407bff"/>
                </g>
              </g>
            </g>
            <g id="Grupo_239965" data-name="Grupo 239965" transform="translate(227.401 118.03)" opacity="0.3">
              <g id="Grupo_239964" data-name="Grupo 239964">
                <g id="Grupo_239963" data-name="Grupo 239963" clip-path="url(#clip-path-16)">
                  <path id="Trazado_237716" data-name="Trazado 237716" d="M215.164,117.353h55.072a4.062,4.062,0,0,0,3.986-3.753,3.5,3.5,0,0,0-3.521-3.753H215.63a4.061,4.061,0,0,0-3.986,3.753,3.5,3.5,0,0,0,3.52,3.753" transform="translate(-211.635 -109.847)" fill="#407bff"/>
                </g>
              </g>
            </g>
            <g id="Grupo_239968" data-name="Grupo 239968" transform="translate(211.632 163.767)" opacity="0.3">
              <g id="Grupo_239967" data-name="Grupo 239967">
                <g id="Grupo_239966" data-name="Grupo 239966" clip-path="url(#clip-path-17)">
                  <path id="Trazado_237717" data-name="Trazado 237717" d="M200.953,152.413h68a3.5,3.5,0,0,1,3.52,3.753,4.061,4.061,0,0,1-3.986,3.753h-68a3.5,3.5,0,0,1-3.52-3.753,4.061,4.061,0,0,1,3.986-3.753" transform="translate(-196.959 -152.413)" fill="#407bff"/>
                </g>
              </g>
            </g>
            <g id="Grupo_239971" data-name="Grupo 239971" transform="translate(225.517 148.405)" opacity="0.3">
              <g id="Grupo_239970" data-name="Grupo 239970">
                <g id="Grupo_239969" data-name="Grupo 239969" clip-path="url(#clip-path-16)">
                  <path id="Trazado_237718" data-name="Trazado 237718" d="M213.875,138.116h55.072a3.5,3.5,0,0,1,3.52,3.753,4.061,4.061,0,0,1-3.986,3.753H213.409a3.5,3.5,0,0,1-3.52-3.753,4.061,4.061,0,0,1,3.986-3.753" transform="translate(-209.881 -138.116)" fill="#407bff"/>
                </g>
              </g>
            </g>
            <g id="Grupo_239974" data-name="Grupo 239974" transform="translate(209.747 194.142)" opacity="0.3">
              <g id="Grupo_239973" data-name="Grupo 239973">
                <g id="Grupo_239972" data-name="Grupo 239972" clip-path="url(#clip-path-17)">
                  <path id="Trazado_237719" data-name="Trazado 237719" d="M198.733,188.188h68a4.062,4.062,0,0,0,3.986-3.753,3.5,3.5,0,0,0-3.521-3.753h-68a4.061,4.061,0,0,0-3.986,3.753,3.5,3.5,0,0,0,3.52,3.753" transform="translate(-195.205 -180.682)" fill="#407bff"/>
                </g>
              </g>
            </g>
            <g id="Grupo_239977" data-name="Grupo 239977" transform="translate(249.436 209.503)" opacity="0.3">
              <g id="Grupo_239976" data-name="Grupo 239976">
                <g id="Grupo_239975" data-name="Grupo 239975" clip-path="url(#clip-path-20)">
                  <path id="Trazado_237720" data-name="Trazado 237720" d="M235.67,202.484h27.362a4.062,4.062,0,0,0,3.986-3.753,3.5,3.5,0,0,0-3.521-3.753H236.136a4.061,4.061,0,0,0-3.986,3.753,3.5,3.5,0,0,0,3.52,3.753" transform="translate(-232.142 -194.978)" fill="#407bff"/>
                </g>
              </g>
            </g>
            <g id="Grupo_239980" data-name="Grupo 239980" transform="translate(221.726 209.503)" opacity="0.3">
              <g id="Grupo_239979" data-name="Grupo 239979">
                <g id="Grupo_239978" data-name="Grupo 239978" clip-path="url(#clip-path-21)">
                  <path id="Trazado_237721" data-name="Trazado 237721" d="M209.881,202.484h14.431a4.061,4.061,0,0,0,3.986-3.753,3.5,3.5,0,0,0-3.52-3.753h-14.43a4.061,4.061,0,0,0-3.986,3.753,3.5,3.5,0,0,0,3.52,3.753" transform="translate(-206.353 -194.978)" fill="#407bff"/>
                </g>
              </g>
            </g>
            <g id="Grupo_239983" data-name="Grupo 239983" transform="translate(206.91 239.878)" opacity="0.3">
              <g id="Grupo_239982" data-name="Grupo 239982">
                <g id="Grupo_239981" data-name="Grupo 239981" clip-path="url(#clip-path-15)">
                  <path id="Trazado_237722" data-name="Trazado 237722" d="M196.092,230.753h68A4.062,4.062,0,0,0,268.082,227a3.5,3.5,0,0,0-3.521-3.753h-68A4.061,4.061,0,0,0,192.572,227a3.5,3.5,0,0,0,3.52,3.753" transform="translate(-192.564 -223.247)" fill="#407bff"/>
                </g>
              </g>
            </g>
            <g id="Grupo_239986" data-name="Grupo 239986" transform="translate(218.888 255.239)" opacity="0.3">
              <g id="Grupo_239985" data-name="Grupo 239985">
                <g id="Grupo_239984" data-name="Grupo 239984" clip-path="url(#clip-path-23)">
                  <path id="Trazado_237723" data-name="Trazado 237723" d="M207.24,245.05h55.072A4.062,4.062,0,0,0,266.3,241.3a3.5,3.5,0,0,0-3.521-3.753H207.706a4.061,4.061,0,0,0-3.986,3.753,3.5,3.5,0,0,0,3.52,3.753" transform="translate(-203.712 -237.543)" fill="#407bff"/>
                </g>
              </g>
            </g>
            <path id="Trazado_237724" data-name="Trazado 237724" d="M304.958,116.338a2.206,2.206,0,0,1-1.249-.387l-11.57-7.9a2.216,2.216,0,1,1,2.5-3.66l9.885,6.752c3.607-4.353,13.9-16.156,22.468-19.975a2.217,2.217,0,0,1,1.8,4.051c-9.349,4.167-21.969,20.116-22.1,20.276a2.215,2.215,0,0,1-1.744.847" transform="translate(21.692 6.777)" fill="#407bff"/>
            <path id="Trazado_237725" data-name="Trazado 237725" d="M299.838,157.822a2.211,2.211,0,0,1-1.539-.621l-10.071-9.708a2.217,2.217,0,0,1,3.077-3.192l8.573,8.264c4.239-3.791,16.136-13.9,25.1-16.349a2.217,2.217,0,1,1,1.168,4.277c-9.8,2.68-24.637,16.586-24.786,16.726a2.207,2.207,0,0,1-1.52.6" transform="translate(21.422 10.142)" fill="#407bff"/>
            <g id="Grupo_239989" data-name="Grupo 239989" transform="translate(301.773 62.299)" opacity="0.4">
              <g id="Grupo_239988" data-name="Grupo 239988">
                <g id="Grupo_239987" data-name="Grupo 239987" clip-path="url(#clip-path-24)">
                  <path id="Trazado_237726" data-name="Trazado 237726" d="M281.5,71.12l3.271.032a6.58,6.58,0,0,0,6.633-6.517l.042-5.991a.652.652,0,0,0-.661-.664H281.68a.756.756,0,0,0-.748.741l-.082,11.735a.651.651,0,0,0,.653.664" transform="translate(-280.85 -57.98)"/>
                </g>
              </g>
            </g>
            <path id="Trazado_237727" data-name="Trazado 237727" d="M236.044,47.863H290.91a5.3,5.3,0,0,1,5.353,6.188l-1.65,12.226a7.334,7.334,0,0,1-7.024,6.188H232.723a5.3,5.3,0,0,1-5.353-6.188l1.65-12.226a7.334,7.334,0,0,1,7.024-6.188" transform="translate(16.934 3.566)" fill="#407bff"/>
            <g id="Grupo_239992" data-name="Grupo 239992" transform="translate(244.248 51.429)" opacity="0.6">
              <g id="Grupo_239991" data-name="Grupo 239991">
                <g id="Grupo_239990" data-name="Grupo 239990" clip-path="url(#clip-path-25)">
                  <path id="Trazado_237728" data-name="Trazado 237728" d="M236.044,47.863H290.91a5.3,5.3,0,0,1,5.353,6.188l-1.65,12.226a7.334,7.334,0,0,1-7.024,6.188H232.723a5.3,5.3,0,0,1-5.353-6.188l1.65-12.226a7.334,7.334,0,0,1,7.024-6.188" transform="translate(-227.314 -47.863)" fill="#fff"/>
                </g>
              </g>
            </g>
            <g id="Grupo_239995" data-name="Grupo 239995" transform="translate(280.097 54.015)" opacity="0.5">
              <g id="Grupo_239994" data-name="Grupo 239994">
                <g id="Grupo_239993" data-name="Grupo 239993" clip-path="url(#clip-path-26)">
                  <path id="Trazado_237729" data-name="Trazado 237729" d="M287,53.595H262.339a1.662,1.662,0,1,1,0-3.325H287a1.662,1.662,0,0,1,0,3.325" transform="translate(-260.677 -50.27)" fill="#fff"/>
                </g>
              </g>
            </g>
            <g id="Grupo_239998" data-name="Grupo 239998" transform="translate(269.228 54.015)" opacity="0.5">
              <g id="Grupo_239997" data-name="Grupo 239997">
                <g id="Grupo_239996" data-name="Grupo 239996" clip-path="url(#clip-path-27)">
                  <path id="Trazado_237730" data-name="Trazado 237730" d="M254.827,53.595h-2.6a1.662,1.662,0,0,1,0-3.325h2.6a1.662,1.662,0,0,1,0,3.325" transform="translate(-250.562 -50.27)" fill="#fff"/>
                </g>
              </g>
            </g>
          </g>
        </g>
        <path id="Trazado_237731" data-name="Trazado 237731" d="M113.351,283.369l10.6,2.023,25.07-117.9-15.571-2.971Z" transform="translate(8.444 12.257)" fill="#407bff"/>
        <path id="Trazado_237732" data-name="Trazado 237732" d="M148.041,91.745l12.7-4.171.88-4.612L149.786,82.6Z" transform="translate(11.029 6.153)" fill="#263238"/>
        <path id="Trazado_237733" data-name="Trazado 237733" d="M148.85,88.94l14.462-4.7-14.862,84.63-15.569-2.971Z" transform="translate(9.899 6.275)" fill="#407bff"/>
        <rect id="Rectángulo_314490" data-name="Rectángulo 314490" width="4.695" height="14.563" transform="translate(142.532 176.903) rotate(-79.198)" fill="#263238"/>
        <g id="Grupo_240017" data-name="Grupo 240017">
          <g id="Grupo_240016" data-name="Grupo 240016" clip-path="url(#clip-path-2)">
            <path id="Trazado_237734" data-name="Trazado 237734" d="M115.126,288.192c-.133.7.159,1.342.652,1.436s1-.4,1.136-1.094-.159-1.342-.652-1.437-1,.4-1.136,1.095" transform="translate(8.574 21.387)" fill="#407bff"/>
            <path id="Trazado_237735" data-name="Trazado 237735" d="M114.531,289.171l3.157.6,6.268-12.622-10.6-2.023Z" transform="translate(8.444 20.497)" fill="#263238"/>
            <path id="Trazado_237736" data-name="Trazado 237736" d="M132.321,144.415a1.338,1.338,0,0,1-1.211-1.9c6.658-14.275,12.064-44.1,12.791-51.194a5.815,5.815,0,0,1,3.485-4.744L150.9,85.06a1.337,1.337,0,1,1,1.058,2.455l-3.515,1.515a3.141,3.141,0,0,0-1.881,2.561c-.763,7.448-6.132,37.267-13.027,52.052a1.339,1.339,0,0,1-1.213.773" transform="translate(9.758 6.329)" fill="#263238"/>
            <path id="Trazado_237737" data-name="Trazado 237737" d="M87.979,87.722C85.3,92.3,82.6,97.171,80.059,101.944q-1.892,3.607-3.66,7.238c-1.131,2.427-2.261,4.854-3.228,7.284l-.183.441c0,.008-.016-.018-.023.011a.62.62,0,0,0-.077.226,4.829,4.829,0,0,0-.072,1.052,15.733,15.733,0,0,0,.453,3.155,53.909,53.909,0,0,0,2.36,7.26c.957,2.48,2.054,4.963,3.192,7.448,1.112,2.489,2.359,4.992,3.538,7.416l-5.1,3.486A93.79,93.79,0,0,1,67.138,132.7a52.892,52.892,0,0,1-3.915-8.343,26.762,26.762,0,0,1-1.29-5.067,15.452,15.452,0,0,1-.128-3.151,12.2,12.2,0,0,1,.256-1.849c.059-.316.169-.672.263-1l.174-.55A119.71,119.71,0,0,1,69,96.4a153.763,153.763,0,0,1,8.365-15.239Z" transform="translate(4.602 6.046)" fill="#ffc3bd"/>
            <path id="Trazado_237738" data-name="Trazado 237738" d="M80.616,137.726l4.8,3.737-7.332,6.057s-3.347-3.235-2.83-7.188Z" transform="translate(5.602 10.26)" fill="#ffc3bd"/>
            <path id="Trazado_237739" data-name="Trazado 237739" d="M87.171,146.662l-4.885,6.287-4.4-5.689,7.332-6.056Z" transform="translate(5.802 10.519)" fill="#ffc3bd"/>
            <path id="Trazado_237740" data-name="Trazado 237740" d="M111.934,45.676c.132.65.585,1.108,1.009,1.022s.663-.684.531-1.335-.583-1.108-1.009-1.022-.663.684-.531,1.335" transform="translate(8.336 3.303)" fill="#263238"/>
            <path id="Trazado_237741" data-name="Trazado 237741" d="M112.419,46.625a23.765,23.765,0,0,0,4.239,4.932,3.825,3.825,0,0,1-2.989,1.215Z" transform="translate(8.375 3.473)" fill="#ed847e"/>
            <path id="Trazado_237742" data-name="Trazado 237742" d="M109.058,42.808a.389.389,0,0,1-.286-.654,3.864,3.864,0,0,1,3.317-1.29.39.39,0,0,1-.13.769,3.094,3.094,0,0,0-2.615,1.05.384.384,0,0,1-.286.126" transform="translate(8.096 3.042)" fill="#263238"/>
            <path id="Trazado_237743" data-name="Trazado 237743" d="M94.813,54.1c1.181,6.021,2.359,17.053-1.855,21.072,0,0,1.646,6.107,12.835,6.107,12.3,0,5.88-6.107,5.88-6.107-6.715-1.6-6.542-6.585-5.371-11.263Z" transform="translate(6.925 4.03)" fill="#ffc3bd"/>
            <path id="Trazado_237744" data-name="Trazado 237744" d="M90.759,74.791c-.9-2.125,1.022-8.57,3.061-9.2,2.245-.694,10.776-.306,15.011,1.465,3.012,3.052,3.881,9.389,3.881,9.389Z" transform="translate(6.744 4.862)" fill="#263238"/>
            <path id="Trazado_237745" data-name="Trazado 237745" d="M58.187,336.12a2.649,2.649,0,0,0,2.048-.113.792.792,0,0,0,.189-.9.9.9,0,0,0-.5-.574c-1.111-.531-3.665.51-3.774.554a.2.2,0,0,0-.011.356,10.352,10.352,0,0,0,2.049.681m1.339-1.315a1.059,1.059,0,0,1,.229.075.525.525,0,0,1,.3.333c.1.351-.026.461-.069.5-.443.376-2.086.03-3.244-.434a6.428,6.428,0,0,1,2.787-.472" transform="translate(4.174 24.91)" fill="#407bff"/>
            <path id="Trazado_237746" data-name="Trazado 237746" d="M56.182,335.61a.206.206,0,0,0,.1,0c.931-.272,2.922-1.686,2.946-2.62a.637.637,0,0,0-.5-.631,1.064,1.064,0,0,0-.865.069c-1.1.562-1.794,2.841-1.823,2.939a.193.193,0,0,0,.048.192.186.186,0,0,0,.1.054m2.33-2.91a.808.808,0,0,1,.085.024c.242.085.239.2.236.254-.013.551-1.327,1.661-2.291,2.11a4.7,4.7,0,0,1,1.5-2.316.692.692,0,0,1,.474-.072" transform="translate(4.174 24.755)" fill="#407bff"/>
            <path id="Trazado_237747" data-name="Trazado 237747" d="M113.518,337.423c1.056,0,2.077-.146,2.419-.62a.739.739,0,0,0-.016-.852.971.971,0,0,0-.618-.457c-1.37-.372-4.246,1.267-4.368,1.337a.2.2,0,0,0,.059.361,14.465,14.465,0,0,0,2.524.231m1.306-1.6a1.424,1.424,0,0,1,.377.045.588.588,0,0,1,.381.272c.139.243.088.362.038.432-.382.532-2.463.544-3.993.328a8.8,8.8,0,0,1,3.2-1.077" transform="translate(8.257 24.99)" fill="#407bff"/>
            <path id="Trazado_237748" data-name="Trazado 237748" d="M111.032,337.331a.19.19,0,0,0,.08-.017c.994-.446,2.961-2.225,2.811-3.156-.035-.219-.19-.491-.725-.545a1.423,1.423,0,0,0-1.082.334c-1.047.86-1.268,3.076-1.278,3.171a.195.195,0,0,0,.194.213M113.04,334a1.075,1.075,0,0,1,.117.007c.35.035.373.173.38.219.09.558-1.247,1.957-2.261,2.566a4.572,4.572,0,0,1,1.086-2.538,1.039,1.039,0,0,1,.677-.254" transform="translate(8.257 24.853)" fill="#407bff"/>
            <path id="Trazado_237749" data-name="Trazado 237749" d="M102.6,338.213h8.231l.82-19.06h-8.231Z" transform="translate(7.643 23.776)" fill="#ffc3bd"/>
            <path id="Trazado_237750" data-name="Trazado 237750" d="M47.315,334.576l8.264,1.742,5.832-17.754-8.265-1.742Z" transform="translate(3.525 23.603)" fill="#ffc3bd"/>
            <path id="Trazado_237751" data-name="Trazado 237751" d="M56.745,334.351l-9.038-1.957a.718.718,0,0,0-.8.4L43.767,339.6a1.21,1.21,0,0,0,.868,1.685c3.168.63,4.74.776,8.714,1.636,2.446.53,7.965,1.874,11.341,2.606,3.3.715,4.541-2.512,3.223-3.114-5.9-2.7-8.371-5.074-9.969-7.287a2,2,0,0,0-1.2-.777" transform="translate(3.252 24.761)" fill="#263238"/>
            <path id="Trazado_237752" data-name="Trazado 237752" d="M110.992,336H102a.716.716,0,0,0-.7.562l-1.627,7.316a1.2,1.2,0,0,0,1.185,1.465c3.242-.056,7.927-.246,12-.246,4.765,0,2.915.26,8.5.26,3.379,0,4.317-3.416,2.9-3.725-6.439-1.409-5.73-1.559-11.3-4.99a3.807,3.807,0,0,0-1.982-.641" transform="translate(7.423 25.032)" fill="#263238"/>
            <path id="Trazado_237753" data-name="Trazado 237753" d="M80.219,75.456c-7.714,1.77-14.075,21.463-14.075,21.463l15.491,11.807a33.8,33.8,0,0,0,8.217-15.212c2.652-10.321-1.745-19.865-9.633-18.058" transform="translate(4.928 5.605)" fill="#263238"/>
            <g id="Grupo_240003" data-name="Grupo 240003" transform="translate(85.876 95.544)" opacity="0.2">
              <g id="Grupo_240002" data-name="Grupo 240002">
                <g id="Grupo_240001" data-name="Grupo 240001" clip-path="url(#clip-path-29)">
                  <path id="Trazado_237754" data-name="Trazado 237754" d="M85.8,88.92c-4.191,4.145-5.557,11.7-5.882,18.262l.683.526a33.829,33.829,0,0,0,8.223-15.215c.157-.616.291-1.232.4-1.837Z" transform="translate(-79.922 -88.92)"/>
                </g>
              </g>
            </g>
            <path id="Trazado_237755" data-name="Trazado 237755" d="M125.354,76.013s8.76,9.9.488,71.141H81.819c-.3-6.759,3.942-39.724-2.576-71.566A114.918,114.918,0,0,1,93.98,73.728a161.689,161.689,0,0,1,18.715,0,82.669,82.669,0,0,1,12.66,2.284" transform="translate(5.903 5.472)" fill="#263238"/>
            <g id="Grupo_240006" data-name="Grupo 240006" transform="translate(110.631 342.934)" opacity="0.2">
              <g id="Grupo_240005" data-name="Grupo 240005">
                <g id="Grupo_240004" data-name="Grupo 240004" clip-path="url(#clip-path-30)">
                  <path id="Trazado_237756" data-name="Trazado 237756" d="M111.616,319.157l-.421,9.825h-8.234l.421-9.825Z" transform="translate(-102.961 -319.157)"/>
                </g>
              </g>
            </g>
            <g id="Grupo_240009" data-name="Grupo 240009" transform="translate(53.658 340.43)" opacity="0.2">
              <g id="Grupo_240008" data-name="Grupo 240008">
                <g id="Grupo_240007" data-name="Grupo 240007" clip-path="url(#clip-path-31)">
                  <path id="Trazado_237757" data-name="Trazado 237757" d="M52.948,316.827l8.268,1.743-3.011,9.149-8.267-1.742Z" transform="translate(-49.938 -316.827)"/>
                </g>
              </g>
            </g>
            <path id="Trazado_237758" data-name="Trazado 237758" d="M91.5,49.386c2.115,7.89,2.952,12.616,7.82,15.9,7.324,4.935,16.443-.729,16.728-9.091.257-7.527-3.244-19.166-11.711-20.756A11.141,11.141,0,0,0,91.5,49.386" transform="translate(6.787 2.624)" fill="#ffc3bd"/>
            <path id="Trazado_237759" data-name="Trazado 237759" d="M99.695,64.032H99.59a8,8,0,0,1-6.518-3.316c-2.476-3.445-5.943-9.428-6.341-16.337,3.133-3.313,14.927-5.493,20.177-4.3,4.375,1,3.739,13.454-.4,20.182a8.018,8.018,0,0,1-6.813,3.768" transform="translate(6.461 2.961)" fill="#ffc3bd"/>
            <g id="Grupo_240012" data-name="Grupo 240012" transform="translate(93.192 42.711)" opacity="0.8">
              <g id="Grupo_240011" data-name="Grupo 240011">
                <g id="Grupo_240010" data-name="Grupo 240010" clip-path="url(#clip-path-32)">
                  <path id="Trazado_237760" data-name="Trazado 237760" d="M99.695,64.032H99.59a8,8,0,0,1-6.518-3.316c-2.476-3.445-5.943-9.428-6.341-16.337,3.133-3.313,14.927-5.493,20.177-4.3,4.375,1,3.739,13.454-.4,20.182a8.018,8.018,0,0,1-6.813,3.768" transform="translate(-86.731 -39.75)" fill="#263238"/>
                </g>
              </g>
            </g>
            <path id="Trazado_237761" data-name="Trazado 237761" d="M91.646,48.008a7.119,7.119,0,0,1-6.477-4.6c-.938-2.79.06-8.685,5.671-8.865s6.208-3.373,4.477-4.029c3.67.269,2.507,2.836,2.507,2.836.985.06,1.91-2.626,7.491-2.418s8.357-.984,7.641-2.238c2.657.537,1.91,3.761-.328,4.626,0,0,5.312,4.029,6.566,1.821.9,1.612-.866,3.539-7.582,2.665,2.679,3.745-3.662,2.9-6.363,4.605s-9.9,5.859-13.6,5.594" transform="translate(6.322 2.138)" fill="#263238"/>
            <path id="Trazado_237762" data-name="Trazado 237762" d="M103.98,48.33a9.237,9.237,0,0,0,3.321,4.912c2.141,1.593,3.741.025,3.59-2.4-.138-2.181-1.417-5.64-3.78-6.286-2.327-.637-3.745,1.405-3.131,3.774" transform="translate(7.736 3.311)" fill="#ffc3bd"/>
            <path id="Trazado_237763" data-name="Trazado 237763" d="M112.578,142.045s-9.341,62.9-14.468,86.465c-5.616,25.805-35.727,111.183-35.727,111.183L47.65,336.5S68.7,266.926,73.418,230.849c3.62-27.711,10.754-88.8,10.754-88.8Z" transform="translate(3.55 10.582)" fill="#263238"/>
            <path id="Trazado_237764" data-name="Trazado 237764" d="M65.985,321.636c.062.014-2.746,5.328-2.746,5.328l-16.576-3.589,1.4-4.984Z" transform="translate(3.476 23.72)" fill="#407bff"/>
            <g id="Grupo_240015" data-name="Grupo 240015" transform="translate(101.053 174.954)" opacity="0.3">
              <g id="Grupo_240014" data-name="Grupo 240014">
                <g id="Grupo_240013" data-name="Grupo 240013" clip-path="url(#clip-path-33)">
                  <path id="Trazado_237765" data-name="Trazado 237765" d="M103.218,162.908c-10.8,2.118-9.658,42.4-8.359,63.111,3.115-14.643,7.675-42.821,10.79-62.819a3.7,3.7,0,0,0-2.432-.291" transform="translate(-94.047 -162.824)"/>
                </g>
              </g>
            </g>
            <path id="Trazado_237766" data-name="Trazado 237766" d="M124.616,142.045s1.134,61.539.239,86.639c-.932,26.107-10.051,111.59-10.051,111.59H100.861s-.511-83.958-1.131-109.6c-.677-27.952-4.052-88.631-4.052-88.631Z" transform="translate(7.128 10.582)" fill="#263238"/>
            <path id="Trazado_237767" data-name="Trazado 237767" d="M117.238,321.361c.064,0-.787,5.788-.787,5.788H99.491l-.459-5.166Z" transform="translate(7.378 23.941)" fill="#407bff"/>
            <path id="Trazado_237768" data-name="Trazado 237768" d="M125.719,74.985c2.161.9,4.232,2.5,4.855,7.815.6,5.109-.56,49.838-1.963,64.122a2.067,2.067,0,0,1-1.811,1.959c-8.8.381-36.064-3.3-45.263-1.683-1.055.186-2-.987-1.945-2.063.724-13.919-.318-36.369-2.019-50.636-1.111-9.312-1.12-19.056,6.7-20.713,5.78-1.225,33.042-2.3,41.444,1.2" transform="translate(5.74 5.41)" fill="#407bff"/>
            <path id="Trazado_237769" data-name="Trazado 237769" d="M126.37,86.329c.491,2.359,1.025,4.932,1.613,7.382.6,2.468,1.2,4.931,1.887,7.344.67,2.415,1.4,4.793,2.222,7.061a39.151,39.151,0,0,0,2.741,6.222,12.751,12.751,0,0,0,1.437,2.106c.2.229.362.37.4.419.005.014-.014.093.214.164a5.851,5.851,0,0,0,2.177.273,24.393,24.393,0,0,0,3.182-.342,94.239,94.239,0,0,0,14.249-4.193l3.128,5.329a54.157,54.157,0,0,1-14.75,8.424,26.462,26.462,0,0,1-4.576,1.237,16.649,16.649,0,0,1-5.709.089,11.764,11.764,0,0,1-3.492-1.187,13.975,13.975,0,0,1-2.738-1.982,22.664,22.664,0,0,1-3.444-4.112c-3.459-5.419-5.284-10.664-6.995-15.977-.809-2.655-1.55-5.3-2.166-7.975-.629-2.693-1.208-5.285-1.668-8.123Z" transform="translate(8.499 6.431)" fill="#ffc3bd"/>
            <path id="Trazado_237770" data-name="Trazado 237770" d="M108.782,83.886c-6.686,13.444,9.2,28.638,9.2,28.638l17.708-9.247s-1.872-11.477-6.049-20.76c-5.161-11.467-17.011-6.363-20.857,1.37" transform="translate(7.982 5.647)" fill="#263238"/>
            <path id="Trazado_237771" data-name="Trazado 237771" d="M152.028,111.945,158.034,108l2.5,8.985s-2.7,3.143-7.613-.285Z" transform="translate(11.326 8.046)" fill="#ffc3bd"/>
            <path id="Trazado_237772" data-name="Trazado 237772" d="M162.849,111.652l-.191,1.885a3.558,3.558,0,0,1-1.227,2.345L160.115,117l-2.5-8.985.769-.2a3.583,3.583,0,0,1,4.462,3.831" transform="translate(11.742 8.024)" fill="#ffc3bd"/>
          </g>
        </g>
      </g>
    </g>
  </g>
</svg>
