<svg xmlns="http://www.w3.org/2000/svg" xmlns:xlink="http://www.w3.org/1999/xlink" width="81.507" height="81.332" viewBox="0 0 81.507 81.332">
  <defs>
    <clipPath id="clip-path">
      <rect id="Rectángulo_314410" data-name="Rectángulo 314410" width="81.507" height="81.332" fill="none"/>
    </clipPath>
  </defs>
  <g id="Grupo_242663" data-name="Grupo 242663" transform="translate(-262 -1464.668)">
    <g id="Grupo_239904" data-name="Grupo 239904" transform="translate(262 1464.668)">
      <g id="Grupo_239903" data-name="Grupo 239903" clip-path="url(#clip-path)">
        <path id="Trazado_237566" data-name="Trazado 237566" d="M281.928,210.023H258.734a5.223,5.223,0,0,0-.236-.813c-1.054-2.239-2.135-4.466-3.182-6.709-.931-2-1.752-4.046-2.758-6a6.422,6.422,0,0,1,.419-7.163,31.272,31.272,0,0,1,2.566-3.542c.175,1.175-.055,2.222.171,3.245.154.7.543,1.2,1.252,1.2a1.585,1.585,0,0,0,1.736-1.409c.05-.548.081-1.1.081-1.649q.007-13.151,0-26.3c0-.349.027-.7.017-1.048a1.812,1.812,0,0,1,1.612-1.9,2.159,2.159,0,0,1,2.659,1.461,4.4,4.4,0,0,1,.137,1.285q-.006,10.966,0,21.932c0,.349,0,.7.025,1.047a1.452,1.452,0,0,0,1.653,1.37,2.084,2.084,0,0,0,1.5-1.615c0-2.5.048-5.011-.015-7.514a2.069,2.069,0,0,1,2.041-2.063,2.266,2.266,0,0,1,2.353,2.486c.017,2.418,0,4.835.027,7.252a1.423,1.423,0,0,0,2.04,1.291,1.644,1.644,0,0,0,1.119-1.781c0-2.184,0-4.369,0-6.554a5.854,5.854,0,0,1,.108-1.211,1.734,1.734,0,0,1,1.132-1.29,2.279,2.279,0,0,1,3.144,2.153c-.019,2.185-.01,4.369,0,6.554a5.1,5.1,0,0,0,.121,1.206,1.393,1.393,0,0,0,2.024.914,1.851,1.851,0,0,0,1.042-1.885c.024-1.455.044-2.911.033-4.367a1.794,1.794,0,0,1,1.091-1.762,2.708,2.708,0,0,1,2.793.621,3.953,3.953,0,0,1,.489,2.393c.042,3.961.145,7.929-.045,11.881-.073,1.523.231,3.056-.228,4.6-.59,1.986-.749,4.073-1.383,6.079-.8,2.528-1.666,5.04-2.355,7.6" transform="translate(-207.653 -130.272)" fill="#fccd9d"/>
        <path id="Trazado_237567" data-name="Trazado 237567" d="M266.424,79.825c.689-2.564,1.556-5.076,2.355-7.6.634-2.006.794-4.093,1.383-6.079.46-1.548.155-3.081.228-4.6.19-3.952.087-7.92.045-11.881a3.954,3.954,0,0,0-.489-2.393,2.708,2.708,0,0,0-2.793-.621,1.794,1.794,0,0,0-1.091,1.762c.012,1.456-.009,2.911-.033,4.367a1.851,1.851,0,0,1-1.042,1.885,1.393,1.393,0,0,1-2.024-.914,5.094,5.094,0,0,1-.121-1.206c-.011-2.184-.021-4.369,0-6.554A2.279,2.279,0,0,0,259.7,43.83a1.734,1.734,0,0,0-1.132,1.29,5.862,5.862,0,0,0-.108,1.211c0,2.185,0,4.369,0,6.554a1.644,1.644,0,0,1-1.119,1.781,1.423,1.423,0,0,1-2.04-1.291c-.032-2.417-.01-4.835-.027-7.252a2.266,2.266,0,0,0-2.353-2.486,2.068,2.068,0,0,0-2.041,2.063c.063,2.5.013,5.009.015,7.514a2.084,2.084,0,0,1-1.5,1.615,1.452,1.452,0,0,1-1.653-1.37c-.03-.347-.025-.7-.025-1.047q0-10.966,0-21.932a4.4,4.4,0,0,0-.137-1.285,2.159,2.159,0,0,0-2.659-1.461,1.812,1.812,0,0,0-1.612,1.9c.01.349-.018.7-.018,1.048q0,13.151,0,26.3c0,.55-.031,1.1-.082,1.649a1.585,1.585,0,0,1-1.736,1.409c-.709.007-1.1-.5-1.252-1.2-.227-1.023,0-2.071-.171-3.245a31.268,31.268,0,0,0-2.566,3.542,6.422,6.422,0,0,0-.419,7.163c1.006,1.956,1.827,4.007,2.758,6,1.046,2.243,2.128,4.47,3.182,6.709a5.222,5.222,0,0,1,.236.813,1.6,1.6,0,0,1-1.361,1.546,1.541,1.541,0,0,1-1.76-1.063c-2.065-4.383-4.1-8.782-6.2-13.147a10.481,10.481,0,0,1-.8-3.4c-.357-2.916.834-5.291,2.491-7.555,1.458-1.993,2.8-4.073,4.219-6.092a1.529,1.529,0,0,0,.286-.957c0-4.049-.013-8.1.009-12.145,0-.552-.113-.774-.707-.727-.665.053-1.347-.067-2.007.013-2.006.245-4.513-2.237-4.511-4.488.007-8.97.019-17.941-.018-26.911a4.9,4.9,0,0,1,4.8-4.781C242.857.089,248.042.1,253.226.1c3.524,0,7.049-.035,10.572.014a5.064,5.064,0,0,1,4.582,2.357,5.335,5.335,0,0,1,.789,2.842c0,1.747-.057,3.5.017,5.242.059,1.387-.111,2.558-1.649,3.036A1.692,1.692,0,0,1,265.97,11.8c-.01-2.1.044-4.2-.021-6.291-.052-1.665-.663-2.224-2.185-2.23-8.563-.032-17.127-.016-25.69-.015a1.821,1.821,0,0,0-2.036,2.061q.043,13.02,0,26.04a1.668,1.668,0,0,0,.3.963,3.723,3.723,0,0,0,3.331.792c.86-.3.311-1.111.425-1.681a8.034,8.034,0,0,0,.017-1.133,8.707,8.707,0,0,1,.283-2.5,5.554,5.554,0,0,1,6.271-3.225,5.335,5.335,0,0,1,4.088,4.326,23.426,23.426,0,0,1,.115,3.379c0,.653.129.881.845.874,3.99-.039,7.982-.077,11.97.013a2.1,2.1,0,0,0,2.279-2.276q.009-3.015,0-6.029c-.005-1.242.309-1.6,1.577-1.744a1.427,1.427,0,0,1,1.59,1.516,61.044,61.044,0,0,1-.045,7.241,4.97,4.97,0,0,1-5.064,4.438c-4.075-.09-8.153,0-12.229-.047-.81-.01-.957.237-.92.965.061,1.187.016,2.379.016,3.63a5.491,5.491,0,0,1,5.52.847c.3.242.485.167.748-.051a5.427,5.427,0,0,1,8.165,1.654c.277.578.593.451.989.292a5.261,5.261,0,0,1,5.765,1.253,5.115,5.115,0,0,1,1.537,3.858c.026,4.28.094,8.563-.014,12.841a40.931,40.931,0,0,1-2.23,13.059c-.642,1.768-1.145,3.588-1.688,5.391a1.707,1.707,0,0,1-1.633,1.372c-.908.045-1.313-.533-1.477-1.346-.015-.077-.094-.141-.144-.211" transform="translate(-192.149 -0.074)"/>
        <path id="Trazado_237568" data-name="Trazado 237568" d="M37.825,49.681l-3.2-.01a1.452,1.452,0,0,0-.952-1.392c-1.207-.4-1.965.057-2.316,1.4H28.266a1.668,1.668,0,0,0-1.9-1.576c-2.126-.012-4.253,0-6.38-.006a1.72,1.72,0,0,1-1.87-1.865q0-12.847,0-25.693c0-1.734.589-2.316,2.347-2.316q12.628,0,25.257,0c1.639,0,2.307.675,2.307,2.332q0,9.395,0,18.789c0,2.3,0,4.6-.043,6.9A1.783,1.783,0,0,1,46.036,48.1c-1.835,0-3.674.072-5.5-.023-1.327-.069-2.3.226-2.707,1.6M40.112,27.6a1.177,1.177,0,0,0-.858-1.421,1.54,1.54,0,0,0-1.754.329c-1.272,1.282-2.575,2.535-3.823,3.84-.469.49-.766.538-1.259.017-1.241-1.311-2.532-2.576-3.825-3.837a1.626,1.626,0,0,0-2.26-.053,1.337,1.337,0,0,0-.123,2.056,6.576,6.576,0,0,0,.671.793c1.147,1.16,2.309,2.306,3.453,3.469.156.159.57.377.238.6a12.167,12.167,0,0,0-1.636,1.646,21.6,21.6,0,0,0-2.684,2.692c-.659.946-.613,1.5.217,2.244a1.452,1.452,0,0,0,2.172-.233q1.938-1.922,3.862-3.859c.287-.289.593-.6.911-.125.586.882,1.533,1.387,2.175,2.226a12.823,12.823,0,0,0,2.048,1.964,1.482,1.482,0,0,0,2.228-.246,1.648,1.648,0,0,0-.194-2.107c-1.271-1.283-2.536-2.573-3.835-3.827-.458-.442-.495-.748-.016-1.209,1.3-1.252,2.552-2.557,3.842-3.82a1.143,1.143,0,0,0,.45-1.14" transform="translate(-14.948 -15.036)" fill="#ff5d5d"/>
        <path id="Trazado_237569" data-name="Trazado 237569" d="M282.446,38.067c-1.268.143-1.582.5-1.577,1.744q.012,3.015,0,6.029a2.1,2.1,0,0,1-2.279,2.276c-3.988-.09-7.98-.052-11.97-.013-.716.007-.843-.221-.845-.874a23.405,23.405,0,0,0-.115-3.379,5.335,5.335,0,0,0-4.089-4.326,5.554,5.554,0,0,0-6.271,3.225,8.719,8.719,0,0,0-.283,2.5A8.025,8.025,0,0,1,255,46.383c-.114.57.435,1.376-.425,1.681a3.723,3.723,0,0,1-3.331-.792,1.668,1.668,0,0,1-.3-.963q.019-13.02,0-26.04a1.821,1.821,0,0,1,2.036-2.061c8.563,0,17.127-.017,25.69.015,1.522.006,2.134.565,2.185,2.23.065,2.1.011,4.194.021,6.291a1.692,1.692,0,0,0,1.567,1.795q0,1.543,0,3.087c-1.22.218-1.59.556-1.609,1.467-.02.947.51,1.521,1.609,1.741q0,1.617,0,3.234M260.719,29.7c-.542.073-.9-.059-1.233.281a1.49,1.49,0,0,0,.053,2.334c1.39,1.409,2.8,2.8,4.2,4.2a1.744,1.744,0,0,0,2.516.128c.6-.657,1.34-1.194,1.871-1.876a29.284,29.284,0,0,1,2.653-2.68c1.475-1.465,3.021-2.857,4.379-4.439a1.654,1.654,0,0,0,.029-2.241,2.371,2.371,0,0,0-2.249.074c-1.862,1.71-3.607,3.537-5.393,5.324-.7.7-1.382,1.451-2.145,2.107-.372.32-.575.312-.907-.04-.819-.868-1.7-1.682-2.522-2.542-.4-.42-.809-.754-1.25-.63" transform="translate(-207.056 -15.019)" fill="#72d8ff"/>
        <path id="Trazado_237570" data-name="Trazado 237570" d="M22.877,34.644c.405-1.377,1.38-1.672,2.707-1.6,1.83.1,3.669.026,5.5.023a1.783,1.783,0,0,0,1.948-1.853c.045-2.3.041-4.6.043-6.9q.007-9.395,0-18.789c0-1.656-.668-2.331-2.307-2.331q-12.628,0-25.256,0c-1.758,0-2.347.582-2.347,2.316q0,12.847,0,25.693a1.72,1.72,0,0,0,1.87,1.865c2.127.007,4.253-.006,6.38.006a1.668,1.668,0,0,1,1.9,1.576c-.2,1.065-.566,1.286-1.574,1.419-2.429.322-4.862.027-7.287.156-1.806.1-3.834-1.759-4.264-3.38A5.526,5.526,0,0,1,0,31.4Q.016,18.038.013,4.671A4.648,4.648,0,0,1,4.5.076Q17.822-.059,31.145.062c3.132.033,5.128,2.076,5.134,5.322q.024,12.493,0,24.985a5.655,5.655,0,0,1-1.825,4.7,4.4,4.4,0,0,1-2.837,1.138c-2.3.025-4.6.011-6.9.009-1.148,0-1.608-.4-1.843-1.574" transform="translate(0 0)"/>
        <path id="Trazado_237571" data-name="Trazado 237571" d="M423.463,98.154c-1.1-.221-1.629-.794-1.609-1.741.019-.911.39-1.249,1.609-1.467A1.584,1.584,0,0,1,425,96.25c.08,1.007-.408,1.613-1.534,1.9" transform="translate(-348.074 -78.341)"/>
        <path id="Trazado_237572" data-name="Trazado 237572" d="M93.827,190.812c.351-1.345,1.109-1.8,2.316-1.4A1.452,1.452,0,0,1,97.1,190.8c-.178.958-.691,1.53-1.417,1.578-.987.065-1.271-.164-1.7-1.364a.893.893,0,0,0-.149-.2" transform="translate(-77.417 -156.168)"/>
        <path id="Trazado_237573" data-name="Trazado 237573" d="M76.314,64.508a1.143,1.143,0,0,1-.45,1.14c-1.29,1.264-2.54,2.568-3.842,3.82-.479.461-.442.767.016,1.209,1.3,1.255,2.564,2.544,3.835,3.827a1.648,1.648,0,0,1,.194,2.107,1.482,1.482,0,0,1-2.228.246,12.825,12.825,0,0,1-2.048-1.964c-.642-.838-1.589-1.343-2.175-2.226-.318-.479-.624-.164-.911.125q-1.922,1.939-3.862,3.859a1.452,1.452,0,0,1-2.172.233c-.83-.739-.876-1.3-.217-2.244a21.6,21.6,0,0,1,2.684-2.692A12.166,12.166,0,0,1,66.774,70.3c.332-.228-.082-.446-.238-.6-1.144-1.163-2.306-2.309-3.453-3.469a6.575,6.575,0,0,1-.671-.793,1.337,1.337,0,0,1,.123-2.056,1.626,1.626,0,0,1,2.26.053c1.293,1.261,2.584,2.526,3.825,3.837.493.521.79.473,1.259-.017,1.248-1.305,2.551-2.558,3.823-3.84a1.54,1.54,0,0,1,1.754-.329,1.177,1.177,0,0,1,.858,1.421" transform="translate(-51.15 -51.941)"/>
        <path id="Trazado_237574" data-name="Trazado 237574" d="M298.481,62.528c.442-.125.847.209,1.25.63.827.861,1.7,1.675,2.522,2.542.332.352.535.359.907.04.763-.656,1.441-1.4,2.145-2.107,1.786-1.787,3.531-3.614,5.393-5.324a2.371,2.371,0,0,1,2.249-.074,1.654,1.654,0,0,1-.029,2.241c-1.358,1.583-2.9,2.974-4.379,4.439a29.294,29.294,0,0,0-2.653,2.68c-.531.682-1.267,1.219-1.871,1.876a1.744,1.744,0,0,1-2.516-.128c-1.4-1.4-2.807-2.791-4.2-4.2a1.49,1.49,0,0,1-.053-2.334c.333-.34.691-.208,1.233-.281" transform="translate(-244.818 -47.845)"/>
      </g>
    </g>
  </g>
</svg>
