<svg xmlns="http://www.w3.org/2000/svg" xmlns:xlink="http://www.w3.org/1999/xlink" width="295.333" height="448.079" viewBox="0 0 295.333 448.079">
  <defs>
    <clipPath id="clip-path">
      <rect id="Rectángulo_316005" data-name="Rectángulo 316005" width="295.333" height="448.079" fill="none"/>
    </clipPath>
    <clipPath id="clip-path-3">
      <rect id="Rectángulo_315962" data-name="Rectángulo 315962" width="145.746" height="272.892" fill="none"/>
    </clipPath>
    <clipPath id="clip-path-4">
      <rect id="Rectángulo_315963" data-name="Rectángulo 315963" width="98.856" height="44.825" fill="none"/>
    </clipPath>
    <clipPath id="clip-path-5">
      <rect id="Rectángulo_315964" data-name="Rectángulo 315964" width="123.348" height="264.741" fill="none"/>
    </clipPath>
    <clipPath id="clip-path-6">
      <rect id="Rectángulo_315965" data-name="Rectángulo 315965" width="88.011" height="199.373" fill="none"/>
    </clipPath>
    <clipPath id="clip-path-7">
      <rect id="Rectángulo_315966" data-name="Rectángulo 315966" width="91.194" height="170.586" fill="none"/>
    </clipPath>
    <clipPath id="clip-path-8">
      <rect id="Rectángulo_315967" data-name="Rectángulo 315967" width="14.471" height="12.852" fill="none"/>
    </clipPath>
    <clipPath id="clip-path-9">
      <rect id="Rectángulo_315968" data-name="Rectángulo 315968" width="12.861" height="11.344" fill="none"/>
    </clipPath>
    <clipPath id="clip-path-10">
      <rect id="Rectángulo_315969" data-name="Rectángulo 315969" width="11.35" height="11.119" fill="none"/>
    </clipPath>
    <clipPath id="clip-path-11">
      <rect id="Rectángulo_315970" data-name="Rectángulo 315970" width="3.782" height="11.805" fill="none"/>
    </clipPath>
    <clipPath id="clip-path-12">
      <rect id="Rectángulo_315971" data-name="Rectángulo 315971" width="11.833" height="80.265" fill="none"/>
    </clipPath>
    <clipPath id="clip-path-13">
      <rect id="Rectángulo_315972" data-name="Rectángulo 315972" width="101.944" height="263.589" fill="none"/>
    </clipPath>
    <clipPath id="clip-path-14">
      <rect id="Rectángulo_315973" data-name="Rectángulo 315973" width="21.022" height="30.826" fill="none"/>
    </clipPath>
    <clipPath id="clip-path-15">
      <rect id="Rectángulo_315974" data-name="Rectángulo 315974" width="20.989" height="30.807" fill="none"/>
    </clipPath>
    <clipPath id="clip-path-16">
      <rect id="Rectángulo_315975" data-name="Rectángulo 315975" width="8.226" height="7.741" fill="none"/>
    </clipPath>
    <clipPath id="clip-path-17">
      <rect id="Rectángulo_315976" data-name="Rectángulo 315976" width="7.792" height="7.357" fill="none"/>
    </clipPath>
    <clipPath id="clip-path-18">
      <rect id="Rectángulo_315977" data-name="Rectángulo 315977" width="1.657" height="1.66" fill="none"/>
    </clipPath>
    <clipPath id="clip-path-19">
      <rect id="Rectángulo_315978" data-name="Rectángulo 315978" width="2.314" height="7.59" fill="none"/>
    </clipPath>
    <clipPath id="clip-path-20">
      <rect id="Rectángulo_315979" data-name="Rectángulo 315979" width="0.902" height="0.904" fill="none"/>
    </clipPath>
    <clipPath id="clip-path-21">
      <rect id="Rectángulo_315980" data-name="Rectángulo 315980" width="1.261" height="4.132" fill="none"/>
    </clipPath>
    <clipPath id="clip-path-22">
      <rect id="Rectángulo_315985" data-name="Rectángulo 315985" width="41.152" height="42.226" fill="none"/>
    </clipPath>
    <clipPath id="clip-path-27">
      <rect id="Rectángulo_315986" data-name="Rectángulo 315986" width="23.669" height="41.7" fill="none"/>
    </clipPath>
    <clipPath id="clip-path-28">
      <rect id="Rectángulo_315987" data-name="Rectángulo 315987" width="14.633" height="6.85" fill="none"/>
    </clipPath>
    <clipPath id="clip-path-29">
      <rect id="Rectángulo_315988" data-name="Rectángulo 315988" width="15.678" height="40.454" fill="none"/>
    </clipPath>
    <clipPath id="clip-path-30">
      <rect id="Rectángulo_315989" data-name="Rectángulo 315989" width="10.938" height="30.465" fill="none"/>
    </clipPath>
    <clipPath id="clip-path-31">
      <rect id="Rectángulo_315990" data-name="Rectángulo 315990" width="3.482" height="4.345" fill="none"/>
    </clipPath>
    <clipPath id="clip-path-32">
      <rect id="Rectángulo_315991" data-name="Rectángulo 315991" width="42.464" height="40.472" fill="none"/>
    </clipPath>
    <clipPath id="clip-path-33">
      <rect id="Rectángulo_315992" data-name="Rectángulo 315992" width="14.063" height="24.775" fill="none"/>
    </clipPath>
    <clipPath id="clip-path-34">
      <rect id="Rectángulo_315993" data-name="Rectángulo 315993" width="8.694" height="4.069" fill="none"/>
    </clipPath>
    <clipPath id="clip-path-35">
      <rect id="Rectángulo_315994" data-name="Rectángulo 315994" width="9.314" height="24.035" fill="none"/>
    </clipPath>
    <clipPath id="clip-path-36">
      <rect id="Rectángulo_315995" data-name="Rectángulo 315995" width="6.498" height="18.101" fill="none"/>
    </clipPath>
    <clipPath id="clip-path-37">
      <rect id="Rectángulo_315996" data-name="Rectángulo 315996" width="2.069" height="2.581" fill="none"/>
    </clipPath>
    <clipPath id="clip-path-38">
      <rect id="Rectángulo_315997" data-name="Rectángulo 315997" width="25.229" height="24.046" fill="none"/>
    </clipPath>
    <clipPath id="clip-path-39">
      <rect id="Rectángulo_315998" data-name="Rectángulo 315998" width="13.679" height="24.1" fill="none"/>
    </clipPath>
    <clipPath id="clip-path-40">
      <rect id="Rectángulo_315999" data-name="Rectángulo 315999" width="8.457" height="3.958" fill="none"/>
    </clipPath>
    <clipPath id="clip-path-41">
      <rect id="Rectángulo_316000" data-name="Rectángulo 316000" width="9.06" height="23.38" fill="none"/>
    </clipPath>
    <clipPath id="clip-path-42">
      <rect id="Rectángulo_316001" data-name="Rectángulo 316001" width="6.321" height="17.608" fill="none"/>
    </clipPath>
    <clipPath id="clip-path-43">
      <rect id="Rectángulo_316002" data-name="Rectángulo 316002" width="2.012" height="2.511" fill="none"/>
    </clipPath>
    <clipPath id="clip-path-44">
      <rect id="Rectángulo_316003" data-name="Rectángulo 316003" width="24.541" height="23.391" fill="none"/>
    </clipPath>
  </defs>
  <g id="Grupo_242670" data-name="Grupo 242670" transform="translate(-967.333 -451.921)">
    <g id="Grupo_242594" data-name="Grupo 242594" transform="translate(967.333 451.921)">
      <g id="Grupo_242593" data-name="Grupo 242593" clip-path="url(#clip-path)">
        <g id="Grupo_242592" data-name="Grupo 242592">
          <g id="Grupo_242591" data-name="Grupo 242591" clip-path="url(#clip-path)">
            <path id="Trazado_241021" data-name="Trazado 241021" d="M283.741,217.72l-51.6,46.351L216.187,278.4a6.259,6.259,0,0,0-2.108,5.1l1.158,24.475,3.158,66.967c.394,4.706-4.865,8.3-8.9,6.071L191.05,370.775l-26.981-14.99-19.842-11.016,19.864,10.951L191.115,370.6l3.877,2.139c4.034,2.229,9.293-1.366,8.9-6.072l-2.013-24v-.008l-5.184-61.67a6.245,6.245,0,0,1,2.1-5.109l44.027-39.547,23.526-21.126c3.714-3.333,2.339-9.149-2.333-9.832l-8.772-1.292-26.162-3.85-49.994-7.364a5.12,5.12,0,0,1-4.067-3.15L164.7,164.31V164.3l-4.678-11.509-6.416-15.8H153.6l-2.545-6.261v-.009l-4.189-10.325-3.5-8.621a4.988,4.988,0,0,0-3.244-2.97l15.431,2.279,2.25.329.5.486,2.456,2.385,7.567,18.651,1.435,3.529,2.9,7.149,19.744,48.622a5.146,5.146,0,0,0,4.067,3.159l32.619,4.8,26.163,3.851,26.146,3.851c4.67.682,6.045,6.5,2.332,9.831" transform="translate(9.463 7.347)" fill="#b3009d"/>
            <g id="Grupo_242467" data-name="Grupo 242467" transform="translate(149.588 116.151)" opacity="0.5">
              <g id="Grupo_242466" data-name="Grupo 242466">
                <g id="Grupo_242465" data-name="Grupo 242465" clip-path="url(#clip-path-3)">
                  <path id="Trazado_241022" data-name="Trazado 241022" d="M283.741,217.72l-51.6,46.351L216.187,278.4a6.259,6.259,0,0,0-2.108,5.1l1.158,24.475,3.158,66.967c.394,4.706-4.865,8.3-8.9,6.071L191.05,370.775l-26.981-14.99-19.842-11.016,19.864,10.951L191.115,370.6l3.877,2.139c4.034,2.229,9.293-1.366,8.9-6.072l-2.013-24v-.008l-5.184-61.67a6.245,6.245,0,0,1,2.1-5.109l44.027-39.547,23.526-21.126c3.714-3.333,2.339-9.149-2.333-9.832l-8.772-1.292-26.162-3.85-49.994-7.364a5.12,5.12,0,0,1-4.067-3.15L164.7,164.31V164.3l-4.678-11.509-6.416-15.8H153.6l-2.545-6.261v-.009l-4.189-10.325-3.5-8.621a4.988,4.988,0,0,0-3.244-2.97l15.431,2.279,2.25.329.5.486,2.456,2.385,7.567,18.651,1.435,3.529,2.9,7.149,19.744,48.622a5.146,5.146,0,0,0,4.067,3.159l32.619,4.8,26.163,3.851,26.146,3.851c4.67.682,6.045,6.5,2.332,9.831" transform="translate(-140.125 -108.803)"/>
                </g>
              </g>
            </g>
            <path id="Trazado_241023" data-name="Trazado 241023" d="M156.69,111.247h0Z" transform="translate(10.581 7.512)" fill="#1a2e35"/>
            <path id="Trazado_241024" data-name="Trazado 241024" d="M159.646,114.118l-2.957-2.871a4.986,4.986,0,0,1,2.957,2.871" transform="translate(10.581 7.513)" fill="#1a2e35"/>
            <path id="Trazado_241025" data-name="Trazado 241025" d="M154.581,110.939a5.633,5.633,0,0,1,2.247.329Z" transform="translate(10.439 7.491)" fill="#1a2e35"/>
            <path id="Trazado_241026" data-name="Trazado 241026" d="M138.818,323.969,96.325,345.317v.009L76.2,355.438l-12.555,6.31c-.085.041-.171.082-.256.114a8.291,8.291,0,0,1-5.724-.025l-.335.164-17.363-2.673.01-.017a6.033,6.033,0,0,0,2.534-.666l9.93-4.985,17.495-8.794,9.122-4.583,4.406-2.213,19.423-9.766,20.1-10.1a5.742,5.742,0,0,1,5.373,0Z" transform="translate(2.699 21.443)" fill="#b3009d"/>
            <g id="Grupo_242470" data-name="Grupo 242470" transform="translate(42.661 338.978)" opacity="0.5">
              <g id="Grupo_242469" data-name="Grupo 242469">
                <g id="Grupo_242468" data-name="Grupo 242468" clip-path="url(#clip-path-4)">
                  <path id="Trazado_241027" data-name="Trazado 241027" d="M138.818,323.969,96.325,345.317v.009L76.2,355.438l-12.555,6.31c-.085.041-.171.082-.256.114a8.291,8.291,0,0,1-5.724-.025l-.335.164-17.363-2.673.01-.017a6.033,6.033,0,0,0,2.534-.666l9.93-4.985,17.495-8.794,9.122-4.583,4.406-2.213,19.423-9.766,20.1-10.1a5.742,5.742,0,0,1,5.373,0Z" transform="translate(-39.962 -317.535)"/>
                </g>
              </g>
            </g>
            <path id="Trazado_241028" data-name="Trazado 241028" d="M153.708,137,145.88,122.3l-7.3-13.723h.009l1.641.247a4.993,4.993,0,0,1,3.244,2.97l3.5,8.622Z" transform="translate(9.358 7.332)" fill="#1a2e35"/>
            <path id="Trazado_241029" data-name="Trazado 241029" d="M79.052,339.715,52.435,353.092l-9.93,4.985a6.033,6.033,0,0,1-2.534.666l17.72-32.8,1.518.979Z" transform="translate(2.699 22.011)" fill="#1a2e35"/>
            <path id="Trazado_241030" data-name="Trazado 241030" d="M275.809,215.227l-23.526,21.126v.009L208.256,275.9a6.245,6.245,0,0,0-2.1,5.109l5.185,61.669v.009l2.013,24c.395,4.706-4.864,8.3-8.9,6.071l-3.877-2.139-27.022-14.882-19.865-10.95-.4-.222-11.774-6.483-10.462-5.767a5.739,5.739,0,0,0-5.372,0l-20.1,10.1-19.423,9.766-4.406,2.213-9.121,4.583-17.5,8.794-9.93,4.985a6.033,6.033,0,0,1-2.534.666,5.244,5.244,0,0,1-5.3-6.737l1.33-5.151L59.559,281.01a5.422,5.422,0,0,0-1.206-5.109L1.407,215.227c-3.124-3.332-.73-9.149,4.06-9.831l87.116-12.505A6.451,6.451,0,0,0,97.2,189.74l45.289-77.951a6.66,6.66,0,0,1,1.246-1.546,6.18,6.18,0,0,1,2.906-1.522,5.778,5.778,0,0,1,1.3-.148h.007a4.962,4.962,0,0,1,1.1.115,4.069,4.069,0,0,1,.54.131,4.993,4.993,0,0,1,3.244,2.97l3.5,8.622,4.189,10.333L163.065,137h.009l6.416,15.8,4.678,11.51v.007l10.314,25.414a5.123,5.123,0,0,0,4.067,3.151l49.994,7.363L264.7,204.1l8.772,1.292c4.672.682,6.046,6.5,2.333,9.831" transform="translate(0 7.332)" fill="#b3009d"/>
            <g id="Grupo_242473" data-name="Grupo 242473" transform="translate(37.173 116.019)" opacity="0.4">
              <g id="Grupo_242472" data-name="Grupo 242472">
                <g id="Grupo_242471" data-name="Grupo 242471" clip-path="url(#clip-path-5)">
                  <path id="Trazado_241031" data-name="Trazado 241031" d="M158.169,130.736l-.331.864L73.505,350.586l-3.226,8.383-17.495,8.8-9.93,4.985a6.037,6.037,0,0,1-2.534.666,5.246,5.246,0,0,1-5.3-6.738l1.33-5.15L141.386,110.234a6.178,6.178,0,0,1,2.906-1.521l1.366-.017.717-.016h.321a3.932,3.932,0,0,1,.539.131,4.992,4.992,0,0,1,3.245,2.97l3.5,8.621Z" transform="translate(-34.821 -108.68)" fill="#fff"/>
                </g>
              </g>
            </g>
            <g id="Grupo_242476" data-name="Grupo 242476" transform="translate(86.158 160.14)" opacity="0.2">
              <g id="Grupo_242475" data-name="Grupo 242475">
                <g id="Grupo_242474" data-name="Grupo 242474" clip-path="url(#clip-path-6)">
                  <path id="Trazado_241032" data-name="Trazado 241032" d="M168.718,161.52v.009L100.131,339.617l-19.423,9.766L164.04,150.011Z" transform="translate(-80.708 -150.01)" fill="#fff"/>
                </g>
              </g>
            </g>
            <g id="Grupo_242479" data-name="Grupo 242479" transform="translate(173.532 207.536)" opacity="0.3">
              <g id="Grupo_242478" data-name="Grupo 242478">
                <g id="Grupo_242477" data-name="Grupo 242477" clip-path="url(#clip-path-7)">
                  <path id="Trazado_241033" data-name="Trazado 241033" d="M253.749,198.258l-.021.049-12.422,32.25v.009L197.279,270.1a6.245,6.245,0,0,0-2.1,5.109l5.185,61.669v.009L189.6,364.821l-.065.173L162.555,350l.022-.065,64.988-155.482.02-.05Z" transform="translate(-162.555 -194.408)" fill="#fff"/>
                </g>
              </g>
            </g>
            <path id="Trazado_241034" data-name="Trazado 241034" d="M39.867,398.008l9.981,2.163,6.933-17.765-11.653-5.18Z" transform="translate(2.692 25.474)" fill="#ffb570"/>
            <g id="Grupo_242482" data-name="Grupo 242482" transform="translate(45.002 403.537)" opacity="0.1">
              <g id="Grupo_242481" data-name="Grupo 242481">
                <g id="Grupo_242480" data-name="Grupo 242480" clip-path="url(#clip-path-8)">
                  <path id="Trazado_241035" data-name="Trazado 241035" d="M42.155,388.3l2.6-10.292,5.376,1.458,6.49,2.885-3.32,8.508Z" transform="translate(-42.155 -378.01)"/>
                </g>
              </g>
            </g>
            <path id="Trazado_241036" data-name="Trazado 241036" d="M37.231,395.938c-.046-.046-.412-.412-.962-.885-.4-.336-.87-.733-1.39-1.115a6.8,6.8,0,0,0-3.4-1.574,1.544,1.544,0,0,0-1.054.412A1.1,1.1,0,0,0,30.07,394c.32.748,1.756,1.42,3.222,1.817.335.076.657.153.992.23a23.328,23.328,0,0,0,2.719.4h.015a.274.274,0,0,0,.259-.183.28.28,0,0,0-.046-.321M35,395.618c-2-.382-4.108-1.069-4.4-1.833-.046-.107-.076-.305.23-.595a.823.823,0,0,1,.642-.244,2.3,2.3,0,0,1,.565.076A12.709,12.709,0,0,1,35.6,395.3c.2.153.4.335.595.519-.381-.046-.778-.122-1.19-.2" transform="translate(2.026 26.497)" fill="#b3009d"/>
            <path id="Trazado_241037" data-name="Trazado 241037" d="M36.464,391.322a2.146,2.146,0,0,0-1.42-.886c-.794-.138-1.131.2-1.253.5-.32.673.154,1.94.84,3.131a13.96,13.96,0,0,0,.886,1.3,8.122,8.122,0,0,0,1.069,1.144.174.174,0,0,0,.123.046c.015,0,.03.016.046.016h.015a.221.221,0,0,0,.138.015.289.289,0,0,0,.183-.214,10.883,10.883,0,0,0,.123-1.329,6.242,6.242,0,0,0-.748-3.726m.107,4.321c-.138-.153-.29-.305-.428-.489-1.1-1.313-2.107-3.344-1.847-4.031.03-.061.122-.259.641-.168l.153.061a1.582,1.582,0,0,1,.871.6,6.666,6.666,0,0,1,.671,3.466c-.015.183-.03.366-.061.565" transform="translate(2.275 26.364)" fill="#b3009d"/>
            <path id="Trazado_241038" data-name="Trazado 241038" d="M39.391,394.943l12.875,3.417a1.072,1.072,0,0,1,.8,1.078L52.61,410.53a1.783,1.783,0,0,1-1.841,1.723,1.761,1.761,0,0,1-.374-.053c-4.62-1.312-8.68-2.661-14.461-4.187-6.819-1.807-5.306-.533-13.353-2.546-4.847-1.218-4.274-6.943-2.154-6.67,9.687,1.308,11.412-1.264,15.918-3.661a4.293,4.293,0,0,1,3.046-.193" transform="translate(1.273 26.658)" fill="#1a2e35"/>
            <path id="Trazado_241039" data-name="Trazado 241039" d="M107.677,409.4H117.89l3.014-18.83-12.487-2.6Z" transform="translate(7.271 26.2)" fill="#ffb570"/>
            <g id="Grupo_242485" data-name="Grupo 242485" transform="translate(115.315 414.172)" opacity="0.1">
              <g id="Grupo_242484" data-name="Grupo 242484">
                <g id="Grupo_242483" data-name="Grupo 242483" clip-path="url(#clip-path-9)">
                  <path id="Trazado_241040" data-name="Trazado 241040" d="M108.394,387.973l12.487,2.6-1.4,8.748-11.46-.522Z" transform="translate(-108.02 -387.973)"/>
                </g>
              </g>
            </g>
            <path id="Trazado_241041" data-name="Trazado 241041" d="M104.987,407.328c-.061-.031-.5-.29-1.16-.612-.443-.214-.993-.458-1.588-.686a6.719,6.719,0,0,0-3.757-.642,1.438,1.438,0,0,0-.9.671,1.1,1.1,0,0,0-.015,1.268c.5.641,2.077.916,3.588.9.336,0,.673-.015,1.009-.03a22.512,22.512,0,0,0,2.687-.336h.046a.337.337,0,0,0,.23-.244.316.316,0,0,0-.138-.289m-2.245.274c-2.03.153-4.23.031-4.7-.626-.092-.092-.169-.26.045-.627a.827.827,0,0,1,.566-.412,2.261,2.261,0,0,1,.55-.077,12.917,12.917,0,0,1,4.031,1.268,4.327,4.327,0,0,1,.717.351c-.381.045-.794.091-1.206.122" transform="translate(6.576 27.37)" fill="#b3009d"/>
            <path id="Trazado_241042" data-name="Trazado 241042" d="M104.969,407.771a11.2,11.2,0,0,0-.214-1.313,6.472,6.472,0,0,0-1.71-3.405,2.1,2.1,0,0,0-1.6-.473c-.809.076-1.054.473-1.085.809-.138.748.671,1.863,1.68,2.825a9.436,9.436,0,0,0,1.145.978,6.764,6.764,0,0,0,1.343.84.167.167,0,0,0,.123.015h.046l0,0a.238.238,0,0,0,.148-.012.29.29,0,0,0,.122-.26m-4.077-4.336c.015-.077.061-.274.58-.336l.154.016a1.519,1.519,0,0,1,1.008.366,6.752,6.752,0,0,1,1.542,3.161,3.9,3.9,0,0,1,.092.565c-.168-.107-.351-.228-.535-.351-1.4-.993-2.9-2.687-2.84-3.42" transform="translate(6.776 27.185)" fill="#b3009d"/>
            <path id="Trazado_241043" data-name="Trazado 241043" d="M106.732,406.1l13.321-.075a1.071,1.071,0,0,1,1.052.832l2.469,10.823a1.781,1.781,0,0,1-1.7,2.192c-4.8-.056-9.074-.295-15.052-.252-7.055.042-5.26.875-13.553,1.041-5,.094-5.944-5.581-3.827-5.872,9.691-1.276,10.682-4.21,14.4-7.7a4.3,4.3,0,0,1,2.889-.985" transform="translate(5.968 27.419)" fill="#1a2e35"/>
            <path id="Trazado_241044" data-name="Trazado 241044" d="M13.446,65.247l3.3,4.124,8.192-.658L27.754,71.6,65.969,82.177C75.1,74.681,94.574,65.8,94.574,65.8c10.263,4.329,9.227,12,9.227,12S78.58,93.091,68.183,95.052C59.3,96.728,24.166,76.888,24.166,76.888l-7.954-.258A4.109,4.109,0,0,1,13.4,75.39l-2.222-2.278a4.108,4.108,0,0,1-1.151-3.237l.332-3.7a1.735,1.735,0,0,1,3.084-.929" transform="translate(0.676 4.362)" fill="#ffb570"/>
            <path id="Trazado_241045" data-name="Trazado 241045" d="M83.946,65.7,68.289,75.735,79.1,91.547,102.08,76.054s.007-.236-.014-.647A12.087,12.087,0,0,0,83.946,65.7" transform="translate(4.612 4.327)" fill="#1a2e35"/>
            <path id="Trazado_241046" data-name="Trazado 241046" d="M168.178,81.649c3.7-1.649,6.673-5.253,6.8-9.3s-3.161-8.139-7.208-8.169c-4.046-.046-7.512,4.794-5.634,8.367a4.546,4.546,0,0,0,3.68,2.26v.016c-4,.519-5.131-1.543-6.245-4.764s-.412-6.826.932-9.957,3.344-5.925,5.008-8.9c5.528-9.865,7.254-22.356,2.337-32.526-4.9-10.185-17.331-16.843-28.051-13.24a23.77,23.77,0,0,0-4.383,2c-2.534,1.42-4.978,3.405-5.4,5.543a.347.347,0,0,0-.031.122,2.387,2.387,0,0,0-.031.733c.077,3.573,4.841,7.193,7.254,8.872,2.871,1.986,6.017,3.97,7.955,6.765a10.014,10.014,0,0,1,1.222,2.336c1.771,4.856-.673,10.185-3.466,14.538s-6.108,8.8-6.246,13.957c-.153,6.933-.517,23.095,24.066,24.433,5.15.28,11.071-1.191,12.9-5.986a5.036,5.036,0,0,1-5.452,2.9m-3.893-8.765a1.06,1.06,0,0,1,1.206.55,8.725,8.725,0,0,1-1.206-.55" transform="translate(8.774 0.3)" fill="#1a2e35"/>
            <path id="Trazado_241047" data-name="Trazado 241047" d="M136.539,150.684,149.8,74.272a5.028,5.028,0,0,0-4.572-5.853s-21.562-3.462-28.812-4.041c-5.5-.439-18.561-.579-26.289-.623L89.478,69.2c-4.819,11.982-5.28,30.084-3.472,43.1l.3,2.164L83.561,152.6v10.426h51.56Z" transform="translate(5.643 4.305)" fill="#1a2e35"/>
            <path id="Trazado_241048" data-name="Trazado 241048" d="M104.431,66.187c7.792-1.323,9.249-7.779,8.649-13.685l16.539-10.437c-2.315,6.615-5.354,18.229-2.855,24.943,0,0,.082,6.418-14.177,6.418s-8.157-7.239-8.157-7.239" transform="translate(6.965 2.841)" fill="#ffb570"/>
            <g id="Grupo_242488" data-name="Grupo 242488" transform="translate(120.045 48.416)" opacity="0.2" style="isolation: isolate">
              <g id="Grupo_242487" data-name="Grupo 242487">
                <g id="Grupo_242486" data-name="Grupo 242486" clip-path="url(#clip-path-10)">
                  <path id="Trazado_241049" data-name="Trazado 241049" d="M112.451,52.28l10.977-6.926a5.731,5.731,0,0,1-.446,4.949c-1.949,3.674-6.816,6.017-10.512,6.17a20.7,20.7,0,0,0-.019-4.193" transform="translate(-112.451 -45.353)"/>
                </g>
              </g>
            </g>
            <path id="Trazado_241050" data-name="Trazado 241050" d="M136.278,30.549c-3.175,11.337-4.47,18.123-11.541,22.755-10.629,6.99-23.669-1.362-23.928-13.38-.232-10.9,5.014-27.553,17.236-29.692a16.038,16.038,0,0,1,18.232,20.317" transform="translate(6.807 0.674)" fill="#ffb570"/>
            <path id="Trazado_241051" data-name="Trazado 241051" d="M116.677,28.847c-.2.94-.858,1.594-1.472,1.458s-.939-.995-.736-1.935.858-1.58,1.472-1.444.94.995.736,1.922" transform="translate(7.726 1.817)" fill="#1a2e35"/>
            <path id="Trazado_241052" data-name="Trazado 241052" d="M106.785,26.716c-.2.927-.858,1.581-1.472,1.444s-.939-.995-.736-1.922.858-1.594,1.472-1.458.939.995.736,1.935" transform="translate(7.058 1.672)" fill="#1a2e35"/>
            <path id="Trazado_241053" data-name="Trazado 241053" d="M110.633,27.716a34.063,34.063,0,0,1-6.2,7.018c1.363,1.908,4.293,1.812,4.293,1.812Z" transform="translate(7.052 1.872)" fill="#ff8935"/>
            <path id="Trazado_241054" data-name="Trazado 241054" d="M121.08,25.606a.717.717,0,0,0,.286,0,.585.585,0,0,0,.272-.749,5.64,5.64,0,0,0-3.979-3.229.565.565,0,1,0-.163,1.118,4.453,4.453,0,0,1,3.12,2.589.56.56,0,0,0,.463.272" transform="translate(7.902 1.46)" fill="#1a2e35"/>
            <path id="Trazado_241055" data-name="Trazado 241055" d="M103.69,21.966a.544.544,0,0,0,.49-.218,4.469,4.469,0,0,1,3.6-1.813.56.56,0,0,0,.1-1.117,5.6,5.6,0,0,0-4.62,2.248.544.544,0,0,0,.083.765l.013.011a.529.529,0,0,0,.341.123" transform="translate(6.965 1.271)" fill="#1a2e35"/>
            <path id="Trazado_241056" data-name="Trazado 241056" d="M106.212,24.948,103.978,23.8s.858,2.085,2.234,1.144" transform="translate(7.022 1.607)" fill="#1a2e35"/>
            <path id="Trazado_241057" data-name="Trazado 241057" d="M116.293,27.187l-2.234-1.144s.858,2.085,2.234,1.144" transform="translate(7.702 1.759)" fill="#1a2e35"/>
            <path id="Trazado_241058" data-name="Trazado 241058" d="M147.458,21c0,1.008-.611,1.436-1.512,1.482-2.5.168-7.223-2.414-7.223-2.414,2.107,4.734,1.252,10.293-.52,14.37-1.3,2.992-3.069,5.176-4.535,5.68a1.556,1.556,0,0,1-1.085.015c-1.6-.641-3.176.259-4.55.962-1.39.718-.169-5.054-.169-5.054-4.184-4.658-6.077-8.155-6.917-10.781a13.309,13.309,0,0,1-.489-1.848c-.642-3.42.443-4.932-1.588-5.68-3.665-1.375-3.909,9.727-6.734,5.329S115.3,14.33,115.3,14.33c-3.039-1.39-6.49,2.245-9.269,5.421-.122.168-.274.336-.4.489-.809.931-1.543,1.8-2.183,2.459-1.618,1.649-3.21,1.933-2.642-1.206C105.925-6.762,136.937,10.3,136.937,10.3s7.223-8.689,9.834-3.635c2.627,5.055-7.94,9.025-7.94,9.025s8.628,1.466,8.628,5.314" transform="translate(6.8 0.343)" fill="#1a2e35"/>
            <path id="Trazado_241059" data-name="Trazado 241059" d="M137.865,40.966a11.246,11.246,0,0,1-7.848,3.352c-3.924,0-4.851-3.747-2.889-6.908,1.757-2.835,5.927-6.269,9.442-4.77s3.815,5.7,1.295,8.326" transform="translate(8.518 2.18)" fill="#ffb570"/>
            <path id="Trazado_241060" data-name="Trazado 241060" d="M110.351,40.389a9.536,9.536,0,0,1-1.717-.149.3.3,0,0,1-.248-.345l0-.01a.3.3,0,0,1,.341-.246,8.176,8.176,0,0,0,7.072-1.976.3.3,0,1,1,.449.409,8.473,8.473,0,0,1-5.9,2.317" transform="translate(7.319 2.537)" fill="#1a2e35"/>
            <g id="Grupo_242491" data-name="Grupo 242491" transform="translate(138.699 100.064)" opacity="0.2" style="isolation: isolate">
              <g id="Grupo_242490" data-name="Grupo 242490">
                <g id="Grupo_242489" data-name="Grupo 242489" clip-path="url(#clip-path-11)">
                  <path id="Trazado_241061" data-name="Trazado 241061" d="M131.311,93.734a31.718,31.718,0,0,1,2.4,11.8l-3.781-5.39s.483-2.6,1.385-6.415" transform="translate(-129.925 -93.734)"/>
                </g>
              </g>
            </g>
            <path id="Trazado_241062" data-name="Trazado 241062" d="M86.387,145.185,41.707,394.322l16.06,5.5c12.147-32.337,21.752-61.444,29.345-87.319,3.6-12.274,5.049-23.822,7.8-34.641,3.273-12.862,7.688-24.7,9.938-35.5,11.776-56.564,10.824-84.906,10.824-84.906v-12.27Z" transform="translate(2.816 9.804)" fill="#1a2e35"/>
            <g id="Grupo_242494" data-name="Grupo 242494" transform="translate(103.031 188.028)" opacity="0.3">
              <g id="Grupo_242493" data-name="Grupo 242493">
                <g id="Grupo_242492" data-name="Grupo 242492" clip-path="url(#clip-path-12)">
                  <path id="Trazado_241063" data-name="Trazado 241063" d="M107.3,185.137l1.05,14.284c-1.6,11.407-3.9,25.022-7.2,40.851-1.07,5.14-2.636,10.522-4.33,16.128-1.989-36.232,6.3-80.267,6.3-80.267Z" transform="translate(-96.513 -176.134)"/>
                </g>
              </g>
            </g>
            <path id="Trazado_241064" data-name="Trazado 241064" d="M99.971,148.963l6.809,258.523,16.737,1.286c4.661-29.552,8.076-56.363,10.534-80.506,1.606-15.772,1.1-30.405,1.972-43.92,1.612-25.015,3.8-46.2,3.686-63.679-.291-43.083-2.759-47.8-4.278-63.665-.281-2.937,0-11.816,0-11.816H99.971Z" transform="translate(6.751 9.804)" fill="#1a2e35"/>
            <g id="Grupo_242497" data-name="Grupo 242497" transform="translate(44.526 154.992)" opacity="0.2">
              <g id="Grupo_242496" data-name="Grupo 242496">
                <g id="Grupo_242495" data-name="Grupo 242495" clip-path="url(#clip-path-13)">
                  <path id="Trazado_241065" data-name="Trazado 241065" d="M143.65,220.659c.12,17.481-2.077,38.672-3.695,63.693-.868,13.515-.358,28.136-1.974,43.914-2.451,24.137-5.872,50.962-10.537,80.51l-16.731-1.293-4.527-171.709c-.409,2.145-.869,4.34-1.328,6.587C102.61,253.17,98.184,265,94.917,277.867c-2.757,10.809-4.2,22.366-7.812,34.638-7.591,25.872-17.19,54.978-29.344,87.319l-16.05-5.5L86.389,145.188h52.97s-.272,8.884,0,11.812c1.532,15.864,4,20.579,4.29,63.659" transform="translate(-41.71 -145.187)" fill="#fff"/>
                </g>
              </g>
            </g>
            <path id="Trazado_241066" data-name="Trazado 241066" d="M125.525,387.993l-20.639-1.277v6.6l19.433,1.276Z" transform="translate(7.083 26.115)" fill="#1a2e35"/>
            <path id="Trazado_241067" data-name="Trazado 241067" d="M120.757,147.79c4.554-.226,8.271-.518,10.861-.756l.326,5.774c-2.661.243-6.422.538-11.049.766Z" transform="translate(8.155 9.929)" fill="#1a2e35"/>
            <path id="Trazado_241068" data-name="Trazado 241068" d="M95.586,153.606V147.82q3.707.168,7.23.227l.37,5.79c-2.462-.041-5-.116-7.6-.232" transform="translate(6.455 9.982)" fill="#1a2e35"/>
            <path id="Trazado_241069" data-name="Trazado 241069" d="M105.305,148.086c4.73.033,9.118-.054,13.031-.2l.385,5.772c-3.467.133-7.3.222-11.416.222-.63,0-1.28-.006-1.922-.011Z" transform="translate(7.111 9.987)" fill="#1a2e35"/>
            <path id="Trazado_241070" data-name="Trazado 241070" d="M85.2,147.111c2.916.266,5.793.474,8.609.629v5.789c-3.179-.172-6.433-.406-9.738-.717Z" transform="translate(5.677 9.934)" fill="#1a2e35"/>
            <path id="Trazado_241071" data-name="Trazado 241071" d="M61.172,381.482,41.343,375.62l-1.476,6.429,18.655,5.592Z" transform="translate(2.692 25.366)" fill="#1a2e35"/>
            <path id="Trazado_241072" data-name="Trazado 241072" d="M20.207,77.564l8.933-1.081A3.285,3.285,0,0,0,32,72.468L26.867,48.12A1.734,1.734,0,0,0,25,46.777L14,48.109a3.284,3.284,0,0,0-2.861,4.015l4.7,22.3a4.054,4.054,0,0,0,4.369,3.139" transform="translate(0.747 3.158)" fill="#b3009d"/>
            <g id="Grupo_242500" data-name="Grupo 242500" transform="translate(11.804 49.923)" opacity="0.2">
              <g id="Grupo_242499" data-name="Grupo 242499">
                <g id="Grupo_242498" data-name="Grupo 242498" clip-path="url(#clip-path-14)">
                  <path id="Trazado_241073" data-name="Trazado 241073" d="M20.207,77.564l8.933-1.081A3.285,3.285,0,0,0,32,72.468L26.867,48.12A1.734,1.734,0,0,0,25,46.777L14,48.109a3.284,3.284,0,0,0-2.861,4.015l4.7,22.3a4.054,4.054,0,0,0,4.369,3.139" transform="translate(-11.058 -46.765)"/>
                </g>
              </g>
            </g>
            <path id="Trazado_241074" data-name="Trazado 241074" d="M19.814,78.046l8.933-1.081a3.285,3.285,0,0,0,2.861-4.015L26.474,48.6A1.734,1.734,0,0,0,24.6,47.259l-11,1.332A3.283,3.283,0,0,0,10.743,52.6l4.7,22.3a4.054,4.054,0,0,0,4.369,3.139" transform="translate(0.72 3.191)" fill="#b3009d"/>
            <g id="Grupo_242503" data-name="Grupo 242503" transform="translate(11.401 50.448)" opacity="0.5">
              <g id="Grupo_242502" data-name="Grupo 242502">
                <g id="Grupo_242501" data-name="Grupo 242501" clip-path="url(#clip-path-15)">
                  <path id="Trazado_241075" data-name="Trazado 241075" d="M19.895,78.036l8.754-1.06a3.375,3.375,0,0,0,2.941-4.109l-5.1-24.185a1.836,1.836,0,0,0-1.975-1.413L13.7,48.579a3.376,3.376,0,0,0-2.942,4.109l4.67,22.152a4.151,4.151,0,0,0,4.465,3.2" transform="translate(-10.68 -47.257)" fill="#fff"/>
                </g>
              </g>
            </g>
            <g id="Grupo_242506" data-name="Grupo 242506" transform="translate(19.85 50.443)" opacity="0.3">
              <g id="Grupo_242505" data-name="Grupo 242505">
                <g id="Grupo_242504" data-name="Grupo 242504" clip-path="url(#clip-path-16)">
                  <path id="Trazado_241076" data-name="Trazado 241076" d="M21.507,54.98,25.43,54.5a1.553,1.553,0,0,0,1.353-1.9l-.836-3.965a1.78,1.78,0,0,0-1.919-1.378l-4.044.49a1.553,1.553,0,0,0-1.353,1.9l.81,3.844a1.917,1.917,0,0,0,2.066,1.484" transform="translate(-18.595 -47.252)" fill="#fff"/>
                </g>
              </g>
            </g>
            <path id="Trazado_241077" data-name="Trazado 241077" d="M21.782,54.61l3.558-.431a1.552,1.552,0,0,0,1.353-1.9l-.742-3.521a1.918,1.918,0,0,0-2.066-1.484l-3.558.431a1.553,1.553,0,0,0-1.353,1.9l.742,3.52a1.917,1.917,0,0,0,2.066,1.484" transform="translate(1.279 3.192)" fill="#1a2e35"/>
            <g id="Grupo_242509" data-name="Grupo 242509" transform="translate(20.216 50.457)" opacity="0.1">
              <g id="Grupo_242508" data-name="Grupo 242508">
                <g id="Grupo_242507" data-name="Grupo 242507" clip-path="url(#clip-path-17)">
                  <path id="Trazado_241078" data-name="Trazado 241078" d="M21.782,54.61l3.558-.431a1.552,1.552,0,0,0,1.353-1.9l-.742-3.521a1.918,1.918,0,0,0-2.066-1.484l-3.558.431a1.553,1.553,0,0,0-1.353,1.9l.742,3.52a1.917,1.917,0,0,0,2.066,1.484" transform="translate(-18.937 -47.265)" fill="#fff"/>
                </g>
              </g>
            </g>
            <path id="Trazado_241079" data-name="Trazado 241079" d="M18.879,62.465a2.041,2.041,0,0,0,2.2,1.58,1.653,1.653,0,0,0,1.44-2.021,2.041,2.041,0,0,0-2.2-1.58,1.654,1.654,0,0,0-1.44,2.021" transform="translate(1.272 4.081)" fill="#fff"/>
            <path id="Trazado_241080" data-name="Trazado 241080" d="M84.736,115.246c-1.836,2.71-11.125.878-11.125.878L71.64,104.611l11.407,4.572Z" transform="translate(4.838 7.064)" fill="#ffb570"/>
            <path id="Trazado_241081" data-name="Trazado 241081" d="M74.369,104.049l1.782,11.962-6.861,1.027a1.523,1.523,0,0,1-1.616-1.188l-2.621-8.567a.787.787,0,0,1,.568-.932Z" transform="translate(4.392 7.026)" fill="#ffb570"/>
            <path id="Trazado_241082" data-name="Trazado 241082" d="M70.955,109.867l3.914.693,3.692-2.784-1.428-1.019a4.834,4.834,0,0,1-1.909-2.872,20.263,20.263,0,0,1-.5-3.7l-.011-.415a1.7,1.7,0,0,0-1.43-1.457l-.969.721c-.615,1.325-.176,2.857-.253,3.888l-.154,2.008-1.567.679Z" transform="translate(4.75 6.639)" fill="#ffb570"/>
            <path id="Trazado_241083" data-name="Trazado 241083" d="M145.721,71.9l-22.949,31.574-42.179,8.283v6.919s39.619,2.938,48.506-2.251,23.84-36.591,23.84-36.591Z" transform="translate(5.442 4.855)" fill="#ffb570"/>
            <path id="Trazado_241084" data-name="Trazado 241084" d="M147.132,71.308c5.4,6.385,3.814,22.172-3.968,32.214l-18.97-11.146s11.131-18.8,17.276-22.5c2.623-1.578,3.684-.907,5.662,1.428" transform="translate(8.387 4.661)" fill="#1a2e35"/>
            <path id="Trazado_241085" data-name="Trazado 241085" d="M124.92,6.73A14.115,14.115,0,0,1,131.659,0a9.676,9.676,0,0,1,.555,4.676c2.59.532,4.749.922,7.339,1.454,2.679.55,5.76,1.418,6.794,3.95a30.533,30.533,0,0,1-9.6,9.676c-2.729-3.064-5.67-6.649-6.447-10.677q-.127.383-.252.765c-1.741-.112-3.711-2.1-5.133-3.115" transform="translate(8.436 0)" fill="#b3009d"/>
            <path id="Trazado_241086" data-name="Trazado 241086" d="M132.787,96.293l-3.137,1.282a.178.178,0,0,1-.079.027l-2.039-2.8c-6.288-8.969-13.49-18.92-4.755-23.394,6.057-3.114,10.813,2.381,13.067,5.74,3.687-1.671,11.889-6.982,15.242,2.8,2.8,8.14-8.237,12.021-18.3,16.348" transform="translate(8.018 4.76)" fill="#b3009d"/>
            <g id="Grupo_242512" data-name="Grupo 242512" transform="translate(129.773 78.947)" opacity="0.5">
              <g id="Grupo_242511" data-name="Grupo 242511">
                <g id="Grupo_242510" data-name="Grupo 242510" clip-path="url(#clip-path-18)">
                  <path id="Trazado_241087" data-name="Trazado 241087" d="M122.314,73.956a.848.848,0,1,1-.1.014Z" transform="translate(-121.564 -73.953)" fill="#fff"/>
                </g>
              </g>
            </g>
            <g id="Grupo_242515" data-name="Grupo 242515" transform="translate(128.998 81.614)" opacity="0.5">
              <g id="Grupo_242514" data-name="Grupo 242514">
                <g id="Grupo_242513" data-name="Grupo 242513" clip-path="url(#clip-path-19)">
                  <path id="Trazado_241088" data-name="Trazado 241088" d="M123.15,84.041c-1.856-1.991,1.616-6.472-1.049-7.59-2.251.331-1.24,5.115,1.049,7.59" transform="translate(-120.838 -76.451)" fill="#fff"/>
                </g>
              </g>
            </g>
            <path id="Trazado_241089" data-name="Trazado 241089" d="M118.559,110.26l-1.708.7a.1.1,0,0,1-.043.015l-1.111-1.525c-3.424-4.884-7.346-10.3-2.589-12.739,3.3-1.7,5.887,1.3,7.115,3.126,2.008-.911,6.475-3.8,8.3,1.523,1.524,4.432-4.486,6.546-9.964,8.9" transform="translate(7.489 6.497)" fill="#b3009d"/>
            <g id="Grupo_242518" data-name="Grupo 242518" transform="translate(120.042 104.719)" opacity="0.5">
              <g id="Grupo_242517" data-name="Grupo 242517">
                <g id="Grupo_242516" data-name="Grupo 242516" clip-path="url(#clip-path-20)">
                  <path id="Trazado_241090" data-name="Trazado 241090" d="M112.856,98.1a.466.466,0,1,1-.053.009Z" transform="translate(-112.448 -98.095)" fill="#fff"/>
                </g>
              </g>
            </g>
            <g id="Grupo_242521" data-name="Grupo 242521" transform="translate(119.619 106.172)" opacity="0.5">
              <g id="Grupo_242520" data-name="Grupo 242520">
                <g id="Grupo_242519" data-name="Grupo 242519" clip-path="url(#clip-path-21)">
                  <path id="Trazado_241091" data-name="Trazado 241091" d="M113.312,103.588c-1.011-1.085.88-3.524-.571-4.133-1.227.18-.676,2.786.571,4.133" transform="translate(-112.052 -99.456)" fill="#fff"/>
                </g>
              </g>
            </g>
            <g id="Grupo_242536" data-name="Grupo 242536" transform="translate(118.393 75.244)" opacity="0.4">
              <g id="Grupo_242535" data-name="Grupo 242535">
                <g id="Grupo_242534" data-name="Grupo 242534" clip-path="url(#clip-path-22)">
                  <path id="Trazado_241092" data-name="Trazado 241092" d="M132.787,96.293l-3.137,1.282a.178.178,0,0,1-.079.027l-2.039-2.8c-6.288-8.969-13.49-18.92-4.755-23.394,6.057-3.114,10.813,2.381,13.067,5.74,3.687-1.671,11.889-6.982,15.242,2.8,2.8,8.14-8.237,12.021-18.3,16.348" transform="translate(-110.376 -70.484)" fill="#fff"/>
                  <g id="Grupo_242524" data-name="Grupo 242524" transform="translate(11.38 3.703)" opacity="0.5">
                    <g id="Grupo_242523" data-name="Grupo 242523">
                      <g id="Grupo_242522" data-name="Grupo 242522" clip-path="url(#clip-path-18)">
                        <path id="Trazado_241093" data-name="Trazado 241093" d="M122.314,73.956a.848.848,0,1,1-.1.014Z" transform="translate(-121.564 -73.953)" fill="#fff"/>
                      </g>
                    </g>
                  </g>
                  <g id="Grupo_242527" data-name="Grupo 242527" transform="translate(10.605 6.37)" opacity="0.5">
                    <g id="Grupo_242526" data-name="Grupo 242526">
                      <g id="Grupo_242525" data-name="Grupo 242525" clip-path="url(#clip-path-19)">
                        <path id="Trazado_241094" data-name="Trazado 241094" d="M123.15,84.041c-1.856-1.991,1.616-6.472-1.049-7.59-2.251.331-1.24,5.115,1.049,7.59" transform="translate(-120.838 -76.451)" fill="#fff"/>
                      </g>
                    </g>
                  </g>
                  <path id="Trazado_241095" data-name="Trazado 241095" d="M118.559,110.26l-1.708.7a.1.1,0,0,1-.043.015l-1.111-1.525c-3.424-4.884-7.346-10.3-2.589-12.739,3.3-1.7,5.887,1.3,7.115,3.126,2.008-.911,6.475-3.8,8.3,1.523,1.524,4.432-4.486,6.546-9.964,8.9" transform="translate(-110.904 -68.747)" fill="#fff"/>
                  <g id="Grupo_242530" data-name="Grupo 242530" transform="translate(1.648 29.476)" opacity="0.5">
                    <g id="Grupo_242529" data-name="Grupo 242529">
                      <g id="Grupo_242528" data-name="Grupo 242528" clip-path="url(#clip-path-20)">
                        <path id="Trazado_241096" data-name="Trazado 241096" d="M112.856,98.1a.466.466,0,1,1-.053.009Z" transform="translate(-112.448 -98.095)" fill="#fff"/>
                      </g>
                    </g>
                  </g>
                  <g id="Grupo_242533" data-name="Grupo 242533" transform="translate(1.226 30.928)" opacity="0.5">
                    <g id="Grupo_242532" data-name="Grupo 242532">
                      <g id="Grupo_242531" data-name="Grupo 242531" clip-path="url(#clip-path-21)">
                        <path id="Trazado_241097" data-name="Trazado 241097" d="M113.312,103.588c-1.011-1.085.88-3.524-.571-4.133-1.227.18-.676,2.786.571,4.133" transform="translate(-112.052 -99.456)" fill="#fff"/>
                      </g>
                    </g>
                  </g>
                </g>
              </g>
            </g>
            <path id="Trazado_241098" data-name="Trazado 241098" d="M206.228,124.62h0Z" transform="translate(13.927 8.416)" fill="#1a2e35"/>
            <path id="Trazado_241099" data-name="Trazado 241099" d="M206.718,125.059l-.49-.439a.86.86,0,0,1,.49.439" transform="translate(13.927 8.416)" fill="#1a2e35"/>
            <path id="Trazado_241100" data-name="Trazado 241100" d="M205.9,124.573a.9.9,0,0,1,.348.05Z" transform="translate(13.905 8.412)" fill="#1a2e35"/>
            <path id="Trazado_241101" data-name="Trazado 241101" d="M206.116,128.556l-1.393-2.248-1.3-2.1h0l.254.038a.858.858,0,0,1,.535.454l.65,1.317Z" transform="translate(13.737 8.388)" fill="#1a2e35"/>
            <path id="Trazado_241102" data-name="Trazado 241102" d="M197.391,159.532l-3.888,2.044-1.451.761a.866.866,0,0,1-.379.1l2.27-5.012.244.149Z" transform="translate(12.944 10.631)" fill="#1a2e35"/>
            <path id="Trazado_241103" data-name="Trazado 241103" d="M225.733,140.509l-3.313,3.228h0l-6.2,6.042a.879.879,0,0,0-.252.78l1.616,9.424h0l.629,3.667a.881.881,0,0,1-1.279.928l-.621-.327-4.328-2.275-3.182-1.673-.064-.034-1.885-.991-1.676-.881a.879.879,0,0,0-.821,0l-2.937,1.544-2.837,1.492-.644.338-1.332.7-2.556,1.344-1.451.762a.864.864,0,0,1-.379.1.881.881,0,0,1-.9-1.029l.135-.787,2.112-12.305a.885.885,0,0,0-.253-.78l-9.513-9.271a.881.881,0,0,1,.489-1.5l13.145-1.911a.88.88,0,0,0,.664-.481l5.878-11.912a.908.908,0,0,1,.17-.236.837.837,0,0,1,.424-.233.817.817,0,0,1,.2-.023h0a.766.766,0,0,1,.17.018.573.573,0,0,1,.084.02.862.862,0,0,1,.536.454l.649,1.317.778,1.579.473.957h0l1.192,2.415.868,1.759h0l1.916,3.884a.88.88,0,0,0,.664.481l7.737,1.125,4.049.588,1.358.2a.88.88,0,0,1,.488,1.5" transform="translate(12.394 8.388)" fill="#b3009d"/>
            <path id="Trazado_241104" data-name="Trazado 241104" d="M227.065,140.89l-7.265,7.083-2.247,2.189a.888.888,0,0,0-.254.779l.5,3.741,1.377,10.232a.88.88,0,0,1-1.278.928l-2.956-1.565-4.323-2.29-3.179-1.684,3.182,1.673,4.328,2.275.621.327a.881.881,0,0,0,1.279-.928l-.629-3.668h0l-1.617-9.423a.882.882,0,0,1,.253-.78l6.2-6.043,3.313-3.228a.88.88,0,0,0-.488-1.5l-1.358-.2-4.049-.589-7.737-1.124a.88.88,0,0,1-.664-.481l-1.916-3.884h0l-.868-1.759-1.192-2.415h0l-.473-.957h0l-.778-1.578L204.2,124.7a.862.862,0,0,0-.536-.454l2.388.348.349.05.082.074.408.365,1.4,2.849.267.54.539,1.092,3.667,7.43a.884.884,0,0,0,.664.483l5.048.733,4.049.588,4.047.588a.88.88,0,0,1,.488,1.5" transform="translate(13.753 8.39)" fill="#b3009d"/>
            <path id="Trazado_241105" data-name="Trazado 241105" d="M206.306,157.125l-6.208,3.262h0l-2.941,1.545-1.834.965-.037.017a1.276,1.276,0,0,1-.875,0l-.048.025-2.689-.409v0a.874.874,0,0,0,.378-.1l1.451-.762,2.556-1.344,1.333-.7.644-.338,2.836-1.491,2.937-1.545a.879.879,0,0,1,.821,0Z" transform="translate(12.944 10.544)" fill="#b3009d"/>
            <g id="Grupo_242539" data-name="Grupo 242539" transform="translate(217.417 132.637)" opacity="0.3">
              <g id="Grupo_242538" data-name="Grupo 242538">
                <g id="Grupo_242537" data-name="Grupo 242537" clip-path="url(#clip-path-27)">
                  <path id="Trazado_241106" data-name="Trazado 241106" d="M227.065,140.89l-7.265,7.083-2.247,2.189a.888.888,0,0,0-.254.779l.5,3.741,1.377,10.232a.88.88,0,0,1-1.278.928l-2.956-1.565-4.323-2.29-3.179-1.684,3.182,1.673,4.328,2.275.621.327a.881.881,0,0,0,1.279-.928l-.629-3.668h0l-1.617-9.423a.882.882,0,0,1,.253-.78l6.2-6.043,3.313-3.228a.88.88,0,0,0-.488-1.5l-1.358-.2-4.049-.589-7.737-1.124a.88.88,0,0,1-.664-.481l-1.916-3.884h0l-.868-1.759-1.192-2.415h0l-.473-.957h0l-.778-1.578L204.2,124.7a.862.862,0,0,0-.536-.454l2.388.348.349.05.082.074.408.365,1.4,2.849.267.54.539,1.092,3.667,7.43a.884.884,0,0,0,.664.483l5.048.733,4.049.588,4.047.588a.88.88,0,0,1,.488,1.5" transform="translate(-203.664 -124.247)" fill="#fff"/>
                </g>
              </g>
            </g>
            <g id="Grupo_242542" data-name="Grupo 242542" transform="translate(204.617 166.686)" opacity="0.3">
              <g id="Grupo_242541" data-name="Grupo 242541">
                <g id="Grupo_242540" data-name="Grupo 242540" clip-path="url(#clip-path-28)">
                  <path id="Trazado_241107" data-name="Trazado 241107" d="M206.306,157.125l-6.208,3.262h0l-2.941,1.545-1.834.965-.037.017a1.276,1.276,0,0,1-.875,0l-.048.025-2.689-.409v0a.874.874,0,0,0,.378-.1l1.451-.762,2.556-1.344,1.333-.7.644-.338,2.836-1.491,2.937-1.545a.879.879,0,0,1,.821,0Z" transform="translate(-191.673 -156.142)" fill="#fff"/>
                </g>
              </g>
            </g>
            <g id="Grupo_242545" data-name="Grupo 242545" transform="translate(203.704 132.617)" opacity="0.4">
              <g id="Grupo_242544" data-name="Grupo 242544">
                <g id="Grupo_242543" data-name="Grupo 242543" clip-path="url(#clip-path-29)">
                  <path id="Trazado_241108" data-name="Trazado 241108" d="M206.5,127.6l-.038.132L196.5,161.192l-.381,1.281-2.556,1.344-1.451.762a.864.864,0,0,1-.379.1.881.881,0,0,1-.9-1.029l.135-.787,12.691-38.4a.853.853,0,0,1,.424-.233l.208,0,.11,0h.049a.463.463,0,0,1,.084.02.858.858,0,0,1,.535.454l.65,1.317Z" transform="translate(-190.818 -124.228)" fill="#fff"/>
                </g>
              </g>
            </g>
            <g id="Grupo_242548" data-name="Grupo 242548" transform="translate(210.978 139.36)" opacity="0.2">
              <g id="Grupo_242547" data-name="Grupo 242547">
                <g id="Grupo_242546" data-name="Grupo 242546" clip-path="url(#clip-path-30)">
                  <path id="Trazado_241109" data-name="Trazado 241109" d="M208.57,132.3h0l-8.1,27.213-2.837,1.492L207.7,130.544Z" transform="translate(-197.632 -130.544)" fill="#fff"/>
                </g>
              </g>
            </g>
            <g id="Grupo_242551" data-name="Grupo 242551" transform="translate(217.162 132.437)" opacity="0.5">
              <g id="Grupo_242550" data-name="Grupo 242550">
                <g id="Grupo_242549" data-name="Grupo 242549" clip-path="url(#clip-path-31)">
                  <path id="Trazado_241110" data-name="Trazado 241110" d="M206.228,124.468h0Z" transform="translate(-203.236 -124.031)" fill="#fff"/>
                  <path id="Trazado_241111" data-name="Trazado 241111" d="M206.718,124.907l-.49-.439a.86.86,0,0,1,.49.439" transform="translate(-203.236 -124.031)" fill="#fff"/>
                  <path id="Trazado_241112" data-name="Trazado 241112" d="M205.9,124.421a.9.9,0,0,1,.348.05Z" transform="translate(-203.258 -124.035)" fill="#fff"/>
                  <path id="Trazado_241113" data-name="Trazado 241113" d="M206.116,128.4l-1.393-2.248-1.3-2.1h0l.254.037a.863.863,0,0,1,.535.455l.65,1.317Z" transform="translate(-203.425 -124.059)" fill="#fff"/>
                </g>
              </g>
            </g>
            <g id="Grupo_242554" data-name="Grupo 242554" transform="translate(195.972 132.36)" opacity="0.4">
              <g id="Grupo_242553" data-name="Grupo 242553">
                <g id="Grupo_242552" data-name="Grupo 242552" clip-path="url(#clip-path-32)">
                  <path id="Trazado_241114" data-name="Trazado 241114" d="M225.772,140.284l-3.313,3.228h0l-6.2,6.042a.882.882,0,0,0-.252.78l1.616,9.423v0l.629,3.667a.881.881,0,0,1-1.279.928l-.621-.327-4.328-2.275-3.182-1.673-.064-.034-1.885-.991-1.676-.881a.879.879,0,0,0-.821,0l-2.937,1.544-2.837,1.492-.644.337-1.332.7-2.556,1.344-1.451.762a.864.864,0,0,1-.378.1.881.881,0,0,1-.9-1.029l.135-.787,2.112-12.305a.882.882,0,0,0-.253-.78l-9.513-9.271a.881.881,0,0,1,.489-1.5l13.144-1.911a.88.88,0,0,0,.664-.481l5.878-11.911a.933.933,0,0,1,.17-.237.843.843,0,0,1,.424-.232.817.817,0,0,1,.2-.023h0a.765.765,0,0,1,.17.018.57.57,0,0,1,.084.02.862.862,0,0,1,.536.454l.649,1.317.778,1.579.473.957h0l1.192,2.415.868,1.759h0l1.916,3.884a.88.88,0,0,0,.664.481L219.877,138l4.049.588,1.358.2a.88.88,0,0,1,.488,1.5" transform="translate(-183.575 -123.987)" fill="#fff"/>
                </g>
              </g>
            </g>
            <path id="Trazado_241115" data-name="Trazado 241115" d="M249.809,124.363Z" transform="translate(16.87 8.398)" fill="#1a2e35"/>
            <path id="Trazado_241116" data-name="Trazado 241116" d="M250.1,124.623l-.291-.26a.516.516,0,0,1,.291.26" transform="translate(16.87 8.398)" fill="#1a2e35"/>
            <path id="Trazado_241117" data-name="Trazado 241117" d="M249.615,124.335a.528.528,0,0,1,.207.03Z" transform="translate(16.857 8.396)" fill="#1a2e35"/>
            <path id="Trazado_241118" data-name="Trazado 241118" d="M249.742,126.7l-.827-1.335-.772-1.246h0l.151.022a.511.511,0,0,1,.318.269l.386.784Z" transform="translate(16.757 8.382)" fill="#1a2e35"/>
            <path id="Trazado_241119" data-name="Trazado 241119" d="M244.558,145.105l-2.31,1.215-.863.453a.514.514,0,0,1-.224.06l1.348-2.977.145.089Z" transform="translate(16.286 9.715)" fill="#1a2e35"/>
            <path id="Trazado_241120" data-name="Trazado 241120" d="M261.4,133.8l-1.969,1.918-3.683,3.59a.524.524,0,0,0-.149.464l.96,5.6h0l.374,2.179a.523.523,0,0,1-.759.551l-.369-.194-2.572-1.35-1.891-.995-.037-.02-1.121-.588-.995-.523a.519.519,0,0,0-.488,0l-1.745.917-1.686.886-.382.2-.792.415-1.518.8-.863.453a.5.5,0,0,1-.224.061.524.524,0,0,1-.535-.612l.08-.468,1.253-7.31a.524.524,0,0,0-.149-.464l-5.653-5.508a.524.524,0,0,1,.291-.892l7.809-1.136a.522.522,0,0,0,.395-.286l3.492-7.077a.529.529,0,0,1,.1-.14.5.5,0,0,1,.252-.139.526.526,0,0,1,.116-.013.467.467,0,0,1,.1.01.432.432,0,0,1,.05.013.51.51,0,0,1,.318.269l.386.783.462.938.281.569.709,1.435.516,1.045,1.138,2.307a.524.524,0,0,0,.4.286l4.6.669,2.406.349.807.117a.523.523,0,0,1,.289.892" transform="translate(15.959 8.382)" fill="#b3009d"/>
            <path id="Trazado_241121" data-name="Trazado 241121" d="M262.189,134.03l-4.316,4.208-1.335,1.3a.527.527,0,0,0-.151.463l.3,2.222.818,6.08a.523.523,0,0,1-.759.552l-1.756-.93-2.568-1.361-1.89-1,1.891.994,2.572,1.352.369.194a.523.523,0,0,0,.759-.552l-.373-2.179-.961-5.6a.525.525,0,0,1,.149-.463l3.683-3.591,1.969-1.917a.523.523,0,0,0-.289-.892l-.807-.117-2.406-.35-4.6-.668a.52.52,0,0,1-.394-.286l-1.139-2.307h0l-.516-1.045-.709-1.435-.281-.568h0l-.462-.937-.386-.783a.515.515,0,0,0-.318-.27l1.419.207.207.03.049.044.242.217.835,1.693.158.32.321.649,2.179,4.414a.524.524,0,0,0,.394.287l3,.436,2.405.349,2.405.35a.523.523,0,0,1,.289.892" transform="translate(16.767 8.383)" fill="#b3009d"/>
            <path id="Trazado_241122" data-name="Trazado 241122" d="M249.855,143.676l-3.688,1.939-1.746.918-1.09.573-.022.011a.755.755,0,0,1-.52,0l-.029.015-1.6-.243h0a.516.516,0,0,0,.224-.061l.863-.453,1.518-.8.792-.416.382-.2,1.686-.886,1.745-.917a.517.517,0,0,1,.487,0Z" transform="translate(16.286 9.663)" fill="#b3009d"/>
            <g id="Grupo_242557" data-name="Grupo 242557" transform="translate(265.052 132.524)" opacity="0.3">
              <g id="Grupo_242556" data-name="Grupo 242556">
                <g id="Grupo_242555" data-name="Grupo 242555" clip-path="url(#clip-path-33)">
                  <path id="Trazado_241123" data-name="Trazado 241123" d="M262.189,134.03l-4.316,4.208-1.335,1.3a.527.527,0,0,0-.151.463l.3,2.222.818,6.08a.523.523,0,0,1-.759.552l-1.756-.93-2.568-1.361-1.89-1,1.891.994,2.572,1.352.369.194a.523.523,0,0,0,.759-.552l-.373-2.179-.961-5.6a.525.525,0,0,1,.149-.463l3.683-3.591,1.969-1.917a.523.523,0,0,0-.289-.892l-.807-.117-2.406-.35-4.6-.668a.52.52,0,0,1-.394-.286l-1.139-2.307h0l-.516-1.045-.709-1.435-.281-.568h0l-.462-.937-.386-.783a.515.515,0,0,0-.318-.27l1.419.207.207.03.049.044.242.217.835,1.693.158.32.321.649,2.179,4.414a.524.524,0,0,0,.394.287l3,.436,2.405.349,2.405.35a.523.523,0,0,1,.289.892" transform="translate(-248.285 -124.141)" fill="#fff"/>
                </g>
              </g>
            </g>
            <g id="Grupo_242560" data-name="Grupo 242560" transform="translate(257.447 152.755)" opacity="0.3">
              <g id="Grupo_242559" data-name="Grupo 242559">
                <g id="Grupo_242558" data-name="Grupo 242558" clip-path="url(#clip-path-34)">
                  <path id="Trazado_241124" data-name="Trazado 241124" d="M249.855,143.676l-3.688,1.939-1.746.918-1.09.573-.022.011a.755.755,0,0,1-.52,0l-.029.015-1.6-.243h0a.516.516,0,0,0,.224-.061l.863-.453,1.518-.8.792-.416.382-.2,1.686-.886,1.745-.917a.517.517,0,0,1,.487,0Z" transform="translate(-241.161 -143.092)" fill="#fff"/>
                </g>
              </g>
            </g>
            <g id="Grupo_242563" data-name="Grupo 242563" transform="translate(256.904 132.513)" opacity="0.4">
              <g id="Grupo_242562" data-name="Grupo 242562">
                <g id="Grupo_242561" data-name="Grupo 242561" clip-path="url(#clip-path-35)">
                  <path id="Trazado_241125" data-name="Trazado 241125" d="M249.967,126.133l-.023.078-5.916,19.882-.226.761-1.519.8-.862.453a.522.522,0,0,1-.76-.551l.08-.468,7.54-22.814a.5.5,0,0,1,.252-.139h.124l.065,0h.029a.382.382,0,0,1,.05.012.513.513,0,0,1,.318.27l.386.783Z" transform="translate(-240.653 -124.13)" fill="#fff"/>
                </g>
              </g>
            </g>
            <g id="Grupo_242566" data-name="Grupo 242566" transform="translate(261.227 136.518)" opacity="0.2">
              <g id="Grupo_242565" data-name="Grupo 242565">
                <g id="Grupo_242564" data-name="Grupo 242564" clip-path="url(#clip-path-36)">
                  <path id="Trazado_241126" data-name="Trazado 241126" d="M251.2,128.927h0L246.387,145.1l-1.686.887,5.981-18.1Z" transform="translate(-244.702 -127.882)" fill="#fff"/>
                </g>
              </g>
            </g>
            <g id="Grupo_242569" data-name="Grupo 242569" transform="translate(264.9 132.406)" opacity="0.5">
              <g id="Grupo_242568" data-name="Grupo 242568">
                <g id="Grupo_242567" data-name="Grupo 242567" clip-path="url(#clip-path-37)">
                  <path id="Trazado_241127" data-name="Trazado 241127" d="M249.809,124.273Z" transform="translate(-248.031 -124.014)" fill="#fff"/>
                  <path id="Trazado_241128" data-name="Trazado 241128" d="M250.1,124.533l-.291-.26a.516.516,0,0,1,.291.26" transform="translate(-248.031 -124.014)" fill="#fff"/>
                  <path id="Trazado_241129" data-name="Trazado 241129" d="M249.615,124.245a.528.528,0,0,1,.207.03Z" transform="translate(-248.044 -124.016)" fill="#fff"/>
                  <path id="Trazado_241130" data-name="Trazado 241130" d="M249.742,126.611l-.827-1.335-.772-1.246h0l.151.022a.511.511,0,0,1,.318.269l.386.784Z" transform="translate(-248.143 -124.03)" fill="#fff"/>
                </g>
              </g>
            </g>
            <g id="Grupo_242572" data-name="Grupo 242572" transform="translate(252.311 132.36)" opacity="0.4">
              <g id="Grupo_242571" data-name="Grupo 242571">
                <g id="Grupo_242570" data-name="Grupo 242570" clip-path="url(#clip-path-38)">
                  <path id="Trazado_241131" data-name="Trazado 241131" d="M261.421,133.67l-1.97,1.918-3.683,3.59a.524.524,0,0,0-.149.464l.96,5.6h0l.374,2.179a.522.522,0,0,1-.759.551l-.369-.194-2.571-1.352-1.892-.994-.036-.02-1.122-.588-.995-.523a.519.519,0,0,0-.488,0l-1.745.917-1.685.886-.382.2-.793.415-1.518.8-.861.453a.5.5,0,0,1-.225.061.522.522,0,0,1-.534-.612l.079-.468,1.253-7.31a.521.521,0,0,0-.149-.464l-5.653-5.508a.524.524,0,0,1,.291-.892l7.809-1.136a.524.524,0,0,0,.395-.286l3.493-7.077a.529.529,0,0,1,.1-.14.49.49,0,0,1,.251-.139.533.533,0,0,1,.116-.013.46.46,0,0,1,.1.01.523.523,0,0,1,.368.282l.385.782.463.938.281.569.709,1.435.516,1.045,1.139,2.307a.52.52,0,0,0,.394.286l4.6.669,2.406.349.807.117a.524.524,0,0,1,.29.892" transform="translate(-236.35 -123.987)" fill="#fff"/>
                </g>
              </g>
            </g>
            <path id="Trazado_241132" data-name="Trazado 241132" d="M241.426,155.767Z" transform="translate(16.304 10.519)" fill="#1a2e35"/>
            <path id="Trazado_241133" data-name="Trazado 241133" d="M241.709,156.02l-.283-.253a.494.494,0,0,1,.283.253" transform="translate(16.304 10.519)" fill="#1a2e35"/>
            <path id="Trazado_241134" data-name="Trazado 241134" d="M241.238,155.74a.509.509,0,0,1,.2.029Z" transform="translate(16.291 10.517)" fill="#1a2e35"/>
            <path id="Trazado_241135" data-name="Trazado 241135" d="M241.361,158.042l-.8-1.3-.75-1.212.147.021a.5.5,0,0,1,.31.263l.376.761Z" transform="translate(16.194 10.503)" fill="#1a2e35"/>
            <path id="Trazado_241136" data-name="Trazado 241136" d="M236.319,175.944l-2.247,1.182-.838.44a.509.509,0,0,1-.219.059l1.311-2.9.142.086Z" transform="translate(15.736 11.799)" fill="#1a2e35"/>
            <path id="Trazado_241137" data-name="Trazado 241137" d="M252.7,164.95l-1.914,1.866-3.583,3.492a.508.508,0,0,0-.146.452l.934,5.447.363,2.12a.509.509,0,0,1-.739.536l-.359-.189-2.5-1.314-1.839-.967-.036-.02-1.09-.572-.969-.509a.51.51,0,0,0-.474,0l-1.7.892-1.64.863-.371.2-.771.4-1.476.776-.839.441a.508.508,0,0,1-.739-.536l.078-.455,1.22-7.112a.514.514,0,0,0-.146-.452l-5.5-5.358a.509.509,0,0,1,.282-.868l7.6-1.1a.506.506,0,0,0,.383-.278l3.4-6.885a.526.526,0,0,1,.1-.137.492.492,0,0,1,.246-.135.507.507,0,0,1,.211,0l.049.012a.5.5,0,0,1,.31.263l.376.761.449.913.273.553h0l.689,1.4.5,1.016h0l1.107,2.245a.51.51,0,0,0,.384.278l4.472.65,2.34.341.785.114a.509.509,0,0,1,.282.868" transform="translate(15.418 10.503)" fill="#b3009d"/>
            <path id="Trazado_241138" data-name="Trazado 241138" d="M253.469,165.169l-4.2,4.093-1.3,1.266a.509.509,0,0,0-.147.451l.291,2.162.8,5.914a.509.509,0,0,1-.739.536l-1.708-.9-2.5-1.324-1.837-.974,1.839.967,2.5,1.314.359.189a.509.509,0,0,0,.739-.536L247.2,176.2h0l-.934-5.447a.5.5,0,0,1,.146-.451L250,166.813l1.915-1.866a.509.509,0,0,0-.282-.868l-.785-.114-2.34-.339-4.472-.65a.511.511,0,0,1-.384-.279l-1.107-2.244h0l-.5-1.016-.689-1.4h0l-.273-.553-.449-.912-.376-.762a.5.5,0,0,0-.31-.262l1.38.2.2.029.048.044.236.21.812,1.647.154.312.312.631,2.119,4.295a.514.514,0,0,0,.384.279l2.918.424,2.34.339,2.339.341a.509.509,0,0,1,.282.868" transform="translate(16.203 10.504)" fill="#b3009d"/>
            <path id="Trazado_241139" data-name="Trazado 241139" d="M241.471,174.553l-3.588,1.885h0l-1.7.892-1.06.557a.132.132,0,0,1-.021.011.735.735,0,0,1-.506,0l-.028.014-1.554-.236h0a.509.509,0,0,0,.219-.059l.838-.441,1.477-.776.77-.4.371-.2,1.641-.863,1.7-.892a.506.506,0,0,1,.475,0Z" transform="translate(15.735 11.749)" fill="#b3009d"/>
            <g id="Grupo_242575" data-name="Grupo 242575" transform="translate(256.147 166.055)" opacity="0.3">
              <g id="Grupo_242574" data-name="Grupo 242574">
                <g id="Grupo_242573" data-name="Grupo 242573" clip-path="url(#clip-path-39)">
                  <path id="Trazado_241140" data-name="Trazado 241140" d="M253.469,165.169l-4.2,4.093-1.3,1.266a.509.509,0,0,0-.147.451l.291,2.162.8,5.914a.509.509,0,0,1-.739.536l-1.708-.9-2.5-1.324-1.837-.974,1.839.967,2.5,1.314.359.189a.509.509,0,0,0,.739-.536L247.2,176.2h0l-.934-5.447a.5.5,0,0,1,.146-.451L250,166.813l1.915-1.866a.509.509,0,0,0-.282-.868l-.785-.114-2.34-.339-4.472-.65a.511.511,0,0,1-.384-.279l-1.107-2.244h0l-.5-1.016-.689-1.4h0l-.273-.553-.449-.912-.376-.762a.5.5,0,0,0-.31-.262l1.38.2.2.029.048.044.236.21.812,1.647.154.312.312.631,2.119,4.295a.514.514,0,0,0,.384.279l2.918.424,2.34.339,2.339.341a.509.509,0,0,1,.282.868" transform="translate(-239.944 -155.551)" fill="#fff"/>
                </g>
              </g>
            </g>
            <g id="Grupo_242578" data-name="Grupo 242578" transform="translate(248.749 185.734)" opacity="0.3">
              <g id="Grupo_242577" data-name="Grupo 242577">
                <g id="Grupo_242576" data-name="Grupo 242576" clip-path="url(#clip-path-40)">
                  <path id="Trazado_241141" data-name="Trazado 241141" d="M241.471,174.553l-3.588,1.885h0l-1.7.892-1.06.557a.132.132,0,0,1-.021.011.735.735,0,0,1-.506,0l-.028.014-1.554-.236h0a.509.509,0,0,0,.219-.059l.838-.441,1.477-.776.77-.4.371-.2,1.641-.863,1.7-.892a.506.506,0,0,1,.475,0Z" transform="translate(-233.014 -173.985)" fill="#fff"/>
                </g>
              </g>
            </g>
            <g id="Grupo_242581" data-name="Grupo 242581" transform="translate(248.222 166.044)" opacity="0.4">
              <g id="Grupo_242580" data-name="Grupo 242580">
                <g id="Grupo_242579" data-name="Grupo 242579" clip-path="url(#clip-path-41)">
                  <path id="Trazado_241142" data-name="Trazado 241142" d="M241.581,157.488l-.023.077L235.8,176.9l-.219.741-1.477.776-.839.441a.5.5,0,0,1-.219.059.509.509,0,0,1-.52-.595l.078-.455,7.335-22.193a.5.5,0,0,1,.246-.135h.12l.063,0h.028c.018,0,.034.007.05.012a.5.5,0,0,1,.309.263l.377.761Z" transform="translate(-232.52 -155.54)" fill="#fff"/>
                </g>
              </g>
            </g>
            <g id="Grupo_242584" data-name="Grupo 242584" transform="translate(252.426 169.94)" opacity="0.2">
              <g id="Grupo_242583" data-name="Grupo 242583">
                <g id="Grupo_242582" data-name="Grupo 242582" clip-path="url(#clip-path-42)">
                  <path id="Trazado_241143" data-name="Trazado 241143" d="M242.779,160.207h0L238.1,175.935l-1.64.863,5.819-17.607Z" transform="translate(-236.458 -159.19)" fill="#fff"/>
                </g>
              </g>
            </g>
            <g id="Grupo_242587" data-name="Grupo 242587" transform="translate(256 165.94)" opacity="0.5">
              <g id="Grupo_242586" data-name="Grupo 242586">
                <g id="Grupo_242585" data-name="Grupo 242585" clip-path="url(#clip-path-43)">
                  <path id="Trazado_241144" data-name="Trazado 241144" d="M241.426,155.679Z" transform="translate(-239.697 -155.427)" fill="#fff"/>
                  <path id="Trazado_241145" data-name="Trazado 241145" d="M241.709,155.932l-.283-.253a.494.494,0,0,1,.283.253" transform="translate(-239.697 -155.427)" fill="#fff"/>
                  <path id="Trazado_241146" data-name="Trazado 241146" d="M241.238,155.652a.51.51,0,0,1,.2.029Z" transform="translate(-239.709 -155.429)" fill="#fff"/>
                  <path id="Trazado_241147" data-name="Trazado 241147" d="M241.361,157.954l-.8-1.3-.75-1.212.147.021a.5.5,0,0,1,.31.263l.376.761Z" transform="translate(-239.806 -155.443)" fill="#fff"/>
                </g>
              </g>
            </g>
            <g id="Grupo_242590" data-name="Grupo 242590" transform="translate(243.753 165.895)" opacity="0.4">
              <g id="Grupo_242589" data-name="Grupo 242589">
                <g id="Grupo_242588" data-name="Grupo 242588" clip-path="url(#clip-path-44)">
                  <path id="Trazado_241148" data-name="Trazado 241148" d="M252.722,164.82l-1.914,1.866-3.583,3.492a.508.508,0,0,0-.146.452l.934,5.447.363,2.12a.509.509,0,0,1-.739.536l-.359-.189-2.5-1.314-1.839-.967-.037-.02-1.089-.572-.969-.509a.51.51,0,0,0-.474,0l-1.7.892-1.64.863-.372.2-.771.4-1.476.776-.839.441a.508.508,0,0,1-.739-.536l.078-.455,1.22-7.112a.514.514,0,0,0-.146-.452l-5.5-5.358a.509.509,0,0,1,.282-.868l7.6-1.1a.506.506,0,0,0,.383-.278l3.4-6.884a.517.517,0,0,1,.1-.137.512.512,0,0,1,.359-.147h0a.5.5,0,0,1,.1.01l.049.012a.5.5,0,0,1,.31.263l.376.761.449.913.273.553h0l.689,1.4.5,1.017,1.107,2.245a.51.51,0,0,0,.384.278l4.472.65,2.34.341.785.114a.509.509,0,0,1,.282.868" transform="translate(-228.334 -155.401)" fill="#fff"/>
                </g>
              </g>
            </g>
          </g>
        </g>
      </g>
    </g>
  </g>
</svg>
