<svg xmlns="http://www.w3.org/2000/svg" xmlns:xlink="http://www.w3.org/1999/xlink" width="48.711" height="53.085" viewBox="0 0 48.711 53.085">
  <defs>
    <clipPath id="clip-path">
      <rect id="Rectángulo_315165" data-name="Rectángulo 315165" width="48.711" height="53.086" fill="none"/>
    </clipPath>
  </defs>
  <g id="Grupo_242671" data-name="Grupo 242671" transform="translate(-367 -1138.296)">
    <g id="Grupo_240842" data-name="Grupo 240842" transform="translate(367 1138.296)">
      <g id="Grupo_240841" data-name="Grupo 240841" clip-path="url(#clip-path)">
        <path id="Trazado_239283" data-name="Trazado 239283" d="M16.171,48.619c-.964.484-.956.236-1.476-.281-1.186-1.179-2.432-2.307-3.52-3.571-.566-.658-1.377-1.079-1.739-1.949a4.352,4.352,0,0,1-.415-2.886,3.919,3.919,0,0,1,2.833-3.076,3.7,3.7,0,0,1,2.8.1.411.411,0,0,0,.506-.126c.35-.374.708-.741,1.085-1.088a.669.669,0,0,0,.193-.56q-.01-8.866-.015-17.732a2.97,2.97,0,0,1,1.828-3.038,3.674,3.674,0,0,1,2.461-.133c.713.212.714.226.715-.526,0-3.554.042-7.108,0-10.661A3.02,3.02,0,0,1,23.9.13a10.864,10.864,0,0,1,2.59-.084.7.7,0,0,1,.742.678c-.221.839-.26.867-1.2.868-.456,0-.912,0-1.368,0a1.627,1.627,0,0,0-1.718,1.3c-.151.53-.05.662.515.662q5.727,0,11.454,0,3.334,0,6.667-.007c.621,0,.733-.177.546-.784a1.512,1.512,0,0,0-1.655-1.159c-2.982-.026-5.964-.04-8.946,0a1.445,1.445,0,0,1-1.56-.8.811.811,0,0,1,.868-.777C34.129.019,37.419-.044,40.7.056A3.052,3.052,0,0,1,43.774,3.3c.047,1.69.021,3.383,0,5.074,0,.451.038.688.578.863a3.01,3.01,0,0,1,1.289,4.845c-.127.156-.265.224-.057.476a2.883,2.883,0,0,1,.182,3.849.679.679,0,0,0,.031.952,2.873,2.873,0,0,1-.091,3.672.514.514,0,0,0,.009.77,3,3,0,0,1-.658,4.4,1.7,1.7,0,0,1-1.034.482c-.313,0-.239.326-.239.542,0,2.2.021,4.409-.008,6.614a3.24,3.24,0,0,1-3.442,3.482c-1.2-.011-2.395.008-3.592-.008a.619.619,0,0,0-.646.388,9.4,9.4,0,0,1-3.343,3.631,11.028,11.028,0,0,1-2.838,1.346,13.317,13.317,0,0,1-3.322.4.83.83,0,0,0-.733.314.7.7,0,0,1-.2.2,1.224,1.224,0,0,0-.455,2.016,1.991,1.991,0,0,1,.217,1.455,4.047,4.047,0,0,1-2.639,3.711,4.227,4.227,0,0,1-4.926-1.27c-.337-.384-.206-.713.051-1.051a1.083,1.083,0,0,1,1.326.231,2.719,2.719,0,0,0,2.911.718,2.858,2.858,0,0,0,1.629-3.243c-.294-1.056-1.218-1.6-1.861-2.37-.538-.642-1.236-1.147-1.793-1.775-.5-.561-1.051-1.067-1.575-1.594-.591-.594-1.221-1.167-1.79-1.779-.633-.68-1.3-1.312-1.983-1.938-.853-.783-3.136-.589-3.773.525a2.744,2.744,0,0,0,.361,3.588c1.487,1.522,2.988,3.031,4.52,4.508a1.018,1.018,0,0,1,.291,1.3m25.94-38.042a1.555,1.555,0,0,0-1.624,1.466,1.486,1.486,0,0,0,1.7,1.468,4.554,4.554,0,0,0,1.411,0,1.58,1.58,0,0,0,1.223-1.3,1.407,1.407,0,0,0-.923-1.484,4.137,4.137,0,0,0-1.721-.156l-.035-.033Zm.086,9.108a1.479,1.479,0,1,0,0,2.917c.4.008.795.031,1.191.02a1.526,1.526,0,0,0,1.422-1.141,1.472,1.472,0,0,0-.793-1.629,3.9,3.9,0,0,0-1.821-.167m0-1.631a6,6,0,0,0,1.418,0,1.562,1.562,0,0,0,1.21-1.231,1.39,1.39,0,0,0-.862-1.529,3.427,3.427,0,0,0-1.767-.156,1.5,1.5,0,0,0-1.711,1.4A1.485,1.485,0,0,0,42.2,18.054m-.115,6.177a1.46,1.46,0,0,0-1.6,1.33,1.613,1.613,0,0,0,1.371,1.6c.531.007,1.062.033,1.591.016a1.454,1.454,0,0,0,1.372-1.3,1.416,1.416,0,0,0-.949-1.55,4.44,4.44,0,0,0-1.789-.095M24.5,39.5a7.215,7.215,0,0,0,.732-1.129,9.028,9.028,0,0,0,.3-6.779,6.6,6.6,0,0,0-3.389-3.983,1.238,1.238,0,0,1-.783-1.321c.02-2.983,0-5.966.018-8.949a1.763,1.763,0,0,0-1.025-1.547,2.14,2.14,0,0,0-2.129.521A1.789,1.789,0,0,0,18,17.5q-.011,4.247,0,8.494c0,.416.021.832.032,1.249-.01.189-.029.378-.029.567,0,2.547-.009,5.094,0,7.641a1.55,1.55,0,0,1-.5,1.2c-.311.292-.588.621-.913.9-.3.254-.3.417-.011.7,2.016,1.984,4.01,3.99,6.018,5.982.373.37.736,1.061,1.141,1.005.439-.061.8-.691,1.193-1.073A.305.305,0,0,0,25,44.086c.2-.468.593-.484,1.022-.487a9.934,9.934,0,0,0,3.561-.4,10.184,10.184,0,0,0,3.582-2.146,6.348,6.348,0,0,0,1.31-1.741c-2.613,0-5.122.007-7.631-.008a.641.641,0,0,0-.611.378c-.161.254-.23.606-.544.722-.68.251-1.112-.091-1.189-.91M42.213,28.709c-.894.143-1.341-.068-2.292-.831a3.065,3.065,0,0,1-.3-4.089c.233-.292.252-.432.022-.717a3.121,3.121,0,0,1,.087-3.965.313.313,0,0,0-.006-.5,3.062,3.062,0,0,1-.133-3.861c.323-.365.207-.578-.047-.9a2.947,2.947,0,0,1-.431-2.708,2.852,2.852,0,0,1,2.472-2.089c.44-.084.681-.2.646-.729a23.6,23.6,0,0,1,0-2.621c.022-.483-.133-.592-.6-.591q-8.924.022-17.847.007c-.789,0-.793,0-.794.785q0,9.95-.009,19.9a.652.652,0,0,0,.391.71,4.673,4.673,0,0,1,1.054.737,8.88,8.88,0,0,1,2.853,4.9c.085.4.275.5.676.5,2.813-.02,5.626-.01,8.439-.01q2.68,0,5.36,0c.214,0,.472.079.469-.3-.011-1.2,0-2.392,0-3.614m-7.306,5.5V34.18c-2.261,0-4.521,0-6.782,0-.173,0-.44-.1-.5.133a3.329,3.329,0,0,0-.194,1.074,4.023,4.023,0,0,1-.215,1.923c-.108.472.054.459.388.459q6.469-.011,12.937-.014a1.518,1.518,0,0,0,1.568-1.195,9.182,9.182,0,0,0,.1-1.862c.044-.417-.141-.5-.522-.5-2.26.014-4.521.007-6.781.007" transform="translate(-7.861 -0.001)"/>
        <path id="Trazado_239284" data-name="Trazado 239284" d="M28.056,334.613a1.017,1.017,0,0,0-.291-1.3c-1.532-1.477-3.033-2.986-4.52-4.508a2.744,2.744,0,0,1-.361-3.588c.638-1.114,2.921-1.308,3.773-.525.682.626,1.35,1.258,1.983,1.938.569.612,1.2,1.185,1.79,1.779.524.527,1.078,1.033,1.575,1.594.557.628,1.255,1.134,1.793,1.775.643.768,1.567,1.314,1.861,2.37A2.858,2.858,0,0,1,34.03,337.4a2.719,2.719,0,0,1-2.911-.718,1.083,1.083,0,0,0-1.326-.231l-1.737-1.833" transform="translate(-19.746 -285.995)" fill="#7776d0"/>
        <path id="Trazado_239285" data-name="Trazado 239285" d="M134.549,6.228a1.445,1.445,0,0,0,1.56.8c2.982-.039,5.964-.025,8.946,0a1.512,1.512,0,0,1,1.655,1.159c.187.607.075.783-.546.784q-3.334,0-6.667.007-5.727,0-11.454,0c-.565,0-.666-.133-.515-.662a1.628,1.628,0,0,1,1.718-1.3c.456-.005.912,0,1.368,0,.936,0,.975-.029,1.2-.868a17.235,17.235,0,0,0,2.739.086" transform="translate(-112.437 -5.418)" fill="#7776d0"/>
        <path id="Trazado_239286" data-name="Trazado 239286" d="M30.75,106.159c-.44,0-.714-.2-.719-.663a.813.813,0,0,1,.778-.829c.367.016.818.409.815.711-.006.511-.308.781-.874.781" transform="translate(-26.49 -92.326)"/>
        <path id="Trazado_239287" data-name="Trazado 239287" d="M322.994,52.4a.706.706,0,0,1,.81.669.876.876,0,0,1-.821.827.852.852,0,0,1-.767-.752.692.692,0,0,1,.777-.745" transform="translate(-284.226 -46.226)"/>
        <path id="Trazado_239288" data-name="Trazado 239288" d="M53.112,75.688a.826.826,0,0,1,.755.779.907.907,0,0,1-.875.7.707.707,0,0,1-.717-.756c-.015-.479.312-.749.837-.727" transform="translate(-46.111 -66.763)"/>
        <path id="Trazado_239289" data-name="Trazado 239289" d="M369.764,317.55c.466-.028.758.157.781.653a.83.83,0,0,1-.778.83.781.781,0,0,1-.774-.83.655.655,0,0,1,.772-.653" transform="translate(-325.485 -280.106)"/>
        <path id="Trazado_239290" data-name="Trazado 239290" d="M347.152,348.054a.87.87,0,0,1-.771-.746c-.006-.468.333-.748.851-.741.5.006.688.325.737.738.042.353-.435.759-.817.749" transform="translate(-305.542 -305.706)"/>
        <path id="Trazado_239291" data-name="Trazado 239291" d="M288.169,391.664a.749.749,0,0,1-.829-.721c-.02-.462.288-.763.822-.764a.746.746,0,0,1,.767.671c.066.358-.393.807-.76.813" transform="translate(-253.461 -344.176)"/>
        <path id="Trazado_239292" data-name="Trazado 239292" d="M14.451,138.479c.437-.075.654.172.676.617.023.473-.332.759-.889.755a.631.631,0,0,1-.707-.689c-.013-.481.265-.691.919-.683" transform="translate(-11.936 -122.14)"/>
        <path id="Trazado_239293" data-name="Trazado 239293" d="M253.373,404.222c-.514.118-.653-.3-.727-.679s.375-.795.767-.8a.857.857,0,0,1,.811.775c-.01.449-.3.7-.851.7" transform="translate(-222.851 -355.26)"/>
        <path id="Trazado_239294" data-name="Trazado 239294" d="M.756,210.142a.652.652,0,0,1,.737.718.675.675,0,0,1-.683.769A.707.707,0,0,1,0,210.912a.693.693,0,0,1,.755-.77" transform="translate(0 -185.366)"/>
        <path id="Trazado_239295" data-name="Trazado 239295" d="M373.024,107.4c0,.508-.238.736-.76.737a.644.644,0,0,1-.724-.718.689.689,0,0,1,.765-.755c.411.048.775.2.718.736" transform="translate(-327.735 -94.084)"/>
        <path id="Trazado_239296" data-name="Trazado 239296" d="M397.425,250.377a.723.723,0,0,1-.8-.8c0-.486.326-.646.719-.687a.69.69,0,0,1,.779.734.652.652,0,0,1-.7.748" transform="translate(-349.864 -219.545)"/>
        <path id="Trazado_239297" data-name="Trazado 239297" d="M386.83,284.658a.792.792,0,0,1,.82.713.89.89,0,0,1-.879.766.853.853,0,0,1-.71-.86.634.634,0,0,1,.769-.619" transform="translate(-340.542 -251.093)"/>
        <path id="Trazado_239298" data-name="Trazado 239298" d="M4.008,174.891c-.519.038-.68-.345-.758-.726s.357-.76.763-.757a.714.714,0,0,1,.786.748.7.7,0,0,1-.791.735" transform="translate(-2.859 -152.962)"/>
        <path id="Trazado_239299" data-name="Trazado 239299" d="M387.861,141.1c-.053-.608.32-.674.76-.662a.661.661,0,0,1,.72.737.838.838,0,0,1-.88.741c-.421-.087-.706-.347-.6-.816" transform="translate(-342.111 -123.878)"/>
        <path id="Trazado_239300" data-name="Trazado 239300" d="M80.219,52.073c-.4,0-.839-.358-.79-.726a.792.792,0,0,1,.7-.744.853.853,0,0,1,.881.681.77.77,0,0,1-.794.789" transform="translate(-70.061 -44.634)"/>
        <path id="Trazado_239301" data-name="Trazado 239301" d="M15.011,283.332a.873.873,0,0,1-.728.858.855.855,0,0,1-.766-.8.645.645,0,0,1,.749-.693c.431.006.8.1.745.635" transform="translate(-11.923 -249.366)"/>
        <path id="Trazado_239302" data-name="Trazado 239302" d="M350.808,78.243a.718.718,0,0,1-.832.791.819.819,0,0,1-.644-.817c.062-.381.216-.7.718-.673.606.03.758.143.759.7" transform="translate(-308.139 -68.4)"/>
        <path id="Trazado_239303" data-name="Trazado 239303" d="M319.993,373.077a.657.657,0,0,1-.752-.694c-.026-.465.143-.707.647-.685.427.018.859-.038.847.6-.01.5-.247.77-.742.78" transform="translate(-281.6 -327.872)"/>
        <path id="Trazado_239304" data-name="Trazado 239304" d="M218.223,410.266a.718.718,0,0,1-.76.775.734.734,0,0,1-.722-.817c-.013-.473.307-.624.672-.657a.671.671,0,0,1,.81.7" transform="translate(-191.186 -361.275)"/>
        <path id="Trazado_239305" data-name="Trazado 239305" d="M4.017,247.682c.519-.1.776.116.79.614a.705.705,0,0,1-.787.739.751.751,0,0,1-.762-.766c.061-.422.244-.759.759-.587" transform="translate(-2.869 -218.439)"/>
        <path id="Trazado_239306" data-name="Trazado 239306" d="M398.287,176.236c.507-.009.868.075.834.67a.652.652,0,0,1-.747.7c-.515,0-.732-.234-.747-.754s.248-.668.661-.618" transform="translate(-350.744 -155.449)"/>
        <path id="Trazado_239307" data-name="Trazado 239307" d="M180.894,410.02a.774.774,0,0,1-.9.843c-.436-.025-.586-.412-.649-.76-.073-.4.278-.637.815-.645a.637.637,0,0,1,.734.562" transform="translate(-158.191 -361.181)"/>
        <path id="Trazado_239308" data-name="Trazado 239308" d="M401.234,214.388a.661.661,0,0,1-.739-.708c0-.487.265-.678.734-.671.56.008.769.185.757.7-.012.486-.292.686-.751.681" transform="translate(-353.275 -187.894)"/>
        <path id="Trazado_239309" data-name="Trazado 239309" d="M147.426,66.892c0,1.222-.007,2.418,0,3.614,0,.382-.255.3-.469.3q-2.68.005-5.36,0c-2.813,0-5.626-.009-8.439.01-.4,0-.592-.1-.676-.5a8.881,8.881,0,0,0-2.853-4.9,4.68,4.68,0,0,0-1.054-.736.652.652,0,0,1-.391-.71q.012-9.95.009-19.9c0-.785,0-.786.794-.785q8.924,0,17.847-.007c.467,0,.622.107.6.591a23.561,23.561,0,0,0,0,2.621c.035.534-.207.645-.647.729a2.852,2.852,0,0,0-2.472,2.089,2.947,2.947,0,0,0,.431,2.708c.255.326.37.539.047.9a3.062,3.062,0,0,0,.133,3.861.313.313,0,0,1,.006.5,3.12,3.12,0,0,0-.087,3.965c.231.285.212.425-.022.717a3.065,3.065,0,0,0,.3,4.089c.951.763,1.4.974,2.292.831M130.189,53.649a.58.58,0,0,0,.375.66.672.672,0,0,0,.77-.055,7.476,7.476,0,0,0,1.188-1.181q2.517-2.61,5.066-5.189c.328-.333.706-.617,1.033-.951a.724.724,0,0,0,.063-1.055.793.793,0,0,0-1.1-.1,4.069,4.069,0,0,0-.636.68q-3.148,3.118-6.267,6.267c-.251.252-.538.489-.487.923m0-4.954c-.133.42.27.532.515.657a.729.729,0,0,0,.851-.25q1.057-1.1,2.112-2.208c.374-.39.407-.759.092-1.072a.918.918,0,0,0-1.212.018,18.007,18.007,0,0,0-1.585,1.626c-.288.367-.868.58-.774,1.23" transform="translate(-113.074 -38.183)" fill="#d4d9ff"/>
        <path id="Trazado_239310" data-name="Trazado 239310" d="M80.184,243.313c.077.819.509,1.161,1.189.91.314-.116.383-.469.544-.722a.641.641,0,0,1,.611-.378c2.509.015,5.018.008,7.631.008a6.346,6.346,0,0,1-1.31,1.741,10.184,10.184,0,0,1-3.582,2.146,9.934,9.934,0,0,1-3.561.4c-.429,0-.825.019-1.022.487a.3.3,0,0,1-.077.083c-.394.382-.754,1.012-1.192,1.073-.405.056-.768-.636-1.141-1.005-2.009-1.991-4-4-6.018-5.982-.29-.286-.288-.449.011-.7.324-.275.6-.6.913-.9a1.55,1.55,0,0,0,.5-1.2c-.008-2.547,0-5.094,0-7.641,0-.189.019-.378.029-.567a2.071,2.071,0,0,1,.864.523,8.3,8.3,0,0,1,1.771,2.121,9.187,9.187,0,0,1,1.193,5.291,4.627,4.627,0,0,0,.467,2.782,2.815,2.815,0,0,0,2.178,1.538" transform="translate(-63.544 -203.816)" fill="#ffdbd3"/>
        <path id="Trazado_239311" data-name="Trazado 239311" d="M92.429,156.917a2.815,2.815,0,0,1-2.178-1.538,4.627,4.627,0,0,1-.467-2.782,9.187,9.187,0,0,0-1.193-5.291,8.3,8.3,0,0,0-1.771-2.121,2.071,2.071,0,0,0-.864-.523c-.011-.416-.032-.832-.032-1.249q0-4.247,0-8.494a1.79,1.79,0,0,1,.228-1.19,2.14,2.14,0,0,1,2.129-.521,1.763,1.763,0,0,1,1.025,1.547c-.022,2.983,0,5.966-.018,8.949a1.238,1.238,0,0,0,.783,1.321,6.6,6.6,0,0,1,3.389,3.983,9.028,9.028,0,0,1-.3,6.779,7.215,7.215,0,0,1-.732,1.129" transform="translate(-75.79 -117.419)" fill="#ffd1c7"/>
        <path id="Trazado_239312" data-name="Trazado 239312" d="M171.613,289.782c2.26,0,4.521.007,6.781-.007.381,0,.566.085.522.5a9.182,9.182,0,0,1-.1,1.862,1.518,1.518,0,0,1-1.568,1.195q-6.469.01-12.937.014c-.334,0-.5.013-.388-.459a4.023,4.023,0,0,0,.215-1.923,3.329,3.329,0,0,1,.194-1.074c.057-.238.325-.133.5-.133,2.261-.007,4.521,0,6.782,0v.031" transform="translate(-144.567 -255.573)" fill="#7776d0"/>
        <path id="Trazado_239313" data-name="Trazado 239313" d="M288.575,205.181a4.44,4.44,0,0,1,1.789.095,1.416,1.416,0,0,1,.949,1.55,1.454,1.454,0,0,1-1.372,1.3c-.53.017-1.061-.009-1.592-.016a1.706,1.706,0,0,0,.585-1.54,3.138,3.138,0,0,0-.36-1.387" transform="translate(-254.353 -180.951)" fill="#ffd1c7"/>
        <path id="Trazado_239314" data-name="Trazado 239314" d="M291.076,89.6a4.137,4.137,0,0,1,1.722.156,1.406,1.406,0,0,1,.923,1.484,1.58,1.58,0,0,1-1.223,1.3,4.554,4.554,0,0,1-1.411,0,3.023,3.023,0,0,0-.008-2.775l0-.159" transform="translate(-256.757 -79.022)" fill="#ffd1c7"/>
        <path id="Trazado_239315" data-name="Trazado 239315" d="M291.23,128.109a3.429,3.429,0,0,1,1.767.156,1.39,1.39,0,0,1,.862,1.529,1.562,1.562,0,0,1-1.21,1.231,6.008,6.008,0,0,1-1.418,0,1.5,1.5,0,0,1,.081-.378,2.2,2.2,0,0,0,0-2.1,1.615,1.615,0,0,1-.084-.433" transform="translate(-256.893 -112.967)" fill="#ffd1c7"/>
        <path id="Trazado_239316" data-name="Trazado 239316" d="M291.227,166.751a3.9,3.9,0,0,1,1.821.167,1.472,1.472,0,0,1,.793,1.629,1.526,1.526,0,0,1-1.422,1.141c-.4.011-.794-.012-1.191-.02a2.263,2.263,0,0,1,.112-.427,2.2,2.2,0,0,0,.063-1.846,5.629,5.629,0,0,1-.176-.645" transform="translate(-256.89 -147.067)" fill="#ffd1c7"/>
        <path id="Trazado_239317" data-name="Trazado 239317" d="M278.334,166.747a5.623,5.623,0,0,0,.176.645,2.2,2.2,0,0,1-.063,1.846,2.264,2.264,0,0,0-.112.427,1.479,1.479,0,1,1,0-2.917" transform="translate(-243.997 -147.064)" fill="#ffdbd3"/>
        <path id="Trazado_239318" data-name="Trazado 239318" d="M278.43,128.405a1.616,1.616,0,0,0,.084.433,2.2,2.2,0,0,1,0,2.1,1.5,1.5,0,0,0-.081.378,1.485,1.485,0,0,1-1.711-1.514,1.5,1.5,0,0,1,1.71-1.4" transform="translate(-244.093 -113.264)" fill="#ffdbd3"/>
        <path id="Trazado_239319" data-name="Trazado 239319" d="M278.388,89.85a3.023,3.023,0,0,1,.008,2.775,1.486,1.486,0,0,1-1.7-1.468,1.555,1.555,0,0,1,1.624-1.466.112.112,0,0,0,.071.159" transform="translate(-244.067 -79.115)" fill="#ffdbd3"/>
        <path id="Trazado_239320" data-name="Trazado 239320" d="M278.307,205.51a3.138,3.138,0,0,1,.36,1.387,1.705,1.705,0,0,1-.585,1.54,1.613,1.613,0,0,1-1.371-1.6,1.46,1.46,0,0,1,1.6-1.33" transform="translate(-244.085 -181.28)" fill="#ffdbd3"/>
        <path id="Trazado_239321" data-name="Trazado 239321" d="M290.481,89.615a.112.112,0,0,1-.071-.159l.035-.033.034.033c0,.053,0,.106,0,.159" transform="translate(-256.159 -78.88)" fill="#7776d0"/>
        <path id="Trazado_239322" data-name="Trazado 239322" d="M145.081,70.976c-.051-.435.235-.671.487-.923q3.129-3.138,6.267-6.267a4.077,4.077,0,0,1,.636-.68.793.793,0,0,1,1.1.1.724.724,0,0,1-.063,1.055c-.328.333-.705.617-1.033.951q-2.543,2.585-5.066,5.189a7.474,7.474,0,0,1-1.188,1.181.672.672,0,0,1-.77.056.58.58,0,0,1-.375-.66" transform="translate(-127.967 -55.51)"/>
        <path id="Trazado_239323" data-name="Trazado 239323" d="M144.979,66.016c-.094-.65.485-.864.774-1.23a18.008,18.008,0,0,1,1.585-1.626.918.918,0,0,1,1.212-.018c.316.313.283.682-.092,1.072q-1.057,1.1-2.112,2.208a.729.729,0,0,1-.851.25c-.245-.124-.648-.237-.515-.657" transform="translate(-127.862 -55.504)"/>
      </g>
    </g>
  </g>
</svg>
