<svg xmlns="http://www.w3.org/2000/svg" xmlns:xlink="http://www.w3.org/1999/xlink" width="400" height="267.86" viewBox="0 0 400 267.86">
  <defs>
    <clipPath id="clip-path">
      <rect id="Rectángulo_314695" data-name="Rectángulo 314695" width="400" height="267.86" fill="none"/>
    </clipPath>
    <clipPath id="clip-path-3">
      <rect id="Rectángulo_314692" data-name="Rectángulo 314692" width="103.029" height="106.303" fill="none"/>
    </clipPath>
    <clipPath id="clip-path-4">
      <rect id="Rectángulo_314693" data-name="Rectángulo 314693" width="23.112" height="18.911" fill="none"/>
    </clipPath>
  </defs>
  <g id="Grupo_242662" data-name="Grupo 242662" transform="translate(-285 -1444)">
    <g id="Grupo_240311" data-name="Grupo 240311" transform="translate(285 1444)">
      <g id="Grupo_240310" data-name="Grupo 240310" clip-path="url(#clip-path)">
        <g id="Grupo_240309" data-name="Grupo 240309">
          <g id="Grupo_240308" data-name="Grupo 240308" clip-path="url(#clip-path)">
            <path id="Trazado_238529" data-name="Trazado 238529" d="M230.462,64.15,243.7,70.814l1.42-2.778-.013-.006,16.988-33.587L228.211,16.93,221.4,30.085a2.592,2.592,0,0,1-3.51.825,2.628,2.628,0,0,1-1.291-1.567,5.446,5.446,0,0,0-2.5-3.271c-2.2-1.084-4.562-.156-5.737,2.233a4.154,4.154,0,0,0,1.728,5.917,4.316,4.316,0,0,0,4.179.038,2.4,2.4,0,0,1,1.936.07,2.463,2.463,0,0,1,1.234,3.278L209.724,53.4l5.093,2.576,7.669,3.949a2.308,2.308,0,0,1-.585,4.435,5.05,5.05,0,0,0-3.252,2.307c-1.1,2.074-.141,4.441,2.312,5.741s5.145.8,6.247-1.277a5.383,5.383,0,0,0-.061-4.138,2.169,2.169,0,0,1,.075-1.864,2.32,2.32,0,0,1,3.239-.977" transform="translate(81.835 6.668)" fill="#f5f5f5"/>
            <path id="Trazado_238530" data-name="Trazado 238530" d="M15.7,181.287l.128,19.918H20.02v-.018l50.6-.231.216-51.272-19.911-.091c-1.816.028-3.108-1.8-3.135-3.7a3.528,3.528,0,0,1,1.084-2.5,7.326,7.326,0,0,0,2.385-4.991c-.047-3.3-2.607-5.557-6.185-5.5s-5.741,2-6.023,5.693c-.206,2.7,1.441,4.027,2.513,5.025a3.216,3.216,0,0,1,1.1,2.357,3.314,3.314,0,0,1-3.17,3.485l-23.625.424.038,7.673-.033,11.6a3.355,3.355,0,0,1-3.338,3.379,3.376,3.376,0,0,1-2.326-1.366,6.8,6.8,0,0,0-4.753-2.478C2.3,168.64.056,171.238,0,174.971s2.2,6.646,5.352,6.7c2.036.032,3.928-1.522,4.916-2.609a2.922,2.922,0,0,1,2.278-1.05,3.12,3.12,0,0,1,3.152,3.278" transform="translate(0 52.345)" fill="#f5f5f5"/>
            <path id="Trazado_238531" data-name="Trazado 238531" d="M292.021,124.094a3.529,3.529,0,0,0-4.941.622,3.288,3.288,0,0,0-.558,2.675c.337,1.5.59,3.918-.663,5.626-1.944,2.646-5.543,2.855-8.715.532s-4.051-5.811-2.1-8.457c1.253-1.706,3.639-2.191,5.175-2.321a3.3,3.3,0,0,0,2.388-1.334,3.444,3.444,0,0,0-.223-4.249l-13.564-9.554-3.671-2.537-14.128,19.833a3.472,3.472,0,0,0,1.083,4.812,3.408,3.408,0,0,0,2.687.5c1.5-.3,3.634-.888,5.826.934,3,2.491,3.365,5.509,1.257,8.576s-5.589,3.857-8.445,1.889a7.749,7.749,0,0,1-2.848-5.067,3.739,3.739,0,0,0-1.5-2.448c-1.5-1.031-3.578-1.136-4.745.033a2.761,2.761,0,0,1-.245.417l-12.142,16.778L276.312,182.6l32.331-46.583Z" transform="translate(91.357 41.395)" fill="#ececec"/>
            <path id="Trazado_238532" data-name="Trazado 238532" d="M28.307,36.853a3.531,3.531,0,0,0-.7,4.933,3.292,3.292,0,0,0,2.434,1.241c1.537.068,3.936.459,5.255,2.117,2.042,2.569,1.3,6.1-1.773,8.547s-6.671,2.382-8.713-.19c-1.319-1.657-1.16-4.088-.881-5.6a3.3,3.3,0,0,0-.661-2.655,3.444,3.444,0,0,0-4.158-.9L6.332,54.926,2.923,57.8,18.352,76.641a3.471,3.471,0,0,0,4.926.219A3.4,3.4,0,0,0,24.469,74.4c.106-1.529.1-3.74,2.431-5.378,3.192-2.241,6.2-1.8,8.606,1.038s2.255,6.4-.393,8.643a7.746,7.746,0,0,1-5.638,1.419,3.739,3.739,0,0,0-2.753.8c-1.39,1.174-2.036,3.154-1.214,4.587a2.657,2.657,0,0,1,.337.347l13,16.119L80.641,67.372,44.177,23.946Z" transform="translate(1.151 9.432)" fill="#ececec"/>
            <path id="Trazado_238533" data-name="Trazado 238533" d="M357.043,191.551c0,.2-69.83.362-155.95.362-86.149,0-155.964-.162-155.964-.362s69.815-.362,155.964-.362c86.12,0,155.95.162,155.95.362" transform="translate(17.775 75.303)" fill="#1a2e35"/>
            <path id="Trazado_238534" data-name="Trazado 238534" d="M77.824,57.1c-2.862-6.059-5.7-12.17-7.481-18.63S67.89,25.125,69.411,18.6c.23-.99,2.414-7.708,3.43-7.737.726-.021-.364,6.126.078,6.7,4.218,5.5,6.07,12.523,6.392,19.444a90.779,90.779,0,0,1-1.487,20.1" transform="translate(27.007 4.278)" fill="#1a2e35"/>
            <path id="Trazado_238535" data-name="Trazado 238535" d="M120.642,112.759c-.551-4.7-3.164-28.2-3.128-28.2,0,0,15.9-3.687,14.916-19.782-.475-7.776-2.757-23.71-4.99-38.1a30.043,30.043,0,0,0-31.9-25.352l-1.551.114C77.329,3.641,69.9,19.023,72.566,35.617L84.631,112.8,113,111.449Z" transform="translate(28.372 0.487)" fill="#ffc09d"/>
            <path id="Trazado_238536" data-name="Trazado 238536" d="M110.709,62.326a38.955,38.955,0,0,1-21.4-4.65s5.91,11.565,21.852,8.936Z" transform="translate(35.178 22.717)" fill="#ff9b6c"/>
            <path id="Trazado_238537" data-name="Trazado 238537" d="M109.632,30.818a2.3,2.3,0,0,1-2.045,2.48,2.2,2.2,0,0,1-2.519-1.9,2.3,2.3,0,0,1,2.041-2.482,2.206,2.206,0,0,1,2.523,1.9" transform="translate(41.378 11.383)" fill="#1a2e35"/>
            <path id="Trazado_238538" data-name="Trazado 238538" d="M112.238,25.048c-.262.321-2.1-.839-4.568-.651-2.471.153-4.193,1.557-4.483,1.274-.141-.124.109-.686.857-1.319a6.307,6.307,0,0,1,3.56-1.391,6.072,6.072,0,0,1,3.664.892c.8.527,1.1,1.05.969,1.195" transform="translate(40.628 9.038)" fill="#1a2e35"/>
            <path id="Trazado_238539" data-name="Trazado 238539" d="M93.532,32.875a2.3,2.3,0,0,1-2.045,2.48,2.2,2.2,0,0,1-2.519-1.9,2.305,2.305,0,0,1,2.042-2.482,2.205,2.205,0,0,1,2.522,1.9" transform="translate(35.037 12.193)" fill="#1a2e35"/>
            <path id="Trazado_238540" data-name="Trazado 238540" d="M94.923,27.043c-.263.321-2.1-.839-4.569-.651-2.471.153-4.191,1.558-4.481,1.275-.141-.124.106-.686.856-1.319a6.307,6.307,0,0,1,3.56-1.392,6.082,6.082,0,0,1,3.664.892c.8.528,1.1,1.051.97,1.195" transform="translate(33.808 9.824)" fill="#1a2e35"/>
            <path id="Trazado_238541" data-name="Trazado 238541" d="M100.471,45.4c-.022-.139,1.5-.519,3.96-1.019.627-.112,1.215-.282,1.289-.719a3.215,3.215,0,0,0-.558-1.84q-1.06-2.227-2.22-4.669c-3.1-6.65-5.385-12.139-5.117-12.26s3,5.168,6.091,11.821q1.123,2.461,2.144,4.7a3.667,3.667,0,0,1,.51,2.453,1.587,1.587,0,0,1-.97,1,4.231,4.231,0,0,1-1.061.227c-2.5.319-4.049.445-4.069.305" transform="translate(38.522 9.804)" fill="#1a2e35"/>
            <path id="Trazado_238542" data-name="Trazado 238542" d="M110.436,17.59c-.368.609-2.131.227-4.173.438-2.049.139-3.722.814-4.187.276-.208-.263,0-.854.691-1.472a6.077,6.077,0,0,1,6.738-.576c.786.491,1.09,1.04.931,1.334" transform="translate(40.174 6.104)" fill="#1a2e35"/>
            <path id="Trazado_238543" data-name="Trazado 238543" d="M94.782,23.018c-.4.588-2.141.11-4.191.209-2.053.026-3.761.609-4.2.046-.192-.275.046-.853.771-1.432a6.075,6.075,0,0,1,6.759-.206c.76.534,1.033,1.1.857,1.383" transform="translate(34.003 8.156)" fill="#1a2e35"/>
            <path id="Trazado_238544" data-name="Trazado 238544" d="M76.874,34.455c-.283-.1-11.29-2.455-10.131,8.514S79.731,50.911,79.717,50.6s-2.843-16.141-2.843-16.141" transform="translate(26.254 13.461)" fill="#ffc09d"/>
            <path id="Trazado_238545" data-name="Trazado 238545" d="M74.067,45.334c-.052-.031-.177.153-.485.336a1.914,1.914,0,0,1-1.425.18c-1.2-.3-2.374-2.039-2.637-4.01a6.359,6.359,0,0,1,.247-2.792,2.221,2.221,0,0,1,1.282-1.62.98.98,0,0,1,1.183.4c.178.291.132.519.192.531.033.024.216-.209.079-.652a1.228,1.228,0,0,0-.5-.643,1.456,1.456,0,0,0-1.086-.167A2.7,2.7,0,0,0,69.1,38.814a6.524,6.524,0,0,0-.339,3.128c.3,2.2,1.653,4.151,3.288,4.442a2.063,2.063,0,0,0,1.717-.475c.311-.308.343-.559.3-.574" transform="translate(27.059 14.52)" fill="#ff9b6c"/>
            <path id="Trazado_238546" data-name="Trazado 238546" d="M119.464,9.815c1.661-1.181-4.32-6.314-8.905-7.792-6.93-2.233-17.2-2.92-23.076-.5C80.409,4.435,74.75,8.77,71.842,15.845s-3.4,14.99-2.314,22.563a13.187,13.187,0,0,0,2.311,6.519c1.809,2.247,4.92,3.436,5.175,6.792a4.612,4.612,0,0,0,1.522,3.214c2.25,1.9,4.473-.382,5.369-2.519,1.917-4.569,1.6-9.726,1.246-14.668-.251-3.511-.519-7.1-1.889-10.343-.746-1.763-1.805-3.39-2.452-5.195a6.63,6.63,0,0,1,.149-5.56,6.9,6.9,0,0,1,.788-1,11.5,11.5,0,0,1,11.09-3.458c6.422,1.475,17.334,3.526,19.846,1.118,3.614-3.467,4.336-5.541,4.336-5.541Z" transform="translate(27.177 0)" fill="#1a2e35"/>
            <path id="Trazado_238547" data-name="Trazado 238547" d="M103.151,45.238c-.13-.4-2.073,0-4.111-.857-2.053-.827-3.152-2.478-3.522-2.289-.174.084-.134.654.318,1.426a5.659,5.659,0,0,0,6.086,2.509c.864-.23,1.294-.606,1.229-.789" transform="translate(37.584 16.573)" fill="#1a2e35"/>
            <path id="Trazado_238548" data-name="Trazado 238548" d="M79.889,137.1l-23.856-1.214,22.634-18.736L60.485,83.671s-37.877,44.384-41.18,50.7c-3.7,7.071-6.83,18.58,3.4,24.2,7.107,3.908,63.293,3.506,63.293,3.506Z" transform="translate(6.216 32.955)" fill="#ffc09d"/>
            <path id="Trazado_238549" data-name="Trazado 238549" d="M85.049,190.425v8.827l69.257,1,1.872-28.617Z" transform="translate(33.498 67.603)" fill="#1a2e35"/>
            <path id="Trazado_238550" data-name="Trazado 238550" d="M130.56,67.046s46.2,40.333,46.933,39.355,15.221-39.355,15.221-39.355l26.333.528s-13.933,58.183-22.489,65.828-18.088,5.175-24.688,3.876-38.4-30.523-38.4-30.523Z" transform="translate(51.424 26.407)" fill="#ffc09d"/>
            <path id="Trazado_238551" data-name="Trazado 238551" d="M89.875,67.34,52.851,79.876l8.079,29.7,16.294,47.8,19.085,75.63,107.244-27.154-30.675-95.168-11.71-42.6-10.026-3.709L133.008,67.2l-6.218-.445s1.476,7.82-13.15,8.352c-8.787.319-23.765-7.764-23.765-7.764" transform="translate(20.816 25.359)" fill="#e1e1e1"/>
            <path id="Trazado_238552" data-name="Trazado 238552" d="M143.7,120.085l13.052,8.146,14.728-31.786s-28.7-29.476-38.082-31.46-12.786.92-12.786.92Z" transform="translate(47.505 25.322)" fill="#e1e1e1"/>
            <path id="Trazado_238553" data-name="Trazado 238553" d="M61.371,138.089,28.531,115.9S50.309,86.652,53.4,83.045a30.707,30.707,0,0,1,9.614-7.694l13.451,47.086Z" transform="translate(11.237 29.678)" fill="#e1e1e1"/>
            <path id="Trazado_238554" data-name="Trazado 238554" d="M56.585,89.75c-.13.042,3.041,10.179,7.081,22.638s7.42,22.531,7.549,22.489-3.04-10.177-7.081-22.641-7.42-22.528-7.549-22.486" transform="translate(22.286 35.35)" fill="#1a2e35"/>
            <path id="Trazado_238555" data-name="Trazado 238555" d="M146.036,137.7l-31.383-.146,0,6.847h.032l.382,78.48,84.966.336.151-30.884c-.046-2.817,2.984-4.821,6.125-4.863a6.029,6.029,0,0,1,4.15,1.682c1.709,1.617,4.754,3.748,8.274,3.7,5.458-.074,9.207-4.044,9.113-9.593s-3.313-8.905-9.432-9.342c-4.473-.319-6.672,2.236-8.326,3.9a5.488,5.488,0,0,1-3.908,1.71c-3.14.042-5.727-2.1-5.775-4.915l.045-36.373-13.378-.053-20.925-.21a5.4,5.4,0,0,1-5.6-5.18,4.819,4.819,0,0,1,1.848-3.685c1.852-1.484,4.472-4.134,4.524-7.293.082-4.9-4.226-8.38-10.412-8.464s-10.609,3.28-10.692,8.176c-.053,3.159,2.476,5.879,4.278,7.413a4.789,4.789,0,0,1,1.721,3.734c-.047,2.818-2.632,5.068-5.772,5.025" transform="translate(45.157 44.645)" fill="#375a64"/>
            <path id="Trazado_238556" data-name="Trazado 238556" d="M228.118,131.171c-3.142-.043-5.726,2.207-5.773,5.025a4.789,4.789,0,0,0,1.721,3.734c1.8,1.533,4.331,4.254,4.278,7.413-.084,4.9-4.508,8.26-10.692,8.176s-10.493-3.566-10.412-8.464c.054-3.159,2.672-5.808,4.524-7.293a4.819,4.819,0,0,0,1.848-3.685,5.2,5.2,0,0,0-4.159-4.973l-26.113.1-7.021.088-.045,36.32c.046,2.818,2.634,4.958,5.773,4.915a5.477,5.477,0,0,0,3.908-1.71c1.655-1.661,3.854-4.216,8.327-3.9,6.119.438,9.338,3.791,9.432,9.342s-3.655,9.519-9.113,9.593c-3.521.049-6.565-2.082-8.274-3.7a6.038,6.038,0,0,0-4.148-1.682c-2.863.039-5.628,1.71-6.059,4.14a3.689,3.689,0,0,1,.063.718l-.282,30.89,85.4-.341-.988-84.57Z" transform="translate(69.282 51.638)" fill="#75ffe6"/>
            <path id="Trazado_238557" data-name="Trazado 238557" d="M235.45,155.559l32.6-.2v-6.5h-.031l-.378-78.48-83.914-.336-.149,30.884c.046,2.817-2.947,4.821-6.048,4.863a5.918,5.918,0,0,1-4.1-1.682c-1.688-1.617-4.7-3.748-8.172-3.7-5.39.074-9.092,4.044-9,9.593s3.271,8.905,9.315,9.342c4.417.319,6.59-2.236,8.224-3.9a5.384,5.384,0,0,1,3.86-1.71c3.1-.042,5.656,2.1,5.7,4.915l.693,36.643,12.559-.057,18.98.05a5.36,5.36,0,0,1,5.531,5.18,5.2,5.2,0,0,1-2.237,3.609c-1.83,1.483-4,4.211-4.058,7.369-.081,4.9,4.175,8.38,10.284,8.464s10.875-3.405,10.957-8.3c.053-3.16-2.489-6.091-4.269-7.624a4.438,4.438,0,0,1-1.717-3.533,4.988,4.988,0,0,1,5.365-4.888" transform="translate(61.545 27.587)" fill="#375a64"/>
            <g id="Grupo_240304" data-name="Grupo 240304" transform="translate(100.101 91.146)" opacity="0.3">
              <g id="Grupo_240303" data-name="Grupo 240303">
                <g id="Grupo_240302" data-name="Grupo 240302" clip-path="url(#clip-path-3)">
                  <path id="Trazado_238558" data-name="Trazado 238558" d="M165.663,114.707a5.377,5.377,0,0,0-6.742-3.6,5.233,5.233,0,0,0-3.285,2.665c-1.151,2.078-2.594,5.191-6.932,5.935-5.932,1.016-9.848-1.614-11.346-7.216s1.059-10.515,6.232-11.892c3.338-.889,6.777.545,8.813,1.774a5.738,5.738,0,0,0,4.375.715c2.977-.793,5.351-3.545,4.591-6.388l-5.44-22.132-2.346-9.174L71.815,86.253l21,85.441,30.307-7.082a5.508,5.508,0,0,0,4.285-6.484,5.114,5.114,0,0,0-2.608-3.369c-2.124-1.118-5.252-3.264-6-6.477-1.164-4.982,2.244-9.457,8.224-10.867s11.016,1.079,12.18,6.061c.751,3.213-1.1,6.532-2.506,8.482a5.132,5.132,0,0,0-.843,4.182,5.372,5.372,0,0,0,5.269,4.034l27.309-6.958,6.416-1.7Z" transform="translate(-71.815 -65.391)"/>
                </g>
              </g>
            </g>
            <g id="Grupo_240307" data-name="Grupo 240307" transform="translate(244.805 97.029)" opacity="0.3">
              <g id="Grupo_240306" data-name="Grupo 240306">
                <g id="Grupo_240305" data-name="Grupo 240305" clip-path="url(#clip-path-4)">
                  <path id="Trazado_238559" data-name="Trazado 238559" d="M175.631,70.3c5.884-2.427,12.125,2.549,18.009.123a4.19,4.19,0,0,1,2.757-.45,3.483,3.483,0,0,1,2,2.6,11.339,11.339,0,0,1-1.649,9.053,16.018,16.018,0,0,1-7.333,5.79,11.581,11.581,0,0,1-7.439.8c-4.269-1.2-6.4-13.475-6.349-17.91" transform="translate(-175.63 -69.611)"/>
                </g>
              </g>
            </g>
            <path id="Trazado_238560" data-name="Trazado 238560" d="M175.559,69.074a4.84,4.84,0,0,0,2-2.088c.687-1.883,5.907-2.835,5.907-2.835a21.593,21.593,0,0,1,2.57-1.195c1.314-.493,4.237,1.464,4.237,1.464,3-1.655,3.92-.8,5.713.361a14.508,14.508,0,0,1,2.123,1.517,1.377,1.377,0,0,1,1.36-.425,4.165,4.165,0,0,1,3.468,3.015c.7,2.325,1.719,6.006,1.663,7.417-.084,2.131-2.811,7.322-2.811,7.322s-2.377,1.475-3.92.8.216-5.447.216-5.447l-1.313-6.461s-2.194,14.1-3.283,15.758-4.577,1.416-4.577,1.416c-3.458,2.987-5.107.383-5.107.383s-.428.46-1.97-.215-4.271-16.89-4.271-16.89l-4.672.569a5.328,5.328,0,0,1,2.669-4.466" transform="translate(68.096 24.765)" fill="#ffc09d"/>
            <path id="Trazado_238561" data-name="Trazado 238561" d="M186.848,67.089a4.418,4.418,0,0,0-.128.827c-.061.594-.141,1.352-.234,2.261-.185,1.912-.418,4.554-.657,7.474a62.83,62.83,0,0,1-.8,7.435,14.983,14.983,0,0,1-.634,2.165,6.109,6.109,0,0,0-.293.781c.01.006.05-.057.121-.18a5.966,5.966,0,0,0,.283-.553,12.26,12.26,0,0,0,.737-2.163,51.332,51.332,0,0,0,.9-7.459c.238-2.92.436-5.564.565-7.481.054-.912.1-1.674.137-2.269a4.328,4.328,0,0,0,.007-.836" transform="translate(72.509 26.424)" fill="#ff9b6c"/>
            <path id="Trazado_238562" data-name="Trazado 238562" d="M181.422,67.069a4.324,4.324,0,0,0-.091.843c-.035.6-.079,1.374-.131,2.3-.1,1.943-.212,4.628-.316,7.592s-.185,5.652-.226,7.6c-.014.927-.024,1.7-.032,2.3a4.506,4.506,0,0,0,.029.847,4.3,4.3,0,0,0,.091-.842c.035-.6.079-1.374.132-2.3.1-1.943.21-4.628.316-7.6s.184-5.652.224-7.6c.014-.927.025-1.7.033-2.3a4.527,4.527,0,0,0-.031-.846" transform="translate(71.143 26.416)" fill="#ff9b6c"/>
            <path id="Trazado_238563" data-name="Trazado 238563" d="M85.954,122.594l-44.388-1.409L35.79,146.313l47.582,1.717Z" transform="translate(14.096 47.731)" fill="#ffc09d"/>
            <path id="Trazado_238564" data-name="Trazado 238564" d="M25.666,119.779c.011.085,1.543-.109,4.028-.112a80.962,80.962,0,0,1,9.687.666c3.716.489,7.075.931,9.66,1.273,1.239.153,2.243.265,2.94.321a4.645,4.645,0,0,0,1.087.039,4.623,4.623,0,0,0-1.062-.23l-2.915-.475c-2.463-.392-5.864-.958-9.651-1.416a63.535,63.535,0,0,0-9.753-.525c-.626.014-1.19.056-1.687.1s-.921.084-1.267.144a4.664,4.664,0,0,0-1.068.213" transform="translate(10.109 46.984)" fill="#ff9b6c"/>
            <path id="Trazado_238565" data-name="Trazado 238565" d="M163.149,112.192a5.377,5.377,0,0,0-6.742-3.6,5.233,5.233,0,0,0-3.285,2.665c-1.151,2.078-2.594,5.191-6.932,5.935-5.932,1.016-9.848-1.614-11.346-7.216s1.059-10.515,6.232-11.892c3.338-.889,6.777.545,8.813,1.774a5.738,5.738,0,0,0,4.375.715c2.977-.793,5.351-3.545,4.591-6.389l-5.44-22.13-2.346-9.174L69.3,83.738l21,85.441,30.307-7.082a5.509,5.509,0,0,0,4.285-6.486,5.114,5.114,0,0,0-2.608-3.368c-2.124-1.118-5.252-3.264-6-6.477-1.164-4.982,2.244-9.457,8.224-10.867s11.016,1.079,12.18,6.061c.751,3.213-1.1,6.532-2.506,8.482a5.133,5.133,0,0,0-.843,4.182,5.372,5.372,0,0,0,5.269,4.034l27.309-6.958,6.416-1.7Z" transform="translate(27.296 24.765)" fill="#75ffe6"/>
            <path id="Trazado_238566" data-name="Trazado 238566" d="M61.992,133.78l12.072-16.215,9.516-7.075.1,4.876s18.8-1.894,21.53-1.242c1.656.4,4.066,5.078.4,6.125,0,0,3.043,1.222,3.618,4.122s-.877,4.265-4.317,5.379c0,0,3.848,2.035,3.058,4.562a6.216,6.216,0,0,1-3.609,3.515s2.064,3.9.2,5.344a37.867,37.867,0,0,1-10.28,4.623L81.636,150.3l-7.9,2.265Z" transform="translate(24.417 43.519)" fill="#ffc09d"/>
            <path id="Trazado_238567" data-name="Trazado 238567" d="M85.161,119.957c.053.247,2.632-.1,5.758-.775s5.619-1.423,5.564-1.67-2.63.1-5.758.776-5.617,1.422-5.564,1.668" transform="translate(33.542 46.253)" fill="#ff9b6c"/>
            <path id="Trazado_238568" data-name="Trazado 238568" d="M86.164,126.357c.05.247,2.13.028,4.643-.489s4.509-1.137,4.458-1.384-2.128-.028-4.643.489-4.508,1.137-4.458,1.384" transform="translate(33.937 48.99)" fill="#ff9b6c"/>
            <path id="Trazado_238569" data-name="Trazado 238569" d="M86.869,131.871c.092.259,1.813-.247,3.874-.772,2.06-.5,3.818-.648,3.816-.919.01-.233-1.823-.5-4.031.031-2.181.559-3.737,1.445-3.659,1.66" transform="translate(34.214 51.165)" fill="#ff9b6c"/>
            <path id="Trazado_238570" data-name="Trazado 238570" d="M75.947,115.162c.057.251,2.584-.125,5.681-.634s5.609-.974,5.582-1.229-2.6-.192-5.732.328-5.589,1.295-5.532,1.536" transform="translate(29.913 44.569)" fill="#ff9b6c"/>
          </g>
        </g>
      </g>
    </g>
  </g>
</svg>
