<svg xmlns="http://www.w3.org/2000/svg" xmlns:xlink="http://www.w3.org/1999/xlink" width="400" height="369.081" viewBox="0 0 400 369.081">
  <defs>
    <clipPath id="clip-path">
      <rect id="Rectángulo_315382" data-name="Rectángulo 315382" width="400" height="369.081" fill="none"/>
    </clipPath>
    <clipPath id="clip-path-3">
      <rect id="Rectángulo_315369" data-name="Rectángulo 315369" width="91.887" height="20.017" fill="none"/>
    </clipPath>
    <clipPath id="clip-path-4">
      <rect id="Rectángulo_315370" data-name="Rectángulo 315370" width="91.886" height="20.017" fill="none"/>
    </clipPath>
    <clipPath id="clip-path-5">
      <rect id="Rectángulo_315371" data-name="Rectángulo 315371" width="115.113" height="41.854" fill="none"/>
    </clipPath>
    <clipPath id="clip-path-6">
      <rect id="Rectángulo_315372" data-name="Rectángulo 315372" width="81.089" height="97.704" fill="none"/>
    </clipPath>
    <clipPath id="clip-path-7">
      <rect id="Rectángulo_315373" data-name="Rectángulo 315373" width="101.601" height="55.939" fill="none"/>
    </clipPath>
    <clipPath id="clip-path-8">
      <rect id="Rectángulo_315374" data-name="Rectángulo 315374" width="6.569" height="18.729" fill="none"/>
    </clipPath>
    <clipPath id="clip-path-9">
      <rect id="Rectángulo_315375" data-name="Rectángulo 315375" width="17.839" height="41.534" fill="none"/>
    </clipPath>
    <clipPath id="clip-path-10">
      <rect id="Rectángulo_315376" data-name="Rectángulo 315376" width="34.948" height="33.025" fill="none"/>
    </clipPath>
    <clipPath id="clip-path-11">
      <rect id="Rectángulo_315377" data-name="Rectángulo 315377" width="34.535" height="27.361" fill="none"/>
    </clipPath>
    <clipPath id="clip-path-12">
      <rect id="Rectángulo_315378" data-name="Rectángulo 315378" width="9.532" height="10.82" fill="none"/>
    </clipPath>
    <clipPath id="clip-path-13">
      <rect id="Rectángulo_315379" data-name="Rectángulo 315379" width="13.452" height="11.996" fill="none"/>
    </clipPath>
    <clipPath id="clip-path-14">
      <rect id="Rectángulo_315380" data-name="Rectángulo 315380" width="12.778" height="69.595" fill="none"/>
    </clipPath>
  </defs>
  <g id="Grupo_242665" data-name="Grupo 242665" transform="translate(-915 -483)">
    <g id="Grupo_241229" data-name="Grupo 241229" transform="translate(915 483)">
      <g id="Grupo_241228" data-name="Grupo 241228" clip-path="url(#clip-path)">
        <path id="Trazado_240066" data-name="Trazado 240066" d="M259.769,75.274h25.725l-3.037-61.9H259.769Z" transform="translate(47.491 2.445)" fill="#f5f5f5"/>
        <path id="Trazado_240067" data-name="Trazado 240067" d="M319.984,70.782l7.279,22.7h-7.279l-44.621-22.7Z" transform="translate(50.342 12.94)" fill="#f5f5f5"/>
        <path id="Trazado_240068" data-name="Trazado 240068" d="M326.138,70.782v22.7l-44.621-22.7Z" transform="translate(51.467 12.94)" fill="#e7e7e7"/>
        <path id="Trazado_240069" data-name="Trazado 240069" d="M222.257,70.782l7.279,22.7h-7.279l-44.621-22.7Z" transform="translate(32.475 12.94)" fill="#f5f5f5"/>
        <path id="Trazado_240070" data-name="Trazado 240070" d="M228.411,70.782v22.7l-44.621-22.7Z" transform="translate(33.601 12.94)" fill="#e7e7e7"/>
        <rect id="Rectángulo_315359" data-name="Rectángulo 315359" width="28.795" height="6.812" transform="translate(361.833 77.844)" fill="#e7e7e7"/>
        <rect id="Rectángulo_315360" data-name="Rectángulo 315360" width="162.317" height="6.812" transform="translate(199.516 77.844)" fill="#f5f5f5"/>
        <path id="Trazado_240071" data-name="Trazado 240071" d="M233.8,77.3h48.15l6.827-75.01h-48.15Z" transform="translate(42.742 0.419)" fill="#e7e7e7"/>
        <path id="Trazado_240072" data-name="Trazado 240072" d="M231.378,77.3h48.15l6.827-75.01H238.2Z" transform="translate(42.3 0.419)" fill="#f0f0f0"/>
        <path id="Trazado_240073" data-name="Trazado 240073" d="M274.084,67.713l6.244-58.4h-38.29l-6.245,58.4Z" transform="translate(43.107 1.702)" fill="#fff"/>
        <rect id="Rectángulo_315361" data-name="Rectángulo 315361" width="34.346" height="153.094" transform="translate(360.853 167.326)" fill="#f0f0f0"/>
        <rect id="Rectángulo_315362" data-name="Rectángulo 315362" width="169.38" height="8.636" transform="translate(219.225 320.42)" fill="#f0f0f0"/>
        <rect id="Rectángulo_315363" data-name="Rectángulo 315363" width="148.223" height="153.094" transform="translate(212.631 167.326)" fill="#f5f5f5"/>
        <rect id="Rectángulo_315364" data-name="Rectángulo 315364" width="121.217" height="36.547" transform="translate(226.134 222.869)" fill="#f0f0f0"/>
        <rect id="Rectángulo_315365" data-name="Rectángulo 315365" width="121.217" height="36.547" transform="translate(226.134 267.568)" fill="#f0f0f0"/>
        <g id="Grupo_241227" data-name="Grupo 241227">
          <g id="Grupo_241226" data-name="Grupo 241226" clip-path="url(#clip-path)">
            <path id="Trazado_240074" data-name="Trazado 240074" d="M230.983,193.512h28.123a2.905,2.905,0,0,0,2.9-2.9v-.336a2.905,2.905,0,0,0-2.9-2.9H230.983a2.905,2.905,0,0,0-2.9,2.9v.336a2.905,2.905,0,0,0,2.9,2.9" transform="translate(41.699 34.257)" fill="#f5f5f5"/>
            <rect id="Rectángulo_315366" data-name="Rectángulo 315366" width="121.217" height="36.547" transform="translate(226.134 178.172)" fill="#f0f0f0"/>
            <path id="Trazado_240075" data-name="Trazado 240075" d="M230.983,155.722h28.123a2.905,2.905,0,0,0,2.9-2.9v-.336a2.905,2.905,0,0,0-2.9-2.9H230.983a2.905,2.905,0,0,0-2.9,2.9v.336a2.905,2.905,0,0,0,2.9,2.9" transform="translate(41.699 27.349)" fill="#f5f5f5"/>
            <path id="Trazado_240076" data-name="Trazado 240076" d="M230.983,231.3h28.123a2.905,2.905,0,0,0,2.9-2.9v-.336a2.905,2.905,0,0,0-2.9-2.9H230.983a2.905,2.905,0,0,0-2.9,2.9v.336a2.905,2.905,0,0,0,2.9,2.9" transform="translate(41.699 41.166)" fill="#f5f5f5"/>
            <rect id="Rectángulo_315367" data-name="Rectángulo 315367" width="152.8" height="5.717" transform="translate(208.054 161.609)" fill="#f0f0f0"/>
            <rect id="Rectángulo_315368" data-name="Rectángulo 315368" width="39.145" height="5.717" transform="translate(360.855 161.609)" fill="#e7e7e7"/>
            <path id="Trazado_240077" data-name="Trazado 240077" d="M264.576,120.217A17.8,17.8,0,0,0,246.557,100.2h73.767a17.8,17.8,0,0,1,18.019,20.017Z" transform="translate(45.075 18.319)" fill="#007cff"/>
            <g id="Grupo_241192" data-name="Grupo 241192" transform="translate(291.632 118.519)" opacity="0.2">
              <g id="Grupo_241191" data-name="Grupo 241191">
                <g id="Grupo_241190" data-name="Grupo 241190" clip-path="url(#clip-path-3)">
                  <path id="Trazado_240078" data-name="Trazado 240078" d="M264.576,120.217A17.8,17.8,0,0,0,246.557,100.2h73.767a17.8,17.8,0,0,1,18.019,20.017Z" transform="translate(-246.557 -100.2)"/>
                </g>
              </g>
            </g>
            <path id="Trazado_240079" data-name="Trazado 240079" d="M250.962,100.2h73.767a22.63,22.63,0,0,0-22.015,20.017l-6.385,63.968A22.63,22.63,0,0,1,274.315,204.2H240.581a17.794,17.794,0,0,1-18.018-20.017l6.385-63.968A22.63,22.63,0,0,1,250.962,100.2" transform="translate(40.67 18.319)" fill="#007cff"/>
            <path id="Trazado_240080" data-name="Trazado 240080" d="M262.483,171.2A17.8,17.8,0,0,0,280.5,191.221H206.736A17.8,17.8,0,0,1,188.717,171.2Z" transform="translate(34.483 31.299)" fill="#007cff"/>
            <g id="Grupo_241195" data-name="Grupo 241195" transform="translate(223.099 202.503)" opacity="0.2">
              <g id="Grupo_241194" data-name="Grupo 241194">
                <g id="Grupo_241193" data-name="Grupo 241193" clip-path="url(#clip-path-4)">
                  <path id="Trazado_240081" data-name="Trazado 240081" d="M262.483,171.2A17.8,17.8,0,0,0,280.5,191.221H206.736A17.8,17.8,0,0,1,188.717,171.2Z" transform="translate(-188.616 -171.204)"/>
                </g>
              </g>
            </g>
            <path id="Trazado_240082" data-name="Trazado 240082" d="M236.346,136.637h49.926A1.779,1.779,0,0,0,288,135.069l.017-.172a1.4,1.4,0,0,0-1.412-1.568H236.676a1.778,1.778,0,0,0-1.725,1.568l-.018.172a1.4,1.4,0,0,0,1.412,1.568" transform="translate(42.949 24.375)" fill="#fff"/>
            <path id="Trazado_240083" data-name="Trazado 240083" d="M235.475,145.368H285.4a1.779,1.779,0,0,0,1.726-1.568l.017-.172a1.4,1.4,0,0,0-1.412-1.568H235.8a1.78,1.78,0,0,0-1.726,1.568l-.017.172a1.4,1.4,0,0,0,1.412,1.568" transform="translate(42.79 25.971)" fill="#fff"/>
            <path id="Trazado_240084" data-name="Trazado 240084" d="M234.6,154.1h49.926a1.779,1.779,0,0,0,1.726-1.568l.017-.171a1.4,1.4,0,0,0-1.412-1.568H234.932a1.778,1.778,0,0,0-1.725,1.568l-.018.171A1.4,1.4,0,0,0,234.6,154.1" transform="translate(42.63 27.568)" fill="#fff"/>
            <path id="Trazado_240085" data-name="Trazado 240085" d="M243.49,162.831h38.384a1.779,1.779,0,0,0,1.726-1.568l.017-.171a1.4,1.4,0,0,0-1.412-1.568H243.82a1.778,1.778,0,0,0-1.725,1.568l-.018.171a1.4,1.4,0,0,0,1.412,1.568" transform="translate(44.255 29.164)" fill="#fff"/>
            <path id="Trazado_240086" data-name="Trazado 240086" d="M238.089,119.173h49.926a1.779,1.779,0,0,0,1.726-1.568l.017-.171a1.4,1.4,0,0,0-1.412-1.568H238.42a1.778,1.778,0,0,0-1.725,1.568l-.018.171a1.4,1.4,0,0,0,1.412,1.568" transform="translate(43.268 21.182)" fill="#fff"/>
            <path id="Trazado_240087" data-name="Trazado 240087" d="M237.217,127.905h49.926a1.779,1.779,0,0,0,1.726-1.568l.017-.172a1.4,1.4,0,0,0-1.412-1.568H237.548a1.78,1.78,0,0,0-1.726,1.568l-.017.172a1.4,1.4,0,0,0,1.412,1.568" transform="translate(43.108 22.779)" fill="#fff"/>
            <path id="Trazado_240088" data-name="Trazado 240088" d="M107.87,102.966l-4.507,45.145a5.954,5.954,0,0,0,6.012,6.678H212.112a7.574,7.574,0,0,0,7.345-6.678l4.507-45.145a6.248,6.248,0,0,0-.241-2.493,5.915,5.915,0,0,0-5.771-4.185H115.215a7.578,7.578,0,0,0-6.606,4.179,7.022,7.022,0,0,0-.739,2.5" transform="translate(18.891 17.603)" fill="#007cff"/>
            <g id="Grupo_241198" data-name="Grupo 241198" transform="translate(127.5 113.891)" opacity="0.3">
              <g id="Grupo_241197" data-name="Grupo 241197">
                <g id="Grupo_241196" data-name="Grupo 241196" clip-path="url(#clip-path-5)">
                  <path id="Trazado_240089" data-name="Trazado 240089" d="M107.793,100.468l47.691,35.7a11.026,11.026,0,0,0,12.611,0l54.812-35.689a5.917,5.917,0,0,0-5.772-4.186H114.4a7.578,7.578,0,0,0-6.606,4.18" transform="translate(-107.793 -96.288)"/>
                </g>
              </g>
            </g>
            <path id="Trazado_240090" data-name="Trazado 240090" d="M128.11,120.54h55.237a10.086,10.086,0,0,0,9.782-8.892L201.1,31.729a7.926,7.926,0,0,0-8-8.892H137.861a10.084,10.084,0,0,0-9.78,8.892L120.1,111.648a7.928,7.928,0,0,0,8.007,8.892" transform="translate(21.949 4.175)" fill="#007cff"/>
            <g id="Grupo_241201" data-name="Grupo 241201" transform="translate(142.009 27.011)" opacity="0.5">
              <g id="Grupo_241200" data-name="Grupo 241200">
                <g id="Grupo_241199" data-name="Grupo 241199" clip-path="url(#clip-path-6)">
                  <path id="Trazado_240091" data-name="Trazado 240091" d="M128.11,120.54h55.237a10.086,10.086,0,0,0,9.782-8.892L201.1,31.729a7.926,7.926,0,0,0-8-8.892H137.861a10.084,10.084,0,0,0-9.78,8.892L120.1,111.648a7.928,7.928,0,0,0,8.007,8.892" transform="translate(-120.06 -22.836)" fill="#fff"/>
                </g>
              </g>
            </g>
            <path id="Trazado_240092" data-name="Trazado 240092" d="M135.138,59.792h47.251a2.263,2.263,0,0,0,2.194-1.994,1.779,1.779,0,0,0-1.8-2H135.537a2.263,2.263,0,0,0-2.194,2,1.778,1.778,0,0,0,1.8,1.994" transform="translate(24.376 10.202)" fill="#fff"/>
            <path id="Trazado_240093" data-name="Trazado 240093" d="M134.088,70.322H181.34a2.262,2.262,0,0,0,2.193-1.994,1.779,1.779,0,0,0-1.8-2H134.486a2.263,2.263,0,0,0-2.194,2,1.778,1.778,0,0,0,1.8,1.994" transform="translate(24.184 12.127)" fill="#fff"/>
            <path id="Trazado_240094" data-name="Trazado 240094" d="M133.037,80.851h47.251a2.264,2.264,0,0,0,2.194-1.994,1.781,1.781,0,0,0-1.8-2H133.435a2.262,2.262,0,0,0-2.193,2,1.776,1.776,0,0,0,1.8,1.994" transform="translate(23.992 14.052)" fill="#fff"/>
            <path id="Trazado_240095" data-name="Trazado 240095" d="M141.409,91.381h36.1a2.263,2.263,0,0,0,2.194-1.994,1.778,1.778,0,0,0-1.794-2H141.807a2.263,2.263,0,0,0-2.194,2,1.778,1.778,0,0,0,1.8,1.994" transform="translate(25.522 15.977)" fill="#fff"/>
            <path id="Trazado_240096" data-name="Trazado 240096" d="M137.241,38.733h47.251a2.262,2.262,0,0,0,2.193-1.994,1.779,1.779,0,0,0-1.8-2H137.639a2.263,2.263,0,0,0-2.194,2,1.778,1.778,0,0,0,1.8,1.994" transform="translate(24.76 6.352)" fill="#fff"/>
            <path id="Trazado_240097" data-name="Trazado 240097" d="M136.19,49.263h47.251a2.264,2.264,0,0,0,2.194-1.994,1.781,1.781,0,0,0-1.8-2H136.588a2.262,2.262,0,0,0-2.193,2,1.776,1.776,0,0,0,1.8,1.994" transform="translate(24.568 8.277)" fill="#fff"/>
            <path id="Trazado_240098" data-name="Trazado 240098" d="M175.292,218.424l2.989-29.945A6.221,6.221,0,0,0,172,181.5H109.273a7.916,7.916,0,0,0-7.677,6.98l-2.989,29.945a6.222,6.222,0,0,0,6.283,6.98h62.725a7.916,7.916,0,0,0,7.676-6.98" transform="translate(18.021 33.182)" fill="#007cff"/>
            <path id="Trazado_240099" data-name="Trazado 240099" d="M136.584,209.227a1.5,1.5,0,0,0,.766-.216l34.253-20.4a1.481,1.481,0,0,0,.623-1.921,1.322,1.322,0,0,0-1.879-.432l-33.46,19.923L107.4,186.262a1.464,1.464,0,0,0-1.965.432,1.336,1.336,0,0,0,.24,1.921l30.18,20.4a1.285,1.285,0,0,0,.724.216" transform="translate(19.222 34.013)" fill="#fff"/>
            <path id="Trazado_240100" data-name="Trazado 240100" d="M312.415,62.318l3.809-38.154a7.927,7.927,0,0,0-8.005-8.892H228.3a10.085,10.085,0,0,0-9.781,8.892l-3.809,38.154a7.927,7.927,0,0,0,8.005,8.892h79.918a10.085,10.085,0,0,0,9.781-8.892" transform="translate(39.245 2.792)" fill="#007cff"/>
            <g id="Grupo_241204" data-name="Grupo 241204" transform="translate(253.912 18.063)" opacity="0.5">
              <g id="Grupo_241203" data-name="Grupo 241203">
                <g id="Grupo_241202" data-name="Grupo 241202" clip-path="url(#clip-path-7)">
                  <path id="Trazado_240101" data-name="Trazado 240101" d="M312.415,62.318l3.809-38.154a7.927,7.927,0,0,0-8.005-8.892H228.3a10.085,10.085,0,0,0-9.781,8.892l-3.809,38.154a7.927,7.927,0,0,0,8.005,8.892h79.918a10.085,10.085,0,0,0,9.781-8.892" transform="translate(-214.667 -15.271)"/>
                </g>
              </g>
            </g>
            <path id="Trazado_240102" data-name="Trazado 240102" d="M263.1,50.6a1.921,1.921,0,0,0,.977-.276l43.641-25.987a1.885,1.885,0,0,0,.794-2.447,1.683,1.683,0,0,0-2.394-.55L263.483,46.725,225.921,21.34a1.866,1.866,0,0,0-2.5.55,1.7,1.7,0,0,0,.305,2.447l38.452,25.987a1.646,1.646,0,0,0,.923.276" transform="translate(40.776 3.851)" fill="#fff"/>
            <path id="Trazado_240103" data-name="Trazado 240103" d="M47.338,55.472c-2.974,5.24-5.98,10.667-8.864,16.03s-5.7,10.783-8.182,16.2c-.585,1.345-1.237,2.7-1.755,4.037l-.412,1.005-.206.5-.051.127.008-.04a.515.515,0,0,0,.006-.089,3.76,3.76,0,0,0-.05-1.451,4.462,4.462,0,0,0-1.428-2.4,2.545,2.545,0,0,0-1.175-.62c-.156-.02-.1.022-.011.06a5.608,5.608,0,0,0,1.294.147,31.888,31.888,0,0,0,3.907-.24c5.647-.71,11.77-2.073,17.72-3.333l2.466,6.343a88.522,88.522,0,0,1-18,7.633,33.558,33.558,0,0,1-5.339,1.112,18.365,18.365,0,0,1-3.376.1,11.718,11.718,0,0,1-2.3-.4,8.582,8.582,0,0,1-3.218-1.715,7.893,7.893,0,0,1-2.563-4.386,9.109,9.109,0,0,1,.065-3.767l.169-.651.093-.319.048-.149.194-.595.389-1.191c.5-1.611,1.1-3.114,1.65-4.671,2.366-6.076,5.032-11.885,7.885-17.573,2.886-5.691,5.887-11.194,9.222-16.71Z" transform="translate(2.859 8.859)" fill="#ffc3bd"/>
            <path id="Trazado_240104" data-name="Trazado 240104" d="M72.006,20.4c-.18.709.05,1.378.513,1.5s.984-.362,1.164-1.07-.05-1.378-.512-1.5-.985.362-1.165,1.07" transform="translate(13.153 3.53)" fill="#1a2e35"/>
            <path id="Trazado_240105" data-name="Trazado 240105" d="M72.247,21.379A26.143,26.143,0,0,0,74.093,28.3c-1.552.852-3.547-.225-3.547-.225Z" transform="translate(12.897 3.909)" fill="#ff847f"/>
            <path id="Trazado_240106" data-name="Trazado 240106" d="M70.686,16.516a.43.43,0,0,1,.03-.787,4.257,4.257,0,0,1,3.907.308.429.429,0,0,1-.5.7,3.407,3.407,0,0,0-3.1-.208.429.429,0,0,1-.344-.013" transform="translate(12.878 2.816)" fill="#1a2e35"/>
            <path id="Trazado_240107" data-name="Trazado 240107" d="M54.583,23.461c-1.855,6.737-1.049,16.222-6.559,20.647,0,0,.49,6.726,12.81,6.726,13.549,0,7.8-6.726,7.8-6.726-7.047-1.766-5.777-7.252-3.475-12.4Z" transform="translate(8.78 4.289)" fill="#ffc3bd"/>
            <path id="Trazado_240108" data-name="Trazado 240108" d="M47.786,42.77c-.978-1.3-2.056-2.778.173-3.243,2.452-.511,15.87-1.033,20.5-.073s3.314,3.587,3.314,3.587Z" transform="translate(8.528 7.115)" fill="#1a2e35"/>
            <path id="Trazado_240109" data-name="Trazado 240109" d="M14.752,301.147a2.922,2.922,0,0,0,2.257-.124.876.876,0,0,0,.208-1,1,1,0,0,0-.554-.632c-1.223-.584-4.036.562-4.156.612a.215.215,0,0,0-.011.392,11.471,11.471,0,0,0,2.256.75m1.475-1.449a1.166,1.166,0,0,1,.252.083.58.58,0,0,1,.326.367c.115.387-.028.509-.076.549-.487.414-2.3.032-3.572-.479a7.082,7.082,0,0,1,3.069-.519" transform="translate(2.263 54.705)" fill="#007cff"/>
            <path id="Trazado_240110" data-name="Trazado 240110" d="M12.544,300.794a.218.218,0,0,0,.106,0c1.024-.3,3.217-1.857,3.243-2.885a.7.7,0,0,0-.549-.694,1.171,1.171,0,0,0-.952.076c-1.211.619-1.976,3.13-2.008,3.236a.215.215,0,0,0,.053.213.211.211,0,0,0,.106.058m2.566-3.2a.7.7,0,0,1,.093.027c.266.092.263.222.261.278-.015.607-1.462,1.83-2.524,2.324.266-.725.871-2.154,1.648-2.55a.762.762,0,0,1,.522-.079" transform="translate(2.262 54.324)" fill="#007cff"/>
            <path id="Trazado_240111" data-name="Trazado 240111" d="M70.022,304.942c1.163,0,2.286-.16,2.663-.682a.811.811,0,0,0-.018-.938,1.066,1.066,0,0,0-.68-.5c-1.508-.41-4.676,1.395-4.811,1.473a.214.214,0,0,0,.065.4,15.84,15.84,0,0,0,2.781.254m1.437-1.758a1.621,1.621,0,0,1,.415.048.651.651,0,0,1,.42.3c.153.267.1.4.043.475-.422.586-2.713.6-4.4.361a9.7,9.7,0,0,1,3.521-1.185" transform="translate(12.261 55.35)" fill="#007cff"/>
            <path id="Trazado_240112" data-name="Trazado 240112" d="M67.283,305.026a.211.211,0,0,0,.089-.019c1.094-.491,3.261-2.452,3.1-3.476-.04-.241-.211-.541-.8-.6a1.567,1.567,0,0,0-1.191.368c-1.153.946-1.4,3.389-1.408,3.492a.218.218,0,0,0,.089.2.222.222,0,0,0,.125.04m2.212-3.675a1.193,1.193,0,0,1,.129.007c.387.039.41.19.419.241.1.615-1.373,2.155-2.49,2.826a5.043,5.043,0,0,1,1.2-2.8,1.144,1.144,0,0,1,.745-.279" transform="translate(12.261 55.015)" fill="#007cff"/>
            <path id="Trazado_240113" data-name="Trazado 240113" d="M58.824,307.455h9.064l.9-20.991H59.726Z" transform="translate(10.754 52.371)" fill="#ffc3bd"/>
            <path id="Trazado_240114" data-name="Trazado 240114" d="M3.976,301.217l8.859,1.919,8.895-19.552-8.859-1.919Z" transform="translate(0.727 51.494)" fill="#ffc3bd"/>
            <path id="Trazado_240115" data-name="Trazado 240115" d="M14.414,299.4l-9.952-2.155a.791.791,0,0,0-.886.442l-3.455,7.5a1.333,1.333,0,0,0,.957,1.856c3.487.693,5.219.854,9.6,1.8,2.692.582,8.772,2.063,12.489,2.868,3.637.788,5-2.767,3.551-3.429-6.5-2.971-9.22-5.586-10.98-8.024a2.2,2.2,0,0,0-1.32-.856" transform="translate(0 54.339)" fill="#1a2e35"/>
            <path id="Trazado_240116" data-name="Trazado 240116" d="M68.367,303.323h-9.9a.791.791,0,0,0-.771.619L55.906,312a1.319,1.319,0,0,0,1.3,1.612c3.57-.06,8.73-.27,13.218-.27,5.248,0,9.78.286,15.934.286,3.721,0,4.754-3.763,3.2-4.1-7.091-1.551-12.881-1.717-19.009-5.5a4.2,4.2,0,0,0-2.183-.706" transform="translate(10.215 55.453)" fill="#1a2e35"/>
            <path id="Trazado_240117" data-name="Trazado 240117" d="M37.571,42.692c-8.5,1.947-13.65,17.409-13.65,17.409l14.54,16.274a184.712,184.712,0,0,0,9.2-16.039C52.7,49.736,46.257,40.7,37.571,42.692" transform="translate(4.373 7.754)" fill="#007cff"/>
            <g id="Grupo_241207" data-name="Grupo 241207" transform="translate(42.575 64.077)" opacity="0.3">
              <g id="Grupo_241206" data-name="Grupo 241206">
                <g id="Grupo_241205" data-name="Grupo 241205" clip-path="url(#clip-path-8)">
                  <path id="Trazado_240118" data-name="Trazado 240118" d="M39.164,55.065C36.8,58.424,34.622,63.285,37.07,72.9c1.916-3.075,3.8-6.222,5.417-9.072v-.012c.438-7.842-1.065-11.462-3.324-8.753" transform="translate(-35.994 -54.173)"/>
                </g>
              </g>
            </g>
            <path id="Trazado_240119" data-name="Trazado 240119" d="M88.455,48.987c2.168,8.334,4.354,28.2-1.675,72.839H38.3c-.334-7.442,4.342-43.747-2.835-78.814a126.333,126.333,0,0,1,16.229-2.049,177.857,177.857,0,0,1,20.608,0,84.9,84.9,0,0,1,9.24,1.416,9.039,9.039,0,0,1,6.915,6.607" transform="translate(6.483 7.434)" fill="#007cff"/>
            <g id="Grupo_241210" data-name="Grupo 241210" transform="translate(79.33 52.119)" opacity="0.3">
              <g id="Grupo_241209" data-name="Grupo 241209">
                <g id="Grupo_241208" data-name="Grupo 241208" clip-path="url(#clip-path-9)">
                  <path id="Trazado_240120" data-name="Trazado 240120" d="M82.984,49.662v-.012c-8.008-7.333-13.922-7.688-15.53.367C64.082,66.9,83.942,85.076,84.522,85.6c1.029-19.067-.177-29.937-1.538-35.934" transform="translate(-67.068 -44.063)"/>
                </g>
              </g>
            </g>
            <path id="Trazado_240121" data-name="Trazado 240121" d="M77.855,45.289c2.6,2.881,5.046,5.816,7.542,8.748,2.465,2.948,4.906,5.919,7.291,8.947s4.762,6.068,7.071,9.192c2.328,3.116,4.589,6.28,6.8,9.633l-3.822-2.51c1.952.492,3.918,1.025,5.941,1.432s4.056.847,6.125,1.184c2.064.371,4.151.7,6.249,1.016,2.082.349,4.251.6,6.27.9l.432,6.793c-2.34.528-4.536.826-6.818,1.12-2.265.26-4.541.406-6.83.483a79.679,79.679,0,0,1-13.877-.783l-2.156-.317L96.4,88.936c-2.193-2.885-4.586-5.773-6.961-8.669l-7.276-8.651L67.484,54.3Z" transform="translate(12.337 8.28)" fill="#ffc3bd"/>
            <path id="Trazado_240122" data-name="Trazado 240122" d="M147.31,28.843c-11.763-2.968-24.743,3.9-28.992,15.342s1.844,23.121,13.607,26.088,24.746-3.9,28.993-15.339-1.845-23.123-13.608-26.092M133.142,67c-9.9-2.5-15.029-12.331-11.453-21.96a21.14,21.14,0,0,1,24.4-12.914c9.9,2.5,15.032,12.331,11.456,21.963A21.141,21.141,0,0,1,133.142,67" transform="translate(21.384 5.147)" fill="#1a2e35"/>
            <g id="Grupo_241213" data-name="Grupo 241213" transform="translate(143.529 38.193)" opacity="0.3">
              <g id="Grupo_241212" data-name="Grupo 241212">
                <g id="Grupo_241211" data-name="Grupo 241211" clip-path="url(#clip-path-10)">
                  <path id="Trazado_240123" data-name="Trazado 240123" d="M132.884,64.782a14.911,14.911,0,0,1-10.5-20.124,19.375,19.375,0,0,1,22.365-11.834,14.91,14.91,0,0,1,10.5,20.127,19.375,19.375,0,0,1-22.366,11.832" transform="translate(-121.345 -32.29)" fill="#007cff"/>
                </g>
              </g>
            </g>
            <g id="Grupo_241216" data-name="Grupo 241216" transform="translate(143.532 38.651)" opacity="0.5">
              <g id="Grupo_241215" data-name="Grupo 241215">
                <g id="Grupo_241214" data-name="Grupo 241214" clip-path="url(#clip-path-11)">
                  <path id="Trazado_240124" data-name="Trazado 240124" d="M144.751,32.753c-.1-.026-.2-.052-.31-.076L122.5,44.285c-.04.1-.077.2-.115.3a15.549,15.549,0,0,0-.263,10.45l31.32-16.57a15.318,15.318,0,0,0-8.695-5.714" transform="translate(-121.347 -32.677)" fill="#fafafa"/>
                  <path id="Trazado_240125" data-name="Trazado 240125" d="M154.342,39.114,122.717,55.847a14.364,14.364,0,0,0,2.07,3.014l30.844-16.321a14.377,14.377,0,0,0-1.289-3.427" transform="translate(-121.097 -31.5)" fill="#fafafa"/>
                </g>
              </g>
            </g>
            <path id="Trazado_240126" data-name="Trazado 240126" d="M131.316,66.164l-3.744-.945a.935.935,0,0,1-.659-1.261,1.214,1.214,0,0,1,1.4-.742l3.744.944a.935.935,0,0,1,.658,1.262,1.214,1.214,0,0,1-1.4.742" transform="translate(23.19 11.551)" fill="#1a2e35"/>
            <path id="Trazado_240127" data-name="Trazado 240127" d="M132.31,64.493a49.206,49.206,0,0,1-.963,4.852c-.388,1.6-.829,3.188-1.3,4.767s-1,3.145-1.54,4.706c-.7,1.522-.544,3.26-3.113,4.31a2.813,2.813,0,0,1-2.49-.384,1.473,1.473,0,0,1-.319-.325c-1.417-2.056-.109-3.423.347-5.007.609-1.545,1.243-3.084,1.919-4.612s1.392-3.046,2.157-4.55,1.571-3,2.5-4.465a1.685,1.685,0,0,1,1.835-.284c.639.211,1.026.625.975.992" transform="translate(22.293 11.586)" fill="#1a2e35"/>
            <path id="Trazado_240128" data-name="Trazado 240128" d="M116.566,85.3l6.672.6L121.891,75.51s-5.125.086-7.682,3.656Z" transform="translate(20.88 13.805)" fill="#ffc3bd"/>
            <path id="Trazado_240129" data-name="Trazado 240129" d="M130.876,83.467l-2.243-6.72L120.7,75.511,122.051,85.9Z" transform="translate(22.067 13.805)" fill="#ffc3bd"/>
            <path id="Trazado_240130" data-name="Trazado 240130" d="M66.541,49.808c-3.487,12,14.834,28.631,14.834,28.631L97.829,62.332s-5.428-6.766-9.24-11.22C77.9,38.621,69.324,40.231,66.541,49.808" transform="translate(12.084 7.712)" fill="#007cff"/>
            <g id="Grupo_241219" data-name="Grupo 241219" transform="translate(70.011 338.841)" opacity="0.2">
              <g id="Grupo_241218" data-name="Grupo 241218">
                <g id="Grupo_241217" data-name="Grupo 241217" clip-path="url(#clip-path-12)">
                  <path id="Trazado_240131" data-name="Trazado 240131" d="M68.722,286.469l-.464,10.819H59.189l.464-10.819Z" transform="translate(-59.19 -286.469)"/>
                </g>
              </g>
            </g>
            <g id="Grupo_241222" data-name="Grupo 241222" transform="translate(9.004 333.164)" opacity="0.2">
              <g id="Grupo_241221" data-name="Grupo 241221">
                <g id="Grupo_241220" data-name="Grupo 241220" clip-path="url(#clip-path-13)">
                  <path id="Trazado_240132" data-name="Trazado 240132" d="M12.2,281.669l8.863,1.919-4.589,10.078-8.863-1.919Z" transform="translate(-7.612 -281.669)"/>
                </g>
              </g>
            </g>
            <path id="Trazado_240133" data-name="Trazado 240133" d="M52.617,15.451c-1.676,8.838-3.106,13.927.155,19.509,4.9,8.4,16.659,7.142,20.942-1.018,3.855-7.344,5.948-20.563-1.69-26.191a12.27,12.27,0,0,0-19.407,7.7" transform="translate(9.29 0.969)" fill="#ffc3bd"/>
            <path id="Trazado_240134" data-name="Trazado 240134" d="M68.434,22.957c1.84-.723,14.063-16.3-12.353-16.493-11.5-.083-10.235,22.72-2.086,27.255s16.412-4.782,14.44-10.761" transform="translate(8.714 1.182)" fill="#1a2e35"/>
            <path id="Trazado_240135" data-name="Trazado 240135" d="M52.7,10.457c14.933,6.012,29.647,6.886,33.066-1.366,2.694-6.506-5.52-1.759-5.52-1.759S85.048.2,76.543.006s-4.431,4.682-4.431,4.682S46.455-2.685,52.7,10.457" transform="translate(9.455 0)" fill="#1a2e35"/>
            <path id="Trazado_240136" data-name="Trazado 240136" d="M53.385,6.625s-4.336-.272-5.361,3.605c1.272-1.479,2.829-2.716,3.912-1.57,1.551-1.248,1.449-2.036,1.449-2.036" transform="translate(8.78 1.21)" fill="#1a2e35"/>
            <path id="Trazado_240137" data-name="Trazado 240137" d="M63.99,19.826a8.627,8.627,0,0,0,.506,5.517c1.036,2.27,3.052,1.706,4.019-.347.871-1.848,1.382-5.255-.261-6.849-1.619-1.571-3.7-.537-4.264,1.678" transform="translate(11.655 3.18)" fill="#ffc3bd"/>
            <path id="Trazado_240138" data-name="Trazado 240138" d="M75.1,109.281S64.816,178.552,59.169,204.5c-6.184,28.418-37.691,119.524-37.691,119.524L5.253,320.515s23.2-85.3,26.723-113.435c3.83-30.538,11.844-97.8,11.844-97.8Z" transform="translate(0.96 19.979)" fill="#1a2e35"/>
            <path id="Trazado_240139" data-name="Trazado 240139" d="M25.545,286.808c.069.015-3.024,5.868-3.024,5.868L4.265,288.723,5.8,283.236Z" transform="translate(0.78 51.781)" fill="#007cff"/>
            <g id="Grupo_241225" data-name="Grupo 241225" transform="translate(59.462 153.848)" opacity="0.3">
              <g id="Grupo_241224" data-name="Grupo 241224">
                <g id="Grupo_241223" data-name="Grupo 241223" clip-path="url(#clip-path-14)">
                  <path id="Trazado_240140" data-name="Trazado 240140" d="M60.372,130.161c-11.894,2.333-10.636,46.689-9.2,69.5,3.43-16.127,8.452-47.158,11.883-69.182a4.063,4.063,0,0,0-2.678-.321" transform="translate(-50.272 -130.069)"/>
                </g>
              </g>
            </g>
            <path id="Trazado_240141" data-name="Trazado 240141" d="M83.773,109.281s1.248,67.772.263,95.413C83.01,233.446,72.968,327.587,72.968,327.587H57.612s-.564-92.461-1.247-120.7c-.745-30.783-4.462-97.607-4.462-97.607Z" transform="translate(9.489 19.979)" fill="#1a2e35"/>
            <path id="Trazado_240142" data-name="Trazado 240142" d="M75.309,288.674c.071,0-.866,6.375-.866,6.375H55.764l-.505-5.691Z" transform="translate(10.102 52.775)" fill="#007cff"/>
            <path id="Trazado_240143" data-name="Trazado 240143" d="M218.946,194.8q-28.641,0-57.285,0a32.058,32.058,0,0,1-32.233-29.658c-.533-7.1,1.447-13.531,4.969-19.61q14.762-25.471,29.46-50.978Q177.569,70.824,191.291,47.1a31.648,31.648,0,0,1,23.882-15.965A31.635,31.635,0,0,1,236.7,36.264a33.939,33.939,0,0,1,10.56,11.717q7.807,13.537,15.626,27.069,12.157,21.057,24.313,42.114,8.179,14.162,16.374,28.317a34.09,34.09,0,0,1,4.811,13.369,32.553,32.553,0,0,1-18.93,33.236A32.79,32.79,0,0,1,275.8,194.8q-26.278-.018-52.554,0h-4.295Zm.035-14.419h7.279q24.385,0,48.77,0a19.765,19.765,0,0,0,10.405-2.476,17.737,17.737,0,0,0,6.126-24.342c-8.784-14.989-17.4-30.077-26.085-45.122q-15.466-26.786-30.931-53.571c-3.854-6.681-9.518-10.018-17.306-9.4a16.541,16.541,0,0,0-9.879,4.318,24.813,24.813,0,0,0-4.676,6.445q-9.842,17.024-19.674,34.051-8.511,14.728-17.023,29.455c-6.329,10.951-12.616,21.926-19.01,32.839-2.238,3.818-3.653,7.8-3.073,12.237a16.956,16.956,0,0,0,9.425,13.646,20.622,20.622,0,0,0,9.675,1.917q27.988.011,55.976,0" transform="translate(23.646 5.654)" fill="#ffd947"/>
            <path id="Trazado_240144" data-name="Trazado 240144" d="M215.636,85.855q-.374,6.245-.748,12.489c-.434,7.236-.881,14.473-1.3,21.711-.108,1.863-.086,3.734-.189,5.6A6.883,6.883,0,0,1,207.088,132a6.77,6.77,0,0,1-7.121-4.909,14.42,14.42,0,0,1-.371-2.8q-.591-9.909-1.139-19.823c-.218-3.873-.4-7.747-.634-11.62-.142-2.4-.342-4.788-.507-7.182a12.7,12.7,0,0,1,.817-6.629c1.7-3.5,4.4-5.605,8.368-5.642a9.153,9.153,0,0,1,9.211,8.9c.046,1.185.007,2.375.007,3.561Z" transform="translate(36.057 13.417)" fill="#ffd947"/>
            <path id="Trazado_240145" data-name="Trazado 240145" d="M206.581,128.3a9.194,9.194,0,0,1-.054,18.385,9.192,9.192,0,1,1,.054-18.385" transform="translate(36.08 23.456)" fill="#ffd947"/>
          </g>
        </g>
      </g>
    </g>
  </g>
</svg>
