<svg xmlns="http://www.w3.org/2000/svg" xmlns:xlink="http://www.w3.org/1999/xlink" width="820" height="411.577" viewBox="0 0 820 411.577">
  <defs>
    <clipPath id="clip-path">
      <path id="Trazado_237962" data-name="Trazado 237962" d="M93.04,481.453H24.271v20.77H156.6l7.388-10.385V481.453Z" fill="none"/>
    </clipPath>
    <linearGradient id="linear-gradient" x1="-0.174" y1="84.342" x2="-0.167" y2="84.342" gradientUnits="objectBoundingBox">
      <stop offset="0" stop-color="#b3009d"/>
      <stop offset="1" stop-color="#3c0061"/>
    </linearGradient>
    <clipPath id="clip-path-2">
      <path id="Trazado_237963" data-name="Trazado 237963" d="M10,491.838A28.236,28.236,0,1,0,38.236,463.6,28.237,28.237,0,0,0,10,491.838" fill="none"/>
    </clipPath>
    <linearGradient id="linear-gradient-2" x1="-0.177" y1="31.336" x2="-0.159" y2="31.336" gradientUnits="objectBoundingBox">
      <stop offset="0" stop-color="#c238b2"/>
      <stop offset="1" stop-color="#9c0088"/>
    </linearGradient>
  </defs>
  <g id="Grupo_242684" data-name="Grupo 242684" transform="translate(8714 7040.4)">
    <g id="Grupo_242680" data-name="Grupo 242680">
      <g id="Grupo_242676" data-name="Grupo 242676">
        <g id="Grupo_240271" data-name="Grupo 240271">
          <rect id="Rectángulo_314587" data-name="Rectángulo 314587" width="820" height="411.577" transform="translate(-8714 -7040.4)" fill="#f0f0f0"/>
          <path id="Trazado_237960" data-name="Trazado 237960" d="M790,652.1V827.431l-5.771,5.771-5.771,5.772h-86.9" transform="translate(-8714 -7494.002)" fill="none" stroke="#b3009d" stroke-miterlimit="10" stroke-width="0.847" stroke-dasharray="2.541 2.541"/>
          <path id="Trazado_237961" data-name="Trazado 237961" d="M38.236,665.1V504.133l6.179-6.178,6.178-6.179H414.965" transform="translate(-8714 -7494.002)" fill="none" stroke="#b3009d" stroke-miterlimit="10" stroke-width="0.847" stroke-dasharray="2.541 2.541"/>
          <g id="Grupo_240199" data-name="Grupo 240199" transform="translate(-8714 -7494.002)">
            <g id="Grupo_240198" data-name="Grupo 240198" clip-path="url(#clip-path)">
              <rect id="Rectángulo_314598" data-name="Rectángulo 314598" width="139.714" height="20.77" transform="translate(24.271 481.453)" fill="url(#linear-gradient)"/>
            </g>
          </g>
          <text id="Corriente" transform="translate(-8638.547 -6998.657)" fill="#fff" font-size="12" font-family="Roboto-Bold, Roboto" font-weight="700"><tspan x="0" y="0">Corriente</tspan></text>
          <g id="Grupo_240201" data-name="Grupo 240201" transform="translate(-8714 -7494.002)">
            <g id="Grupo_240200" data-name="Grupo 240200" clip-path="url(#clip-path-2)">
              <rect id="Rectángulo_314599" data-name="Rectángulo 314599" width="56.473" height="56.473" transform="translate(10 463.602)" fill="url(#linear-gradient-2)"/>
            </g>
          </g>
          <path id="Trazado_237964" data-name="Trazado 237964" d="M48.089,496.514a9.415,9.415,0,0,1-3,6.267,9.826,9.826,0,0,1-6.706,2.206,9.02,9.02,0,0,1-7.269-3.252,13.086,13.086,0,0,1-2.733-8.7v-2.461a14.6,14.6,0,0,1,1.274-6.276,9.525,9.525,0,0,1,3.613-4.157,10.054,10.054,0,0,1,5.414-1.45,9.252,9.252,0,0,1,6.539,2.276,9.535,9.535,0,0,1,2.865,6.3H44.7a7.352,7.352,0,0,0-1.907-4.443,5.767,5.767,0,0,0-4.1-1.375,6.039,6.039,0,0,0-5.072,2.392q-1.836,2.394-1.836,6.809v2.48a11.293,11.293,0,0,0,1.74,6.633,5.623,5.623,0,0,0,4.869,2.463,6.491,6.491,0,0,0,4.315-1.275,7.069,7.069,0,0,0,1.995-4.438Z" transform="translate(-8714 -7494.002)" fill="#fff"/>
          <text id="Unidad:_" data-name="Unidad: " transform="translate(-8638.547 -6944.957)" font-size="14" font-family="Roboto-Bold, Roboto" font-weight="700"><tspan x="0" y="0">Unidad: </tspan></text>
          <text id="Amperio_A_." data-name="Amperio (A)." transform="translate(-8587.055 -6944.957)" font-size="14" font-family="Roboto-Regular, Roboto"><tspan x="0" y="0">Amperio (A).</tspan></text>
          <text id="Medida:_" data-name="Medida: " transform="translate(-8638.547 -6928.157)" font-size="14" font-family="Roboto-Bold, Roboto" font-weight="700"><tspan x="0" y="0">Medida: </tspan></text>
          <text id="el_amperímetro_se_debe_conectar_en_serie_con_el_elemento_o_circuito_a_medir." data-name="el amperímetro se debe conectar en serie con el elemento o circuito a medir." transform="translate(-8584.283 -6928.157)" font-size="14" font-family="Roboto-Regular, Roboto"><tspan x="0" y="0">el amperímet</tspan><tspan y="0" letter-spacing="-0.01em">r</tspan><tspan y="0">o se debe conectar en serie con el elemen</tspan><tspan y="0" letter-spacing="-0.015em">t</tspan><tspan y="0">o o ci</tspan><tspan y="0" letter-spacing="-0.009em">r</tspan><tspan y="0">cui</tspan><tspan y="0" letter-spacing="-0.009em">t</tspan><tspan y="0">o a medi</tspan><tspan y="0" letter-spacing="-0.06em">r</tspan><tspan y="0">.</tspan></text>
          <text id="Precauciones:_" data-name="Precauciones: " transform="translate(-8638.547 -6911.357)" font-size="14" font-family="Roboto-Bold, Roboto" font-weight="700"><tspan x="0" y="0">P</tspan><tspan y="0" letter-spacing="-0.009em">r</tspan><tspan y="0">ecauciones: </tspan></text>
          <text id="si_el_circuito_es_de_una_alta_corriente_por_encima_de_1A_se_recomienda_hacer_uso_" data-name="si el circuito es de una alta corriente por encima de 1A se recomienda hacer uso " transform="translate(-8545.363 -6911.357)" font-size="14" font-family="Roboto-Regular, Roboto"><tspan x="0" y="0">si el ci</tspan><tspan y="0" letter-spacing="-0.011em">r</tspan><tspan y="0">cui</tspan><tspan y="0" letter-spacing="-0.009em">t</tspan><tspan y="0">o es de una alta corriente por encima de 1A se </tspan><tspan y="0" letter-spacing="-0.015em">r</tspan><tspan y="0">ecomienda hacer uso </tspan></text>
          <text id="de_una_pinza_amperimétrica_la_cual_debe_rodear_el_cable_a_medir_por_donde_pasa_la_corriente." data-name="de una pinza amperimétrica la cual debe rodear el cable a medir por donde pasa la corriente." transform="translate(-8638.547 -6894.557)" font-size="14" font-family="Roboto-Regular, Roboto"><tspan x="0" y="0">de una pinza amperimétrica la cual debe </tspan><tspan y="0" letter-spacing="-0.013em">r</tspan><tspan y="0">odear el cable a medir por donde pasa la corriente.</tspan></text>
          <rect id="Rectángulo_314601" data-name="Rectángulo 314601" width="420.126" height="29.528" transform="translate(-8637.524 -6880.763)" fill="#75ffe6"/>
          <text id="Esquema_eléctrico_de_la_conexión_del_instrumento_o_pictograma" data-name="Esquema eléctrico de la conexión del instrumento o pictograma" transform="translate(-8625.637 -6861.907)" font-size="14" font-family="Roboto-Regular, Roboto"><tspan x="0" y="0">Esquema eléctrico de la conexión del instrumen</tspan><tspan y="0" letter-spacing="-0.013em">t</tspan><tspan y="0">o o pic</tspan><tspan y="0" letter-spacing="-0.009em">t</tspan><tspan y="0">og</tspan><tspan y="0" letter-spacing="-0.019em">r</tspan><tspan y="0">ama</tspan></text>
          <line id="Línea_299" data-name="Línea 299" x2="15.516" transform="translate(-8440.963 -6695.056)" fill="none" stroke="blue" stroke-miterlimit="10" stroke-width="3.082"/>
          <line id="Línea_300" data-name="Línea 300" x2="15.516" transform="translate(-8440.963 -6680.379)" fill="none" stroke="blue" stroke-miterlimit="10" stroke-width="3.082"/>
          <path id="Trazado_237967" data-name="Trazado 237967" d="M193.167,773.35v16.23H113.32" transform="translate(-8714 -7494.002)" fill="none" stroke="red" stroke-miterlimit="10" stroke-width="3.082"/>
          <path id="Trazado_237968" data-name="Trazado 237968" d="M113.321,837.666H240.485V813.623h32.552" transform="translate(-8714 -7494.002)" fill="none" stroke="red" stroke-miterlimit="10" stroke-width="3.082"/>
          <rect id="Rectángulo_314603" data-name="Rectángulo 314603" width="3.082" height="13.962" transform="translate(-8602.22 -6706.195)"/>
          <rect id="Rectángulo_314604" data-name="Rectángulo 314604" width="3.082" height="13.962" transform="translate(-8602.22 -6668.788)"/>
          <path id="Trazado_237969" data-name="Trazado 237969" d="M318.746,774.5H288.553v62.763h45.289V774.5Z" transform="translate(-8714 -7494.002)" fill="none" stroke="blue" stroke-miterlimit="10" stroke-width="3.142"/>
          <path id="Trazado_237970" data-name="Trazado 237970" d="M181.687,675.617a3.522,3.522,0,0,1,1.835-.373q17.814,0,35.628.006a4.834,4.834,0,0,1,5.106,5.134q.018,24.182.006,48.362a4.2,4.2,0,0,1-.335,1.961q-20.093.006-40.185.009c-1.375,0-1.981-.654-1.982-2.1q-.009-7.255,0-14.511c0-.354-.005-3.724-.005-3.98q0-4.216,0-8.432c0-.257-.026-.525.23-.7.967,2.5,2.811,3.548,5.468,3.536,9.263-.044,18.526-.017,27.788-.019a9.631,9.631,0,0,0,1.114-.044,4.713,4.713,0,0,0,4.448-4.841q.073-8.091,0-16.182a4.716,4.716,0,0,0-3.771-4.656c-1.478-.372-2.12-.007-2.572,1.459l-3.392-.025c-.385-1.287-.759-1.566-2.163-1.567q-10.809,0-21.617,0a5.058,5.058,0,0,0-5.31,3.566c-.374-.326-.205-.763-.216-1.152-.055-1.817.078-3.637-.077-5.453" transform="translate(-8714 -7494.002)" fill="#857e87"/>
          <path id="Trazado_237971" data-name="Trazado 237971" d="M181.687,675.617c.155,1.816.022,3.636.077,5.453.011.389-.158.826.216,1.152-.082,6.258-.1,12.515.008,18.773-.256.174-.23.442-.23.7,0,2.811,0,22.086,0,26.923,0,1.445.607,2.1,1.982,2.1q20.092,0,40.185-.009a5.075,5.075,0,0,1-5.141,3.323q-4.8.006-9.606,0-12.567,0-25.133,0c-3.569,0-5.634-2.046-5.634-5.585q0-23.961,0-47.921a4.77,4.77,0,0,1,3.273-4.907" transform="translate(-8714 -7494.002)" fill="#6f6571"/>
          <path id="Trazado_237972" data-name="Trazado 237972" d="M194.931,739.108c0,.408.014.817,0,1.224a1.689,1.689,0,0,1-1.607,1.78,1.761,1.761,0,0,1-1.889-1.634c-.068-.96-.012-1.928-.023-2.893-.006-.443.227-.583.628-.567.259.01.519,0,.779,0,2.118,0,2.118,0,2.115,2.09" transform="translate(-8714 -7494.002)" fill="#6f6571"/>
          <path id="Trazado_237973" data-name="Trazado 237973" d="M211.236,739.091c0,.444.028.89-.006,1.331a1.687,1.687,0,0,1-1.584,1.69,1.662,1.662,0,0,1-1.834-1.413,18.375,18.375,0,0,1-.072-3.209c0-.317.181-.464.491-.465s.592-.006.888-.006c2.124,0,2.124,0,2.117,2.072" transform="translate(-8714 -7494.002)" fill="#6f6571"/>
          <path id="Trazado_237974" data-name="Trazado 237974" d="M181.988,700.995c-.1-6.257-.09-12.514-.008-18.772a5.057,5.057,0,0,1,5.311-3.566q10.808,0,21.616,0c1.4,0,1.779.279,2.163,1.566-.45,1.285-.752,1.512-2.1,1.513q-10.935.006-21.871.006c-1.552,0-2.167.616-2.179,2.155-.013,1.748,0,3.5,0,5.244,0,3.385-.009,6.77,0,10.155,0,1.406.613,2.126,1.852,2.146,2.009.032,4.018,0,6.026.018.441,0,.7-.12.788-.575a6.61,6.61,0,0,1,2.605-4.029c.531-.362.481-.691.248-1.2-.921-1.99-1.806-4-2.7-6a5.148,5.148,0,0,1-.389-1.04,1.387,1.387,0,0,1,.829-1.653,1.407,1.407,0,0,1,1.869.509,4.934,4.934,0,0,1,.46.887c.9,2,1.784,4.009,2.686,6.009.157.346.2.825.807.723a8.135,8.135,0,0,1,7.829,3.03,8.571,8.571,0,0,1,1.178,2.506c.134.72.517.846,1.161.834,1.783-.034,3.567-.007,5.35-.014,1.65-.006,2.224-.564,2.231-2.193.011-2.6,0-5.2,0-7.8,0-2.563.01-5.127-.006-7.691-.007-1.266-.446-1.85-1.616-2a1.776,1.776,0,0,1-1.669-1.516c.451-1.466,1.094-1.83,2.571-1.458a4.716,4.716,0,0,1,3.772,4.656q.069,8.091,0,16.181a4.715,4.715,0,0,1-4.449,4.842,9.6,9.6,0,0,1-1.113.043c-9.263,0-18.526-.025-27.788.019-2.658.013-4.5-1.033-5.469-3.536m19.37.434c1.265,0,2.531.014,3.795-.005.823-.012.916-.193.51-.917a4.986,4.986,0,0,0-8.6-.049c-.457.834-.379.964.616.97,1.228.007,2.456,0,3.684,0" transform="translate(-8714 -7494.002)" fill="#010101"/>
          <path id="Trazado_237975" data-name="Trazado 237975" d="M194.9,698.08a10.576,10.576,0,0,0-1.317,2.8c-.09.454-.347.579-.788.574-2.009-.018-4.018.015-6.026-.017-1.239-.02-1.847-.74-1.852-2.146-.013-3.385-.005-6.77-.005-10.155,0-1.749-.009-3.5,0-5.245.012-1.538.627-2.153,2.179-2.155q10.935-.011,21.871-.006c1.352,0,1.654-.228,2.1-1.511q1.7.011,3.393.025a1.777,1.777,0,0,0,1.669,1.515c1.17.148,1.609.732,1.616,2,.015,2.565.005,5.129.005,7.692,0,2.6.008,5.2,0,7.8-.007,1.63-.581,2.188-2.231,2.2-1.783.006-3.567-.021-5.35.013-.644.013-1.027-.115-1.161-.834a8.585,8.585,0,0,0-1.178-2.506c1.116-.01,2.232,0,3.347-.036a3.146,3.146,0,0,0,3.2-3.066q.092-3.4,0-6.8a3.137,3.137,0,0,0-3.163-3.086q-9.932-.012-19.861,0a2.872,2.872,0,0,0-2.883,2.3,29.173,29.173,0,0,0-.1,7.875c.173,1.874,1.51,2.776,3.413,2.783,1.041,0,2.083-.006,3.124-.01" transform="translate(-8714 -7494.002)" fill="#b3e59f"/>
          <path id="Trazado_237976" data-name="Trazado 237976" d="M194.9,698.08c-1.041,0-2.083.014-3.124.01-1.9-.007-3.24-.909-3.413-2.783a29.173,29.173,0,0,1,.1-7.875,2.872,2.872,0,0,1,2.883-2.3q9.93-.014,19.861,0a3.137,3.137,0,0,1,3.163,3.086q.086,3.4,0,6.8a3.146,3.146,0,0,1-3.2,3.066c-1.115.032-2.231.026-3.347.036a8.131,8.131,0,0,0-7.829-3.03c-.6.1-.65-.376-.807-.724-.9-2-1.788-4.006-2.686-6.007a4.887,4.887,0,0,0-.46-.889,1.408,1.408,0,0,0-1.869-.509,1.388,1.388,0,0,0-.829,1.654,5.151,5.151,0,0,0,.388,1.039c.892,2.005,1.777,4.013,2.7,6,.233.5.282.833-.248,1.194a10.613,10.613,0,0,0-1.288,1.225" transform="translate(-8714 -7494.002)" fill="#ccf49f"/>
          <path id="Trazado_237977" data-name="Trazado 237977" d="M201.358,701.429c-1.228,0-2.456.006-3.684,0-.995-.006-1.073-.136-.616-.97a4.986,4.986,0,0,1,8.6.049c.406.724.313.906-.51.918-1.264.018-2.53.005-3.795.005" transform="translate(-8714 -7494.002)" fill="#6f6571"/>
          <path id="Trazado_237978" data-name="Trazado 237978" d="M194.737,711.915a3.949,3.949,0,1,1-3.949-3.949,3.949,3.949,0,0,1,3.949,3.949" transform="translate(-8714 -7494.002)" fill="#010101"/>
          <path id="Trazado_237979" data-name="Trazado 237979" d="M191.729,711.915a.941.941,0,1,1-.941-.941.941.941,0,0,1,.941.941" transform="translate(-8714 -7494.002)" fill="#ccf49f"/>
          <path id="Trazado_237980" data-name="Trazado 237980" d="M215.949,711.915A3.949,3.949,0,1,1,212,707.966a3.949,3.949,0,0,1,3.949,3.949" transform="translate(-8714 -7494.002)" fill="#010101"/>
          <path id="Trazado_237981" data-name="Trazado 237981" d="M212.941,711.915a.941.941,0,1,1-.941-.941.941.941,0,0,1,.941.941" transform="translate(-8714 -7494.002)" fill="#ff8086"/>
          <path id="Trazado_237982" data-name="Trazado 237982" d="M211.049,723.329h-2.466a.917.917,0,0,1-.95-.915.936.936,0,0,1,.95-.9h2.466v-2.623a.94.94,0,0,1,.951-.916.929.929,0,0,1,.951.916v2.623h2.465a.948.948,0,0,1,.951.9.928.928,0,0,1-.951.915h-2.465v2.624a.914.914,0,0,1-.951.9.937.937,0,0,1-.951-.9Z" transform="translate(-8714 -7494.002)"/>
          <path id="Trazado_237983" data-name="Trazado 237983" d="M187.371,723.329a.918.918,0,0,1-.951-.915.937.937,0,0,1,.951-.9H194.2a.949.949,0,0,1,.951.9.929.929,0,0,1-.951.915Z" transform="translate(-8714 -7494.002)"/>
          <line id="Línea_301" data-name="Línea 301" y2="28.963" transform="translate(-8520.81 -6749.615)" fill="none" stroke="#000" stroke-miterlimit="10" stroke-width="3.082"/>
          <rect id="Rectángulo_314605" data-name="Rectángulo 314605" width="3.082" height="28.962" transform="translate(-8506.066 -6749.614)"/>
          <path id="Trazado_237984" data-name="Trazado 237984" d="M187.453,737.028c.711-.03,1.03.147.966.919-.063.74-.012,1.489-.013,2.234a4.581,4.581,0,0,0,2.641,4.434.912.912,0,0,1,.589.786h3.091a.88.88,0,0,1,.575-.754,4.619,4.619,0,0,0,2.655-4.433c.006-.782.035-1.566-.008-2.346-.034-.624.168-.867.817-.837,1,.046,2.012-.01,3.017.018.923.026,2.118-.4,2.7.161.639.613.146,1.834.224,2.786.006.074,0,.149,0,.223a4.608,4.608,0,0,0,2.679,4.414.9.9,0,0,1,.574.768h3.052v0a.784.784,0,0,1,.552-.721,4.774,4.774,0,0,0,2.718-4.632c0-.745.03-1.492-.008-2.235-.03-.579.174-.789.761-.775,1.3.031,2.607.015,3.911.005a8.023,8.023,0,0,0,8.376-8.368q.024-24.081,0-48.162a8,8,0,0,0-8.4-8.343q-17.6-.014-35.2,0a8.67,8.67,0,0,0-1.555.111,8.039,8.039,0,0,0-6.832,8.268c-.017,8.008-.005,16.017-.005,24.025s-.011,16.016.005,24.025a8.1,8.1,0,0,0,8.432,8.443c1.229.009,2.46.04,3.687-.013m7.476,3.3a1.689,1.689,0,0,1-1.607,1.779,1.759,1.759,0,0,1-1.889-1.634c-.068-.96-.013-1.928-.024-2.893,0-.442.228-.583.628-.567.26.01.52,0,.779,0,2.118,0,2.118,0,2.118,2.09,0,.409.012.817-.005,1.225m16.3.09a1.687,1.687,0,0,1-1.584,1.689,1.661,1.661,0,0,1-1.834-1.413,18.183,18.183,0,0,1-.072-3.209c0-.317.181-.464.491-.465s.592-.006.888-.006c2.124,0,2.124,0,2.117,2.072,0,.444.028.89-.006,1.332m-32.817-11.978q0-23.961,0-47.92a4.772,4.772,0,0,1,3.273-4.908,3.522,3.522,0,0,1,1.835-.373q17.814,0,35.629.006a4.834,4.834,0,0,1,5.1,5.135q.018,24.18.007,48.361a4.207,4.207,0,0,1-.336,1.962,5.074,5.074,0,0,1-5.141,3.322q-4.8.006-9.606,0-12.567,0-25.133,0c-3.568,0-5.633-2.045-5.634-5.585" transform="translate(-8714 -7494.002)" fill="#010101"/>
          <path id="Trazado_237985" data-name="Trazado 237985" d="M207.934,774.9h32.552v24.043h32.552" transform="translate(-8714 -7494.002)" fill="none" stroke="red" stroke-miterlimit="10" stroke-width="3.082"/>
          <text id="CIRCUITO" transform="translate(-8368.532 -6684.612)" fill="blue" font-size="12" font-family="Roboto-Bold, Roboto" font-weight="700"><tspan x="0" y="0">CIRCU</tspan><tspan y="0" letter-spacing="-0.013em">IT</tspan><tspan y="0">O</tspan></text>
          <text id="IN" transform="translate(-8420.469 -6684.612)" font-size="12" font-family="Roboto-Bold, Roboto" font-weight="700"><tspan x="0" y="0">IN</tspan></text>
          <text id="V2" transform="translate(-8581.652 -6684.612)" font-size="12" font-family="Roboto-Bold, Roboto" font-weight="700"><tspan x="0" y="0">V2</tspan></text>
          <text id="_12V" data-name="12V" transform="translate(-8581.652 -6670.213)" font-size="12" font-family="Roboto-Bold, Roboto" font-weight="700"><tspan x="0" y="0">12V</tspan></text>
          <line id="Línea_302" data-name="Línea 302" x2="29.794" transform="translate(-8615.576 -6692.233)" fill="none" stroke="#000" stroke-miterlimit="10" stroke-width="3.082"/>
          <line id="Línea_303" data-name="Línea 303" x2="15.241" transform="translate(-8608.3 -6683.915)" fill="none" stroke="#000" stroke-miterlimit="10" stroke-width="3.082"/>
          <line id="Línea_304" data-name="Línea 304" x2="29.794" transform="translate(-8615.576 -6675.596)" fill="none" stroke="#000" stroke-miterlimit="10" stroke-width="3.082"/>
          <line id="Línea_305" data-name="Línea 305" x2="15.241" transform="translate(-8608.3 -6667.278)" fill="none" stroke="#000" stroke-miterlimit="10" stroke-width="3.082"/>
          <line id="Línea_306" data-name="Línea 306" x2="15.516" transform="translate(-8116.935 -6695.056)" fill="none" stroke="blue" stroke-miterlimit="10" stroke-width="3.082"/>
          <line id="Línea_307" data-name="Línea 307" x2="15.516" transform="translate(-8116.935 -6680.379)" fill="none" stroke="blue" stroke-miterlimit="10" stroke-width="3.082"/>
          <path id="Trazado_237986" data-name="Trazado 237986" d="M437.349,837.666H564.513V813.623h32.552" transform="translate(-8714 -7494.002)" fill="none" stroke="red" stroke-miterlimit="10" stroke-width="3.082"/>
          <rect id="Rectángulo_314607" data-name="Rectángulo 314607" width="3.082" height="13.962" transform="translate(-8278.192 -6706.195)"/>
          <rect id="Rectángulo_314608" data-name="Rectángulo 314608" width="3.082" height="13.962" transform="translate(-8278.192 -6668.788)"/>
          <path id="Trazado_237987" data-name="Trazado 237987" d="M642.774,774.5H612.581v62.763H657.87V774.5Z" transform="translate(-8714 -7494.002)" fill="none" stroke="blue" stroke-miterlimit="10" stroke-width="3.142"/>
          <path id="Trazado_237988" data-name="Trazado 237988" d="M437.349,787.807V774.9H564.513v24.043h32.552" transform="translate(-8714 -7494.002)" fill="none" stroke="red" stroke-miterlimit="10" stroke-width="3.082"/>
          <text id="CIRCUITO-2" data-name="CIRCUITO" transform="translate(-8046.055 -6684.613)" fill="blue" font-size="12" font-family="Roboto-Bold, Roboto" font-weight="700"><tspan x="0" y="0">CIRCU</tspan><tspan y="0" letter-spacing="-0.013em">IT</tspan><tspan y="0">O</tspan></text>
          <text id="IN-2" data-name="IN" transform="translate(-8096.442 -6684.613)" font-size="12" font-family="Roboto-Bold, Roboto" font-weight="700"><tspan x="0" y="0">IN</tspan></text>
          <text id="V2-2" data-name="V2" transform="translate(-8257.627 -6684.613)" font-size="12" font-family="Roboto-Bold, Roboto" font-weight="700"><tspan x="0" y="0">V2</tspan></text>
          <text id="_12V-2" data-name="12V" transform="translate(-8257.627 -6670.214)" font-size="12" font-family="Roboto-Bold, Roboto" font-weight="700"><tspan x="0" y="0">12V</tspan></text>
          <line id="Línea_308" data-name="Línea 308" x2="29.794" transform="translate(-8291.548 -6692.233)" fill="none" stroke="#000" stroke-miterlimit="10" stroke-width="3.082"/>
          <line id="Línea_309" data-name="Línea 309" x2="15.241" transform="translate(-8284.271 -6683.915)" fill="none" stroke="#000" stroke-miterlimit="10" stroke-width="3.082"/>
          <line id="Línea_310" data-name="Línea 310" x2="29.794" transform="translate(-8291.548 -6675.596)" fill="none" stroke="#000" stroke-miterlimit="10" stroke-width="3.082"/>
          <line id="Línea_311" data-name="Línea 311" x2="15.241" transform="translate(-8284.271 -6667.278)" fill="none" stroke="#000" stroke-miterlimit="10" stroke-width="3.082"/>
          <path id="Trazado_237989" data-name="Trazado 237989" d="M612.222,675.617a3.522,3.522,0,0,1,1.835-.373q17.814,0,35.628.006a4.834,4.834,0,0,1,5.106,5.134q.018,24.182.006,48.362a4.2,4.2,0,0,1-.335,1.961q-20.092.006-40.185.009c-1.375,0-1.981-.654-1.982-2.1q-.009-7.255,0-14.511c0-.354,0-3.724,0-3.98q0-4.216,0-8.432c0-.257-.026-.525.23-.7.967,2.5,2.811,3.548,5.468,3.536,9.263-.044,18.526-.017,27.788-.019a9.631,9.631,0,0,0,1.114-.044,4.713,4.713,0,0,0,4.448-4.841q.074-8.091,0-16.182a4.716,4.716,0,0,0-3.771-4.656c-1.478-.372-2.12-.007-2.571,1.459l-3.393-.025c-.385-1.287-.759-1.566-2.163-1.567q-10.809,0-21.617,0a5.058,5.058,0,0,0-5.31,3.566c-.374-.326-.205-.763-.216-1.152-.055-1.817.078-3.637-.077-5.453" transform="translate(-8714 -7494.002)" fill="#857e87"/>
          <path id="Trazado_237990" data-name="Trazado 237990" d="M612.222,675.617c.155,1.816.022,3.636.077,5.453.011.389-.158.826.216,1.152-.082,6.258-.1,12.515.008,18.773-.256.174-.23.442-.23.7,0,2.811,0,22.086,0,26.923,0,1.445.607,2.1,1.982,2.1q20.093,0,40.185-.009a5.074,5.074,0,0,1-5.141,3.323q-4.8.006-9.606,0-12.567,0-25.133,0c-3.569,0-5.634-2.046-5.634-5.585q0-23.961,0-47.921a4.77,4.77,0,0,1,3.273-4.907" transform="translate(-8714 -7494.002)" fill="#6f6571"/>
          <path id="Trazado_237991" data-name="Trazado 237991" d="M625.466,739.108c0,.408.014.817,0,1.224a1.689,1.689,0,0,1-1.607,1.78,1.761,1.761,0,0,1-1.889-1.634c-.068-.96-.012-1.928-.023-2.893-.006-.443.227-.583.628-.567.259.01.519,0,.779,0,2.118,0,2.118,0,2.115,2.09" transform="translate(-8714 -7494.002)" fill="#6f6571"/>
          <path id="Trazado_237992" data-name="Trazado 237992" d="M641.771,739.091c0,.444.028.89-.006,1.331a1.687,1.687,0,0,1-1.584,1.69,1.662,1.662,0,0,1-1.834-1.413,18.384,18.384,0,0,1-.072-3.21c0-.316.181-.463.491-.464s.592-.006.888-.007c2.124,0,2.124,0,2.117,2.073" transform="translate(-8714 -7494.002)" fill="#6f6571"/>
          <path id="Trazado_237993" data-name="Trazado 237993" d="M612.523,700.995c-.1-6.257-.09-12.514-.008-18.772a5.059,5.059,0,0,1,5.311-3.567q10.808,0,21.616,0c1.4,0,1.779.279,2.163,1.566-.45,1.285-.751,1.512-2.1,1.513q-10.935.006-21.871.006c-1.552,0-2.167.615-2.179,2.154-.013,1.748,0,3.5,0,5.245,0,3.385-.009,6.77,0,10.155,0,1.4.613,2.126,1.852,2.145,2.009.033,4.018,0,6.026.019.441,0,.7-.12.788-.575a10.542,10.542,0,0,1,1.317-2.8,10.384,10.384,0,0,1,1.288-1.225c.531-.362.481-.691.248-1.2-.921-1.99-1.806-4-2.7-6a5.148,5.148,0,0,1-.389-1.04,1.387,1.387,0,0,1,.829-1.653,1.407,1.407,0,0,1,1.869.509,4.937,4.937,0,0,1,.46.887c.9,2,1.784,4.009,2.686,6.009.157.346.2.825.807.723a8.135,8.135,0,0,1,7.829,3.03,8.572,8.572,0,0,1,1.178,2.506c.134.72.518.846,1.161.834,1.783-.034,3.567-.007,5.35-.014,1.65-.006,2.224-.564,2.231-2.193.011-2.6,0-5.2,0-7.8,0-2.563.01-5.127-.006-7.691-.007-1.266-.446-1.85-1.616-2A1.776,1.776,0,0,1,645,680.248c.451-1.466,1.094-1.83,2.571-1.459a4.717,4.717,0,0,1,3.772,4.657q.069,8.091,0,16.181a4.715,4.715,0,0,1-4.449,4.842,9.6,9.6,0,0,1-1.113.043c-9.263,0-18.526-.025-27.788.019-2.658.013-4.5-1.033-5.469-3.536m19.37.434c1.265,0,2.531.013,3.795-.005.823-.012.916-.193.51-.917a4.986,4.986,0,0,0-8.6-.049c-.457.834-.379.963.616.97,1.228.007,2.456,0,3.684,0" transform="translate(-8714 -7494.002)" fill="#010101"/>
          <path id="Trazado_237994" data-name="Trazado 237994" d="M625.435,698.08a10.576,10.576,0,0,0-1.317,2.8c-.09.454-.347.579-.788.574-2.009-.017-4.018.015-6.026-.017-1.239-.02-1.847-.74-1.852-2.146-.013-3.385-.005-6.77-.005-10.155,0-1.749-.009-3.5,0-5.245.012-1.538.627-2.153,2.179-2.155q10.935-.011,21.871-.006c1.352,0,1.654-.228,2.1-1.511q1.7.011,3.393.025a1.777,1.777,0,0,0,1.669,1.515c1.17.148,1.609.732,1.616,2,.015,2.565.005,5.129.005,7.692,0,2.6.008,5.2,0,7.8-.007,1.63-.581,2.188-2.231,2.2-1.783.006-3.567-.021-5.35.013-.644.013-1.027-.115-1.161-.834a8.586,8.586,0,0,0-1.178-2.506c1.116-.01,2.232,0,3.347-.036a3.146,3.146,0,0,0,3.2-3.066q.091-3.4,0-6.8a3.137,3.137,0,0,0-3.163-3.086q-9.931-.012-19.861,0a2.871,2.871,0,0,0-2.882,2.3,29.132,29.132,0,0,0-.1,7.875c.173,1.874,1.51,2.776,3.413,2.783,1.041,0,2.083-.006,3.124-.01" transform="translate(-8714 -7494.002)" fill="#b3e59f"/>
          <path id="Trazado_237995" data-name="Trazado 237995" d="M625.435,698.08c-1.041,0-2.083.014-3.124.01-1.9-.007-3.24-.909-3.413-2.783a29.132,29.132,0,0,1,.1-7.875,2.871,2.871,0,0,1,2.882-2.3q9.93-.014,19.861,0a3.137,3.137,0,0,1,3.163,3.086q.086,3.4,0,6.8a3.146,3.146,0,0,1-3.2,3.066c-1.115.032-2.231.026-3.347.036a8.131,8.131,0,0,0-7.829-3.03c-.6.1-.65-.376-.807-.724-.9-2-1.788-4.005-2.686-6.007a4.89,4.89,0,0,0-.46-.889,1.408,1.408,0,0,0-1.869-.509,1.388,1.388,0,0,0-.829,1.654,5.1,5.1,0,0,0,.389,1.039c.891,2.005,1.776,4.013,2.7,6,.233.5.282.833-.248,1.194a10.61,10.61,0,0,0-1.288,1.225" transform="translate(-8714 -7494.002)" fill="#ccf49f"/>
          <path id="Trazado_237996" data-name="Trazado 237996" d="M631.893,701.429c-1.228,0-2.456.006-3.684,0-.995-.006-1.073-.136-.616-.97a4.986,4.986,0,0,1,8.6.049c.406.724.313.906-.51.918-1.264.018-2.53.005-3.795.005" transform="translate(-8714 -7494.002)" fill="#6f6571"/>
          <path id="Trazado_237997" data-name="Trazado 237997" d="M625.272,711.915a3.949,3.949,0,1,1-3.949-3.949,3.949,3.949,0,0,1,3.949,3.949" transform="translate(-8714 -7494.002)" fill="#010101"/>
          <path id="Trazado_237998" data-name="Trazado 237998" d="M622.264,711.915a.941.941,0,1,1-.941-.941.941.941,0,0,1,.941.941" transform="translate(-8714 -7494.002)" fill="#ccf49f"/>
          <path id="Trazado_237999" data-name="Trazado 237999" d="M646.484,711.915a3.949,3.949,0,1,1-3.949-3.949,3.949,3.949,0,0,1,3.949,3.949" transform="translate(-8714 -7494.002)" fill="#010101"/>
          <path id="Trazado_238000" data-name="Trazado 238000" d="M643.476,711.915a.941.941,0,1,1-.941-.941.941.941,0,0,1,.941.941" transform="translate(-8714 -7494.002)" fill="#ff8086"/>
          <path id="Trazado_238001" data-name="Trazado 238001" d="M641.584,723.329h-2.466a.917.917,0,0,1-.95-.915.936.936,0,0,1,.95-.9h2.466v-2.623a.94.94,0,0,1,.951-.916.929.929,0,0,1,.951.916v2.623h2.465a.948.948,0,0,1,.951.9.928.928,0,0,1-.951.915h-2.465v2.624a.914.914,0,0,1-.951.9.937.937,0,0,1-.951-.9Z" transform="translate(-8714 -7494.002)"/>
          <path id="Trazado_238002" data-name="Trazado 238002" d="M617.907,723.329a.918.918,0,0,1-.951-.915.937.937,0,0,1,.951-.9h6.833a.949.949,0,0,1,.951.9.929.929,0,0,1-.951.915Z" transform="translate(-8714 -7494.002)"/>
          <path id="Trazado_238003" data-name="Trazado 238003" d="M623.726,744.387c0,7.758-5.73,11.637-11.46,11.637" transform="translate(-8714 -7494.002)" fill="none" stroke="red" stroke-miterlimit="10" stroke-width="3.082"/>
          <path id="Trazado_238004" data-name="Trazado 238004" d="M657.857,680.511a8,8,0,0,0-8.4-8.344q-17.6-.013-35.2,0a8.577,8.577,0,0,0-1.554.111,8.039,8.039,0,0,0-6.832,8.267c-.017,8.009-.005,16.017-.005,24.025s-.011,16.017.005,24.025a8.1,8.1,0,0,0,8.432,8.444c1.229.009,2.46.04,3.687-.013.711-.03,1.03.146.965.919-.062.739-.011,1.489-.012,2.233a4.579,4.579,0,0,0,2.641,4.434.913.913,0,0,1,.589.786h3.091a.882.882,0,0,1,.575-.754,4.618,4.618,0,0,0,2.655-4.432c.006-.782.035-1.567-.008-2.346-.034-.625.167-.867.817-.838,1,.047,2.012-.009,3.016.019.924.026,2.119-.4,2.7.161.639.613.146,1.833.224,2.785.006.074,0,.149,0,.224s.009.117.011.177h-.011c0,.093.022.179.027.27.011.142.023.282.042.417.023.155.048.308.085.457a4.457,4.457,0,0,0,.629,1.466c.033.05.069.1.1.146a4.269,4.269,0,0,0,.334.405,4.706,4.706,0,0,0,6.493.582,4.7,4.7,0,0,0,.423-.349c.019-.019.037-.041.056-.061a4.194,4.194,0,0,0,.535-.648l.021-.03a4.44,4.44,0,0,0,.393-.724c.015-.036.034-.069.049-.105a5.152,5.152,0,0,0,.228-.736c.03-.13.047-.263.067-.4a6.982,6.982,0,0,0,.09-1.043c0-.745.03-1.491-.008-2.234-.03-.579.173-.79.761-.776,1.3.032,2.607.016,3.911.005a8.022,8.022,0,0,0,8.376-8.367q.024-24.081,0-48.162m-32.394,59.821a1.688,1.688,0,0,1-1.606,1.78,1.76,1.76,0,0,1-1.889-1.634c-.068-.96-.013-1.928-.024-2.893,0-.443.228-.583.628-.567.26.01.52,0,.779,0,2.118,0,2.118,0,2.118,2.09,0,.408.012.817-.006,1.224m12.763-2.811a.5.5,0,0,1,.5-.5h2.583a.5.5,0,0,1,.5.5l-.006,2.931a1.791,1.791,0,0,1-3.581,0V740.4Zm16.236-6.814a5.074,5.074,0,0,1-5.141,3.323q-4.8.006-9.606,0-12.567,0-25.133,0c-3.568,0-5.633-2.046-5.634-5.585q0-23.961,0-47.921a4.771,4.771,0,0,1,3.273-4.907,3.522,3.522,0,0,1,1.835-.373q17.814,0,35.629.005a4.835,4.835,0,0,1,5.105,5.135q.018,24.182.007,48.362a4.2,4.2,0,0,1-.336,1.961" transform="translate(-8714 -7494.002)" fill="#010101"/>
          <path id="Trazado_238005" data-name="Trazado 238005" d="M515.343,763.142a16.827,16.827,0,0,1,4.52,8.21l8.38-14.467a4.684,4.684,0,0,0-.741-5.66l-.242-.242a4.684,4.684,0,0,0-5.66-.741l-14.467,8.381a16.817,16.817,0,0,1,8.21,4.519" transform="translate(-8714 -7494.002)"/>
          <path id="Trazado_238006" data-name="Trazado 238006" d="M511.738,783.475a11.828,11.828,0,1,1,0-16.728,11.827,11.827,0,0,1,0,16.728m3.605-20.333a16.927,16.927,0,1,0,0,23.939,16.927,16.927,0,0,0,0-23.939" transform="translate(-8714 -7494.002)" fill="red"/>
          <path id="Trazado_238007" data-name="Trazado 238007" d="M527.5,751.225,544.73,734c3.187,2.47,6.374,4.939,7.092,4.222s-1.753-3.9-4.222-7.092-4.94-6.374-4.223-7.091,3.9,1.752,7.092,4.222,6.374,4.94,7.091,4.222-1.752-3.9-4.221-7.092-4.94-6.374-4.222-7.091,3.906,1.75,7.094,4.219,6.376,4.938,7.094,4.219-1.75-3.906-4.219-7.094l5.067-5.067a7.716,7.716,0,0,1,11.562.739L600.643,751.4a10.712,10.712,0,0,0,8.815,4.624h2.808" transform="translate(-8714 -7494.002)" fill="none" stroke="#000" stroke-miterlimit="10" stroke-width="3.142"/>
          <path id="Trazado_238008" data-name="Trazado 238008" d="M511.013,775.111l-14.626,7.237,3.47-7.237-3.47-7.236Z" transform="translate(-8714 -7494.002)" fill="#00e100"/>
          <text id="Pinza_" data-name="Pinza " transform="translate(-8276.65 -6763.285)" fill="blue" font-size="12" font-family="Roboto-Bold, Roboto" font-weight="700"><tspan x="0" y="0">Pinza </tspan></text>
          <text id="ampirimétrica" transform="translate(-8276.65 -6748.886)" fill="blue" font-size="12" font-family="Roboto-Bold, Roboto" font-weight="700"><tspan x="0" y="0">ampirimétrica</tspan></text>
          <text id="Amperimetro" transform="translate(-8596.09 -6786.839)" font-size="8.806" font-family="Roboto-Medium, Roboto" font-weight="500"><tspan x="0" y="0" letter-spacing="-0.023em">A</tspan><tspan y="0">mperimet</tspan><tspan y="0" letter-spacing="-0.017em">r</tspan><tspan y="0">o</tspan></text>
          <path id="Trazado_238016" data-name="Trazado 238016" d="M264.964,704.59a13.814,13.814,0,1,1-13.814-13.814,13.814,13.814,0,0,1,13.814,13.814" transform="translate(-8714 -7494.002)" fill="#010101"/>
          <path id="Trazado_238017" data-name="Trazado 238017" d="M253.8,707.615h-5.318l-1.194,3.321h-1.726l4.847-12.693h1.465l4.856,12.693h-1.718Zm-4.812-1.369h4.315l-2.162-5.937Z" transform="translate(-8714 -7494.002)" fill="#fff"/>
        </g>
      </g>
    </g>
  </g>
</svg>
