<svg xmlns="http://www.w3.org/2000/svg" xmlns:xlink="http://www.w3.org/1999/xlink" width="820" height="411.577" viewBox="0 0 820 411.577">
  <defs>
    <clipPath id="clip-path">
      <path id="Trazado_238011" data-name="Trazado 238011" d="M93.04,937.736H24.271v20.771H156.6l7.388-10.385V937.736Z" fill="none"/>
    </clipPath>
    <linearGradient id="linear-gradient" x1="-0.174" y1="62.37" x2="-0.167" y2="62.37" gradientUnits="objectBoundingBox">
      <stop offset="0" stop-color="#b3009d"/>
      <stop offset="1" stop-color="#3c0061"/>
    </linearGradient>
    <clipPath id="clip-path-2">
      <path id="Trazado_238012" data-name="Trazado 238012" d="M10,948.122a28.236,28.236,0,1,0,28.236-28.237A28.236,28.236,0,0,0,10,948.122" fill="none"/>
    </clipPath>
    <linearGradient id="linear-gradient-2" x1="-0.177" y1="23.256" x2="-0.159" y2="23.256" gradientUnits="objectBoundingBox">
      <stop offset="0" stop-color="#c238b2"/>
      <stop offset="1" stop-color="#9c0088"/>
    </linearGradient>
  </defs>
  <g id="Grupo_242685" data-name="Grupo 242685" transform="translate(8714 6585.716)">
    <g id="Grupo_242681" data-name="Grupo 242681">
      <g id="Grupo_242677" data-name="Grupo 242677">
        <g id="Grupo_240272" data-name="Grupo 240272">
          <rect id="Rectángulo_314610" data-name="Rectángulo 314610" width="820" height="411.577" transform="translate(-8714 -6585.716)" fill="#f0f0f0"/>
          <path id="Trazado_238009" data-name="Trazado 238009" d="M790,1108.386v175.328l-5.771,5.771-5.771,5.772h-86.9" transform="translate(-8714 -7494.002)" fill="none" stroke="#b3009d" stroke-miterlimit="10" stroke-width="0.847" stroke-dasharray="2.541 2.541"/>
          <path id="Trazado_238010" data-name="Trazado 238010" d="M38.236,1121.382V960.416l6.179-6.178,6.178-6.179H414.965" transform="translate(-8714 -7494.002)" fill="none" stroke="#b3009d" stroke-miterlimit="10" stroke-width="0.847" stroke-dasharray="2.541 2.541"/>
          <g id="Grupo_240213" data-name="Grupo 240213" transform="translate(-8714 -7494.002)">
            <g id="Grupo_240212" data-name="Grupo 240212" clip-path="url(#clip-path)">
              <rect id="Rectángulo_314612" data-name="Rectángulo 314612" width="139.714" height="20.771" transform="translate(24.271 937.736)" fill="url(#linear-gradient)"/>
            </g>
          </g>
          <text id="Voltaje" transform="translate(-8638.547 -6542.374)" fill="#fff" font-size="12" font-family="Roboto-Bold, Roboto" font-weight="700"><tspan x="0" y="0" letter-spacing="-0.022em">V</tspan><tspan y="0">oltaje</tspan></text>
          <g id="Grupo_240215" data-name="Grupo 240215" transform="translate(-8714 -7494.002)">
            <g id="Grupo_240214" data-name="Grupo 240214" clip-path="url(#clip-path-2)">
              <rect id="Rectángulo_314613" data-name="Rectángulo 314613" width="56.473" height="56.473" transform="translate(10 919.885)" fill="url(#linear-gradient-2)"/>
            </g>
          </g>
          <path id="Trazado_238013" data-name="Trazado 238013" d="M38.21,956.436l7.312-21.111h3.692l-9.492,25.593H36.733l-9.474-25.593h3.674Z" transform="translate(-8714 -7494.002)" fill="#fff"/>
          <text id="Unidad:_" data-name="Unidad: " transform="translate(-8638.547 -6488.674)" font-size="14" font-family="Roboto-Bold, Roboto" font-weight="700"><tspan x="0" y="0">Unidad: </tspan></text>
          <text id="Voltio_V_." data-name="Voltio (V)." transform="translate(-8587.055 -6488.674)" font-size="14" font-family="Roboto-Regular, Roboto"><tspan x="0" y="0" letter-spacing="-0.022em">V</tspan><tspan y="0">oltio </tspan><tspan y="0" letter-spacing="0.008em">(</tspan><tspan y="0" letter-spacing="0.009em">V</tspan><tspan y="0">).</tspan></text>
          <text id="Medida:_" data-name="Medida:  " transform="translate(-8638.547 -6471.874)" font-size="14" font-family="Roboto-Bold, Roboto" font-weight="700"><tspan x="0" y="0">Medida:  </tspan></text>
          <text id="el_voltímetro_debe_conectarse_en_paralelo_con_el_circuito_o_elemento_a_medir." data-name="el voltímetro debe conectarse en paralelo con el circuito o elemento a medir." transform="translate(-8580.797 -6471.874)" font-size="14" font-family="Roboto-Regular, Roboto"><tspan x="0" y="0">el </tspan><tspan y="0" letter-spacing="-0.008em">v</tspan><tspan y="0">oltímet</tspan><tspan y="0" letter-spacing="-0.01em">r</tspan><tspan y="0">o debe conectarse en pa</tspan><tspan y="0" letter-spacing="-0.021em">r</tspan><tspan y="0">alelo con el ci</tspan><tspan y="0" letter-spacing="-0.011em">r</tspan><tspan y="0">cui</tspan><tspan y="0" letter-spacing="-0.009em">t</tspan><tspan y="0">o o elemen</tspan><tspan y="0" letter-spacing="-0.01em">t</tspan><tspan y="0">o a medi</tspan><tspan y="0" letter-spacing="-0.06em">r</tspan><tspan y="0">.</tspan></text>
          <text id="Precauciones:_" data-name="Precauciones: " transform="translate(-8638.547 -6455.074)" font-size="14" font-family="Roboto-Bold, Roboto" font-weight="700"><tspan x="0" y="0">P</tspan><tspan y="0" letter-spacing="-0.009em">r</tspan><tspan y="0">ecauciones: </tspan></text>
          <text id="debe_tenerse_especial_precaución_con_circuitos_de_alto_voltaje_especialmente_" data-name="debe tenerse especial precaución con circuitos de alto voltaje especialmente " transform="translate(-8545.363 -6455.074)" font-size="14" font-family="Roboto-Regular, Roboto"><tspan x="0" y="0">debe tenerse especial p</tspan><tspan y="0" letter-spacing="-0.013em">r</tspan><tspan y="0">ecaución con ci</tspan><tspan y="0" letter-spacing="-0.008em">r</tspan><tspan y="0">cui</tspan><tspan y="0" letter-spacing="-0.009em">t</tspan><tspan y="0">os de al</tspan><tspan y="0" letter-spacing="-0.011em">t</tspan><tspan y="0">o </tspan><tspan y="0" letter-spacing="-0.007em">v</tspan><tspan y="0">oltaje especialmente </tspan></text>
          <text id="si_la_fuente_es_DC_se_recomienda_el_uso_de_guantes_y_gafas_como_EPPs_mínimos." data-name="si la fuente es DC, se recomienda el uso de guantes y gafas como EPPs mínimos." transform="translate(-8638.547 -6438.273)" font-size="14" font-family="Roboto-Regular, Roboto"><tspan x="0" y="0">si la fuente es DC, se </tspan><tspan y="0" letter-spacing="-0.014em">r</tspan><tspan y="0">ecomienda el uso de guantes y gafas como EPPs mínimos.</tspan></text>
          <rect id="Rectángulo_314615" data-name="Rectángulo 314615" width="420.126" height="29.528" transform="translate(-8637.524 -6424.479)" fill="#75ffe6"/>
          <text id="Esquema_eléctrico_de_la_conexión_del_instrumento_o_pictograma" data-name="Esquema eléctrico de la conexión del instrumento o pictograma" transform="translate(-8625.637 -6405.624)" font-size="14" font-family="Roboto-Regular, Roboto"><tspan x="0" y="0">Esquema eléctrico de la conexión del instrumen</tspan><tspan y="0" letter-spacing="-0.013em">t</tspan><tspan y="0">o o pic</tspan><tspan y="0" letter-spacing="-0.009em">t</tspan><tspan y="0">og</tspan><tspan y="0" letter-spacing="-0.019em">r</tspan><tspan y="0">ama</tspan></text>
          <line id="Línea_312" data-name="Línea 312" x2="15.516" transform="translate(-8279.724 -6238.773)" fill="none" stroke="blue" stroke-miterlimit="10" stroke-width="3.082"/>
          <line id="Línea_313" data-name="Línea 313" x2="15.516" transform="translate(-8279.724 -6224.096)" fill="none" stroke="blue" stroke-miterlimit="10" stroke-width="3.082"/>
          <line id="Línea_314" data-name="Línea 314" x1="79.847" transform="translate(-8439.44 -6263.218)" fill="none" stroke="red" stroke-miterlimit="10" stroke-width="3.082"/>
          <path id="Trazado_238018" data-name="Trazado 238018" d="M274.56,1293.949H401.724v-24.043h32.552" transform="translate(-8714 -7494.002)" fill="none" stroke="red" stroke-miterlimit="10" stroke-width="3.082"/>
          <rect id="Rectángulo_314618" data-name="Rectángulo 314618" width="3.082" height="20.667" transform="translate(-8440.981 -6264.78)"/>
          <rect id="Rectángulo_314619" data-name="Rectángulo 314619" width="3.082" height="20.615" transform="translate(-8440.981 -6219.158)"/>
          <path id="Trazado_238019" data-name="Trazado 238019" d="M479.985,1230.784H449.792v62.763h45.289v-62.763Z" transform="translate(-8714 -7494.002)" fill="none" stroke="blue" stroke-miterlimit="10" stroke-width="3.142"/>
          <path id="Trazado_238020" data-name="Trazado 238020" d="M342.926,1131.9a3.522,3.522,0,0,1,1.835-.373q17.814,0,35.628.006a4.834,4.834,0,0,1,5.106,5.134q.018,24.181.006,48.362a4.2,4.2,0,0,1-.335,1.961q-20.092.008-40.185.009c-1.375,0-1.981-.654-1.982-2.1q-.009-7.256,0-14.511c0-.354-.005-3.724-.005-3.98q0-4.215,0-8.432c0-.257-.026-.525.23-.7.967,2.5,2.811,3.548,5.468,3.536,9.263-.043,18.526-.017,27.788-.019a9.631,9.631,0,0,0,1.114-.044,4.713,4.713,0,0,0,4.448-4.841q.073-8.091,0-16.182a4.715,4.715,0,0,0-3.771-4.655c-1.478-.373-2.12-.008-2.571,1.458l-3.393-.025c-.385-1.287-.759-1.566-2.163-1.567H348.529a5.059,5.059,0,0,0-5.31,3.566c-.374-.325-.2-.763-.216-1.152-.055-1.817.078-3.637-.077-5.453" transform="translate(-8714 -7494.002)" fill="#857e87"/>
          <path id="Trazado_238021" data-name="Trazado 238021" d="M342.926,1131.9c.155,1.816.022,3.636.077,5.453.011.389-.158.827.216,1.152-.082,6.258-.1,12.516.008,18.773-.256.174-.23.442-.23.7,0,2.811,0,22.086,0,26.923,0,1.445.607,2.1,1.982,2.1q20.093,0,40.185-.009a5.074,5.074,0,0,1-5.141,3.323q-4.8.008-9.606,0-12.567,0-25.133,0c-3.569,0-5.634-2.046-5.634-5.585q0-23.961,0-47.921a4.771,4.771,0,0,1,3.273-4.907" transform="translate(-8714 -7494.002)" fill="#6f6571"/>
          <path id="Trazado_238022" data-name="Trazado 238022" d="M356.17,1195.391c0,.409.014.817,0,1.225a1.689,1.689,0,0,1-1.607,1.78,1.761,1.761,0,0,1-1.889-1.634c-.068-.96-.012-1.929-.023-2.893-.006-.443.227-.583.628-.567.259.01.519,0,.779,0,2.118,0,2.118,0,2.115,2.089" transform="translate(-8714 -7494.002)" fill="#6f6571"/>
          <path id="Trazado_238023" data-name="Trazado 238023" d="M372.474,1195.374c0,.444.028.89-.006,1.331a1.687,1.687,0,0,1-1.584,1.69,1.662,1.662,0,0,1-1.834-1.413,18.385,18.385,0,0,1-.072-3.21c0-.316.181-.463.491-.464s.592-.006.888-.007c2.124,0,2.124,0,2.117,2.073" transform="translate(-8714 -7494.002)" fill="#6f6571"/>
          <path id="Trazado_238024" data-name="Trazado 238024" d="M343.227,1157.278c-.1-6.257-.09-12.514-.008-18.772a5.059,5.059,0,0,1,5.311-3.567q10.807,0,21.616,0c1.4,0,1.779.279,2.163,1.566-.45,1.285-.751,1.512-2.1,1.513q-10.935.006-21.871.006c-1.552,0-2.167.616-2.179,2.154-.013,1.749,0,3.5,0,5.245,0,3.385-.009,6.77,0,10.155.005,1.406.613,2.126,1.852,2.145,2.009.033,4.018,0,6.026.019.441,0,.7-.12.788-.575a6.611,6.611,0,0,1,2.605-4.029c.531-.362.481-.691.248-1.2-.921-1.99-1.806-4-2.7-6a5.148,5.148,0,0,1-.389-1.04,1.387,1.387,0,0,1,.829-1.653,1.407,1.407,0,0,1,1.869.509,4.929,4.929,0,0,1,.46.887c.9,2,1.784,4.009,2.686,6.009.157.346.2.825.807.723a8.136,8.136,0,0,1,7.829,3.03,8.573,8.573,0,0,1,1.178,2.506c.134.72.518.846,1.161.834,1.783-.034,3.567-.007,5.35-.014,1.65-.006,2.224-.564,2.231-2.193.011-2.6,0-5.2,0-7.8,0-2.563.01-5.127-.006-7.691-.007-1.266-.446-1.85-1.616-2a1.776,1.776,0,0,1-1.669-1.516c.451-1.466,1.094-1.83,2.571-1.458a4.715,4.715,0,0,1,3.772,4.656q.069,8.091,0,16.181a4.714,4.714,0,0,1-4.449,4.842,9.586,9.586,0,0,1-1.113.043c-9.263,0-18.526-.025-27.788.019-2.658.013-4.5-1.033-5.469-3.536m19.37.434c1.265,0,2.531.014,3.8-.005.823-.012.916-.193.51-.917a4.985,4.985,0,0,0-8.605-.049c-.457.834-.379.964.616.97,1.228.007,2.456,0,3.684,0" transform="translate(-8714 -7494.002)" fill="#010101"/>
          <path id="Trazado_238025" data-name="Trazado 238025" d="M356.139,1154.364a10.554,10.554,0,0,0-1.317,2.8c-.09.455-.347.579-.788.575-2.009-.019-4.018.014-6.026-.018-1.239-.02-1.847-.74-1.852-2.146-.013-3.385-.005-6.77-.005-10.155,0-1.748-.009-3.5,0-5.244.011-1.539.627-2.154,2.179-2.155q10.935-.011,21.871-.006c1.352,0,1.654-.228,2.1-1.512l3.393.024a1.776,1.776,0,0,0,1.669,1.516c1.17.149,1.609.733,1.616,2,.015,2.564.005,5.128.005,7.692,0,2.6.008,5.2,0,7.8-.007,1.63-.581,2.188-2.231,2.194-1.783.006-3.567-.021-5.35.013-.644.013-1.027-.114-1.161-.834a8.6,8.6,0,0,0-1.178-2.506c1.116-.011,2.232,0,3.347-.036a3.145,3.145,0,0,0,3.2-3.066q.092-3.4,0-6.805a3.136,3.136,0,0,0-3.163-3.085q-9.932-.014-19.861,0a2.87,2.87,0,0,0-2.883,2.3,29.174,29.174,0,0,0-.1,7.875c.173,1.874,1.51,2.777,3.413,2.784,1.041,0,2.083-.006,3.124-.01" transform="translate(-8714 -7494.002)" fill="#b3e59f"/>
          <path id="Trazado_238026" data-name="Trazado 238026" d="M356.139,1154.364c-1.041,0-2.083.014-3.124.01-1.9-.007-3.24-.91-3.413-2.784a29.174,29.174,0,0,1,.1-7.875,2.87,2.87,0,0,1,2.883-2.3q9.93-.015,19.861,0a3.136,3.136,0,0,1,3.163,3.085q.086,3.4,0,6.805a3.145,3.145,0,0,1-3.2,3.066c-1.115.033-2.231.025-3.347.036a8.133,8.133,0,0,0-7.829-3.029c-.6.1-.65-.378-.807-.724-.9-2-1.788-4.007-2.686-6.009a4.929,4.929,0,0,0-.46-.887,1.407,1.407,0,0,0-1.869-.509,1.387,1.387,0,0,0-.829,1.653,5.183,5.183,0,0,0,.388,1.04c.892,2.005,1.777,4.012,2.7,6,.233.5.282.833-.248,1.2a10.454,10.454,0,0,0-1.288,1.225" transform="translate(-8714 -7494.002)" fill="#ccf49f"/>
          <path id="Trazado_238027" data-name="Trazado 238027" d="M362.6,1157.712c-1.228,0-2.456.006-3.684,0-.995-.006-1.073-.136-.616-.97a4.985,4.985,0,0,1,8.605.049c.406.724.313.906-.51.918-1.264.018-2.53.005-3.8.005" transform="translate(-8714 -7494.002)" fill="#6f6571"/>
          <path id="Trazado_238028" data-name="Trazado 238028" d="M355.975,1168.2a3.949,3.949,0,1,1-3.949-3.949,3.949,3.949,0,0,1,3.949,3.949" transform="translate(-8714 -7494.002)" fill="#010101"/>
          <path id="Trazado_238029" data-name="Trazado 238029" d="M352.968,1168.2a.941.941,0,1,1-.941-.941.941.941,0,0,1,.941.941" transform="translate(-8714 -7494.002)" fill="#ccf49f"/>
          <path id="Trazado_238030" data-name="Trazado 238030" d="M377.188,1168.2a3.949,3.949,0,1,1-3.949-3.949,3.949,3.949,0,0,1,3.949,3.949" transform="translate(-8714 -7494.002)" fill="#010101"/>
          <path id="Trazado_238031" data-name="Trazado 238031" d="M374.18,1168.2a.941.941,0,1,1-.941-.941.941.941,0,0,1,.941.941" transform="translate(-8714 -7494.002)" fill="#ff8086"/>
          <path id="Trazado_238032" data-name="Trazado 238032" d="M372.288,1179.612h-2.466a.917.917,0,0,1-.95-.914.937.937,0,0,1,.95-.9h2.466v-2.622a.939.939,0,0,1,.951-.916.928.928,0,0,1,.951.916v2.622h2.465a.949.949,0,0,1,.951.9.927.927,0,0,1-.951.914H374.19v2.624a.915.915,0,0,1-.951.9.938.938,0,0,1-.951-.9Z" transform="translate(-8714 -7494.002)"/>
          <path id="Trazado_238033" data-name="Trazado 238033" d="M348.61,1179.612a.917.917,0,0,1-.951-.914.938.938,0,0,1,.951-.9h6.833a.95.95,0,0,1,.951.9.928.928,0,0,1-.951.914Z" transform="translate(-8714 -7494.002)"/>
          <line id="Línea_315" data-name="Línea 315" y2="18.963" transform="translate(-8359.57 -6293.332)" fill="none" stroke="#000" stroke-miterlimit="10" stroke-width="3.082"/>
          <rect id="Rectángulo_314620" data-name="Rectángulo 314620" width="3.082" height="18.962" transform="translate(-8344.827 -6293.331)"/>
          <path id="Trazado_238034" data-name="Trazado 238034" d="M348.692,1193.311c.711-.03,1.03.147.966.919-.063.74-.012,1.489-.013,2.234a4.581,4.581,0,0,0,2.641,4.434.912.912,0,0,1,.589.786h3.091a.881.881,0,0,1,.575-.754,4.619,4.619,0,0,0,2.655-4.433c.006-.782.035-1.566-.008-2.346-.034-.624.167-.867.817-.837,1,.046,2.012-.01,3.017.018.923.026,2.118-.4,2.7.161.639.613.146,1.834.224,2.786.006.074,0,.149,0,.223a4.609,4.609,0,0,0,2.679,4.414.9.9,0,0,1,.574.768h3.052v0a.783.783,0,0,1,.552-.721,4.774,4.774,0,0,0,2.718-4.632c0-.745.03-1.492-.008-2.235-.03-.579.174-.789.761-.775,1.3.031,2.607.015,3.911.005a8.023,8.023,0,0,0,8.376-8.368q.024-24.081,0-48.162a8,8,0,0,0-8.4-8.343q-17.6-.014-35.2,0a8.583,8.583,0,0,0-1.554.112,8.038,8.038,0,0,0-6.832,8.267c-.017,8.008-.005,16.017-.005,24.025s-.011,16.017.005,24.025a8.1,8.1,0,0,0,8.432,8.444c1.229.009,2.46.039,3.687-.014m7.476,3.3a1.689,1.689,0,0,1-1.607,1.779,1.759,1.759,0,0,1-1.889-1.633c-.068-.961-.013-1.929-.024-2.893-.005-.443.228-.584.628-.568.26.01.52,0,.779,0,2.118,0,2.118,0,2.118,2.089,0,.409.012.817-.005,1.225m16.3.09a1.687,1.687,0,0,1-1.584,1.689,1.661,1.661,0,0,1-1.834-1.413,18.181,18.181,0,0,1-.072-3.209c0-.317.181-.464.491-.465s.592-.006.888-.006c2.124,0,2.124,0,2.117,2.072,0,.444.028.89-.006,1.332m-32.817-11.978q0-23.961,0-47.92a4.772,4.772,0,0,1,3.273-4.908,3.522,3.522,0,0,1,1.835-.373q17.814,0,35.629.006a4.835,4.835,0,0,1,5.1,5.135q.018,24.18.007,48.361a4.2,4.2,0,0,1-.336,1.962,5.073,5.073,0,0,1-5.141,3.322q-4.8.006-9.606,0-12.567,0-25.133,0c-3.568,0-5.633-2.045-5.634-5.585" transform="translate(-8714 -7494.002)" fill="#010101"/>
          <path id="Trazado_238035" data-name="Trazado 238035" d="M354.406,1230.784h47.318v24.445h32.552" transform="translate(-8714 -7494.002)" fill="none" stroke="red" stroke-miterlimit="10" stroke-width="3.082"/>
          <text id="CIRCUITO" transform="translate(-8207.293 -6228.329)" fill="blue" font-size="12" font-family="Roboto-Bold, Roboto" font-weight="700"><tspan x="0" y="0">CIRCU</tspan><tspan y="0" letter-spacing="-0.013em">IT</tspan><tspan y="0">O</tspan></text>
          <text id="V2" transform="translate(-8420.413 -6235.325)" font-size="12" font-family="Roboto-Bold, Roboto" font-weight="700"><tspan x="0" y="0">V2</tspan></text>
          <text id="_12V" data-name="12V" transform="translate(-8420.413 -6220.925)" font-size="12" font-family="Roboto-Bold, Roboto" font-weight="700"><tspan x="0" y="0">12V</tspan></text>
          <line id="Línea_316" data-name="Línea 316" x2="29.794" transform="translate(-8454.337 -6244.113)" fill="none" stroke="#000" stroke-miterlimit="10" stroke-width="3.082"/>
          <line id="Línea_317" data-name="Línea 317" x2="15.241" transform="translate(-8447.061 -6235.794)" fill="none" stroke="#000" stroke-miterlimit="10" stroke-width="3.082"/>
          <line id="Línea_318" data-name="Línea 318" x2="29.794" transform="translate(-8454.337 -6227.476)" fill="none" stroke="#000" stroke-miterlimit="10" stroke-width="3.082"/>
          <line id="Línea_319" data-name="Línea 319" x2="15.241" transform="translate(-8447.061 -6219.158)" fill="none" stroke="#000" stroke-miterlimit="10" stroke-width="3.082"/>
          <text id="Amperimetro" transform="translate(-8434.851 -6330.556)" font-size="8.806" font-family="Roboto-Medium, Roboto" font-weight="500"><tspan x="0" y="0" letter-spacing="-0.023em">A</tspan><tspan y="0">mperimet</tspan><tspan y="0" letter-spacing="-0.017em">r</tspan><tspan y="0">o</tspan></text>
          <path id="Trazado_238036" data-name="Trazado 238036" d="M426.2,1160.873a13.814,13.814,0,1,1-13.814-13.814,13.814,13.814,0,0,1,13.814,13.814" transform="translate(-8714 -7494.002)" fill="#010101"/>
          <path id="Trazado_238037" data-name="Trazado 238037" d="M415.043,1163.9h-5.318l-1.194,3.321H406.8l4.847-12.693h1.465l4.856,12.693h-1.718Zm-4.812-1.369h4.315l-2.162-5.937Z" transform="translate(-8714 -7494.002)" fill="#fff"/>
          <line id="Línea_320" data-name="Línea 320" y2="73.914" transform="translate(-8359.594 -6274.369)" fill="none" stroke="red" stroke-miterlimit="10" stroke-width="3.082"/>
          <line id="Línea_321" data-name="Línea 321" y2="11.151" transform="translate(-8343.286 -6274.369)" fill="none" stroke="red" stroke-miterlimit="10" stroke-width="3.082"/>
          <path id="Trazado_238038" data-name="Trazado 238038" d="M358.514,1293.949a4.1,4.1,0,1,0-4.1,4.1,4.1,4.1,0,0,0,4.1-4.1" transform="translate(-8714 -7494.002)" fill="red"/>
          <path id="Trazado_238039" data-name="Trazado 238039" d="M374.81,1230.784a4.1,4.1,0,1,0-4.1,4.1,4.1,4.1,0,0,0,4.1-4.1" transform="translate(-8714 -7494.002)" fill="red"/>
        </g>
      </g>
    </g>
  </g>
</svg>
