<svg xmlns="http://www.w3.org/2000/svg" xmlns:xlink="http://www.w3.org/1999/xlink" width="820" height="411.577" viewBox="0 0 820 411.577">
  <defs>
    <clipPath id="clip-path">
      <path id="Trazado_238090" data-name="Trazado 238090" d="M93.04,1851.114H24.271v20.77H156.6l7.388-10.385v-10.385Z" fill="none"/>
    </clipPath>
    <linearGradient id="linear-gradient" x1="-0.174" y1="18.398" x2="-0.167" y2="18.398" gradientUnits="objectBoundingBox">
      <stop offset="0" stop-color="#b3009d"/>
      <stop offset="1" stop-color="#3c0061"/>
    </linearGradient>
    <clipPath id="clip-path-2">
      <path id="Trazado_238091" data-name="Trazado 238091" d="M10,1861.5a28.236,28.236,0,1,0,28.236-28.237A28.236,28.236,0,0,0,10,1861.5" fill="none"/>
    </clipPath>
    <linearGradient id="linear-gradient-2" x1="-0.177" y1="7.083" x2="-0.159" y2="7.083" gradientUnits="objectBoundingBox">
      <stop offset="0" stop-color="#c238b2"/>
      <stop offset="1" stop-color="#9c0088"/>
    </linearGradient>
  </defs>
  <g id="Grupo_242683" data-name="Grupo 242683" transform="translate(8714 5672.339)">
    <g id="Grupo_242679" data-name="Grupo 242679">
      <g id="Grupo_240274" data-name="Grupo 240274">
        <rect id="Rectángulo_314637" data-name="Rectángulo 314637" width="820" height="411.577" transform="translate(-8714 -5672.339)" fill="#f0f0f0"/>
        <path id="Trazado_238088" data-name="Trazado 238088" d="M790,2021.763v175.328l-5.771,5.771-5.771,5.772h-86.9" transform="translate(-8714 -7494.002)" fill="none" stroke="#b3009d" stroke-miterlimit="10" stroke-width="0.847" stroke-dasharray="2.541 2.541"/>
        <path id="Trazado_238089" data-name="Trazado 238089" d="M38.236,2034.759V1873.793l6.179-6.178,6.178-6.179H414.965" transform="translate(-8714 -7494.002)" fill="none" stroke="#b3009d" stroke-miterlimit="10" stroke-width="0.847" stroke-dasharray="2.541 2.541"/>
        <g id="Grupo_240243" data-name="Grupo 240243" transform="translate(-8714 -7494.002)">
          <g id="Grupo_240242" data-name="Grupo 240242" clip-path="url(#clip-path)">
            <rect id="Rectángulo_314639" data-name="Rectángulo 314639" width="139.714" height="20.77" transform="translate(24.271 1851.114)" fill="url(#linear-gradient)"/>
          </g>
        </g>
        <text id="Frecuencia" transform="translate(-8638.547 -5628.997)" fill="#fff" font-size="12" font-family="Roboto-Bold, Roboto" font-weight="700"><tspan x="0" y="0" letter-spacing="-0.012em">F</tspan><tspan y="0" letter-spacing="-0.009em">r</tspan><tspan y="0">ecuencia</tspan></text>
        <g id="Grupo_240245" data-name="Grupo 240245" transform="translate(-8714 -7494.002)">
          <g id="Grupo_240244" data-name="Grupo 240244" clip-path="url(#clip-path-2)">
            <rect id="Rectángulo_314640" data-name="Rectángulo 314640" width="56.473" height="56.473" transform="translate(10 1833.262)" fill="url(#linear-gradient-2)"/>
          </g>
        </g>
        <path id="Trazado_238092" data-name="Trazado 238092" d="M44.424,1862.992H33.684v11.3H30.309V1848.7H46.164v2.76H33.684v8.771h10.74Z" transform="translate(-8714 -7494.002)" fill="#fff"/>
        <text id="Unidad:_" data-name="Unidad: " transform="translate(-8638.547 -5575.306)" font-size="14" font-family="Roboto-Bold, Roboto" font-weight="700"><tspan x="0" y="0">Unidad: </tspan></text>
        <text id="Hertz_Hz_." data-name="Hertz (Hz)." transform="translate(-8587.055 -5575.306)" font-size="14" font-family="Roboto-Regular, Roboto"><tspan x="0" y="0">He</tspan><tspan y="0" letter-spacing="0.024em">r</tspan><tspan y="0">tz (Hz).</tspan></text>
        <text id="Medida:_" data-name="Medida: " transform="translate(-8638.547 -5558.506)" font-size="14" font-family="Roboto-Bold, Roboto" font-weight="700"><tspan x="0" y="0">Medida: </tspan></text>
        <text id="sl_frecuencímetro_debe_ser_conectado_en_paralelo_con_el_elemento_a_medir." data-name="sl frecuencímetro debe ser conectado en paralelo con el elemento a medir." transform="translate(-8584.283 -5558.506)" font-size="14" font-family="Roboto-Regular, Roboto"><tspan x="0" y="0">sl f</tspan><tspan y="0" letter-spacing="-0.01em">r</tspan><tspan y="0">ecuencímet</tspan><tspan y="0" letter-spacing="-0.009em">r</tspan><tspan y="0">o debe ser conectado en pa</tspan><tspan y="0" letter-spacing="-0.021em">r</tspan><tspan y="0">alelo con el elemen</tspan><tspan y="0" letter-spacing="-0.012em">t</tspan><tspan y="0">o a medi</tspan><tspan y="0" letter-spacing="-0.06em">r</tspan><tspan y="0">.</tspan></text>
        <text id="Precauciones:_" data-name="Precauciones: " transform="translate(-8638.547 -5541.706)" font-size="14" font-family="Roboto-Bold, Roboto" font-weight="700"><tspan x="0" y="0">P</tspan><tspan y="0" letter-spacing="-0.009em">r</tspan><tspan y="0">ecauciones: </tspan></text>
        <text id="se_debe_tener_en_cuenta_las_capacidades_de_medida_del_instrumento_es_decir_" data-name="se debe tener en cuenta las capacidades de medida del instrumento es decir " transform="translate(-8545.363 -5541.706)" font-size="14" font-family="Roboto-Regular, Roboto"><tspan x="0" y="0">se debe tener en cuenta las capacidades de medida del instrumen</tspan><tspan y="0" letter-spacing="-0.019em">t</tspan><tspan y="0">o es decir </tspan></text>
        <text id="el_ancho_de_banda." data-name="el ancho de banda." transform="translate(-8638.547 -5524.905)" font-size="14" font-family="Roboto-Regular, Roboto"><tspan x="0" y="0">el ancho de banda.</tspan></text>
        <rect id="Rectángulo_314642" data-name="Rectángulo 314642" width="420.126" height="29.528" transform="translate(-8637.524 -5511.103)" fill="#75ffe6"/>
        <text id="Esquema_eléctrico_de_la_conexión_del_instrumento_o_pictograma" data-name="Esquema eléctrico de la conexión del instrumento o pictograma" transform="translate(-8625.637 -5492.247)" font-size="14" font-family="Roboto-Regular, Roboto"><tspan x="0" y="0">Esquema eléctrico de la conexión del instrumen</tspan><tspan y="0" letter-spacing="-0.013em">t</tspan><tspan y="0">o o pic</tspan><tspan y="0" letter-spacing="-0.009em">t</tspan><tspan y="0">og</tspan><tspan y="0" letter-spacing="-0.019em">r</tspan><tspan y="0">ama</tspan></text>
        <line id="Línea_332" data-name="Línea 332" x2="40.516" transform="translate(-8204.724 -5339.841)" fill="none" stroke="blue" stroke-miterlimit="10" stroke-width="3.082"/>
        <line id="Línea_333" data-name="Línea 333" x2="40.516" transform="translate(-8204.724 -5296.676)" fill="none" stroke="blue" stroke-miterlimit="10" stroke-width="3.082"/>
        <path id="Trazado_238095" data-name="Trazado 238095" d="M296.73,2133.01v21.151H263.489v43.165H509.532" transform="translate(-8714 -7494.002)" fill="none" stroke="red" stroke-miterlimit="10" stroke-width="3.082"/>
        <path id="Trazado_238096" data-name="Trazado 238096" d="M579.984,2144.161H549.791v62.763H595.08v-62.763Z" transform="translate(-8714 -7494.002)" fill="none" stroke="blue" stroke-miterlimit="10" stroke-width="3.142"/>
        <path id="Trazado_238097" data-name="Trazado 238097" d="M265.915,2045.277a3.523,3.523,0,0,1,1.835-.373c11.876,0,127.817-.007,139.693.006a4.835,4.835,0,0,1,5.106,5.134q.018,24.182.006,48.362a4.188,4.188,0,0,1-.336,1.961c-13.394.005-130.854.012-144.249.009-1.375,0-1.981-.654-1.982-2.1q-.009-7.256,0-14.511c0-.354-.005-3.724-.005-3.98,0-2.811.084-32.693-.071-34.509" transform="translate(-8714 -7494.002)" fill="#857e87"/>
        <path id="Trazado_238098" data-name="Trazado 238098" d="M265.915,2045.277c.155,1.816.022,3.636.077,5.453.011.389-.158.826.216,1.152-.082,6.258-.1,12.515.008,18.773-.256.174-.23.442-.23.7,0,2.811,0,22.086,0,26.923,0,1.445.607,2.1,1.982,2.1,13.395,0,131.2,0,144.6-.009a5.074,5.074,0,0,1-5.141,3.323c-3.2,0-110.819,0-114.021,0q-12.567,0-25.133,0c-3.569,0-5.634-2.046-5.634-5.585q0-23.961,0-47.921a4.771,4.771,0,0,1,3.273-4.907" transform="translate(-8714 -7494.002)" fill="#6f6571"/>
        <line id="Línea_334" data-name="Línea 334" y2="20.145" transform="translate(-8417.258 -5381.137)" fill="none" stroke="#000" stroke-miterlimit="10" stroke-width="3.082"/>
        <line id="Línea_335" data-name="Línea 335" y2="18.963" transform="translate(-8335.338 -5379.955)" fill="none" stroke="#000" stroke-miterlimit="10" stroke-width="3.082"/>
        <path id="Trazado_238099" data-name="Trazado 238099" d="M298.206,2108.751c0,.444.028.89-.006,1.331a1.686,1.686,0,0,1-1.584,1.69,1.662,1.662,0,0,1-1.834-1.413,18.377,18.377,0,0,1-.072-3.209c0-.317.181-.464.491-.465s.592-.006.888-.006c2.124,0,2.124,0,2.117,2.072" transform="translate(-8714 -7494.002)" fill="#6f6571"/>
        <path id="Trazado_238100" data-name="Trazado 238100" d="M291.664,2106.712h-2.747c.974.02,2.747,0,2.747,0" transform="translate(-8714 -7494.002)" fill="#010101"/>
        <path id="Trazado_238101" data-name="Trazado 238101" d="M303.8,2106.712h0Z" transform="translate(-8714 -7494.002)" fill="#010101"/>
        <path id="Trazado_238102" data-name="Trazado 238102" d="M301.82,2106.712h-4.49c.879.1.881.492.875,2.039,0,.444.029.889,0,1.331a1.687,1.687,0,0,1-1.585,1.689,1.662,1.662,0,0,1-1.834-1.413,18.275,18.275,0,0,1-.071-3.209.4.4,0,0,1,.288-.437h-3.334s.014,3.092.014,3.167a4.8,4.8,0,0,0,9.574-.174c0-.745.031-1.491-.007-2.234-.027-.507.143-.72.575-.759" transform="translate(-8714 -7494.002)" fill="#010101"/>
        <path id="Trazado_238103" data-name="Trazado 238103" d="M380.32,2108.751c0,.444.028.89-.006,1.331a1.686,1.686,0,0,1-1.584,1.69,1.662,1.662,0,0,1-1.834-1.413,18.374,18.374,0,0,1-.072-3.209c0-.317.181-.464.491-.465s.592-.006.888-.006c2.124,0,2.124,0,2.117,2.072" transform="translate(-8714 -7494.002)" fill="#6f6571"/>
        <path id="Trazado_238104" data-name="Trazado 238104" d="M373.779,2106.712h-2.747c.974.02,2.747,0,2.747,0" transform="translate(-8714 -7494.002)" fill="#010101"/>
        <path id="Trazado_238105" data-name="Trazado 238105" d="M385.92,2106.712h0Z" transform="translate(-8714 -7494.002)" fill="#010101"/>
        <path id="Trazado_238106" data-name="Trazado 238106" d="M383.935,2106.712h-4.49c.879.1.881.492.875,2.039,0,.444.029.889-.005,1.331a1.687,1.687,0,0,1-1.585,1.689,1.662,1.662,0,0,1-1.834-1.413,18.272,18.272,0,0,1-.071-3.209.4.4,0,0,1,.288-.437h-3.334s.014,3.092.014,3.167a4.8,4.8,0,0,0,9.574-.174c0-.745.031-1.491-.007-2.234-.027-.507.143-.72.575-.759" transform="translate(-8714 -7494.002)" fill="#010101"/>
        <path id="Trazado_238107" data-name="Trazado 238107" d="M338.3,2108.751c0,.444.028.89-.006,1.331a1.686,1.686,0,0,1-1.584,1.69,1.662,1.662,0,0,1-1.834-1.413,18.374,18.374,0,0,1-.072-3.209c0-.317.181-.464.491-.465s.592-.006.888-.006c2.124,0,2.124,0,2.117,2.072" transform="translate(-8714 -7494.002)" fill="#6f6571"/>
        <path id="Trazado_238108" data-name="Trazado 238108" d="M331.763,2106.712h-2.747c.974.02,2.747,0,2.747,0" transform="translate(-8714 -7494.002)" fill="#010101"/>
        <path id="Trazado_238109" data-name="Trazado 238109" d="M343.9,2106.712h0Z" transform="translate(-8714 -7494.002)" fill="#010101"/>
        <path id="Trazado_238110" data-name="Trazado 238110" d="M341.919,2106.712h-4.49c.879.1.881.492.875,2.039,0,.444.029.889,0,1.331a1.687,1.687,0,0,1-1.585,1.689,1.662,1.662,0,0,1-1.834-1.413,18.275,18.275,0,0,1-.071-3.209.4.4,0,0,1,.288-.437h-3.334s.014,3.092.014,3.167a4.8,4.8,0,0,0,9.574-.174c0-.745.031-1.491-.007-2.234-.027-.507.143-.72.575-.759" transform="translate(-8714 -7494.002)" fill="#010101"/>
        <path id="Trazado_238111" data-name="Trazado 238111" d="M415.572,2050.171a8,8,0,0,0-8.4-8.344c-11.733-.009-127.487,0-139.22,0a8.507,8.507,0,0,0-1.556.112,8.036,8.036,0,0,0-6.83,8.267c-.019,8.008-.006,16.017-.006,24.024s-.011,16.017,0,24.026a8.1,8.1,0,0,0,8.432,8.443c1.231.009,137.9.01,139.2,0a8.022,8.022,0,0,0,8.376-8.367q.024-24.081,0-48.162m-3.395,50.2a5.076,5.076,0,0,1-5.142,3.324q-4.8,0-9.605,0c-8.378,0-120.778,0-129.155,0-3.568,0-5.633-2.046-5.633-5.586q0-23.959,0-47.921a4.77,4.77,0,0,1,3.272-4.907,3.532,3.532,0,0,1,1.835-.373c11.876,0,127.773-.007,139.651.006a4.834,4.834,0,0,1,5.1,5.134q.018,24.182.008,48.362a4.2,4.2,0,0,1-.336,1.961" transform="translate(-8714 -7494.002)" fill="#010101"/>
        <path id="Trazado_238112" data-name="Trazado 238112" d="M459.532,2045.277a3.523,3.523,0,0,1,1.835-.373q17.814,0,35.628.006a4.834,4.834,0,0,1,5.106,5.134q.018,24.182.006,48.362a4.2,4.2,0,0,1-.335,1.961q-20.092.008-40.185.009c-1.375,0-1.981-.654-1.982-2.1q-.009-7.256,0-14.511c0-.354-.005-3.724-.005-3.98q0-4.216,0-8.432c0-.257-.026-.525.23-.7.967,2.5,2.811,3.548,5.468,3.536,9.263-.044,18.526-.017,27.788-.019a9.632,9.632,0,0,0,1.114-.044,4.713,4.713,0,0,0,4.448-4.841q.074-8.091,0-16.181a4.717,4.717,0,0,0-3.771-4.657c-1.478-.372-2.12-.007-2.571,1.459l-3.393-.025c-.385-1.287-.759-1.566-2.163-1.567q-10.809,0-21.617,0a5.058,5.058,0,0,0-5.31,3.566c-.374-.326-.205-.763-.216-1.152-.055-1.817.078-3.637-.077-5.453" transform="translate(-8714 -7494.002)" fill="#857e87"/>
        <path id="Trazado_238113" data-name="Trazado 238113" d="M459.532,2045.277c.155,1.816.022,3.636.077,5.453.011.389-.158.826.216,1.152-.082,6.258-.1,12.515.008,18.773-.256.174-.23.442-.23.7,0,2.811,0,22.086,0,26.923,0,1.445.607,2.1,1.982,2.1q20.092,0,40.185-.009a5.075,5.075,0,0,1-5.141,3.323q-4.8.006-9.606,0-12.567,0-25.133,0c-3.569,0-5.634-2.046-5.634-5.585q0-23.961,0-47.921a4.771,4.771,0,0,1,3.273-4.907" transform="translate(-8714 -7494.002)" fill="#6f6571"/>
        <path id="Trazado_238114" data-name="Trazado 238114" d="M472.776,2108.768c0,.408.014.817,0,1.224a1.689,1.689,0,0,1-1.607,1.78,1.761,1.761,0,0,1-1.889-1.634c-.067-.96-.012-1.928-.023-2.893-.006-.443.227-.583.628-.567.259.01.519,0,.779,0,2.118,0,2.118,0,2.115,2.09" transform="translate(-8714 -7494.002)" fill="#6f6571"/>
        <path id="Trazado_238115" data-name="Trazado 238115" d="M489.08,2108.751c0,.444.028.89-.006,1.331a1.686,1.686,0,0,1-1.584,1.69,1.662,1.662,0,0,1-1.834-1.413,18.374,18.374,0,0,1-.072-3.209c0-.317.181-.464.491-.465s.592-.006.888-.006c2.124,0,2.124,0,2.117,2.072" transform="translate(-8714 -7494.002)" fill="#6f6571"/>
        <path id="Trazado_238116" data-name="Trazado 238116" d="M459.833,2070.655c-.1-6.257-.09-12.515-.008-18.772a5.059,5.059,0,0,1,5.311-3.567q10.808,0,21.616,0c1.4,0,1.779.28,2.163,1.567-.45,1.285-.752,1.512-2.1,1.513q-10.935.006-21.871,0c-1.552,0-2.167.616-2.179,2.155-.013,1.748,0,3.5,0,5.245,0,3.385-.008,6.769.005,10.154.005,1.406.613,2.126,1.852,2.146,2.009.032,26.967.015,28.75.009,1.65-.006,2.224-.564,2.231-2.193.011-2.6,0-5.2,0-7.8,0-2.564.011-5.128-.005-7.691-.007-1.267-.446-1.85-1.616-2a1.778,1.778,0,0,1-1.669-1.516c.451-1.466,1.094-1.831,2.571-1.459a4.717,4.717,0,0,1,3.772,4.657q.069,8.09,0,16.181a4.713,4.713,0,0,1-4.449,4.841,9.614,9.614,0,0,1-1.113.044c-9.263,0-18.526-.025-27.788.019-2.658.012-4.5-1.033-5.469-3.536" transform="translate(-8714 -7494.002)" fill="#010101"/>
        <path id="Trazado_238117" data-name="Trazado 238117" d="M472.745,2067.74a10.556,10.556,0,0,0-1.317,2.8c-.09.455-.347.58-.788.576-2.008-.018-4.018.013-6.026-.018-1.239-.021-1.847-.741-1.852-2.146-.013-3.386-.005-6.77-.005-10.155,0-1.748-.009-3.5,0-5.244.012-1.539.627-2.155,2.179-2.155q10.935-.011,21.871-.006c1.352,0,1.654-.229,2.1-1.513l3.393.025a1.777,1.777,0,0,0,1.669,1.516c1.17.148,1.609.732,1.616,2,.015,2.563.005,5.128.005,7.692,0,2.6.008,5.2,0,7.8-.007,1.63-.581,2.188-2.231,2.194-1.783.006-3.567-.021-5.35.013-.644.013-1.027-.114-1.161-.834a8.6,8.6,0,0,0-1.178-2.506c1.116-.011,2.232,0,3.347-.037a3.144,3.144,0,0,0,3.2-3.065q.092-3.4,0-6.806a3.136,3.136,0,0,0-3.163-3.084q-9.932-.014-19.861,0a2.87,2.87,0,0,0-2.882,2.3,29.134,29.134,0,0,0-.1,7.875c.173,1.873,1.51,2.776,3.413,2.784,1.041,0,2.083-.006,3.124-.011" transform="translate(-8714 -7494.002)" fill="#b3e59f"/>
        <path id="Trazado_238118" data-name="Trazado 238118" d="M469.621,2067.75c-1.9-.007-3.24-.91-3.413-2.784a29.134,29.134,0,0,1,.1-7.875,2.87,2.87,0,0,1,2.882-2.3q9.93-.014,19.861,0a3.137,3.137,0,0,1,3.163,3.085q.086,3.4,0,6.806a3.144,3.144,0,0,1-3.2,3.065c-1.115.034-18.36.008-19.4,0" transform="translate(-8714 -7494.002)" fill="#ccf49f"/>
        <path id="Trazado_238119" data-name="Trazado 238119" d="M479.2,2071.089c-1.228,0-2.456.006-3.684,0-1-.006-1.073-.136-.616-.97a4.985,4.985,0,0,1,8.6.049c.406.724.313.906-.51.918-1.264.018-2.53.005-3.795.005" transform="translate(-8714 -7494.002)" fill="#6f6571"/>
        <path id="Trazado_238120" data-name="Trazado 238120" d="M485.9,2081.575a3.949,3.949,0,1,0,3.949-3.949,3.949,3.949,0,0,0-3.949,3.949" transform="translate(-8714 -7494.002)" fill="#010101"/>
        <path id="Trazado_238121" data-name="Trazado 238121" d="M488.9,2081.575a.941.941,0,1,0,.941-.941.941.941,0,0,0-.941.941" transform="translate(-8714 -7494.002)" fill="#ccf49f"/>
        <path id="Trazado_238122" data-name="Trazado 238122" d="M464.684,2081.575a3.949,3.949,0,1,0,3.949-3.949,3.949,3.949,0,0,0-3.949,3.949" transform="translate(-8714 -7494.002)" fill="#010101"/>
        <path id="Trazado_238123" data-name="Trazado 238123" d="M467.692,2081.575a.941.941,0,1,0,.941-.941.941.941,0,0,0-.941.941" transform="translate(-8714 -7494.002)" fill="#ff8086"/>
        <path id="Trazado_238124" data-name="Trazado 238124" d="M469.584,2092.989h2.466a.918.918,0,0,0,.95-.915.936.936,0,0,0-.95-.9h-2.466v-2.624a.94.94,0,0,0-.951-.915.929.929,0,0,0-.951.915v2.624h-2.465a.948.948,0,0,0-.951.9.928.928,0,0,0,.951.915h2.465v2.624a.914.914,0,0,0,.951.9.937.937,0,0,0,.951-.9Z" transform="translate(-8714 -7494.002)"/>
        <path id="Trazado_238125" data-name="Trazado 238125" d="M493.262,2092.989a.918.918,0,0,0,.951-.915.937.937,0,0,0-.951-.9h-6.833a.949.949,0,0,0-.951.9.929.929,0,0,0,.951.915Z" transform="translate(-8714 -7494.002)"/>
        <line id="Línea_336" data-name="Línea 336" y2="18.963" transform="translate(-8242.965 -5379.955)" fill="none" stroke="#000" stroke-miterlimit="10" stroke-width="3.082"/>
        <rect id="Rectángulo_314644" data-name="Rectángulo 314644" width="3.082" height="18.962" transform="translate(-8228.222 -5379.954)"/>
        <path id="Trazado_238126" data-name="Trazado 238126" d="M465.3,2106.688c.711-.03,1.03.147.966.919-.063.74-.012,1.489-.013,2.234a4.581,4.581,0,0,0,2.641,4.434.912.912,0,0,1,.589.786h3.091a.88.88,0,0,1,.575-.754,4.619,4.619,0,0,0,2.655-4.433c.006-.782.035-1.566-.008-2.346-.034-.624.168-.867.817-.837,1,.046,2.012-.01,3.017.018.923.026,2.118-.4,2.7.161.639.613.146,1.834.224,2.786.006.074,0,.149,0,.223a4.608,4.608,0,0,0,2.679,4.414.9.9,0,0,1,.574.768h3.052v0a.784.784,0,0,1,.552-.721,4.773,4.773,0,0,0,2.718-4.632c0-.745.03-1.492-.008-2.235-.03-.579.174-.789.761-.775,1.3.031,2.607.015,3.911,0a8.023,8.023,0,0,0,8.376-8.368q.024-24.081,0-48.162a8,8,0,0,0-8.4-8.343q-17.6-.014-35.2,0a8.572,8.572,0,0,0-1.554.112,8.036,8.036,0,0,0-6.831,8.267c-.018,8.008-.006,16.017-.006,24.025s-.011,16.016,0,24.025a8.1,8.1,0,0,0,8.432,8.443c1.229.01,2.46.04,3.687-.013m7.476,3.3a1.689,1.689,0,0,1-1.607,1.779,1.759,1.759,0,0,1-1.889-1.633c-.068-.961-.013-1.929-.024-2.894-.005-.442.228-.583.628-.567.26.01.52,0,.779,0,2.118,0,2.118,0,2.118,2.089,0,.409.012.817-.005,1.225m16.3.09a1.687,1.687,0,0,1-1.584,1.689,1.661,1.661,0,0,1-1.834-1.413,18.183,18.183,0,0,1-.072-3.209c0-.317.181-.464.491-.465s.592-.006.888-.006c2.124,0,2.124,0,2.117,2.072,0,.444.028.89-.006,1.332M456.258,2098.1q0-23.959,0-47.92a4.772,4.772,0,0,1,3.273-4.908,3.523,3.523,0,0,1,1.835-.373q17.814,0,35.629.006a4.834,4.834,0,0,1,5.105,5.135q.018,24.18.007,48.361a4.2,4.2,0,0,1-.336,1.962,5.073,5.073,0,0,1-5.141,3.322q-4.8.006-9.606,0-12.567,0-25.133,0c-3.568,0-5.633-2.045-5.634-5.585" transform="translate(-8714 -7494.002)" fill="#010101"/>
        <path id="Trazado_238127" data-name="Trazado 238127" d="M484.307,2066.547a6.6,6.6,0,0,1,2.6,4.029.6.6,0,0,0,.488.549H470.778c.374-.068.61-.274.709-.8a8.594,8.594,0,0,1,1.177-2.506,8.137,8.137,0,0,1,7.83-3.03c.6.1.65-.377.806-.723.9-2,1.789-4.007,2.686-6.009a4.941,4.941,0,0,1,.461-.887,1.408,1.408,0,0,1,1.869-.509,1.386,1.386,0,0,1,.828,1.653,5.07,5.07,0,0,1-.388,1.04c-.891,2-1.776,4.012-2.7,6-.233.5-.283.833.248,1.2" transform="translate(-8714 -7494.002)" fill="#010101"/>
        <path id="Trazado_238128" data-name="Trazado 238128" d="M483.437,2070.149a4.986,4.986,0,0,0-8.605.049c-.406.724-.313.905.51.917,1.264.019,2.53.005,3.795.005,1.228,0,2.456.006,3.684,0,.995-.006,1.073-.136.616-.97" transform="translate(-8714 -7494.002)" fill="#857e87"/>
        <path id="Trazado_238129" data-name="Trazado 238129" d="M509.276,2154.161H378.559V2133.01" transform="translate(-8714 -7494.002)" fill="none" stroke="red" stroke-miterlimit="10" stroke-width="3.082"/>
        <text id="CIRCUITO" transform="translate(-8107.293 -5314.952)" fill="blue" font-size="12" font-family="Roboto-Bold, Roboto" font-weight="700"><tspan x="0" y="0">CIRCU</tspan><tspan y="0" letter-spacing="-0.013em">IT</tspan><tspan y="0">O</tspan></text>
        <text id="V2" transform="translate(-8445.405 -5314.952)" font-size="12" font-family="Roboto-Bold, Roboto" font-weight="700"><tspan x="0" y="0">V2</tspan></text>
        <text id="Generador_de" data-name="Generador de" transform="translate(-8517.49 -5417.179)" font-size="8.806" font-family="Roboto-Medium, Roboto" font-weight="500"><tspan x="0" y="0">Gene</tspan><tspan y="0" letter-spacing="-0.014em">r</tspan><tspan y="0">ador de</tspan></text>
        <text id="Funciones" transform="translate(-8505.021 -5406.611)" font-size="8.806" font-family="Roboto-Medium, Roboto" font-weight="500"><tspan x="0" y="0" letter-spacing="-0.01em">F</tspan><tspan y="0">unciones</tspan></text>
        <path id="Trazado_238130" data-name="Trazado 238130" d="M542.809,2074.25a13.815,13.815,0,1,1-13.814-13.814,13.814,13.814,0,0,1,13.814,13.814" transform="translate(-8714 -7494.002)" fill="#010101"/>
        <path id="Trazado_238131" data-name="Trazado 238131" d="M528.994,2080.592h-1.681v-5.863h-6.4v5.863h-1.673v-12.685h1.673v5.454h6.4v-5.454h1.681Z" transform="translate(-8714 -7494.002)" fill="#fff"/>
        <path id="Trazado_238132" data-name="Trazado 238132" d="M533.229,2079.277h5.515v1.316H531.26v-1.185l5.2-6.909h-5.123v-1.333h7.144v1.141Z" transform="translate(-8714 -7494.002)" fill="#fff"/>
        <line id="Línea_337" data-name="Línea 337" y2="64.314" transform="translate(-8226.669 -5360.992)" fill="none" stroke="red" stroke-miterlimit="10" stroke-width="3.082"/>
        <line id="Línea_338" data-name="Línea 338" y2="21.151" transform="translate(-8242.965 -5360.992)" fill="none" stroke="red" stroke-miterlimit="10" stroke-width="3.082"/>
        <path id="Trazado_238133" data-name="Trazado 238133" d="M483.223,2197.326a4.1,4.1,0,1,1,4.1,4.1,4.1,4.1,0,0,1-4.1-4.1" transform="translate(-8714 -7494.002)" fill="red"/>
        <path id="Trazado_238134" data-name="Trazado 238134" d="M466.939,2154.161a4.1,4.1,0,1,1,4.1,4.1,4.1,4.1,0,0,1-4.1-4.1" transform="translate(-8714 -7494.002)" fill="red"/>
        <line id="Línea_339" data-name="Línea 339" y2="18.963" transform="translate(-8377.354 -5379.955)" fill="none" stroke="#000" stroke-miterlimit="10" stroke-width="3.082"/>
        <path id="Trazado_238135" data-name="Trazado 238135" d="M374.713,2081.575a3.948,3.948,0,1,0,3.949-3.949,3.949,3.949,0,0,0-3.949,3.949" transform="translate(-8714 -7494.002)" fill="#010101"/>
        <path id="Trazado_238136" data-name="Trazado 238136" d="M377.721,2081.575a.941.941,0,1,0,.941-.941.941.941,0,0,0-.941.941" transform="translate(-8714 -7494.002)" fill="#ccf49f"/>
        <path id="Trazado_238137" data-name="Trazado 238137" d="M382.078,2092.989a.918.918,0,0,0,.951-.915.937.937,0,0,0-.951-.9h-6.833a.949.949,0,0,0-.951.9.929.929,0,0,0,.951.915Z" transform="translate(-8714 -7494.002)"/>
        <path id="Trazado_238138" data-name="Trazado 238138" d="M292.6,2081.575a3.949,3.949,0,1,0,3.949-3.949,3.949,3.949,0,0,0-3.949,3.949" transform="translate(-8714 -7494.002)" fill="#010101"/>
        <path id="Trazado_238139" data-name="Trazado 238139" d="M295.607,2081.575a.941.941,0,1,0,.941-.941.941.941,0,0,0-.941.941" transform="translate(-8714 -7494.002)" fill="#ff8086"/>
        <path id="Trazado_238140" data-name="Trazado 238140" d="M297.5,2092.989h2.466a.918.918,0,0,0,.95-.915.936.936,0,0,0-.95-.9H297.5v-2.624a.94.94,0,0,0-.951-.915.929.929,0,0,0-.951.915v2.624h-2.465a.948.948,0,0,0-.951.9.928.928,0,0,0,.951.915H295.6v2.624a.914.914,0,0,0,.951.9.937.937,0,0,0,.951-.9Z" transform="translate(-8714 -7494.002)"/>
        <path id="Trazado_238141" data-name="Trazado 238141" d="M318.215,2070.655c-.1-6.257-.09-12.515-.008-18.772a5.059,5.059,0,0,1,5.311-3.567q10.807,0,21.616,0c1.4,0,1.779.28,2.163,1.567-.45,1.285-.751,1.512-2.1,1.513q-10.935.006-21.871,0c-1.552,0-2.167.616-2.179,2.155-.013,1.748,0,3.5,0,5.245,0,3.385-.009,6.769,0,10.154,0,1.406.613,2.126,1.852,2.146,2.009.032,26.967.015,28.75.009,1.65-.006,2.224-.564,2.231-2.193.011-2.6,0-5.2,0-7.8,0-2.564.01-5.128-.006-7.691-.007-1.267-.446-1.85-1.616-2a1.778,1.778,0,0,1-1.669-1.516c.451-1.466,1.094-1.831,2.571-1.459a4.717,4.717,0,0,1,3.772,4.657q.069,8.09,0,16.181a4.713,4.713,0,0,1-4.449,4.841,9.614,9.614,0,0,1-1.113.044c-9.263,0-18.526-.025-27.788.019-2.658.012-4.5-1.033-5.469-3.536" transform="translate(-8714 -7494.002)" fill="#010101"/>
        <path id="Trazado_238142" data-name="Trazado 238142" d="M328,2067.75c-1.9-.007-3.24-.91-3.413-2.784a29.133,29.133,0,0,1,.105-7.875,2.87,2.87,0,0,1,2.882-2.3q9.93-.014,19.861,0a3.137,3.137,0,0,1,3.163,3.085q.085,3.4,0,6.806a3.144,3.144,0,0,1-3.2,3.065c-1.115.034-18.36.008-19.4,0" transform="translate(-8714 -7494.002)" fill="#ccf49f"/>
        <path id="Trazado_238143" data-name="Trazado 238143" d="M353.974,2053.423c-.007-1.266-.446-1.85-1.616-2a1.777,1.777,0,0,1-1.669-1.516l-3.392-.025c-.451,1.285-.752,1.512-2.105,1.513q-10.935.006-21.871,0c-1.551,0-2.167.616-2.179,2.155-.013,1.749,0,3.5,0,5.245,0,3.385-.009,6.77,0,10.154.005,1.406.613,2.126,1.853,2.146,2.008.033,26.966.016,28.75.009,1.649-.006,2.224-.564,2.23-2.193.011-2.6,0-5.2,0-7.8,0-2.564.01-5.127-.006-7.691m-3.375,11.259a3.143,3.143,0,0,1-3.191,3.065H331.123l0-.006c-1.041,0-2.083.014-3.124.01-1.9-.008-3.24-.911-3.413-2.784a29.141,29.141,0,0,1,.105-7.876,2.869,2.869,0,0,1,2.882-2.3q9.93-.014,19.861,0a3.137,3.137,0,0,1,3.163,3.085q.086,3.4,0,6.806" transform="translate(-8714 -7494.002)" fill="#b3e59f"/>
        <path id="Trazado_238144" data-name="Trazado 238144" d="M277.158,2070.655c-.1-6.257-.091-12.515-.009-18.772a5.06,5.06,0,0,1,5.311-3.567q10.808,0,21.616,0c1.4,0,1.779.28,2.164,1.567-.451,1.285-.753,1.512-2.1,1.513q-10.935.006-21.871,0c-1.552,0-2.167.616-2.179,2.155-.013,1.748,0,3.5,0,5.245,0,3.385-.008,6.769.005,10.154.005,1.406.613,2.126,1.852,2.146,2.009.032,26.967.015,28.75.009,1.651-.006,2.224-.564,2.231-2.193.011-2.6,0-5.2,0-7.8,0-2.564.012-5.128-.005-7.691-.007-1.267-.446-1.85-1.616-2a1.779,1.779,0,0,1-1.669-1.516c.451-1.466,1.1-1.831,2.571-1.459a4.717,4.717,0,0,1,3.772,4.657q.069,8.09,0,16.181a4.714,4.714,0,0,1-4.45,4.841,9.614,9.614,0,0,1-1.113.044c-9.263,0-18.526-.025-27.788.019-2.658.012-4.5-1.033-5.468-3.536" transform="translate(-8714 -7494.002)" fill="#010101"/>
        <path id="Trazado_238145" data-name="Trazado 238145" d="M286.945,2067.75c-1.9-.007-3.24-.91-3.413-2.784a29.133,29.133,0,0,1,.1-7.875,2.87,2.87,0,0,1,2.882-2.3q9.93-.014,19.861,0a3.137,3.137,0,0,1,3.163,3.085q.086,3.4,0,6.806a3.144,3.144,0,0,1-3.2,3.065c-1.115.034-18.36.008-19.4,0" transform="translate(-8714 -7494.002)" fill="#ccf49f"/>
        <path id="Trazado_238146" data-name="Trazado 238146" d="M312.917,2053.423c-.007-1.266-.446-1.85-1.616-2a1.777,1.777,0,0,1-1.669-1.516l-3.392-.025c-.451,1.285-.752,1.512-2.1,1.513q-10.935.006-21.871,0c-1.551,0-2.167.616-2.179,2.155-.013,1.749,0,3.5,0,5.245,0,3.385-.009,6.77,0,10.154.005,1.406.613,2.126,1.853,2.146,2.008.033,26.966.016,28.75.009,1.649-.006,2.224-.564,2.23-2.193.011-2.6,0-5.2,0-7.8,0-2.564.01-5.127-.006-7.691m-3.375,11.259a3.143,3.143,0,0,1-3.191,3.065H290.066l0-.006c-1.041,0-2.083.014-3.124.01-1.9-.008-3.24-.911-3.413-2.784a29.141,29.141,0,0,1,.1-7.876,2.869,2.869,0,0,1,2.882-2.3q9.93-.014,19.861,0a3.137,3.137,0,0,1,3.163,3.085q.086,3.4,0,6.806" transform="translate(-8714 -7494.002)" fill="#b3e59f"/>
        <path id="Trazado_238147" data-name="Trazado 238147" d="M359.272,2070.655c-.1-6.257-.09-12.515-.008-18.772a5.059,5.059,0,0,1,5.311-3.567q10.807,0,21.616,0c1.4,0,1.779.28,2.163,1.567-.45,1.285-.752,1.512-2.1,1.513q-10.935.006-21.871,0c-1.552,0-2.167.616-2.179,2.155-.013,1.748,0,3.5,0,5.245,0,3.385-.008,6.769,0,10.154.005,1.406.613,2.126,1.852,2.146,2.008.032,26.967.015,28.75.009,1.65-.006,2.224-.564,2.231-2.193.011-2.6,0-5.2,0-7.8,0-2.564.011-5.128,0-7.691-.007-1.267-.446-1.85-1.616-2a1.778,1.778,0,0,1-1.669-1.516c.451-1.466,1.094-1.831,2.571-1.459a4.717,4.717,0,0,1,3.772,4.657q.069,8.09,0,16.181a4.713,4.713,0,0,1-4.449,4.841,9.614,9.614,0,0,1-1.113.044c-9.263,0-18.526-.025-27.788.019-2.658.012-4.5-1.033-5.469-3.536" transform="translate(-8714 -7494.002)" fill="#010101"/>
        <path id="Trazado_238148" data-name="Trazado 238148" d="M369.06,2067.75c-1.9-.007-3.24-.91-3.413-2.784a29.133,29.133,0,0,1,.105-7.875,2.87,2.87,0,0,1,2.882-2.3q9.93-.014,19.861,0a3.137,3.137,0,0,1,3.163,3.085q.086,3.4,0,6.806a3.144,3.144,0,0,1-3.2,3.065c-1.115.034-18.36.008-19.4,0" transform="translate(-8714 -7494.002)" fill="#ccf49f"/>
        <path id="Trazado_238149" data-name="Trazado 238149" d="M395.032,2053.423c-.007-1.266-.446-1.85-1.616-2a1.777,1.777,0,0,1-1.669-1.516l-3.392-.025c-.451,1.285-.752,1.512-2.105,1.513q-10.935.006-21.871,0c-1.551,0-2.167.616-2.179,2.155-.013,1.749,0,3.5,0,5.245,0,3.385-.009,6.77,0,10.154.005,1.406.613,2.126,1.853,2.146,2.008.033,26.966.016,28.75.009,1.649-.006,2.224-.564,2.23-2.193.011-2.6,0-5.2,0-7.8,0-2.564.01-5.127-.006-7.691m-3.375,11.259a3.143,3.143,0,0,1-3.191,3.065H372.181l0-.006c-1.041,0-2.083.014-3.124.01-1.9-.008-3.24-.911-3.413-2.784a29.141,29.141,0,0,1,.105-7.876,2.869,2.869,0,0,1,2.882-2.3q9.93-.014,19.861,0a3.137,3.137,0,0,1,3.163,3.085q.086,3.4,0,6.806" transform="translate(-8714 -7494.002)" fill="#b3e59f"/>
        <path id="Trazado_238150" data-name="Trazado 238150" d="M368.212,2070.568l-7.164-17.1.922-.386,6.242,14.9,6.7-16,6.705,16,6.71-16,7.171,17.1-.922.386-6.249-14.9-6.71,16-6.705-16Z" transform="translate(-8714 -7494.002)"/>
        <path id="Trazado_238151" data-name="Trazado 238151" d="M354.274,2069.774c-3.15,0-4.63-4.237-6.062-8.336-1.316-3.768-2.677-7.664-5.117-7.664s-3.8,3.9-5.118,7.665c-1.432,4.1-2.912,8.335-6.061,8.335s-4.627-4.237-6.057-8.335c-1.315-3.769-2.676-7.665-5.114-7.665v-1c3.148,0,4.628,4.237,6.057,8.336,1.316,3.768,2.676,7.664,5.114,7.664s3.8-3.9,5.118-7.665c1.431-4.1,2.912-8.335,6.061-8.335s4.63,4.237,6.061,8.335c1.316,3.769,2.678,7.665,5.118,7.665Z" transform="translate(-8714 -7494.002)"/>
        <path id="Trazado_238152" data-name="Trazado 238152" d="M312.927,2065.933h-8.817v-8.317h-7.339v8.317h-9.318l-.02-.5v-7.817h-7.818v-1h8.818v8.317h7.338v-8.317h9.339v8.317h7.817Z" transform="translate(-8714 -7494.002)"/>
      </g>
    </g>
  </g>
</svg>
