<svg xmlns="http://www.w3.org/2000/svg" xmlns:xlink="http://www.w3.org/1999/xlink" width="53.712" height="53.712" viewBox="0 0 53.712 53.712">
  <defs>
    <clipPath id="clip-path">
      <rect id="Rectángulo_315166" data-name="Rectángulo 315166" width="53.712" height="53.712" fill="none"/>
    </clipPath>
  </defs>
  <g id="Grupo_242672" data-name="Grupo 242672" transform="translate(-772 -1137.667)">
    <g id="Grupo_240844" data-name="Grupo 240844" transform="translate(772 1137.667)">
      <g id="Grupo_240843" data-name="Grupo 240843" clip-path="url(#clip-path)">
        <path id="Trazado_239324" data-name="Trazado 239324" d="M28.4,0q10.77,0,21.54.007a3.453,3.453,0,0,1,3.319,1.763A3.56,3.56,0,0,1,53.7,3.5q.015,17.02,0,34.039a10.759,10.759,0,0,1-1.2,4.411c-.031.068-.063.135-.1.2-.283.5-.351.844.3,1.219a2.4,2.4,0,0,1,1,2.226q.025,2.707,0,5.414A2.674,2.674,0,0,1,51.013,53.7c-3.8-.032-7.6-.043-11.4,0a2.59,2.59,0,0,1-2.7-2.673c.055-1.861.026-3.724.008-5.586a2.423,2.423,0,0,1,1.021-2.173.411.411,0,0,0,.08-.674,10.427,10.427,0,0,1-.866-1.646c-.837-1.615-1.723-3.215-2.4-4.9-.318-.787-.726-.826-1.4-.823q-7.055.032-14.111,0c-.4,0-.632.107-.659.484a19.149,19.149,0,0,1-1.329,4.794c-.188.551-.205.887.35,1.272a2.248,2.248,0,0,1,.856,1.9c.016,2.457.038,4.915,0,7.372a2.491,2.491,0,0,1-2.67,2.625c-3.8.016-7.6-.034-11.4.026a2.645,2.645,0,0,1-2.693-2.7c.078-2.417.029-4.837.015-7.256a2.428,2.428,0,0,1,.71-1.9c.2-.181.111-.337.13-.5.31-2.709-.631-5.16-1.554-7.622a12.321,12.321,0,0,1-.978-4.841C.1,26.556-.031,24.218.073,21.88a4.676,4.676,0,0,1,2.755-4.324.831.831,0,0,0,.544-.9C3.358,12.2,3.365,7.743,3.356,3.289A3.292,3.292,0,0,1,6.07.1,10.247,10.247,0,0,1,7.316,0Q17.856,0,28.4,0M39.559,51.952q5.839.013,11.677.022c.571,0,.749-.414.753-.891q.021-2.819,0-5.639c0-.676-.306-.969-.992-.969q-5.609,0-11.219.01c-.894-.026-1.162.152-1.166.849q-.016,2.966,0,5.932c0,.553.351.789.94.686M4.32,51.984q5.665,0,11.33,0c.908,0,1.154-.248,1.155-1.163q0-3.422,0-6.845c0-.919-.286-1.206-1.2-1.206q-5.378,0-10.756,0c-.185,0-.385-.061-.553.079-.654-.088-.928.138-.932.8-.007,1.2,0,2.409,0,3.614,0,1.281-.008,2.562,0,3.843.006.68.316.952.951.883M3.344,19.7c-.111-.31-.28-.285-.517-.117A2.734,2.734,0,0,0,1.761,21.88c-.066,1.877.051,3.763-.081,5.633a16.906,16.906,0,0,0,1.48,7.348A12.076,12.076,0,0,1,4.2,40.141c-.016.21.01.423,0,.633-.019.272.084.392.363.362.171-.019.344-.016.516-.022H7.322c2.534,0,5.068,0,7.6.005.388,0,.645-.015.654-.529a3.852,3.852,0,0,1,.3-1.2,22.158,22.158,0,0,0,1.045-3.635c.062-.346.029-.52-.405-.51-1.17.027-2.342,0-3.513,0-.206,0-.437-.04-.52.232a.735.735,0,0,1-.968.552.946.946,0,0,1-.666-1.05,2.472,2.472,0,0,0,0-.695A6.06,6.06,0,0,0,8.939,31,3.61,3.61,0,0,1,7.548,27.75a12.566,12.566,0,0,0,.01-2.129,5.978,5.978,0,0,0-.4-2.333,2.517,2.517,0,0,0-.7-.957,1.368,1.368,0,0,0-1.225-.406c-.465.162-.172.611-.172.94q0,2.736,0,5.472a1.042,1.042,0,0,1-.2.642.793.793,0,0,1-.87.373c-.287-.084-.641-.288-.6-.6a9.414,9.414,0,0,0-.032-1.1c.01-2.649,0-5.3-.012-7.947m31.585,9.235c-1.206.407-1.432.85-.886,2.013.853,1.816,1.752,3.61,2.648,5.406.985,1.972,2,3.927,2.974,5.9.21.427.453.621.917.487q4.75.007,9.5.017c.245,0,.339-.057.41-.33a11.019,11.019,0,0,1,.726-1.774,7.562,7.562,0,0,0,.794-3.228C51.99,35.188,52,32.942,52,30.7a3.568,3.568,0,0,0-.009-.518.913.913,0,0,0-.958-.79.715.715,0,0,0-.684.863c.027.478.016.96,0,1.439a.981.981,0,0,1-.9,1.032c-.466.011-.793-.407-.8-1.024,0-.749.018-1.5-.008-2.246-.021-.626-.316-.9-.871-.876-.532.02-.77.29-.774.9-.005.749.012,1.5-.007,2.246a.974.974,0,0,1-.939,1c-.442-.026-.752-.442-.755-1.014,0-.5,0-1,0-1.5,0-.538.026-1.077-.009-1.612-.045-.691-.273-.84-1.006-.834-.626,0-.638.421-.64.86,0,1.037.01,2.074-.008,3.11a.988.988,0,0,1-.912.988.9.9,0,0,1-.776-1.005q0-5.125,0-10.251a1.581,1.581,0,0,0-.011-.458c-.107-.339-.205-.7-.618-.812a.823.823,0,0,0-.838.229,1.085,1.085,0,0,0-.211.866c0,2.188.009,4.377-.005,6.565-.013,1.88.051,3.76-.035,5.64-.019.423-.178.723-.563.815a.79.79,0,0,1-1.006-.4c-.82-1.472-1.7-2.909-2.559-4.36a1.16,1.16,0,0,0-1.178-.612M38.6,30.293v-.578c0-2.17-.012-4.34.01-6.509,0-.428-.1-.547-.537-.543-2.323.019-4.647,0-6.97,0a.812.812,0,0,1-.9-.847.842.842,0,0,1,.874-.839c.153-.009.307,0,.461,0,2.247,0,4.493,0,6.74-.015.147,0,.481.144.426-.18a1.82,1.82,0,0,1,1.272-2.012,2.441,2.441,0,0,1,3.577,1.818c.051.338.152.4.448.387.652-.018,1.306-.015,1.958,0,.607.011.965.351.955.878s-.334.817-.945.826c-.653.009-1.306,0-1.959,0-.176,0-.352-.014-.352.249,0,1.069,0,2.139,0,3.252a1.965,1.965,0,0,1,1.877.048A3.138,3.138,0,0,0,48,26.9c.564-.024.679-.085.647-.574-.01-.153,0-.307,0-.461q0-7.979,0-15.957c0-1.325,0-2.649-.023-3.974a.821.821,0,0,0-.854-.856q-.863-.032-1.727-.031-18.088,0-36.176,0c-.134,0-.269,0-.4,0-.776.033-1.117.414-1.05,1.166.012.133,0,.269,0,.4q0,7.489,0,14.978a1.13,1.13,0,0,0,.091.666,6.334,6.334,0,0,1,.718,3.263c.032.94,0,1.882.009,2.822A2.294,2.294,0,0,0,11.1,30.187q9.908,0,19.816,0a1.8,1.8,0,0,1,.731.075c.3.124.48-.013.512-.386a2.6,2.6,0,0,1,1.769-2.4,2.961,2.961,0,0,1,3.169.637c.631.584.813,1.45,1.509,2.177M28.5,1.711V1.7H7.192c-.23,0-.462-.007-.691.013A1.723,1.723,0,0,0,4.994,3.138a8.722,8.722,0,0,0,.07.9q.007,7.458.007,14.915c0,.379-.143.819.075,1.121.173.241.6.08.916.185.637.214.651.18.65-.491q-.006-7-.012-13.993a1.689,1.689,0,0,1,.065-.505A2.77,2.77,0,0,1,9.554,3.339q18.658.026,37.316,0c.424,0,.82.147,1.249.121a2.271,2.271,0,0,1,2.129,1.763,12.765,12.765,0,0,1,.113,1.651q.011,10.107.005,20.213c0,.672.006.645.927.684.523.023.72-.077.718-.67-.024-6.776-.014-13.552-.016-20.328,0-1.075-.021-2.149-.013-3.224.009-1.268-.715-1.847-1.945-1.845q-10.769.015-21.537,0m4.9,31.823c-.14-.336-.267-.592-.355-.862-.2-.611-.581-.788-1.241-.785-6.31.028-12.621.013-18.931.01-1.087,0-1.042-.013-.747.995.166.566.466.653.984.652q9.12-.023,18.241-.01Z" transform="translate(0.001 0)"/>
        <path id="Trazado_239325" data-name="Trazado 239325" d="M99.421,66.794c-.7-.727-.878-1.593-1.509-2.177a2.961,2.961,0,0,0-3.169-.637,2.594,2.594,0,0,0-1.769,2.4c-.032.372-.208.51-.512.386a1.8,1.8,0,0,0-.731-.075q-9.908-.007-19.816,0a2.293,2.293,0,0,1-1.856-1.839c-.01-.941.023-1.883-.009-2.823a6.333,6.333,0,0,0-.718-3.262,1.131,1.131,0,0,1-.091-.666q-.007-7.489,0-14.978c0-.134.01-.27,0-.4-.067-.752.273-1.134,1.05-1.166.134-.006.269,0,.4,0q18.088,0,36.176,0,.863,0,1.727.031a.821.821,0,0,1,.854.856c.018,1.324.023,2.649.023,3.974q0,7.979,0,15.957c0,.154-.009.308,0,.461.032.488-.083.549-.647.574a3.137,3.137,0,0,1-2.466-.679,1.965,1.965,0,0,0-1.877-.048c0-1.113,0-2.183,0-3.252,0-.264.176-.249.352-.249.653,0,1.306.006,1.959,0,.61-.008.935-.3.945-.826s-.348-.867-.955-.878c-.653-.012-1.306-.015-1.958,0-.3.008-.4-.049-.448-.388a2.441,2.441,0,0,0-3.577-1.818,1.82,1.82,0,0,0-1.272,2.012c.055.324-.279.179-.426.18-2.246.014-4.493.012-6.74.015-.154,0-.308-.007-.461,0a.842.842,0,0,0-.874.839.812.812,0,0,0,.9.847c2.323.006,4.647.021,6.97,0,.436,0,.541.115.537.543-.023,2.17-.011,4.34-.011,6.509v.578M89.363,55.029c.037-.178.122-.362-.058-.516a9.045,9.045,0,0,0-1.046-3.825,8.341,8.341,0,0,0-2.12-2.721,9.17,9.17,0,0,0-4.794-2.053,9.86,9.86,0,0,0-5.575.882A8.756,8.756,0,0,0,72.6,49.585,8.128,8.128,0,0,0,71,53.326a35.906,35.906,0,0,0-.1,4.766c0,.836.23,1.062,1.054,1.069,1.074.009,2.149,0,3.223,0H88.181c.451,0,.875-.043,1.025-.577.13.008.2-.03.148-.177q0-1.69.009-3.38m13.076-1.737v.01q2.1,0,4.2,0c.76,0,1.085-.258,1.091-.852s-.334-.858-1.119-.859c-.767,0-1.535,0-2.3,0-2.053,0-4.107,0-6.16,0-.171,0-.391.125-.465-.235-.324-1.588-1.126-2.163-2.8-2.189a2.278,2.278,0,0,0-2.116,1.8c-.076.529-.254.661-.745.637-.624-.03-1.012.317-1.008.811a.85.85,0,0,0,.991.895c.5-.036.651.144.756.624A2.506,2.506,0,0,0,95.7,55.771a2.611,2.611,0,0,0,1.975-2.079c.08-.372.21-.405.508-.4,1.42.008,2.84,0,4.26,0m-6.929-7.568c-1.189,0-2.378-.008-3.567,0-.617.006-.935.3-.922.8a.828.828,0,0,0,.924.889c2.32,0,4.641.007,6.961,0,.353,0,.5.029.548.47a2.521,2.521,0,0,0,2.667,2.079,2.6,2.6,0,0,0,2.243-2.193c.063-.322.178-.357.434-.352.633.011,1.266.009,1.9.011.689,0,1.031-.278,1.037-.847s-.311-.851-1-.857c-.671-.007-1.343-.009-2.014,0-.234,0-.319-.053-.346-.311a2.1,2.1,0,0,0-.466-1.187,2.551,2.551,0,0,0-2.262-.94,2.356,2.356,0,0,0-2.193,2.032c-.02.407-.19.408-.486.405-1.151-.009-2.3,0-3.452,0" transform="translate(-60.819 -36.501)" fill="#e4eff8"/>
        <path id="Trazado_239326" data-name="Trazado 239326" d="M286,174.766a1.16,1.16,0,0,1,1.178.612c.856,1.452,1.739,2.889,2.559,4.36a.79.79,0,0,0,1.006.4c.385-.092.544-.391.563-.815.086-1.88.022-3.76.035-5.64.015-2.188,0-4.377.005-6.565a1.085,1.085,0,0,1,.211-.866.823.823,0,0,1,.838-.229c.413.113.512.474.618.812a1.582,1.582,0,0,1,.011.458q0,5.125,0,10.251a.9.9,0,0,0,.776,1.005.988.988,0,0,0,.912-.988c.018-1.036,0-2.073.008-3.11,0-.44.014-.856.64-.86.733-.005.962.143,1.007.834.035.535.008,1.075.009,1.612,0,.5,0,1,0,1.5,0,.573.313.988.755,1.014a.974.974,0,0,0,.939-1c.019-.748,0-1.5.007-2.246,0-.606.243-.877.775-.9.555-.021.85.25.871.876.026.748.005,1.5.008,2.246,0,.617.33,1.035.8,1.024a.981.981,0,0,0,.9-1.032c.015-.48.026-.961,0-1.439a.715.715,0,0,1,.684-.863.912.912,0,0,1,.958.79,3.563,3.563,0,0,1,.009.518c0,2.246-.014,4.492.006,6.738a7.559,7.559,0,0,1-.794,3.227,11.017,11.017,0,0,0-.726,1.774c-.071.273-.165.331-.41.331q-4.75-.014-9.5-.018c-.242-.556-.46-1.123-.729-1.665-1.473-2.966-2.935-5.939-4.453-8.882a3.666,3.666,0,0,1-.47-3.263" transform="translate(-251.074 -145.828)" fill="#ffd1b5"/>
        <path id="Trazado_239327" data-name="Trazado 239327" d="M64.585,14.007q10.769,0,21.537,0c1.23,0,1.954.577,1.945,1.845-.008,1.075.013,2.149.014,3.224,0,6.776-.008,13.552.016,20.328,0,.593-.2.693-.718.67-.92-.04-.926-.012-.926-.684q0-10.107-.005-20.213a12.785,12.785,0,0,0-.113-1.651A2.271,2.271,0,0,0,84.2,15.758c-.429.026-.825-.122-1.249-.121q-18.658.014-37.316,0a2.77,2.77,0,0,0-2.787,1.933,1.689,1.689,0,0,0-.065.5q0,7,.012,13.993c0,.67-.013.7-.65.491-.315-.106-.742.056-.916-.185-.218-.3-.074-.742-.075-1.121q-.008-7.457-.007-14.915a8.787,8.787,0,0,1-.07-.9,1.723,1.723,0,0,1,1.507-1.424c.229-.02.46-.013.69-.013H64.585Z" transform="translate(-36.086 -12.296)" fill="#549ad4"/>
        <path id="Trazado_239328" data-name="Trazado 239328" d="M21.723,162.224c.007,2.649.022,5.3.012,7.947a9.416,9.416,0,0,1,.032,1.1c-.036.311.317.515.6.6a.793.793,0,0,0,.87-.373,1.043,1.043,0,0,0,.2-.642q-.005-2.736,0-5.472c0-.33-.293-.778.172-.94a1.368,1.368,0,0,1,1.225.406,2.516,2.516,0,0,1,.7.957,5.982,5.982,0,0,1,.4,2.333,12.593,12.593,0,0,1-.01,2.129,3.61,3.61,0,0,0,1.391,3.246,6.061,6.061,0,0,1,1.906,3.291,2.473,2.473,0,0,1,0,.7.947.947,0,0,0,.666,1.05.736.736,0,0,0,.968-.552c.084-.273.314-.233.52-.232,1.171,0,2.342.024,3.513,0,.434-.01.467.164.405.51a22.156,22.156,0,0,1-1.045,3.635,3.853,3.853,0,0,0-.3,1.2c-.009.514-.266.53-.654.529-2.534-.01-5.068-.005-7.6-.005H23.457a12.688,12.688,0,0,0-.275-3.875c-.474-1.371-.932-2.747-1.426-4.111a12.124,12.124,0,0,1-.836-4.354c.034-2.147,0-4.3.015-6.443a6.345,6.345,0,0,1,.144-1.535,1.577,1.577,0,0,1,.643-1.092" transform="translate(-18.378 -142.521)" fill="#ffd1b5"/>
        <path id="Trazado_239329" data-name="Trazado 239329" d="M34.451,352.123c.168-.139.368-.078.553-.079q5.378-.005,10.756,0c.911,0,1.2.288,1.2,1.206q0,3.422,0,6.845c0,.915-.247,1.163-1.155,1.163q-5.665,0-11.33,0a8.219,8.219,0,0,1-.122-2.448c.037-2.229-.137-4.462.1-6.687" transform="translate(-30.15 -309.274)" fill="#549ad4"/>
        <path id="Trazado_239330" data-name="Trazado 239330" d="M324.935,366.184q5.609-.007,11.219-.01c.686,0,.987.293.992.969q.019,2.819,0,5.639c0,.477-.182.891-.753.891q-5.839,0-11.677-.022a1.93,1.93,0,0,1-.135-.714c.012-1.745.017-3.49,0-5.234a2.383,2.383,0,0,1,.358-1.518" transform="translate(-285.154 -321.699)" fill="#549ad4"/>
        <path id="Trazado_239331" data-name="Trazado 239331" d="M119.792,264.187h-2.049q-9.12,0-18.241.01c-.518,0-.819-.085-.984-.652-.295-1.008-.339-1,.747-.995,6.31,0,12.621.018,18.931-.01.66,0,1.04.174,1.241.785.088.269.215.525.355.862" transform="translate(-86.394 -230.653)" fill="#549ad4"/>
        <path id="Trazado_239332" data-name="Trazado 239332" d="M15.3,160.492a1.577,1.577,0,0,0-.643,1.092,6.345,6.345,0,0,0-.144,1.535c-.014,2.147.019,4.3-.015,6.442a12.124,12.124,0,0,0,.836,4.354c.493,1.364.952,2.74,1.426,4.111a12.688,12.688,0,0,1,.275,3.875c-.172.007-.345,0-.516.023-.279.031-.382-.09-.363-.362.015-.21-.011-.423,0-.633a12.076,12.076,0,0,0-1.043-5.279,16.907,16.907,0,0,1-1.48-7.348c.132-1.87.015-3.757.081-5.634a2.734,2.734,0,0,1,1.066-2.294c.237-.168.406-.193.517.117" transform="translate(-11.959 -140.789)" fill="#f8fafb"/>
        <path id="Trazado_239333" data-name="Trazado 239333" d="M279.142,238.258a3.666,3.666,0,0,0,.47,3.263c1.519,2.943,2.98,5.916,4.453,8.882.269.542.487,1.109.729,1.665-.464.134-.707-.06-.917-.487-.973-1.977-1.989-3.933-2.974-5.9-.9-1.8-1.8-3.59-2.648-5.406-.546-1.162-.32-1.606.886-2.013" transform="translate(-244.212 -209.32)" fill="#f8fafb"/>
        <path id="Trazado_239334" data-name="Trazado 239334" d="M28.631,352.654c-.239,2.226-.065,4.458-.1,6.687a8.219,8.219,0,0,0,.122,2.448c-.635.069-.944-.2-.951-.883-.012-1.281,0-2.562,0-3.843,0-1.2,0-2.409,0-3.614,0-.657.278-.884.932-.8" transform="translate(-24.33 -309.806)" fill="#f8fafb"/>
        <path id="Trazado_239335" data-name="Trazado 239335" d="M319.047,366.242a2.382,2.382,0,0,0-.358,1.518c.018,1.745.014,3.49,0,5.234a1.929,1.929,0,0,0,.135.714c-.589.1-.937-.133-.94-.686q-.018-2.966,0-5.932c0-.7.272-.874,1.166-.849" transform="translate(-279.266 -321.757)" fill="#f8fafb"/>
        <path id="Trazado_239336" data-name="Trazado 239336" d="M101.086,89.6c-.15.534-.574.577-1.025.577H87.054c-1.074,0-2.149.006-3.223,0-.824-.007-1.051-.233-1.054-1.069a35.882,35.882,0,0,1,.1-4.766,8.127,8.127,0,0,1,1.6-3.741,8.752,8.752,0,0,1,3.174-2.789,9.858,9.858,0,0,1,5.575-.882,9.17,9.17,0,0,1,4.794,2.053,8.345,8.345,0,0,1,2.12,2.721,9.043,9.043,0,0,1,1.045,3.825c-.148.191-.235.375.058.517q0,1.69-.009,3.38c-.137-.014-.176.054-.148.178M87.458,80.229c.118.123.231.252.355.368a.861.861,0,0,1,.157,1.052.809.809,0,0,1-.988.367,1.934,1.934,0,0,1-.526-.318c-.243-.4-.425-.442-.71.01a8.192,8.192,0,0,0-1.221,3.049c-.058.347-.011.408.293.388.153-.01.306-.013.459-.019.393.147.812.261.806.813a.948.948,0,0,1-.808.957c-.8-.041-.8-.041-.8.73v.115c0,.771,0,.771.8.73.96.006,1.92,0,2.879.025.325.008.429-.064.484-.427a3.326,3.326,0,0,1,3.851-2.829,1.012,1.012,0,0,0,1.083-.333,13.65,13.65,0,0,1,1-1.037.873.873,0,1,1,1.215,1.192c-.335.343-.677.681-1.018,1.019-.154.152-.231.292-.043.487a2.458,2.458,0,0,1,.556,1.527c.036.339.149.406.453.4.9-.017,1.8-.008,2.707-.008,1.148,0,1.135,0,1.128-1.154,0-.342-.078-.466-.446-.463-.828.007-1.292-.334-1.289-.877s.379-.81,1.253-.841c.33-.012.415-.15.348-.421a9.122,9.122,0,0,0-1.126-2.9c-.385-.584-.392-.58-.915-.1a.82.82,0,0,1-1.417-.17c-.267-.472.029-.769.32-1.043.344-.323.316-.515-.079-.793a7.807,7.807,0,0,0-2.891-1.131c-.386-.085-.632.006-.568.489.042.318.08.653-.288.86a.873.873,0,0,1-.873.085.938.938,0,0,1-.445-.933c.052-.38-.06-.61-.487-.507a4.674,4.674,0,0,0-2.4.925.578.578,0,0,0-.546.219c-.143.132-.534.146-.257.5m6.2,8.263c-.028-.2-.04-.369-.076-.53a1.7,1.7,0,0,0-1.683-1.1,1.608,1.608,0,0,0-1.545,1.182c-.036.22-.065.457.31.45.991-.017,1.982-.006,2.993-.006" transform="translate(-72.699 -67.519)"/>
        <path id="Trazado_239337" data-name="Trazado 239337" d="M260.086,108.407c-1.42,0-2.84,0-4.26,0-.3,0-.429.031-.508.4a2.611,2.611,0,0,1-1.975,2.079,2.506,2.506,0,0,1-2.927-1.834c-.105-.48-.255-.66-.757-.624a.85.85,0,0,1-.991-.895c0-.494.385-.841,1.008-.811.491.024.669-.108.745-.637a2.278,2.278,0,0,1,2.115-1.8c1.671.026,2.472.6,2.8,2.189.074.361.294.235.465.235,2.053.008,4.107,0,6.16,0,.768,0,1.535-.005,2.3,0,.784,0,1.125.265,1.118.859s-.331.851-1.091.852q-2.1,0-4.2,0v-.01m-8.064-.839c0,.287.008.574,0,.861a.829.829,0,0,0,1.611.247,5.536,5.536,0,0,0,.043-2.155.775.775,0,0,0-.909-.606.752.752,0,0,0-.742.793c0,.287,0,.574,0,.861" transform="translate(-218.465 -91.616)"/>
        <path id="Trazado_239338" data-name="Trazado 239338" d="M253.155,58.283c1.151,0,2.3-.006,3.452,0,.3,0,.466,0,.486-.405a2.356,2.356,0,0,1,2.193-2.032,2.551,2.551,0,0,1,2.262.94,2.1,2.1,0,0,1,.466,1.187c.027.258.112.315.346.311.671-.012,1.342-.009,2.014,0,.694.007,1.01.283,1,.857s-.348.849-1.037.847c-.633,0-1.266,0-1.9-.011-.256,0-.371.03-.434.352a2.6,2.6,0,0,1-2.243,2.193,2.521,2.521,0,0,1-2.667-2.079c-.049-.441-.2-.472-.548-.47-2.32.011-4.641.007-6.961,0a.828.828,0,0,1-.924-.89c-.013-.5.3-.8.922-.8,1.189-.011,2.378,0,3.567,0m7.272.82a4.918,4.918,0,0,0-.1-1.044.777.777,0,0,0-.864-.579.723.723,0,0,0-.719.691,15.585,15.585,0,0,0,0,1.837.873.873,0,0,0,.711.8c.425.1.654-.239.845-.548.215-.347.088-.747.127-1.152" transform="translate(-218.463 -49.06)"/>
        <path id="Trazado_239339" data-name="Trazado 239339" d="M233.611,148.809c-.293-.142-.206-.326-.058-.517.179.155.1.338.058.517" transform="translate(-205.067 -130.281)" fill="#549ad4"/>
        <path id="Trazado_239340" data-name="Trazado 239340" d="M233.658,180.537c-.028-.124.011-.192.148-.178.055.147-.019.186-.148.178" transform="translate(-205.271 -158.451)" fill="#549ad4"/>
        <path id="Trazado_239341" data-name="Trazado 239341" d="M103.534,99.26a.948.948,0,0,0,.808-.957c.005-.551-.413-.666-.806-.813a8.958,8.958,0,0,1,1.18-3.429,1.934,1.934,0,0,0,.526.318.809.809,0,0,0,.988-.367.861.861,0,0,0-.157-1.052c-.125-.116-.237-.245-.355-.368a2.049,2.049,0,0,0,.8-.717,4.674,4.674,0,0,1,2.4-.925c.427-.1.539.126.487.507a.938.938,0,0,0,.445.933.873.873,0,0,0,.873-.085c.367-.207.33-.542.288-.86-.063-.482.182-.574.568-.489a7.805,7.805,0,0,1,2.891,1.131c.4.277.423.469.079.793-.292.274-.587.571-.32,1.043a.82.82,0,0,0,1.417.17c.523-.482.53-.486.915.1a9.119,9.119,0,0,1,1.126,2.9c.067.271-.019.409-.348.421-.874.031-1.251.3-1.253.841s.461.883,1.289.877c.367,0,.444.122.446.463.007,1.154.02,1.154-1.128,1.154-.9,0-1.805-.008-2.707.009-.3.006-.416-.062-.453-.4a2.459,2.459,0,0,0-.556-1.527c-.187-.195-.11-.335.043-.487.341-.338.683-.675,1.018-1.019a.873.873,0,1,0-1.215-1.192,13.652,13.652,0,0,0-1,1.037,1.012,1.012,0,0,1-1.083.333,3.326,3.326,0,0,0-3.851,2.829c-.056.363-.159.435-.484.427-.959-.023-1.919-.019-2.879-.025V99.26" transform="translate(-90.959 -79.883)" fill="#fe5151"/>
        <path id="Trazado_239342" data-name="Trazado 239342" d="M148.5,160.877c-1.011,0-2-.012-2.993.006-.376.007-.347-.23-.31-.45a1.608,1.608,0,0,1,1.545-1.182,1.7,1.7,0,0,1,1.683,1.1c.035.16.047.326.076.53" transform="translate(-127.542 -139.903)" fill="#fe5151"/>
        <path id="Trazado_239343" data-name="Trazado 239343" d="M99.134,114.465a8.957,8.957,0,0,0-1.18,3.429c-.153.006-.306.009-.459.019-.3.02-.351-.041-.293-.388a8.193,8.193,0,0,1,1.221-3.049c.285-.452.467-.409.71-.01" transform="translate(-85.378 -100.287)" fill="#f8fafb"/>
        <path id="Trazado_239344" data-name="Trazado 239344" d="M97.712,159.435v1.575c-.8.041-.8.041-.8-.73v-.115c0-.771,0-.771.8-.73" transform="translate(-85.137 -140.058)" fill="#f8fafb"/>
        <path id="Trazado_239345" data-name="Trazado 239345" d="M121.611,98.646a2.051,2.051,0,0,1-.8.717c-.277-.351.114-.366.257-.5a.578.578,0,0,1,.546-.219" transform="translate(-106.05 -86.653)" fill="#e4eff8"/>
        <path id="Trazado_239346" data-name="Trazado 239346" d="M276.273,119.349c0-.287,0-.574,0-.861a.752.752,0,0,1,.742-.793.775.775,0,0,1,.909.606,5.537,5.537,0,0,1-.043,2.155.829.829,0,0,1-1.611-.247c.009-.287,0-.574,0-.861" transform="translate(-242.716 -103.397)" fill="#fe5151"/>
        <path id="Trazado_239347" data-name="Trazado 239347" d="M333.145,70.911c-.039.406.088.805-.127,1.152-.192.309-.421.649-.845.548a.873.873,0,0,1-.711-.8,15.571,15.571,0,0,1,0-1.837.723.723,0,0,1,.719-.691.777.777,0,0,1,.864.579,4.919,4.919,0,0,1,.1,1.044" transform="translate(-291.181 -60.869)" fill="#fe5151"/>
      </g>
    </g>
  </g>
</svg>
