<svg xmlns="http://www.w3.org/2000/svg" xmlns:xlink="http://www.w3.org/1999/xlink" width="54.896" height="53.085" viewBox="0 0 54.896 53.085">
  <defs>
    <clipPath id="clip-path">
      <rect id="Rectángulo_315167" data-name="Rectángulo 315167" width="54.896" height="53.086" fill="none"/>
    </clipPath>
  </defs>
  <g id="Grupo_242673" data-name="Grupo 242673" transform="translate(-1182 -1138.296)">
    <g id="Grupo_240846" data-name="Grupo 240846" transform="translate(1182 1138.296)">
      <g id="Grupo_240845" data-name="Grupo 240845" clip-path="url(#clip-path)">
        <path id="Trazado_239348" data-name="Trazado 239348" d="M68.11.164l-.118.1c0-.078.032-.123.118-.1" transform="translate(-59.976 -0.138)" fill="#54576d"/>
        <path id="Trazado_239349" data-name="Trazado 239349" d="M65.45,155.774c-.2.008-.39.021-.586.023-.75.008-.865.118-.866.9q0,4.64,0,9.281c0,.955.065,1.015,1.046,1.028.136,0,.272.019.408.03q0,6.45,0,12.9l-3.3,0c0-5.489.022-10.978-.012-16.467-.024-3.857.145-7.716-.1-11.571.959,0,1.919.02,2.878,0,.4-.009.55.112.542.53-.024,1.116-.007,2.232-.006,3.348" transform="translate(-54.722 -133.987)" fill="#c6defd"/>
        <path id="Trazado_239350" data-name="Trazado 239350" d="M47.569,145.06c.246,3.855.077,7.714.1,11.571.034,5.489.011,10.978.012,16.467-.568.006-1.137,0-1.7.022-.254.008-.361-.085-.339-.339.01-.117,0-.235,0-.353q0-13.562,0-27.124c0-.235.016-.47.024-.7.171-.1.119-.271.135-.42a8.378,8.378,0,0,1,1.75.019l.02.861" transform="translate(-40.255 -127.148)" fill="#b2c5f3"/>
        <path id="Trazado_239351" data-name="Trazado 239351" d="M372.853,377.827c.172.136.1.328.1.493.006,2.1-.01,4.2.014,6.3.005.453-.135.558-.567.552-1.63-.024-3.26-.027-4.889,0-.461.008-.555-.151-.548-.574.022-1.472.006-2.945,0-4.417a14.662,14.662,0,0,0,2.442-2.338l3.446-.02" transform="translate(-323.695 -333.28)" fill="#54c5fd"/>
        <path id="Trazado_239352" data-name="Trazado 239352" d="M166.535,266.9c.1.981-.03,1.051-1.3,1.193-1.5.167-3,.33-4.491.517-.664.083-1.389.04-2.056.108-.915.093-1.841.175-2.756.313-1,.15-2.009.189-3,.356-1.727.292-3.477.288-5.208.488a14.627,14.627,0,0,0-2.208.37,11.894,11.894,0,0,1-1.461.083c-1.1.129-2.193.246-3.283.409a4.98,4.98,0,0,1-.814.053c-1.114-.016-2.2.249-3.3.33-.889.066-1.773.162-2.659.257l-2.878.311c0-.505,0-1.011,0-1.517,0-.185.06-.289.265-.3.929-.071,1.857-.152,2.785-.229-.05.487-.007.79.65.6a8.881,8.881,0,0,1,1.569-.151c.969-.1,1.936-.219,2.905-.311.928-.088,1.852-.286,2.768-.348,1.185-.081,2.364-.221,3.546-.317,1.746-.143,3.486-.367,5.229-.553,1.2-.128,2.4-.249,3.605-.377,1.375-.147,2.749-.3,4.124-.447,1.26-.132,2.522-.245,3.782-.381,1.394-.151,2.78-.377,4.182-.448" transform="translate(-115.664 -235.431)" fill="#fea366"/>
        <path id="Trazado_239353" data-name="Trazado 239353" d="M243.844,385.179c-.8.008-1.6.007-2.4.027-.3.008-.41-.1-.4-.4.021-1.169.021-2.338.029-3.508a38.187,38.187,0,0,0,3.5-3.427l2.635.017q.019,1.983.039,3.965a.823.823,0,0,0-.089.029c-1.157,1.046-2.249,2.155-3.308,3.3" transform="translate(-212.623 -333.317)" fill="#54c5fd"/>
        <path id="Trazado_239354" data-name="Trazado 239354" d="M309.188,296.9c.159.252.072.531.074.8.012,1.674.01,3.348.015,5.022,0,.078.014.152-.074.191a6.34,6.34,0,0,0-1.2,1.175c-1.6.008-3.191.009-4.787.028-.31,0-.418-.1-.393-.405s.02-.621.028-.932l.1-.232c1.9-1.78,3.722-3.643,5.526-5.522a2,2,0,0,1,.708-.121" transform="translate(-267.12 -261.885)" fill="#54c5fd"/>
        <path id="Trazado_239355" data-name="Trazado 239355" d="M51.727,404.548l-7.787.018a2.1,2.1,0,0,1,.243-.838q.822-1.943,1.648-3.884l4-.005a12.894,12.894,0,0,0,.714,1.789,22.579,22.579,0,0,1,1.176,2.921" transform="translate(-38.76 -352.696)" fill="#adb6e4"/>
        <path id="Trazado_239356" data-name="Trazado 239356" d="M90.989,292.9q0-6.45,0-12.9a12.963,12.963,0,0,1,1.994,0q0,6.449,0,12.9h-2" transform="translate(-80.261 -246.956)" fill="#e4fcfd"/>
        <path id="Trazado_239357" data-name="Trazado 239357" d="M135.015,373.611c.014.763.026,1.526.045,2.289.006.257-.118.353-.359.335a.421.421,0,0,0-.117,0,1.6,1.6,0,0,1-2.09-1.248c-.472-1.368-1.133-2.67-1.651-4.024a6.733,6.733,0,0,1-.1-2.275c-.026-.961-.006-.962.95-.962.883,0,1.768.042,2.647-.015.61-.04.829.159.723.746-.021.115-.039.23-.059.344-.29,0-.58-.006-.87-.006-.163,0-.341.024-.335.23a7.394,7.394,0,0,0,.082,2.007,3.6,3.6,0,0,0,.382,1.062,7.322,7.322,0,0,0,.755,1.517" transform="translate(-115.282 -324.354)" fill="#4993ed"/>
        <path id="Trazado_239358" data-name="Trazado 239358" d="M189.246,261.17c-1.4.071-2.789.3-4.182.448-1.26.137-2.522.249-3.782.381-1.375.144-2.749.3-4.124.447-1.2.129-2.4.249-3.605.377-1.743.186-3.483.41-5.229.553-1.182.1-2.361.236-3.546.317-.916.063-1.84.261-2.768.349-.969.092-1.936.212-2.9.311a8.875,8.875,0,0,0-1.569.151c-.657.191-.7-.112-.65-.6a25.412,25.412,0,0,1,2.807-.373c1.6-.214,3.223-.309,4.824-.566a10.214,10.214,0,0,1,1.5-.125,20.5,20.5,0,0,0,2.9-.3,13.117,13.117,0,0,0,2-.227c.891-.292,1.8-.049,2.673-.3.919-.264,1.9-.058,2.839-.242,1.122-.219,2.292-.156,3.392-.41.517-.119,1.056.048,1.576-.244.248-.14.72.006,1.107-.033q2.619-.263,5.228-.61A9.9,9.9,0,0,1,189,260.4c.531,0,.21.486.245.766" transform="translate(-138.375 -229.701)" fill="#fec46f"/>
        <path id="Trazado_239359" data-name="Trazado 239359" d="M179.543,316.5c-.605.007-1.212-.009-1.816.03-.409.026-.5-.147-.491-.51.017-1.408.013-2.815.016-4.223.011-.013.033-.027.031-.039a.525.525,0,0,0-.024-.094l.037-.119,2.087-.193,4.177-.385a.1.1,0,0,0,.066.018q0,.685.008,1.37l-.2.264c-.776.631-1.434,1.384-2.145,2.083-.6.586-1.166,1.2-1.747,1.8" transform="translate(-156.339 -274.304)" fill="#54c5fd"/>
        <path id="Trazado_239360" data-name="Trazado 239360" d="M183.226,377.93l.064.207a1.348,1.348,0,0,0-.056.634c-.01,1.288-.014,2.576-.02,3.864-.273.3-.541.6-.819.888-.547.571-1.1,1.137-1.651,1.7-1.164.01-2.329.012-3.493.035-.307.006-.432-.1-.388-.4.038-.262-.088-.545.1-.788,2.11-1.99,4.142-4.059,6.159-6.141l.1,0" transform="translate(-156.002 -333.371)" fill="#99e3fd"/>
        <path id="Trazado_239361" data-name="Trazado 239361" d="M242.249,310.378c-1.165.084-1.165.084-1.165-1.074q0-1.409,0-2.818a11.168,11.168,0,0,0,2.1-2c.366-.25.8-.124,1.185-.151.962-.067,1.91-.236,2.87-.3q.018.688.035,1.376a.388.388,0,0,0-.095.038q-2.53,2.4-4.932,4.931" transform="translate(-212.659 -268.186)" fill="#54c5fd"/>
        <path id="Trazado_239362" data-name="Trazado 239362" d="M78.109,84.141l1.871,0L79.5,90.008a.072.072,0,0,0,0,.068c-1.682.026-3.365.061-5.047-.018-.012-.214-.009-.43-.04-.642-.254-1.749-.347-3.51-.441-5.272h1.77c.075,1.5.154,3.006.118,4.513a1.262,1.262,0,0,0,.069.341c.053.2.037.461.361.425.551-.06,1.128.155,1.652-.138.059-.033.046-.222.042-.337-.066-1.605.1-3.2.122-4.807" transform="translate(-65.253 -74.22)" fill="#99e3fd"/>
        <path id="Trazado_239363" data-name="Trazado 239363" d="M107.909,292.769q0-6.449,0-12.9c1.6-.139,1.6-.139,1.6,1.4,0,3.641-.01,7.281.013,10.922,0,.5-.134.661-.617.6a9.8,9.8,0,0,0-1-.027" transform="translate(-95.184 -246.822)" fill="#c6defd"/>
        <path id="Trazado_239364" data-name="Trazado 239364" d="M183.434,377.96c-2.018,2.082-4.05,4.15-6.159,6.141-.133-1.285-.026-2.573-.059-3.859-.008-.332,0-.665,0-1a5.184,5.184,0,0,0,1.36-1.285h4.86" transform="translate(-156.312 -333.397)" fill="#54c5fd"/>
        <path id="Trazado_239365" data-name="Trazado 239365" d="M367.2,299.488q.005-1.224.01-2.448a.113.113,0,0,0,.078-.025q2.473-2.455,4.944-4.913a.951.951,0,0,0,.132-.255l.572-.028.208.006q0,1.292,0,2.585a.168.168,0,0,0-.087.022c-1.783,1.67-3.5,3.409-5.187,5.175l-.6,0-.073-.114" transform="translate(-323.91 -257.413)" fill="#99e3fd"/>
        <path id="Trazado_239366" data-name="Trazado 239366" d="M90.957,194.749a11.67,11.67,0,0,1,2,0q0,4.437-.01,8.875a12.388,12.388,0,0,1-1.992-.044q0-4.415,0-8.83" transform="translate(-80.229 -171.75)" fill="#c6defd"/>
        <path id="Trazado_239367" data-name="Trazado 239367" d="M309.231,377.923a9.445,9.445,0,0,1-.014,2.223c-1.77,1.618-3.438,3.338-5.1,5.07-1.555.007-1.272.334-1.257-1.427l.1-.229a19.688,19.688,0,0,0,1.812-1.757c1.282-1.3,2.622-2.534,3.838-3.893l.614.014" transform="translate(-267.13 -333.352)" fill="#54c5fd"/>
        <path id="Trazado_239368" data-name="Trazado 239368" d="M134.059,319.09c-.883.007-1.766,0-2.649.024-.306.007-.41-.1-.407-.408.012-1.355,0-2.71.006-4.064,0-.177-.017-.36.247-.378,1.218-.083,2.419-.324,3.643-.359.376-.011.517.109.394.479-.156,0-.312-.009-.468-.008-.766,0-.767,0-.767.8q0,1.96,0,3.919" transform="translate(-115.557 -276.893)" fill="#4993ed"/>
        <path id="Trazado_239369" data-name="Trazado 239369" d="M107.849,203.545q0-4.437.01-8.875c1.6-.133,1.6-.133,1.6,1.412q0,3.351,0,6.7c0,.824,0,.831-.8.822a1.8,1.8,0,0,1-.809-.06" transform="translate(-95.133 -171.671)" fill="#adb6e4"/>
        <path id="Trazado_239370" data-name="Trazado 239370" d="M61.885,145.067l-.02-.861c1.559-.106,3.119-.02,4.679-.046.507-.008,1.015,0,1.523,0,.877,0,.877,0,.783.911-.33,0-.663.026-.991,0-.428-.038-.582.107-.571.552.028,1.107.008,2.215.007,3.323h-2c0-1.116-.018-2.232.006-3.348.009-.418-.138-.539-.542-.53-.959.022-1.919,0-2.878,0" transform="translate(-54.571 -127.156)" fill="#e4fcfd"/>
        <path id="Trazado_239371" data-name="Trazado 239371" d="M308.879,297.981c-1.8,1.879-3.624,3.742-5.526,5.522a.106.106,0,0,0-.077,0q0-2.295,0-4.589l.061-.209a.971.971,0,0,1,.5-.148c1.025-.1,2.05-.221,3.074-.339.656-.075,1.312-.158,1.968-.238" transform="translate(-267.519 -262.848)" fill="#99e3fd"/>
        <path id="Trazado_239372" data-name="Trazado 239372" d="M372.413,291.98a.949.949,0,0,1-.132.255q-2.468,2.46-4.944,4.913l-.082-.113q0-2.3,0-4.593c.636-.069,1.271-.164,1.909-.2a27.667,27.667,0,0,1,3.249-.261" transform="translate(-323.955 -257.545)" fill="#54c5fd"/>
        <path id="Trazado_239373" data-name="Trazado 239373" d="M309,377.91c-1.217,1.359-2.556,2.6-3.838,3.893a19.675,19.675,0,0,1-1.813,1.757.11.11,0,0,0-.08-.005q0-1.467,0-2.934l.078-.119a21.152,21.152,0,0,0,2.486-2.577L309,377.91" transform="translate(-267.513 -333.353)" fill="#99e3fd"/>
        <path id="Trazado_239374" data-name="Trazado 239374" d="M56.351,84.139c.094,1.762.187,3.523.441,5.272.031.211.027.428.04.642a9.657,9.657,0,0,1-2,0,10.987,10.987,0,0,0-.206-1.612c-.221-1.434-.424-2.871-.634-4.307l2.356,0" transform="translate(-47.629 -74.214)" fill="#54c5fd"/>
        <path id="Trazado_239375" data-name="Trazado 239375" d="M250.966,320.961q2.4-2.528,4.932-4.931.009,2.46.017,4.92c-1.649.072-3.3.051-4.949.011" transform="translate(-221.376 -278.769)" fill="#99e3fd"/>
        <path id="Trazado_239376" data-name="Trazado 239376" d="M38.843,83.866c.21,1.436.413,2.873.634,4.307a10.987,10.987,0,0,1,.206,1.613,10.663,10.663,0,0,1-1.288.049c-.6.071-.8-.235-.842-.746-.144-1.583-.44-3.143-.716-4.706-.068-.384.025-.585.476-.548.507.042,1.02.024,1.53.031" transform="translate(-32.477 -73.946)" fill="#4993ed"/>
        <path id="Trazado_239377" data-name="Trazado 239377" d="M91.35,84.141c-.024,1.6-.188,3.2-.122,4.807,0,.115.017.3-.042.337-.524.293-1.1.078-1.652.138-.324.035-.309-.228-.361-.425a1.261,1.261,0,0,1-.069-.341c.035-1.506-.043-3.009-.118-4.513l2.365,0" transform="translate(-78.493 -74.22)" fill="#f8fafb"/>
        <path id="Trazado_239378" data-name="Trazado 239378" d="M372.882,319.154c1.688-1.766,3.4-3.5,5.187-5.175l.091.105q0,1.243,0,2.487l-.094.123.015-.006a10.522,10.522,0,0,0-2.506,2.469l-2.693,0" transform="translate(-328.918 -276.96)" fill="#54c5fd"/>
        <path id="Trazado_239379" data-name="Trazado 239379" d="M30.139,399.36q-.824,1.942-1.648,3.884a2.105,2.105,0,0,0-.243.838h-2.1a34.112,34.112,0,0,0,1.539-3.591c.37-1.011.891-1.327,1.863-1.159a4.516,4.516,0,0,0,.586.027" transform="translate(-23.067 -352.213)" fill="#8a8eca"/>
        <path id="Trazado_239380" data-name="Trazado 239380" d="M95.838,404.307a22.578,22.578,0,0,0-1.176-2.921,12.9,12.9,0,0,1-.714-1.789,13.037,13.037,0,0,1,2,.013,1.018,1.018,0,0,0,.134.5q.881,2.1,1.756,4.206a13.8,13.8,0,0,1-2-.011" transform="translate(-82.87 -352.455)" fill="#c6defd"/>
        <path id="Trazado_239381" data-name="Trazado 239381" d="M33.364,64.972c-.981.008-1.964-.015-2.942.038-.548.029-.476-.287-.48-.622s-.047-.621.487-.616c2.964.028,5.929.013,8.894.013.883,0,1.767.018,2.65-.008.394-.012.547.106.447.5-2.784,0-5.569.014-8.353-.015-.562-.006-.8.144-.7.714" transform="translate(-26.409 -56.253)" fill="#b2c5f3"/>
        <path id="Trazado_239382" data-name="Trazado 239382" d="M308.731,369.037l-3.161.014-2.558-.008c-.112-1.19-.112-1.19,1.041-1.191h4.579c.788,0,.79,0,.768.8a3.691,3.691,0,0,1-.054.4l-.615-.014" transform="translate(-267.244 -324.48)" fill="#4993ed"/>
        <path id="Trazado_239383" data-name="Trazado 239383" d="M183.136,369.033h-4.86l-1.29-.024c-.19-.286-.088-.606-.107-.912-.016-.271.182-.252.359-.253,1.878,0,3.755,0,5.633-.005.275,0,.391.085.373.368s0,.547,0,.821l-.1,0" transform="translate(-156.014 -324.469)" fill="#4993ed"/>
        <path id="Trazado_239384" data-name="Trazado 239384" d="M247.091,368.938l-2.635-.016-3.422-.015-.1-.095c-.051-1.069-.051-1.069,1-1.069,1.492,0,2.986.033,4.476-.016.606-.02.829.156.725.745-.027.153-.032.31-.047.466" transform="translate(-212.511 -324.37)" fill="#4993ed"/>
        <path id="Trazado_239385" data-name="Trazado 239385" d="M112.8,404.223q-.877-2.1-1.756-4.206a1.019,1.019,0,0,1-.134-.5c1.41-.137,1.387-.127,1.913,1.163.479,1.173,1.017,2.322,1.557,3.545Z" transform="translate(-97.832 -352.359)" fill="#adb6e4"/>
        <path id="Trazado_239386" data-name="Trazado 239386" d="M330.42,409.813c0,1-.009,2,.014,3,.009.387-.074.565-.511.549-1.036-.037-2.074-.027-3.111-.037l3.517-3.543a.244.244,0,0,0,.09.035" transform="translate(-288.28 -361.464)" fill="#54c5fd"/>
        <path id="Trazado_239387" data-name="Trazado 239387" d="M372.762,368.9l-3.446.02-1.615,0-.789-.007c-.128-1.192-.123-1.258,1.037-1.174,1.363.1,2.716-.039,4.073-.035.562,0,.857.1.739.723a2.438,2.438,0,0,0,0,.469" transform="translate(-323.603 -324.358)" fill="#4993ed"/>
        <path id="Trazado_239388" data-name="Trazado 239388" d="M318.807,398.4l-3.517,3.543-1.54.006c1.657-1.731,3.325-3.452,5.1-5.07q0,.646,0,1.293l-.041.228" transform="translate(-276.758 -350.086)" fill="#99e3fd"/>
        <path id="Trazado_239389" data-name="Trazado 239389" d="M241.277,377.744l3.423.015a38.194,38.194,0,0,1-3.5,3.427q-.006-1.71-.011-3.42a.108.108,0,0,0,.085-.022" transform="translate(-212.755 -333.207)" fill="#99e3fd"/>
        <path id="Trazado_239390" data-name="Trazado 239390" d="M58.819,68.607c-.1-.57.142-.72.7-.714,2.784.029,5.568.015,8.353.015.122.562-.046.753-.672.742-2.794-.049-5.59-.034-8.384-.043" transform="translate(-51.865 -59.888)" fill="#c6defd"/>
        <path id="Trazado_239391" data-name="Trazado 239391" d="M107.87,155.745c0-1.108.021-2.216-.007-3.323-.011-.446.143-.591.571-.552.328.029.66,0,.991,0,.1,1.193.022,2.387.041,3.581,0,.27-.127.329-.362.318-.411-.018-.822-.019-1.233-.027" transform="translate(-95.145 -133.959)" fill="#c6defd"/>
        <path id="Trazado_239392" data-name="Trazado 239392" d="M14.188,44.937c-1.6,0-3.205-.01-4.807.025-.506.011-.518-.238-.51-.609.007-.353-.023-.637.5-.627,1.6.032,3.2.017,4.807.021l.012,1.19" transform="translate(-7.824 -38.57)" fill="#677291"/>
        <path id="Trazado_239393" data-name="Trazado 239393" d="M156.913,322.616q0-1.96,0-3.919c0-.791,0-.792.767-.8.156,0,.312.005.468.008.011,1.46.018,2.919.037,4.379,0,.3-.14.366-.4.352-.291-.016-.583-.016-.875-.024" transform="translate(-138.412 -280.42)" fill="#54c5fd"/>
        <path id="Trazado_239394" data-name="Trazado 239394" d="M53.89,45.093l-.012-1.19,4.846.014q0,.581,0,1.162l-4.839.015" transform="translate(-47.526 -38.727)" fill="#8a8eca"/>
        <path id="Trazado_239395" data-name="Trazado 239395" d="M264.8,415.185c1.059-1.144,2.152-2.254,3.308-3.3a17.22,17.22,0,0,1-.091,3.191.153.153,0,0,0-.014.109l-.011.01-.235.028-2.957-.038" transform="translate(-233.58 -363.323)" fill="#99e3fd"/>
        <path id="Trazado_239396" data-name="Trazado 239396" d="M196.8,328.866c.581-.6,1.152-1.211,1.747-1.8.711-.7,1.368-1.452,2.145-2.083.254.408.1.852.115,1.282l-2.472,2.592Z" transform="translate(-173.598 -286.669)" fill="#99e3fd"/>
        <path id="Trazado_239397" data-name="Trazado 239397" d="M303.309,377.961l2.558.008a21.112,21.112,0,0,1-2.486,2.577.319.319,0,0,0-.079-.006q0-1.289.007-2.579" transform="translate(-267.542 -333.398)" fill="#54c5fd"/>
        <path id="Trazado_239398" data-name="Trazado 239398" d="M308.447,293.48c-.656.08-1.312.163-1.968.238-1.024.117-2.048.234-3.074.339a.973.973,0,0,0-.5.148.218.218,0,0,0-.091-.014c-.075-.375-.04-.585.457-.63a23.441,23.441,0,0,1,2.485-.39,29.987,29.987,0,0,0,3.032-.289c.412-.032.384.211.364.477a2,2,0,0,0-.708.121" transform="translate(-267.087 -258.347)" fill="#4993ed"/>
        <path id="Trazado_239399" data-name="Trazado 239399" d="M209.825,338.449l2.472-2.592a.255.255,0,0,0,.081.033c0,.7-.008,1.407.009,2.11.008.335-.074.5-.455.484-.7-.033-1.4-.026-2.107-.035" transform="translate(-185.086 -296.258)" fill="#54c5fd"/>
        <path id="Trazado_239400" data-name="Trazado 239400" d="M209.846,420.434c.551-.568,1.1-1.133,1.651-1.7.278-.291.546-.591.819-.888a.281.281,0,0,0,.081.032c0,.721-.011,1.443,0,2.164,0,.322-.115.445-.447.431-.7-.03-1.4-.025-2.1-.034" transform="translate(-185.104 -368.577)" fill="#54c5fd"/>
        <path id="Trazado_239401" data-name="Trazado 239401" d="M132.911,43.8c.822-.008,1.645-.011,2.467-.026.567-.01.328.415.355.672s.106.566-.36.55c-.822-.029-1.645-.021-2.467-.028q0-.584,0-1.168" transform="translate(-117.236 -38.611)" fill="#8a8eca"/>
        <path id="Trazado_239402" data-name="Trazado 239402" d="M88.557,194.931q0,4.415,0,8.83c-.3.068-.318-.134-.318-.344q0-4.081,0-8.162c0-.225.031-.4.325-.324" transform="translate(-77.829 -171.931)" fill="#adb6e4"/>
        <path id="Trazado_239403" data-name="Trazado 239403" d="M247.128,300.688c-.96.068-1.908.237-2.87.3-.389.027-.819-.1-1.185.151a12.933,12.933,0,0,0-1.985.242c-.233-.369-.168-.559.3-.6q2.739-.25,5.475-.537c.467-.049.269.24.263.442" transform="translate(-212.548 -264.841)" fill="#4993ed"/>
        <path id="Trazado_239404" data-name="Trazado 239404" d="M395.725,339.426a10.521,10.521,0,0,1,2.507-2.469q-.016.76-.033,1.52a5.656,5.656,0,0,0-.935.943l-1.538.006" transform="translate(-349.068 -297.229)" fill="#99e3fd"/>
        <path id="Trazado_239405" data-name="Trazado 239405" d="M372.045,286.882a27.675,27.675,0,0,0-3.249.261c-.638.037-1.273.133-1.909.2-.11-.3-.05-.429.318-.489,1.363-.222,2.749-.213,4.11-.475.415-.08.852-.112,1.28-.182s.18.353.236.556l-.215.1-.572.028" transform="translate(-323.587 -252.447)" fill="#4993ed"/>
        <path id="Trazado_239406" data-name="Trazado 239406" d="M183.864,307.142l-4.177.385-2.087.193c-.045-.234-.039-.423.277-.452.843-.078,1.686-.161,2.527-.261q.88-.1,1.754-.263a3.676,3.676,0,0,1,1.476-.059c-.018.2.2.283.229.457" transform="translate(-156.643 -270.478)" fill="#4993ed"/>
        <path id="Trazado_239407" data-name="Trazado 239407" d="M367.825,378l1.615,0A14.657,14.657,0,0,1,367,380.333q0-.765.008-1.53l.123-.108a1.2,1.2,0,0,0,.7-.7" transform="translate(-323.728 -333.428)" fill="#99e3fd"/>
        <path id="Trazado_239408" data-name="Trazado 239408" d="M94.984,45.15q0-.581,0-1.162l2.238,0q0,.585-.005,1.17l-2.228,0" transform="translate(-83.781 -38.798)" fill="#adb6e4"/>
        <path id="Trazado_239409" data-name="Trazado 239409" d="M156.888,379.176a7.4,7.4,0,0,1-.082-2.007c-.007-.206.171-.23.335-.23.29,0,.58,0,.87.006a2.94,2.94,0,0,1-.011,1.287c-.459.211-.671.711-1.111.943" transform="translate(-138.293 -332.497)" fill="#54c5fd"/>
        <path id="Trazado_239410" data-name="Trazado 239410" d="M240.968,308.134a12.955,12.955,0,0,1,1.985-.242,11.169,11.169,0,0,1-2.1,2,4.393,4.393,0,0,1,.116-1.756" transform="translate(-212.428 -271.59)" fill="#99e3fd"/>
        <path id="Trazado_239411" data-name="Trazado 239411" d="M120.853,89.759l.478-5.863c.309-.026.6-.187.5.43q-.409,2.736-.879,5.461a.759.759,0,0,0-.1-.029" transform="translate(-106.604 -73.971)" fill="#54c5fd"/>
        <path id="Trazado_239412" data-name="Trazado 239412" d="M113.918,45.154q0-.585.005-1.17l1.3,0q0,.58,0,1.161l-1.307,0" transform="translate(-100.487 -38.798)" fill="#8a8eca"/>
        <path id="Trazado_239413" data-name="Trazado 239413" d="M157.721,388.85c.44-.233.652-.733,1.111-.943q0,.643,0,1.286l-.036.229c-.254.131-.364.467-.694.49a3.6,3.6,0,0,1-.382-1.062" transform="translate(-139.125 -342.172)" fill="#99e3fd"/>
        <path id="Trazado_239414" data-name="Trazado 239414" d="M124.973,45.161q0-.58,0-1.161l.941,0q0,.584-.005,1.168l-.931,0" transform="translate(-110.235 -38.809)" fill="#adb6e4"/>
        <path id="Trazado_239415" data-name="Trazado 239415" d="M176.923,377.759l1.29.024a5.183,5.183,0,0,1-1.36,1.285,2.432,2.432,0,0,1,.07-1.309" transform="translate(-155.952 -333.22)" fill="#99e3fd"/>
        <path id="Trazado_239416" data-name="Trazado 239416" d="M160.961,401.251c.331-.023.44-.359.694-.489a.224.224,0,0,0,.094.029q-.017.989-.033,1.977a7.324,7.324,0,0,1-.755-1.517" transform="translate(-141.983 -353.511)" fill="#54c5fd"/>
        <path id="Trazado_239417" data-name="Trazado 239417" d="M346.786,349.09a6.341,6.341,0,0,1,1.2-1.175c0,.038-.009.077-.01.115-.019,1.138-.019,1.138-1.186,1.06" transform="translate(-305.899 -306.895)" fill="#99e3fd"/>
        <path id="Trazado_239418" data-name="Trazado 239418" d="M292.81,320.665q-.009-2.46-.017-4.919a.4.4,0,0,1,.095-.038c.091,1.59.026,3.182.03,4.773,0,.062-.07.123-.108.185" transform="translate(-258.272 -278.484)" fill="#677291"/>
        <path id="Trazado_239419" data-name="Trazado 239419" d="M230.881,384.221a.287.287,0,0,1-.081-.032c.006-1.288.01-2.576.02-3.865a1.349,1.349,0,0,1,.056-.634,37.288,37.288,0,0,1,.005,4.53" transform="translate(-203.588 -334.924)" fill="#677291"/>
        <path id="Trazado_239420" data-name="Trazado 239420" d="M408.774,350.792a5.658,5.658,0,0,1,.935-.943.319.319,0,0,1,.01.057c-.007.987.257.949-.945.886" transform="translate(-360.578 -308.601)" fill="#54c5fd"/>
        <path id="Trazado_239421" data-name="Trazado 239421" d="M368.052,377.973a1.2,1.2,0,0,1-.7.7.38.38,0,0,0-.1-.011q0-.346.008-.693l.789.007" transform="translate(-323.955 -333.403)" fill="#54c5fd"/>
        <path id="Trazado_239422" data-name="Trazado 239422" d="M292.084,414.859a17.217,17.217,0,0,0,.092-3.191.819.819,0,0,1,.089-.029q.016,1.549.032,3.1a.23.23,0,0,1-.132.237l-.081-.116" transform="translate(-257.646 -363.105)" fill="#677291"/>
        <path id="Trazado_239423" data-name="Trazado 239423" d="M230.009,324.322a.255.255,0,0,1-.081-.033c-.016-.429.139-.874-.115-1.282l.2-.264a4.869,4.869,0,0,1,0,1.579" transform="translate(-202.717 -284.691)" fill="#677291"/>
        <path id="Trazado_239424" data-name="Trazado 239424" d="M229.158,307.506c-.033-.174-.247-.258-.229-.457.432-.049.365.212.294.475a.1.1,0,0,1-.066-.018" transform="translate(-201.937 -270.842)" fill="#677291"/>
        <path id="Trazado_239425" data-name="Trazado 239425" d="M45.014,144.45c-.015.15.036.32-.135.42-.122-.194-.279-.4.135-.42" transform="translate(-39.47 -127.419)" fill="#adb6e4"/>
        <path id="Trazado_239426" data-name="Trazado 239426" d="M166.945,399.074a.224.224,0,0,1-.094-.029l.036-.229a.177.177,0,0,1,.058.259" transform="translate(-147.179 -351.793)" fill="#677291"/>
        <path id="Trazado_239427" data-name="Trazado 239427" d="M303.107,425.744a.11.11,0,0,1,.08.005l-.1.229.022-.234" transform="translate(-267.35 -375.543)" fill="#8a8eca"/>
        <path id="Trazado_239428" data-name="Trazado 239428" d="M415.851,291.072l.215-.1a.1.1,0,0,1-.007.106l-.208-.006" transform="translate(-366.821 -256.665)" fill="#adb6e4"/>
        <path id="Trazado_239429" data-name="Trazado 239429" d="M303.04,304a.219.219,0,0,1,.091.014l-.061.209L303.04,304" transform="translate(-267.311 -268.16)" fill="#8a8eca"/>
        <path id="Trazado_239430" data-name="Trazado 239430" d="M289.877,439.982l.235-.028c-.066.119-.146.114-.235.028" transform="translate(-255.7 -388.082)" fill="#54576d"/>
        <path id="Trazado_239431" data-name="Trazado 239431" d="M356.645,408.072l.041-.228a.177.177,0,0,1,.049.263.248.248,0,0,1-.09-.035" transform="translate(-314.595 -359.758)" fill="#677291"/>
        <path id="Trazado_239432" data-name="Trazado 239432" d="M303.116,344.762a.106.106,0,0,1,.077,0l-.1.232.021-.232" transform="translate(-267.359 -304.107)" fill="#8a8eca"/>
        <path id="Trazado_239433" data-name="Trazado 239433" d="M367.11,356.864l.073.114c-.074-.006-.105-.04-.073-.114" transform="translate(-323.816 -314.789)" fill="#8a8eca"/>
        <path id="Trazado_239434" data-name="Trazado 239434" d="M416.854,336.088l.094-.123c.017.078-.031.106-.094.123" transform="translate(-367.706 -296.354)" fill="#99e3fd"/>
        <path id="Trazado_239435" data-name="Trazado 239435" d="M367.255,334.931l.082.113a.113.113,0,0,1-.078.025q0-.069,0-.138" transform="translate(-323.955 -295.441)" fill="#4993ed"/>
        <path id="Trazado_239436" data-name="Trazado 239436" d="M303.3,399.83a.313.313,0,0,1,.079.006l-.078.119q0-.063,0-.126" transform="translate(-267.542 -352.688)" fill="#4993ed"/>
        <path id="Trazado_239437" data-name="Trazado 239437" d="M177.235,316.88a.535.535,0,0,1,.024.094c0,.012-.02.026-.032.039a.586.586,0,0,1-.02-.092c0-.013.018-.027.027-.04" transform="translate(-156.314 -279.519)" fill="#677291"/>
        <path id="Trazado_239438" data-name="Trazado 239438" d="M367.085,383.839a.378.378,0,0,1,.1.011l-.123.108.023-.119" transform="translate(-323.784 -338.583)" fill="#4993ed"/>
        <path id="Trazado_239439" data-name="Trazado 239439" d="M241.16,377.034a.108.108,0,0,1-.085.022l-.016-.117.1.095" transform="translate(-212.637 -332.497)" fill="#8a8eca"/>
        <path id="Trazado_239440" data-name="Trazado 239440" d="M120.792,133.9a.758.758,0,0,1,.1.029c-.014.067-.052.072-.1.04a.073.073,0,0,1,0-.068" transform="translate(-106.543 -118.116)" fill="#8a8eca"/>
        <path id="Trazado_239441" data-name="Trazado 239441" d="M291.949,438.948l.081.116-.048,0-.047-.01a.153.153,0,0,1,.014-.109" transform="translate(-257.511 -387.195)" fill="#54576d"/>
        <path id="Trazado_239442" data-name="Trazado 239442" d="M416.963,313.922l-.091-.105a.168.168,0,0,1,.087-.022c0,.042,0,.085,0,.127" transform="translate(-367.721 -276.797)" fill="#4993ed"/>
        <path id="Trazado_239443" data-name="Trazado 239443" d="M189.639,128.9a2.893,2.893,0,0,0,.1-1.36,1.431,1.431,0,0,0-1.4-1c-.466-.012-.932-.012-1.4-.017a53.494,53.494,0,0,1-.116-5.649c.3.1.221.381.271.586.268,1.1.68,2.155.923,3.262a1.129,1.129,0,0,0,1.234.835c.525.011,1.051.025,1.576.037a1.257,1.257,0,0,1-.143.311c-.238.281-.445.561-.232.948a1.108,1.108,0,0,0,1.039.637c3.235-.006,6.471,0,9.706-.005.181,0,.414.074.47-.216.3-.045.611-.076.911-.139a.452.452,0,0,0,.386-.448.466.466,0,0,0-.285-.507c-.176-.069-.353-.135-.53-.2l-.127-.381c1.847-.055,3.694-.058,5.541,0-.083.107-.168.213-.25.321a.943.943,0,0,0-.13,1.041.926.926,0,0,0,.9.534c.972.028,1.348-.359,1.374-1.438.018.007.047.01.053.022.53,1.234,1.545,1.4,2.733,1.316.992-.067,2,.07,2.986-.035,1.279-.135,2.056.723,2.982,1.3a.641.641,0,0,1,.294.6,1.592,1.592,0,0,1-.946.239q-5.4-.012-10.8-.006a1.589,1.589,0,0,0-1.676-1.418c-1.962-.066-3.885.327-5.828.453-1.024.066-2.034.253-3.063.267a1.6,1.6,0,0,0-1.5.7c-.332,0-.665.021-1,0-1.368-.1-2.816.357-4.06-.59m15.041-1.633a3.608,3.608,0,0,1,.756-.133c.334.037.579-.1.592-.469s-.236-.55-.578-.58c-.271-.024-.547,0-.82-.007-.452-.016-.619.215-.608.644.013.465.36.476.658.544" transform="translate(-164.781 -106.627)" fill="#dfe8fd"/>
        <path id="Trazado_239444" data-name="Trazado 239444" d="M228.651,160.673l.127.381c-.1.18-.275.1-.415.1-.377.006-.748-.021-.775.522-.026.52.266.667.709.674-.056.289-.288.215-.47.216-3.235,0-6.471,0-9.706.005a1.108,1.108,0,0,1-1.039-.637c-.213-.387-.006-.667.232-.948a1.254,1.254,0,0,0,.143-.311c1.387-.012,2.774-.034,4.161-.033,2.345,0,4.69.02,7.035.031M225.5,162.33c.176,0,.353.007.529,0a.468.468,0,0,0,.5-.515.59.59,0,0,0-.517-.65c-.758-.152-1.372,0-1.476.348a.719.719,0,0,0-.007.117c-.063.545.153.7.97.7m-3.006,0v0c.1,0,.2-.005.293,0,.343.023.6-.048.682-.451.09-.468-.194-.639-.554-.7a3.02,3.02,0,0,0-.989,0c-.256.045-.512.179-.466.552a.6.6,0,0,0,.508.592,2.824,2.824,0,0,0,.526.006m-3.056,0v0c.1,0,.2-.006.293,0,.417.03.658-.109.676-.578.02-.523-.309-.492-.655-.482-.254.007-.508,0-.762,0s-.574-.057-.588.367a.658.658,0,0,0,.512.679,1.72,1.72,0,0,0,.524.009" transform="translate(-191.408 -141.702)" fill="#f8fafb"/>
        <path id="Trazado_239445" data-name="Trazado 239445" d="M356.046,192.206q5.4,0,10.8.006a1.593,1.593,0,0,0,.947-.239,1.241,1.241,0,0,1-1.313,1.387c-3.28,0-6.56,0-9.84.007-.409,0-.687-.009-.5-.543a.786.786,0,0,0-.087-.619" transform="translate(-314.067 -169.339)" fill="#d0d4fd"/>
        <path id="Trazado_239446" data-name="Trazado 239446" d="M266.944,192.3q-2.027,0-4.055,0a2.2,2.2,0,0,1-.467-.032.318.318,0,0,1-.275-.332.3.3,0,0,1,.3-.294c.732-.079,1.463-.2,2.2-.23,1.512-.06,3-.345,4.5-.471a11.045,11.045,0,0,1,2.149-.138c.428.047.827.121.84.683a.754.754,0,0,1-.842.826c-1.449.014-2.9,0-4.349,0V192.3" transform="translate(-231.239 -168.287)" fill="#4993ed"/>
        <path id="Trazado_239447" data-name="Trazado 239447" d="M199.091,188.926c1.244.947,2.693.494,4.06.59.33.023.663,0,1,0-.071.176-.222.365-.2.527.1.672-.3.637-.762.634-1.464-.008-2.928.016-4.392.017-.592,0-.9-.435-1.273-.866a2.576,2.576,0,0,0,1.57-.9" transform="translate(-174.233 -166.651)" fill="#d0d4fd"/>
        <path id="Trazado_239448" data-name="Trazado 239448" d="M178.539,119.771a53.5,53.5,0,0,0,.116,5.649c-.117.007-.235.008-.351.022-.894.108-.893.109-.891-.813q.006-2.056.012-4.113c0-.927.185-1.049,1.114-.746" transform="translate(-156.495 -105.518)" fill="#d0d4fd"/>
        <path id="Trazado_239449" data-name="Trazado 239449" d="M287.146,216.867c.044,1.4.044,1.4-1.323,1.4h-.879c-.969,0-1.271-.444-.976-1.424l3.178.022" transform="translate(-250.392 -191.278)" fill="#8a8eca"/>
        <path id="Trazado_239450" data-name="Trazado 239450" d="M361.167,161.069c-.025,1.079-.4,1.465-1.374,1.438a.925.925,0,0,1-.9-.534.943.943,0,0,1,.13-1.041c.082-.108.167-.214.25-.321a6.988,6.988,0,0,1,1.528,0,.218.218,0,0,0,.248.237c.113.034.107.13.115.219" transform="translate(-316.492 -141.638)" fill="#f8fafb"/>
        <path id="Trazado_239451" data-name="Trazado 239451" d="M169.253,178.866c-.528,0-1.057.018-1.584-.009-.186-.01-.489.056-.514-.252-.028-.34.314-.35.5-.356.682-.019,1.359-.07,2.039-.125.351-.028.686-.128,1.037-.138.309-.008.587.069.6.407.011.318-.243.479-.55.488-.509.014-1.018,0-1.527,0,0-.006,0-.013,0-.02" transform="translate(-147.445 -157.001)" fill="#4993ed"/>
        <path id="Trazado_239452" data-name="Trazado 239452" d="M393.391,161.12c-.961,0-1.928.008-2.9,0-.308,0-.569-.2-.545-.495s.35-.152.533-.155a4.354,4.354,0,0,1,2.764.456c.054.038.164.028.144.2" transform="translate(-343.973 -141.515)" fill="#54c5fd"/>
        <path id="Trazado_239453" data-name="Trazado 239453" d="M287.96,213.482l-3.178-.022c.184-.426.59-.417.944-.436.62-.034,1.243,0,1.865-.016.364-.009.438.167.369.474" transform="translate(-251.205 -187.894)" fill="#677291"/>
        <path id="Trazado_239454" data-name="Trazado 239454" d="M322.6,216.946c0,.312.018.626,0,.937a.48.48,0,0,1-.557.47c-.344-.006-.264-.273-.269-.472-.008-.312,0-.625,0-.937l.826,0" transform="translate(-283.83 -191.365)" fill="#677291"/>
        <path id="Trazado_239455" data-name="Trazado 239455" d="M321.979,214.211l-.826,0c-.132-.158-.134-.318.091-.334.288-.021.665-.15.735.337" transform="translate(-283.207 -188.63)" fill="#54576d"/>
        <path id="Trazado_239456" data-name="Trazado 239456" d="M376.09,161.053a.218.218,0,0,1-.248-.237c.222-.066.232.089.248.237" transform="translate(-331.529 -141.841)" fill="#dfe8fd"/>
        <path id="Trazado_239457" data-name="Trazado 239457" d="M2.468,7.555c-.6,0-1.13.008-1.657,0-.621-.012-.8-.194-.806-.818S0,5.517,0,4.907c.006-.662.181-.84.836-.843,1.1-.005,2.2,0,3.406,0,0-.422,0-.8,0-1.187s.143-.671.57-.659c.4.012.517.3.518.653,0,.37,0,.74,0,1.151H7.922c0-1.007-.008-2,0-3C7.931.594,7.791,0,8.473,0s.544.594.549,1.024c.013.98,0,1.961,0,2.99h2.989V3.351c-.164-.018-.348.014-.457-.062a4.945,4.945,0,0,1-.576-.548c.194-.181.374-.5.584-.517a10.856,10.856,0,0,1,2.058,0,.829.829,0,0,1,.584.5c.092.366-.207.551-.568.583l-.435.037v.725h1.339c1.434,0,2.869,0,4.3,0,.636,0,.8.166.808.8s.009,1.258,0,1.886-.175.789-.817.8c-.393.007-.787.016-1.179,0-.323-.015-.476.1-.455.436.017.274,0,.55,0,.825,0,.487.093,1.014-.61,1.153-.092.018-.167.287-.193.448q-.49,3.024-.96,6.051a3.081,3.081,0,0,0-.018.471q0,7.87,0,15.74c0,.192.017.384.031.666,1.07-.108,2.1-.208,3.124-.317Q24.5,32.4,30.418,31.761q6.883-.74,13.766-1.486,3.487-.374,6.975-.73c.673-.069.853.094.86.774.009.806-.018,1.612.01,2.417.02.571-.224.813-.78.871-.855.089-.853.111-.853.966q0,8.7,0,17.39c0,1.027-.093,1.122-1.1,1.122H2.73c-1.061,0-1.235-.257-.816-1.234.705-1.642,1.429-3.276,2.123-4.923a2.557,2.557,0,0,0,.2-.964c.01-9.668.035-19.335-.02-29A32.024,32.024,0,0,0,3.6,12.535q-.155-1.048-.339-2.092c-.029-.167-.084-.449-.171-.467-.769-.161-.616-.748-.624-1.263-.006-.351,0-.7,0-1.159M14.29,17.03h-.7c-2.494.006-4.989.032-7.483,0-.6-.007-.757.161-.756.756q.027,13.76.015,27.519c0,.226.027.451.043.7h8.871V33.056H10.3c-.939,0-1.022-.078-1.022-1q0-4.537,0-9.075c0-1.062.062-1.118,1.15-1.116,1.273,0,2.546,0,3.865,0ZM50.87,30.775c-.212,0-.348-.012-.48,0q-4.129.433-8.257.872c-3.826.406-7.653.8-11.477,1.221-4.836.533-9.669,1.094-14.505,1.624-.453.05-.635.225-.6.664.015.215.005.432.006.648,0,.307.148.413.452.366q.726-.113,1.458-.187Q24.078,35.3,30.7,34.625q7.643-.794,15.284-1.606c1.444-.152,2.888-.3,4.328-.489.2-.025.511-.214.537-.367a8.63,8.63,0,0,0,.026-1.388M15.325,9.99H4.346c.315,1.911.61,3.749.939,5.58.023.128.3.283.464.3.507.045,1.02.03,1.531.033,2.22.011,4.44.028,6.66.015a.632.632,0,0,0,.492-.336c.316-1.836.594-3.68.891-5.589M35.737,51.869a2.245,2.245,0,0,0,.325.064c1.864,0,3.728-.005,5.592.012.428,0,.471-.22.468-.553-.016-2.472-.031-4.944-.028-7.416,0-.409-.135-.541-.545-.536-1.707.021-3.415.027-5.122,0-.48-.007-.65.129-.648.625.006,2.06-.026,4.12-.042,6.18,0,.543,0,1.087,0,1.621m-14.82.007a1,1,0,0,0,.22.067c1.9,0,3.808-.011,5.712,0,.418,0,.417-.246.416-.538-.011-2.473-.026-4.946-.023-7.419,0-.4-.126-.545-.541-.54-1.669.02-3.338.038-5.006-.008-.609-.017-.8.168-.753.757.034.426-.048.86-.048,1.291,0,1.649.014,3.3.021,4.947,0,.485,0,.97,0,1.443m-4.467.033a.716.716,0,0,0,0-.218c-.6-1.407-1.193-2.818-1.829-4.209a.78.78,0,0,0-.605-.29c-2.785-.009-5.571.011-8.356.012a.579.579,0,0,0-.63.388c-.557,1.319-1.14,2.626-1.708,3.941a1.857,1.857,0,0,0-.067.376Zm12.02-.029a2.133,2.133,0,0,0,.316.053c1.768.009,3.537,0,5.3.028.5.007.524-.262.521-.631-.021-2.436-.042-4.872-.044-7.308,0-.425-.122-.585-.571-.578q-2.475.036-4.951,0c-.469-.008-.6.141-.6.6.012,2.436-.007,4.871-.011,7.307,0,.172.024.343.038.529m20.733.055V43.448H48.52l-4,0c-1.132,0-1.181,0-1.2,1.123-.04,2.313-.029,4.627-.014,6.941,0,.141.213.4.329.4,1.84.026,3.681.018,5.567.018m.011-18.014c-.239,0-.375-.013-.509,0-1.578.176-3.153.388-4.734.519-.566.047-.685.293-.684.775q.006,3.266-.019,6.532c0,.4.116.547.534.54,1.333-.023,2.667-.007,4-.007h1.411ZM35.745,42.282c2.082,0,4.043,0,6,0,.322,0,.4-.152.4-.434q-.02-3.3-.026-6.6c0-.415-.147-.6-.6-.547-1.7.191-3.394.368-5.095.516-.535.047-.689.3-.684.791.016,1.629.007,3.259.008,4.889,0,.427,0,.854,0,1.378m-7.3-.054c.224.017.378.037.532.038,1.667.007,3.335,0,5,.026.488.009.644-.146.637-.635-.028-1.824-.014-3.649-.025-5.473a6.258,6.258,0,0,0-.086-.709c-1.953.2-3.843.382-5.73.6a.521.521,0,0,0-.315.391c-.021,1.9-.014,3.8-.014,5.765m-4.4.039c.9,0,1.806-.014,2.708.007.378.008.519-.116.516-.5-.015-1.629-.018-3.258,0-4.887.006-.522-.183-.679-.7-.614q-2.51.317-5.028.566c-.445.044-.615.225-.613.661q.011,2.149-.013,4.3c0,.353.125.485.482.478.883-.017,1.766-.006,2.649-.005M14.3,27.452c0-1.295-.01-2.59.006-3.884,0-.393-.107-.564-.531-.555-.921.019-1.844.006-2.765-.018-.441-.012-.618.125-.614.6q.031,3.884,0,7.768c0,.445.163.593.578.584.922-.02,1.844-.044,2.765-.026.445.008.574-.164.568-.587-.019-1.294-.007-2.589-.007-3.884m1.158,16.007c.141,1.332-.235,2.611.4,3.857.567,1.116,1.015,2.293,1.507,3.447.5,1.175.5,1.153,1.759,1.162.488,0,.6-.189.589-.623-.015-.665.028-1.332.026-2-.006-1.8-.015-3.606-.05-5.408,0-.148-.2-.415-.319-.418-1.268-.03-2.537-.019-3.91-.019m4.268-1.231c0-1.621,0-3.206,0-4.792,0-.371-.261-.371-.538-.341-1.093.117-2.186.24-3.281.334-.334.029-.435.169-.431.482.011.844,0,1.689,0,2.534,0,.582,0,1.164,0,1.784ZM18.4,6.41c.255-1.12.21-1.179-.793-1.182-1.395,0-2.789-.015-4.184-.011-3.909.013-7.818.035-11.728.045-.342,0-.484.1-.5.469-.022.477.119.647.624.646,4.5,0,9,.019,13.5.032,1.036,0,2.072,0,3.086,0m-2.345,1.2H3.637V8.76H16.053Z" transform="translate(0 0)"/>
        <path id="Trazado_239458" data-name="Trazado 239458" d="M179.022,122.752c0,.466.018.857,0,1.246a1.689,1.689,0,0,1-1.723,1.723q-2.032.051-4.065,0a1.7,1.7,0,0,1-1.734-1.778c-.015-.369,0-.739,0-1.188-.167-.009-.372-.03-.577-.03-2.318,0-4.635-.016-6.953.007a2.574,2.574,0,0,1-1.928-.714c-.155-.15-.338-.271-.491-.423a2.881,2.881,0,0,0-2.485-1.028A1.272,1.272,0,0,1,157.7,119.5a1.344,1.344,0,0,1,.785-1.6c.351-.16.377-.388.376-.7q-.009-2.593,0-5.185c0-1.048.376-1.418,1.42-1.428.236,0,.471,0,.707,0a1.188,1.188,0,0,1,1.36,1.028c.306,1.055.627,2.107.894,3.173a.692.692,0,0,0,.8.623c4.282-.015,8.563,0,12.845,0,3.26,0,6.521.006,9.781-.012a4.387,4.387,0,0,1,2.5.722c1.2.782,2.443,1.5,3.647,2.277a2.246,2.246,0,0,1,1.115,2.357,2.2,2.2,0,0,1-1.711,1.893,3.513,3.513,0,0,1-.876.074q-5.863.007-11.725,0c-.192,0-.384.016-.6.026m2.054-1.171a4.213,4.213,0,0,0,.43.046q4.919,0,9.839-.005a2.1,2.1,0,0,0,.8-.156,1.1,1.1,0,0,0,.557-1.613,3.6,3.6,0,0,0-2.549-1.5c-1.45-.068-2.906-.033-4.359-.011a1.612,1.612,0,0,1-1.674-.961c-.321-.772-.851-.9-1.615-.9-6.088.03-12.176.019-18.263.02-1.534,0-1.684-.115-2.092-1.569-.255-.907-.54-1.805-.766-2.719-.1-.4-.287-.564-.692-.517a6.281,6.281,0,0,1-.68,0v5.929c.81-.074,1.567-.157,2.327-.208a1.571,1.571,0,0,1,1.741,1.391,1.612,1.612,0,0,1-1.335,1.794c-.125.026-.246.07-.416.119a2.047,2.047,0,0,0,1.734.907c1.275-.04,2.553-.011,3.829-.011h.844c.208-1.439.556-1.755,1.952-1.883.938-.086,1.874-.2,2.812-.284,1.837-.173,3.674-.359,5.514-.5a1.9,1.9,0,0,1,2.105,2.259c-.014.112-.026.224-.042.361m-6.244-.089v.049q2.147,0,4.294,0c.473,0,.811-.178.821-.707.009-.455-.337-.716-.893-.7-.059,0-.117.008-.176.014-2.748.276-5.5.548-8.242.838a1.6,1.6,0,0,0-.508.269,1.56,1.56,0,0,0,.526.225c1.393.019,2.785.01,4.178.01m-.479,3.064h.352c1.212,0,1.2,0,1.1-1.2a.474.474,0,0,0-.56-.508c-.625.011-1.254-.035-1.873.024-.239.023-.632.244-.656.415-.116.853-.122,1.336.929,1.266.233-.015.469,0,.7,0m-15.395-5.513q0,.11,0,.22a2.145,2.145,0,0,0,.456.1c.957.01,1.915.025,2.87-.012.186-.007.364-.232.546-.357-.211-.114-.425-.329-.632-.323-.68.02-1.359.113-2.036.191-.4.046-.8.117-1.2.177m26.121-2.512-.095.155c.162.162.319.456.488.463.994.044,1.992.022,2.988.022-1.033-.93-2.244-.531-3.382-.64" transform="translate(-139.074 -97.549)"/>
        <path id="Trazado_239459" data-name="Trazado 239459" d="M334.105,166.5c-.078,0-.156,0-.235,0-.4-.008-.788-.071-.774-.581s.4-.554.8-.543c.176.005.352,0,.528,0,.37,0,.613.16.628.541s-.241.549-.6.575c-.117.008-.235,0-.352,0Z" transform="translate(-293.823 -145.877)"/>
        <path id="Trazado_239460" data-name="Trazado 239460" d="M308.3,165.3c.136,0,.309-.053.4.011.21.146.527.351.526.53s-.291.452-.512.541a2.056,2.056,0,0,1-.807.02c-.362-.015-.609-.194-.59-.574s.264-.541.633-.529c.117,0,.233,0,.35,0" transform="translate(-271.081 -145.79)"/>
        <path id="Trazado_239461" data-name="Trazado 239461" d="M282.221,165.309c.136,0,.309-.053.4.011a4.948,4.948,0,0,1,.57.529c-.182.187-.334.458-.555.538a1.329,1.329,0,0,1-.858,0c-.221-.083-.37-.358-.55-.548a5.207,5.207,0,0,1,.591-.515c.1-.062.265-.01.4-.01" transform="translate(-248.07 -145.8)"/>
        <path id="Trazado_239462" data-name="Trazado 239462" d="M256.592,165.318c.156,0,.352-.059.46.013.2.133.476.343.478.522s-.258.456-.461.53a1.382,1.382,0,0,1-.863.011.907.907,0,0,1-.549-.528c-.071-.36.206-.556.583-.553.117,0,.234,0,.352,0Z" transform="translate(-225.505 -145.806)"/>
        <path id="Trazado_239463" data-name="Trazado 239463" d="M230.568,165.368c.176,0,.4-.066.519.015a.908.908,0,0,1,.418.532.642.642,0,0,1-.375.49,2.974,2.974,0,0,1-.932.053c-.357-.008-.621-.164-.61-.562s.253-.55.626-.542c.118,0,.236,0,.353,0v.013" transform="translate(-202.519 -145.848)"/>
      </g>
    </g>
  </g>
</svg>
