<svg xmlns="http://www.w3.org/2000/svg" width="420" height="64.528" viewBox="0 0 420 64.528">
  <g id="Grupo_242664" data-name="Grupo 242664" transform="translate(-180 -2289.14)">
    <g id="Grupo_240778" data-name="Grupo 240778" transform="translate(180 2289.14)">
      <rect id="Rect치ngulo_687" data-name="Rect치ngulo 687" width="409.612" height="64.528" rx="5" transform="translate(10.388 0)" fill="#f4f9ff"/>
      <text id="Audio._Proceso_productivo" data-name="Audio. Proceso productivo" transform="translate(55.557 12.368)" fill="#006df0" font-size="14" font-family="Roboto-Bold, Roboto" font-weight="700"><tspan x="0" y="13">Audio. </tspan><tspan y="13" font-family="Roboto-Regular, Roboto" font-weight="400">Proceso productivo</tspan></text>
      <rect id="Rect치ngulo_4788" data-name="Rect치ngulo 4788" width="49" height="48" transform="translate(0 0.077)" fill="#006df0"/>
      <g id="Grupo_55023" data-name="Grupo 55023" transform="translate(9 10)">
        <path id="Trazado_104729" data-name="Trazado 104729" d="M1149.789,672.019a15.005,15.005,0,1,1,15.005-14.989A15.011,15.011,0,0,1,1149.789,672.019Zm7.469-16.418c-.8,0-1.563,0-2.321,0a.928.928,0,0,0-1,.954q-.018,3.235,0,6.47a.909.909,0,0,0,.986.956c.493.007.988-.021,1.48.006a2.636,2.636,0,0,0,2.761-2.681c.007-1.845.061-3.694-.016-5.536a8.943,8.943,0,0,0-4.634-7.693,9.444,9.444,0,0,0-5.42-1.183,9.032,9.032,0,0,0-8.552,7.823,57.961,57.961,0,0,0-.1,6.846,2.543,2.543,0,0,0,2.7,2.424c.482-.023.966,0,1.448,0a.943.943,0,0,0,1.055-1.055q.008-3.139,0-6.277a.96.96,0,0,0-1.066-1.051c-.737,0-1.473,0-2.211,0a6.9,6.9,0,0,1,3.4-5.717,7.507,7.507,0,0,1,8.094.04A6.987,6.987,0,0,1,1157.259,655.6Z" transform="translate(-1134.785 -642.009)" fill="#fff"/>
      </g>
    </g>
  </g>
</svg>
