<svg xmlns="http://www.w3.org/2000/svg" xmlns:xlink="http://www.w3.org/1999/xlink" width="190" height="264.305" viewBox="0 0 190 264.305">
  <defs>
    <clipPath id="clip-path">
      <rect id="Rectángulo_315227" data-name="Rectángulo 315227" width="176.052" height="263.805" fill="none"/>
    </clipPath>
    <clipPath id="clip-path-4">
      <rect id="Rectángulo_315220" data-name="Rectángulo 315220" width="42.595" height="41.996" fill="#b3009d"/>
    </clipPath>
    <clipPath id="clip-path-5">
      <rect id="Rectángulo_315221" data-name="Rectángulo 315221" width="23.054" height="20.88" fill="#b3009d"/>
    </clipPath>
    <clipPath id="clip-path-6">
      <rect id="Rectángulo_315222" data-name="Rectángulo 315222" width="16.839" height="30.582" fill="none"/>
    </clipPath>
    <clipPath id="clip-path-7">
      <rect id="Rectángulo_315223" data-name="Rectángulo 315223" width="35.025" height="14.594" fill="none"/>
    </clipPath>
    <clipPath id="clip-path-8">
      <rect id="Rectángulo_315224" data-name="Rectángulo 315224" width="34.592" height="44.02" fill="none"/>
    </clipPath>
    <clipPath id="clip-path-9">
      <rect id="Rectángulo_315225" data-name="Rectángulo 315225" width="3.224" height="28.234" fill="none"/>
    </clipPath>
  </defs>
  <g id="Grupo_242679" data-name="Grupo 242679" transform="translate(-560 -2902)">
    <g id="Grupo_242677" data-name="Grupo 242677" transform="translate(85)">
      <g id="Grupo_240903" data-name="Grupo 240903" transform="translate(475 2902)">
        <g id="Grupo_240902" data-name="Grupo 240902" clip-path="url(#clip-path)">
          <rect id="Rectángulo_315199" data-name="Rectángulo 315199" width="2.397" height="120.437" transform="translate(0 53.528)" fill="#263238"/>
          <rect id="Rectángulo_315200" data-name="Rectángulo 315200" width="2.029" height="120.438" transform="translate(4.338 53.528)" fill="#263238"/>
          <rect id="Rectángulo_315201" data-name="Rectángulo 315201" width="7.451" height="99.555" transform="translate(8.717 53.528)" fill="#263238"/>
          <rect id="Rectángulo_315202" data-name="Rectángulo 315202" width="1.838" height="99.555" transform="translate(18.062 53.528)" fill="#263238"/>
          <rect id="Rectángulo_315203" data-name="Rectángulo 315203" width="1.838" height="99.555" transform="translate(24.095 53.528)" fill="#263238"/>
          <rect id="Rectángulo_315204" data-name="Rectángulo 315204" width="1.838" height="99.555" transform="translate(31.967 53.528)" fill="#263238"/>
          <rect id="Rectángulo_315205" data-name="Rectángulo 315205" width="1.838" height="99.555" transform="translate(38.522 53.528)" fill="#263238"/>
          <rect id="Rectángulo_315206" data-name="Rectángulo 315206" width="1.838" height="99.555" transform="translate(59.918 53.528)" fill="#263238"/>
          <rect id="Rectángulo_315207" data-name="Rectángulo 315207" width="3.966" height="116.829" transform="translate(91.394 53.528)" fill="#263238"/>
          <rect id="Rectángulo_315208" data-name="Rectángulo 315208" width="1.838" height="99.555" transform="translate(112.802 53.528)" fill="#263238"/>
          <rect id="Rectángulo_315209" data-name="Rectángulo 315209" width="1.838" height="99.555" transform="translate(120.811 53.528)" fill="#263238"/>
          <rect id="Rectángulo_315210" data-name="Rectángulo 315210" width="4.5" height="122.537" transform="translate(126.911 53.368)" fill="#263238"/>
          <rect id="Rectángulo_315211" data-name="Rectángulo 315211" width="1.838" height="99.555" transform="translate(77.599 53.528)" fill="#263238"/>
          <rect id="Rectángulo_315212" data-name="Rectángulo 315212" width="3.765" height="99.555" transform="translate(49.994 53.528)" fill="#263238"/>
          <rect id="Rectángulo_315213" data-name="Rectángulo 315213" width="3.764" height="99.555" transform="translate(65.596 53.528)" fill="#263238"/>
          <rect id="Rectángulo_315214" data-name="Rectángulo 315214" width="3.765" height="99.555" transform="translate(71.539 53.528)" fill="#263238"/>
          <rect id="Rectángulo_315215" data-name="Rectángulo 315215" width="3.765" height="99.555" transform="translate(99.651 53.528)" fill="#263238"/>
          <rect id="Rectángulo_315216" data-name="Rectángulo 315216" width="3.765" height="99.555" transform="translate(105.344 53.528)" fill="#263238"/>
          <rect id="Rectángulo_315217" data-name="Rectángulo 315217" width="7.075" height="99.555" transform="translate(81.791 53.528)" fill="#263238"/>
          <rect id="Rectángulo_315218" data-name="Rectángulo 315218" width="5.802" height="99.555" transform="translate(42.169 53.528)" fill="#263238"/>
          <path id="Trazado_239546" data-name="Trazado 239546" d="M28.834,249.843v21.335H27.149V251.794h-3.86v-1.951Z" transform="translate(-11.945 -91.316)" fill="#263238"/>
          <g id="Grupo_240881" data-name="Grupo 240881">
            <g id="Grupo_240880" data-name="Grupo 240880" clip-path="url(#clip-path)">
              <path id="Trazado_239547" data-name="Trazado 239547" d="M54.351,261.9a6.016,6.016,0,0,1,.831,3.231,6.568,6.568,0,0,1-.772,3.246,5.223,5.223,0,0,1-2.211,2.133,7.241,7.241,0,0,1-3.381.747,6.343,6.343,0,0,1-4.632-1.646,5.974,5.974,0,0,1-1.685-4.48,6.136,6.136,0,0,1,.808-3.247,4.99,4.99,0,0,1,2.351-2,4.38,4.38,0,0,1-1.919-1.844,5.875,5.875,0,0,1-.655-2.85,5.5,5.5,0,0,1,1.556-4.114,5.712,5.712,0,0,1,4.176-1.524,6.4,6.4,0,0,1,3.03.686,4.926,4.926,0,0,1,2.024,1.966,5.959,5.959,0,0,1,.725,2.987,5.715,5.715,0,0,1-.679,2.85,4.523,4.523,0,0,1-1.942,1.844,5.1,5.1,0,0,1,2.375,2.011m-2.129,6.339a4.107,4.107,0,0,0,1.228-3.139,4.057,4.057,0,0,0-1.228-3.124,4.8,4.8,0,0,0-3.4-1.143,4.768,4.768,0,0,0-3.38,1.143,4.059,4.059,0,0,0-1.228,3.124,4.116,4.116,0,0,0,1.216,3.154,4.758,4.758,0,0,0,3.393,1.143,4.764,4.764,0,0,0,3.4-1.158m-6.376-10.18a4.1,4.1,0,0,0,2.971,1.037,4.146,4.146,0,0,0,2.983-1.037,3.648,3.648,0,0,0,1.088-2.773,3.689,3.689,0,0,0-1.111-2.835,4.17,4.17,0,0,0-2.96-1.036,4.116,4.116,0,0,0-2.96,1.036,4.175,4.175,0,0,0-.012,5.608" transform="translate(-21.799 -91.21)" fill="#263238"/>
              <path id="Trazado_239548" data-name="Trazado 239548" d="M82.905,252.344q1.731,2.789,1.732,7.879a17.1,17.1,0,0,1-.936,6.035,8.1,8.1,0,0,1-2.621,3.733,6.363,6.363,0,0,1-3.93,1.265,6.047,6.047,0,0,1-3.884-1.158l.679-1.768a4.717,4.717,0,0,0,3.182,1.006,4.9,4.9,0,0,0,4.258-2.24,11.436,11.436,0,0,0,1.544-6.507q0-.792-.07-1.737a5.426,5.426,0,0,1-1.942,2.7,5.111,5.111,0,0,1-3.065.961,5.239,5.239,0,0,1-2.866-.793,5.325,5.325,0,0,1-1.954-2.24,7.631,7.631,0,0,1-.7-3.367,7.786,7.786,0,0,1,.725-3.444,5.477,5.477,0,0,1,2-2.3,5.246,5.246,0,0,1,2.866-.808,5.531,5.531,0,0,1,4.983,2.789m-2.609,7.7a4.183,4.183,0,0,0,1.486-1.677,5.2,5.2,0,0,0,.538-2.377,5.1,5.1,0,0,0-.5-2.255,4.113,4.113,0,0,0-1.486-1.676,4.188,4.188,0,0,0-2.339-.64,3.666,3.666,0,0,0-2.889,1.265,4.918,4.918,0,0,0-1.112,3.368A4.858,4.858,0,0,0,75.1,259.4a3.817,3.817,0,0,0,3.006,1.249,3.951,3.951,0,0,0,2.188-.609" transform="translate(-37.099 -91.21)" fill="#263238"/>
              <path id="Trazado_239549" data-name="Trazado 239549" d="M105.974,249.843v21.335H104.29V251.794h-3.861v-1.951Z" transform="translate(-51.511 -91.316)" fill="#263238"/>
              <path id="Trazado_239550" data-name="Trazado 239550" d="M128.582,260.251a6.363,6.363,0,0,1,1.626,4.648,7.934,7.934,0,0,1-.666,3.322,5.2,5.2,0,0,1-2,2.3,6.038,6.038,0,0,1-3.276.838,7.7,7.7,0,0,1-3.334-.747,6.787,6.787,0,0,1-2.538-2l.819-1.737a6.127,6.127,0,0,0,2.152,1.783,6.2,6.2,0,0,0,2.878.686,4.1,4.1,0,0,0,3.147-1.188,4.455,4.455,0,0,0,1.112-3.17,4.244,4.244,0,0,0-1.252-3.322q-1.252-1.127-4.223-1.127h-3.486l.843-10.7h8.961v1.95h-7.488l-.561,6.8H123.4q3.556,0,5.182,1.661" transform="translate(-60.725 -91.316)" fill="#263238"/>
              <path id="Trazado_239551" data-name="Trazado 239551" d="M150.168,269.944a8.531,8.531,0,0,1-2.316-3.763,20.486,20.486,0,0,1,0-11.551,8.544,8.544,0,0,1,2.316-3.765,5.016,5.016,0,0,1,6.761,0,8.633,8.633,0,0,1,2.328,3.765,20.226,20.226,0,0,1,0,11.551,8.621,8.621,0,0,1-2.328,3.763,5.015,5.015,0,0,1-6.761,0m5.9-1.737a6.858,6.858,0,0,0,1.7-3.017,19.12,19.12,0,0,0,0-9.57,6.864,6.864,0,0,0-1.7-3.018,3.571,3.571,0,0,0-5.03,0,6.865,6.865,0,0,0-1.7,3.018,19.135,19.135,0,0,0,0,9.57,6.859,6.859,0,0,0,1.7,3.017,3.569,3.569,0,0,0,5.03,0" transform="translate(-75.408 -91.21)" fill="#263238"/>
              <path id="Trazado_239552" data-name="Trazado 239552" d="M215.991,249.486v1.478l-6.516,18.8h-1.735l6.4-18.425h-8.006v3.8H204.56v-5.65Z" transform="translate(-104.921 -91.185)" fill="#263238"/>
              <path id="Trazado_239553" data-name="Trazado 239553" d="M242.2,267.812v1.854H231.28v-1.477l6.472-8.257a10.984,10.984,0,0,0,1.657-2.709,6.443,6.443,0,0,0,.434-2.3,3.908,3.908,0,0,0-.945-2.8,3.541,3.541,0,0,0-2.7-1,4.825,4.825,0,0,0-4.248,2.26l-1.134-1.275a6.288,6.288,0,0,1,2.324-2.144,6.674,6.674,0,0,1,3.191-.753,4.954,4.954,0,0,1,3.77,1.463,5.591,5.591,0,0,1,1.39,4.013,8.636,8.636,0,0,1-.534,3.013,12.75,12.75,0,0,1-2.023,3.332l-5.293,6.779Z" transform="translate(-118.386 -91.085)" fill="#263238"/>
            </g>
          </g>
          <path id="Trazado_239554" data-name="Trazado 239554" d="M186.378,108.077l-9.726,14.311,13.238,6.569,9.816-15.6Z" transform="translate(-90.606 -39.501)" fill="#ff725e"/>
          <g id="Grupo_240901" data-name="Grupo 240901">
            <g id="Grupo_240900" data-name="Grupo 240900" clip-path="url(#clip-path)">
              <path id="Trazado_239555" data-name="Trazado 239555" d="M213.645,116.4s28.1,38.007,27.826,38.242-8.284,12.787-8.284,12.787L203.829,132Z" transform="translate(-104.546 -42.542)" fill="#b3009d"/>
              <path id="Trazado_239556" data-name="Trazado 239556" d="M176.652,130.632l28.006,35.074,14.588,6.921L189.89,137.2Z" transform="translate(-90.606 -47.745)" fill="#ff725e"/>
              <g id="Grupo_240884" data-name="Grupo 240884" transform="translate(86.046 82.887)" opacity="0.3">
                <g id="Grupo_240883" data-name="Grupo 240883">
                  <g id="Grupo_240882" data-name="Grupo 240882" clip-path="url(#clip-path-4)">
                    <path id="Trazado_239557" data-name="Trazado 239557" d="M176.652,130.632l28.006,35.074,14.588,6.921L189.89,137.2Z" transform="translate(-176.652 -130.632)" fill="#b3009d"/>
                  </g>
                </g>
              </g>
              <g id="Grupo_240887" data-name="Grupo 240887" transform="translate(86.046 68.576)" opacity="0.3">
                <g id="Grupo_240886" data-name="Grupo 240886">
                  <g id="Grupo_240885" data-name="Grupo 240885" clip-path="url(#clip-path-5)">
                    <path id="Trazado_239558" data-name="Trazado 239558" d="M186.378,108.077l-9.726,14.311,13.238,6.569,9.816-15.6Z" transform="translate(-176.652 -108.077)" fill="#b3009d"/>
                  </g>
                </g>
              </g>
              <path id="Trazado_239559" data-name="Trazado 239559" d="M240.063,145.865s3.2.157,3.566.63,3.2,7.953,3.2,7.953l.967.788.274,11.129-8.519.973-2.871,2.227-2.831-.333a1.15,1.15,0,0,1-.938-1.134l-.227-2.388a1.121,1.121,0,0,1,1.459.733l.107.515,1.57.15,1.677-1.614.109-.855-5.467.475-2.26-2.089s.965-1.577,1.937-.923a5.4,5.4,0,0,1,.746.473l4.569-1.4-8.816.111s-.16-2.357,1.745-2.433c1.35-.054,4.775-.527,4.775-.527s2.624-.285,2.734-1.424-7.4-3.751-7.763-4.985.073-2.469,1.822-1.756,6.779,3.513,8.2,3.37a3.715,3.715,0,0,0,2.77-2.516,12.882,12.882,0,0,0-.729-2.991,1.979,1.979,0,0,1-1.811-2.156" transform="translate(-117.105 -53.313)" fill="#ffc09d"/>
              <path id="Trazado_239560" data-name="Trazado 239560" d="M200.658,110.543c-.128-.051-3.866,5.491-3.866,5.491l2.871,1.145,4.045-5.428Z" transform="translate(-100.936 -40.402)" fill="#fff"/>
              <path id="Trazado_239561" data-name="Trazado 239561" d="M186.906,126.041c-.052-.061,2.194-3.413,5.017-7.486s5.154-7.326,5.206-7.264-2.194,3.412-5.018,7.486-5.153,7.325-5.205,7.264" transform="translate(-95.865 -40.675)" fill="#263238"/>
              <path id="Trazado_239562" data-name="Trazado 239562" d="M216.07,170.477c-.047.067-6.615-7.664-14.667-17.267s-14.545-17.445-14.5-17.512,6.614,7.662,14.669,17.268,14.543,17.443,14.5,17.511" transform="translate(-95.865 -49.597)" fill="#263238"/>
              <path id="Trazado_239563" data-name="Trazado 239563" d="M274.142,110.975l1.262,1.878c.091,9.28,7.349,22.219,7.349,22.219l3.818-21.05-1.388-8.035-4.164-.627-1.639-2.848Z" transform="translate(-140.61 -37.467)" fill="#455a64"/>
              <path id="Trazado_239564" data-name="Trazado 239564" d="M254.479,83.928c-1.505.585-3.724,3.579-5.649,6.37-.924,1.341-.418,3.682.56,4.957l1.25,1.629a2.418,2.418,0,0,0,1.553.973,2.2,2.2,0,0,0,1.918-.725l.869-.909a2.206,2.206,0,0,1,3.595.421l3.62,5.428a2.224,2.224,0,0,0,3.828.145l.017-.022a4.183,4.183,0,0,0,.157-4.509l-8.08-12.945a2.831,2.831,0,0,0-.772-.838c-.586-.406-1.455-.523-2.865.024" transform="translate(-127.377 -30.539)" fill="#00cca7"/>
              <path id="Trazado_239565" data-name="Trazado 239565" d="M260.373,103.245a7.7,7.7,0,0,0,1.283,1.105,2.264,2.264,0,0,0-.027,2.2,2.766,2.766,0,0,0,1.651,1.031s-.122,1.824,1.338,2.272,5.529-.329,5.673-.813.5-1.8-.448-2.1a8.683,8.683,0,0,0-2.218-.292,2,2,0,0,0,.784-2.947c-.524-.924-2.875-.01-2.875-.01l-1.759.261s1.61-1.477.355-2.966a.836.836,0,0,0-1.47,0Z" transform="translate(-133.547 -36.748)" fill="#ffc09d"/>
              <path id="Trazado_239566" data-name="Trazado 239566" d="M273.806,95.607s-1.423-.238-1.094-1.378a14.517,14.517,0,0,1,1.9-3.612c.511-.666,1.094-.9,1.532-.666a5.741,5.741,0,0,1,2.189,3.422,16.108,16.108,0,0,1,.292,4.515,9.55,9.55,0,0,1-.431,1.282l-2.507-4.016s-1.278.673-1.878.453" transform="translate(-139.851 -32.844)" fill="#ffc09d"/>
              <path id="Trazado_239567" data-name="Trazado 239567" d="M256.356,98.1a5.853,5.853,0,0,1,.214-1l0,.029a2.529,2.529,0,0,0-.244-1.021,8.655,8.655,0,0,0-.761-1.058l-1.994-2.628a1.655,1.655,0,0,0-1.93-.543,2.292,2.292,0,0,0-.792.593l-.654.673-.936,1c-.223.237-.335.368-.344.364a6.7,6.7,0,0,1,1.164-1.539c.192-.22.405-.459.639-.708a2.5,2.5,0,0,1,.85-.667,1.829,1.829,0,0,1,2.174.588c.744.973,1.4,1.885,1.98,2.674a7.987,7.987,0,0,1,.758,1.136,2.676,2.676,0,0,1,.218,1.141v.018l0,.011a5.392,5.392,0,0,1-.334.944" transform="translate(-127.667 -33.42)" fill="#263238"/>
              <path id="Trazado_239568" data-name="Trazado 239568" d="M267.994,95.357a6.8,6.8,0,0,1-1.185,1.854,5.5,5.5,0,0,1-1.472,1.463,12,12,0,0,1,1.3-1.7,11.384,11.384,0,0,1,1.36-1.615" transform="translate(-136.092 -34.851)" fill="#263238"/>
              <path id="Trazado_239569" data-name="Trazado 239569" d="M265.761,105.707a3.327,3.327,0,0,1-1.371.447,3.116,3.116,0,0,1-1.411.121,3.333,3.333,0,0,1,1.372-.448,3.108,3.108,0,0,1,1.411-.121" transform="translate(-134.884 -38.619)" fill="#ff9b6c"/>
              <path id="Trazado_239570" data-name="Trazado 239570" d="M271.1,109.918a5.835,5.835,0,0,1-2.334,1.018,5.206,5.206,0,0,1-2.458.176c0-.1,1.093-.168,2.411-.5s2.356-.785,2.382-.694" transform="translate(-136.591 -40.17)" fill="#ff9b6c"/>
              <path id="Trazado_239571" data-name="Trazado 239571" d="M279.672,94.133a2.486,2.486,0,0,1-.318,1.7c-.44.851-1.087,1.093-1.1,1.006a9.745,9.745,0,0,0,.888-1.192,12.23,12.23,0,0,0,.527-1.512" transform="translate(-142.72 -34.405)" fill="#ff9b6c"/>
              <path id="Trazado_239572" data-name="Trazado 239572" d="M250.761,96.994s1.848,3.382,2.675,3.447c.581.046,1.461-1.3,1.934-2.108a1,1,0,0,0-.066-1.081l-2-2.527-.467-.162Z" transform="translate(-128.617 -34.562)" fill="#263238"/>
              <g id="Grupo_240890" data-name="Grupo 240890" transform="translate(110.039 60.001)" opacity="0.6">
                <g id="Grupo_240889" data-name="Grupo 240889">
                  <g id="Grupo_240888" data-name="Grupo 240888" clip-path="url(#clip-path-6)">
                    <path id="Trazado_239573" data-name="Trazado 239573" d="M238.111,96.894l-12.2,12.8,11.383,15.456,5.4-26.973a1.019,1.019,0,0,0-.079-.846l-2.059-2.6-.467-.162Z" transform="translate(-225.911 -94.563)" fill="#fff"/>
                  </g>
                </g>
              </g>
              <path id="Trazado_239574" data-name="Trazado 239574" d="M323.028,22.219,321.68,51.708c-.229,5.015-1.352,12.32-7.422,11.486-5.225-1.241-6.263-7.865-6.045-12.545.1-2.22.186-4.071.185-4.3,0,0-5.73-1.154-5.807-8.615-.037-3.607.351-11.042.762-17.764.442-7.219,5.071-12.782,10.63-12.789h.553c5.961.446,9,7.289,8.492,15.038" transform="translate(-155.2 -2.625)" fill="#ffc09d"/>
              <path id="Trazado_239575" data-name="Trazado 239575" d="M314.434,67.252a11.442,11.442,0,0,0,7.457-2.882s-1.815,5.453-7.532,4.788Z" transform="translate(-161.237 -23.527)" fill="#ff9b6c"/>
              <path id="Trazado_239576" data-name="Trazado 239576" d="M323.783,32.9c.1.161.8-.467,1.756-.411.955.037,1.634.732,1.743.582.053-.067-.05-.352-.345-.666a2.1,2.1,0,0,0-1.389-.657,1.948,1.948,0,0,0-1.4.52c-.3.285-.414.559-.361.631" transform="translate(-166.065 -11.605)" fill="#263238"/>
              <path id="Trazado_239577" data-name="Trazado 239577" d="M323.017,38.736a.93.93,0,0,0,.747,1.016.841.841,0,0,0,.8-.91.93.93,0,0,0-.746-1.016.841.841,0,0,0-.8.911" transform="translate(-165.678 -13.824)" fill="#263238"/>
              <path id="Trazado_239578" data-name="Trazado 239578" d="M315.547,41.333a4.65,4.65,0,0,0-1.43-.334c-.225-.03-.437-.088-.475-.287a1.875,1.875,0,0,1,.149-.868l.663-2.231a47.112,47.112,0,0,0,1.489-5.834,45.031,45.031,0,0,0-1.846,5.665q-.332,1.174-.635,2.244a2.159,2.159,0,0,0-.116,1.15.645.645,0,0,0,.37.428,1.206,1.206,0,0,0,.382.069,4.4,4.4,0,0,0,1.449,0" transform="translate(-160.696 -11.614)" fill="#263238"/>
              <path id="Trazado_239579" data-name="Trazado 239579" d="M323.762,26.791c.1.273.859.037,1.777.066.918,0,1.677.265,1.777-.005.044-.129-.1-.378-.42-.613a2.391,2.391,0,0,0-1.353-.444,2.339,2.339,0,0,0-1.356.4c-.319.224-.469.468-.426.6" transform="translate(-166.057 -9.428)" fill="#e0e0e0"/>
              <path id="Trazado_239580" data-name="Trazado 239580" d="M305.955,27.632c.088.234.846.055,1.75.1.906.027,1.644.269,1.753.043.048-.108-.09-.324-.395-.531a2.676,2.676,0,0,0-2.668-.112c-.322.182-.478.385-.44.5" transform="translate(-156.924 -9.807)" fill="#e0e0e0"/>
              <path id="Trazado_239581" data-name="Trazado 239581" d="M343.37,39.455c.1-.055,3.935-1.521,3.814,3.581s-4.028,3.891-4.032,3.744.218-7.325.218-7.325" transform="translate(-176.005 -14.334)" fill="#ffc09d"/>
              <path id="Trazado_239582" data-name="Trazado 239582" d="M345.7,45.857c.018-.016.067.065.18.138a.54.54,0,0,0,.51.034,2.377,2.377,0,0,0,.828-1.942,3.749,3.749,0,0,0-.161-1.28c-.111-.378-.29-.647-.5-.7a.327.327,0,0,0-.408.227c-.056.141-.034.243-.055.251s-.082-.089-.045-.3a.6.6,0,0,1,.162-.313.427.427,0,0,1,.38-.115c.3.039.565.412.694.82a3.825,3.825,0,0,1,.2,1.432c-.05,1.027-.476,1.973-1.048,2.163a.6.6,0,0,1-.621-.161c-.118-.131-.136-.246-.123-.254" transform="translate(-177.309 -15.296)" fill="#ff9b6c"/>
              <path id="Trazado_239583" data-name="Trazado 239583" d="M325.881,17.373a31.423,31.423,0,0,1-1.12-6.072c-.334-2.044-1.076-4.2-2.544-5.039l-.035.016a3.315,3.315,0,0,0-4.16.117A6.776,6.776,0,0,0,314.286.6a10.307,10.307,0,0,0-7.1.061c-1.511.632-3.018,2.077-4.873,4.233a23.56,23.56,0,0,0-2.166,2.959l-2.106,6.768,1.275,3.772c.074.256.152.511.249.766l0-.016.907,7.783c.2-2.081.485-9.356.684-11.436a7.919,7.919,0,0,0,6.583-3.235c.945-1.181,1.721-2.7,2.934-3.344,1.564-.831,3.324.046,4.876.915l-.063-.086a8.035,8.035,0,0,1,2.091,2.28,37.606,37.606,0,0,0,.285,12.343c.116.607.456,1.865.89,2.131.852.524,1.153-.617,1.715-1.186a1.882,1.882,0,0,1,1.623-.362c.44-1.234.94-3.336,1.364-5.178a2.816,2.816,0,0,0,1.631.3q-.208-.81-.417-1.62a1.791,1.791,0,0,0,.679.48.569.569,0,0,0,.686-.315,1.7,1.7,0,0,0-.156-1.236" transform="translate(-152.869 0)" fill="#e0e0e0"/>
              <path id="Trazado_239584" data-name="Trazado 239584" d="M335.284,11.155a5.941,5.941,0,0,1,.534.734,6.355,6.355,0,0,1,.738,2.546,12.241,12.241,0,0,1,.041,1.9c-.035.683-.118,1.411-.2,2.178s-.168,1.578-.177,2.429a11.1,11.1,0,0,0,.057,1.3,3.249,3.249,0,0,0,.333,1.282.784.784,0,0,0,.784.428,1.186,1.186,0,0,0,.753-.464,4.458,4.458,0,0,0,.653-1.835l-.12.008a7.137,7.137,0,0,0,.607,1.619,1.724,1.724,0,0,0,1.064.89.865.865,0,0,0,.595-.079,1.073,1.073,0,0,0,.427-.475,1.558,1.558,0,0,0,.157-.647,1.116,1.116,0,0,0-.151-.594l-.064.064a4.157,4.157,0,0,0,1.157,1.311,3.049,3.049,0,0,0,.369.227.518.518,0,0,0,.133.056.682.682,0,0,0-.125-.083c-.082-.053-.2-.131-.356-.25a4.368,4.368,0,0,1-1.114-1.324l-.064.065a1.194,1.194,0,0,1-.023,1.106.96.96,0,0,1-.386.419.782.782,0,0,1-.539.063,1.627,1.627,0,0,1-.987-.843A7.059,7.059,0,0,1,338.8,21.6l-.069-.246-.052.253a4.319,4.319,0,0,1-.623,1.754,1.069,1.069,0,0,1-.674.415.661.661,0,0,1-.666-.362,3.078,3.078,0,0,1-.307-1.2,11.046,11.046,0,0,1-.058-1.269c.007-.837.091-1.643.168-2.41s.158-1.5.189-2.191a12.117,12.117,0,0,0-.058-1.926,6.2,6.2,0,0,0-.79-2.569,2.644,2.644,0,0,0-.575-.693" transform="translate(-171.97 -4.077)" fill="#fff"/>
              <path id="Trazado_239585" data-name="Trazado 239585" d="M298.292,14.14a.242.242,0,0,0,.043.055l.135.148a2.043,2.043,0,0,0,.23.224,3.043,3.043,0,0,0,.334.27,4.2,4.2,0,0,0,2.406.8,5.412,5.412,0,0,0,3.529-1.331,13.417,13.417,0,0,0,3.2-4.157c.464-.86.852-1.749,1.272-2.565a9.654,9.654,0,0,1,1.4-2.139A3.669,3.669,0,0,1,312.549,4.3a2.153,2.153,0,0,1,.872-.049,2.523,2.523,0,0,1,.782.273,3.473,3.473,0,0,1,1.136,1.042,4.564,4.564,0,0,1,.583,1.147,6.483,6.483,0,0,1,.232,1.14.348.348,0,0,0,0-.078c0-.062-.009-.138-.015-.23a4.688,4.688,0,0,0-.17-.858,4.565,4.565,0,0,0-.575-1.186,3.557,3.557,0,0,0-1.154-1.091,2.607,2.607,0,0,0-.805-.293,2.229,2.229,0,0,0-.907.041,3.745,3.745,0,0,0-1.77,1.162,9.708,9.708,0,0,0-1.427,2.167c-.424.821-.813,1.708-1.273,2.56a13.446,13.446,0,0,1-3.153,4.12,5.4,5.4,0,0,1-3.463,1.345,4.226,4.226,0,0,1-2.382-.737,8.29,8.29,0,0,1-.766-.638" transform="translate(-152.996 -1.496)" fill="#fff"/>
              <path id="Trazado_239586" data-name="Trazado 239586" d="M305.876,32.355c.1.161.8-.467,1.756-.411.955.037,1.634.733,1.743.582.053-.067-.05-.352-.345-.666a2.1,2.1,0,0,0-1.389-.657,1.951,1.951,0,0,0-1.4.52c-.3.285-.413.559-.361.631" transform="translate(-156.88 -11.404)" fill="#263238"/>
              <path id="Trazado_239587" data-name="Trazado 239587" d="M307.016,38.363a.929.929,0,0,0,.747,1.016.841.841,0,0,0,.8-.91.93.93,0,0,0-.746-1.016.841.841,0,0,0-.8.911" transform="translate(-157.471 -13.688)" fill="#263238"/>
              <path id="Trazado_239588" data-name="Trazado 239588" d="M297.905,11.1c-.523.8-1.3,1.5-2.1,1.326a5.172,5.172,0,0,1-.835-.391c-.289.2-.281,1.449-.1,1.806a6.469,6.469,0,0,0,.562.854c-.967.584-1.806.194-2.783-.359a6.723,6.723,0,0,0,2.677,5.343,1.38,1.38,0,0,0,1.572.161,2.74,2.74,0,0,0,.765-1.545,35.6,35.6,0,0,0,1.012-6.773Z" transform="translate(-150.101 -4.057)" fill="#e0e0e0"/>
              <path id="Trazado_239589" data-name="Trazado 239589" d="M317.232,51.742c-.008.043.21.164.587.161a1.986,1.986,0,0,0,1.37-.631,3.2,3.2,0,0,0,.8-1.579,1.459,1.459,0,0,0,.022-.781,4.111,4.111,0,0,0-.209.7,3.493,3.493,0,0,1-.786,1.374,2.325,2.325,0,0,1-1.214.662c-.342.066-.565.039-.572.095" transform="translate(-162.711 -17.877)" fill="#263238"/>
              <path id="Trazado_239590" data-name="Trazado 239590" d="M301.043,368.5l3.392,15.679s-10.8,9.866-10.387,12.845l23.016-7.684-4.533-24.719Z" transform="translate(-150.813 -133.265)" fill="#455a64"/>
              <path id="Trazado_239591" data-name="Trazado 239591" d="M328.487,389.593a1.166,1.166,0,0,1,.918,1.214c.009.635-.418,1.228-.894,1.225a1.237,1.237,0,0,1-.967-1.293c.044-.633.574-1.292,1.036-1.136" transform="translate(-167.999 -142.388)" fill="#e0e0e0"/>
              <path id="Trazado_239592" data-name="Trazado 239592" d="M317.012,402.155l-.53-2.468-21.869,8.29a2.168,2.168,0,0,0-.617,1.862Z" transform="translate(-150.763 -146.082)" fill="#263238"/>
              <path id="Trazado_239593" data-name="Trazado 239593" d="M315.194,395.375c.032.149.606.029,1.25.327.649.275,1.056.83,1.148.736.1-.064-.237-.9-1.021-1.247s-1.427.055-1.377.184" transform="translate(-161.664 -144.388)" fill="#263238"/>
              <path id="Trazado_239594" data-name="Trazado 239594" d="M310.938,399c0,.154.536.246,1.036.753.512.487.737,1.142.848,1.1.11-.011.023-.916-.608-1.53s-1.3-.464-1.276-.32" transform="translate(-159.483 -145.784)" fill="#263238"/>
              <path id="Trazado_239595" data-name="Trazado 239595" d="M307.819,404.591c.108,0,.124-.8-.319-1.529s-1.029-.877-1.054-.736c-.04.145.383.471.74,1.074s.518,1.213.632,1.19" transform="translate(-157.178 -147.03)" fill="#263238"/>
              <path id="Trazado_239596" data-name="Trazado 239596" d="M313.573,389.007c.073.121.549-.258,1.2-.412.644-.172,1.191-.053,1.226-.2.045-.13-.542-.524-1.3-.327s-1.2.841-1.12.941" transform="translate(-160.83 -141.815)" fill="#263238"/>
              <path id="Trazado_239597" data-name="Trazado 239597" d="M310.7,372.25l.357,17.137s-12.888,7.225-13.093,10.358l25.551-.265-.055-27.409Z" transform="translate(-152.83 -135.989)" fill="#455a64"/>
              <path id="Trazado_239598" data-name="Trazado 239598" d="M340.189,397.537a1.471,1.471,0,0,1,.731,1.582c-.111.668-.67,1.144-1.168.98a1.559,1.559,0,0,1-.768-1.68c.166-.647.847-1.159,1.3-.84" transform="translate(-173.849 -145.276)" fill="#e0e0e0"/>
              <path id="Trazado_239599" data-name="Trazado 239599" d="M323.514,413.943l-.095-3.028L298.954,412.2a2,2,0,0,0-1,1.74Z" transform="translate(-152.818 -150.186)" fill="#263238"/>
              <path id="Trazado_239600" data-name="Trazado 239600" d="M325.352,399.916c0,.166.629.235,1.246.765.627.508.948,1.225,1.062,1.158.115-.034-.077-1.027-.832-1.65s-1.5-.425-1.476-.273" transform="translate(-166.875 -146.108)" fill="#263238"/>
              <path id="Trazado_239601" data-name="Trazado 239601" d="M319.564,402.369c-.028.162.514.439.943,1.139.443.683.554,1.443.679,1.435.117.025.2-.952-.346-1.808s-1.273-.924-1.275-.766" transform="translate(-163.906 -147.038)" fill="#263238"/>
              <path id="Trazado_239602" data-name="Trazado 239602" d="M315.27,407.653c.113.034.283-.8-.043-1.708s-.911-1.265-.963-1.126c-.07.138.312.623.571,1.375s.312,1.444.436,1.459" transform="translate(-161.184 -147.947)" fill="#263238"/>
              <path id="Trazado_239603" data-name="Trazado 239603" d="M324.85,393.071c.053.151.624-.084,1.33-.028.707.037,1.257.348,1.322.2.072-.121-.468-.732-1.3-.783s-1.414.477-1.352.607" transform="translate(-166.616 -143.441)" fill="#263238"/>
              <path id="Trazado_239604" data-name="Trazado 239604" d="M322.352,190.511l.833,7.911a37.465,37.465,0,0,1,.01,7.74l-.564,5.477s-1.134,40.9-1.189,39.408c0,0,.611,29.992,1.071,36.359.834,11.569.084,32.825.084,32.825H308.07l-5.233-67.19-3.248-41.9-5.651-19.071Z" transform="translate(-150.763 -69.63)" fill="#263238"/>
              <path id="Trazado_239605" data-name="Trazado 239605" d="M282.051,192.881l.16,8,.874,58.191a37.492,37.492,0,0,0,1.215,8.011l11.9,44.7.679,3.06,8.739-2.819-6.5-120.245Z" transform="translate(-144.666 -70.094)" fill="#263238"/>
              <path id="Trazado_239606" data-name="Trazado 239606" d="M305.613,223.809a2.11,2.11,0,0,0,0,.282c0,.2.007.478.012.827.017.747.042,1.815.074,3.181.059,2.763.207,6.758.417,11.693.441,9.867,1.264,23.483,2.548,38.468,1.264,14.992,2.659,28.521,3.679,38.31.518,4.878.938,8.832,1.23,11.588.149,1.352.266,2.409.347,3.148l.1.817a2.024,2.024,0,0,0,.042.277,2.24,2.24,0,0,0-.015-.282c-.018-.2-.04-.475-.07-.822-.07-.742-.17-1.8-.3-3.157-.272-2.759-.662-6.719-1.145-11.6-.971-9.8-2.336-23.329-3.6-38.315-1.283-14.979-2.137-28.585-2.627-38.444-.235-4.93-.413-8.922-.5-11.683-.054-1.364-.1-2.431-.125-3.178-.017-.349-.03-.622-.039-.826a2.144,2.144,0,0,0-.023-.281" transform="translate(-156.749 -81.8)" fill="#455a64"/>
              <path id="Trazado_239607" data-name="Trazado 239607" d="M311.16,395.052a4.348,4.348,0,0,1,.044.722q.015.793.037,2.012l-.163-.017a.119.119,0,0,0,.037.107c.037.023.048.011.043.014h0s.006,0,0,0l-.013.006-.032.017-.067.04-.139.086-.29.187-.625.413-1.416.948-3.339,2.247a44.76,44.76,0,0,0-5.406,3.919,7.511,7.511,0,0,0-1.343,1.665,3.788,3.788,0,0,0-.329.773,1.735,1.735,0,0,1,.247-.846,7.083,7.083,0,0,1,1.316-1.778,37.685,37.685,0,0,1,5.4-4.028c1.2-.806,2.334-1.56,3.352-2.22l1.43-.916.635-.394.3-.177.144-.082.073-.039.038-.019.023-.009.02-.006.013,0s.009-.008.047.015a.13.13,0,0,1,.041.11l-.175.656.013-.673q.023-1.219.038-2.012a4.365,4.365,0,0,1,.044-.722" transform="translate(-152.93 -144.388)" fill="#263238"/>
              <g id="Grupo_240893" data-name="Grupo 240893" transform="translate(137.592 124.325)" opacity="0.3">
                <g id="Grupo_240892" data-name="Grupo 240892">
                  <g id="Grupo_240891" data-name="Grupo 240891" clip-path="url(#clip-path-7)">
                    <path id="Trazado_239608" data-name="Trazado 239608" d="M282.477,205.6s4.755,3.344,13.662,4.662c12.727,1.883,21.363-6.806,21.363-6.806l-.666-7.521-34.359,2.95Z" transform="translate(-282.477 -195.94)"/>
                  </g>
                </g>
              </g>
              <path id="Trazado_239609" data-name="Trazado 239609" d="M316.2,80.066c4.325,7.859,2.5,27.165,2.5,27.165l-2.021,40.294,0,4.766s.154,3.924-10.764,8.665-27.05-3.556-27.05-3.556S281.829,128,284,111.68q.426-3.2.856-5.975A68.107,68.107,0,0,1,296.55,76.252l.1-.141L309.9,72.045a33.541,33.541,0,0,1,6.3,8.021" transform="translate(-143.032 -26.332)" fill="#00cca7"/>
              <path id="Trazado_239610" data-name="Trazado 239610" d="M279.33,197.533s10.882,6.99,20.606,5.3,16.744-8.527,16.744-8.527v4.423s-7.7,8.385-18.312,8.376a44.439,44.439,0,0,1-19.5-5.02Z" transform="translate(-143.032 -71.018)" fill="#e0e0e0"/>
              <path id="Trazado_239611" data-name="Trazado 239611" d="M286.248,147.016l34.923,3.135-.524,10.8L285.2,156.028Z" transform="translate(-146.279 -53.733)" fill="#e0e0e0"/>
              <g id="Grupo_240896" data-name="Grupo 240896" transform="translate(137.209 75.713)" opacity="0.3">
                <g id="Grupo_240895" data-name="Grupo 240895">
                  <g id="Grupo_240894" data-name="Grupo 240894" clip-path="url(#clip-path-8)">
                    <path id="Trazado_239612" data-name="Trazado 239612" d="M281.69,161.462s3.1,3.038,10.031,1.4,17.955-3.693,20.371-6.429a18.631,18.631,0,0,0,4.129-11.217c.281-4.514-.485-25.888-.485-25.888l-11.2,26.025-22.21,10.259Z" transform="translate(-281.69 -119.325)"/>
                  </g>
                </g>
              </g>
              <path id="Trazado_239613" data-name="Trazado 239613" d="M302.041,78.453c3.359,0,6.941,7.072,7.307,11.223s-.926,37.616-1.452,41.427c-1.056,7.664-5.9,9.018-5.9,9.018s-11.6,4.363-19.409,5.158a20.5,20.5,0,0,1-13.35-3.352l-1.9.157.474-12.73,1.969.43,21.418-6.834s-1.366-28.606-1.244-29.082c0,0,1.1-15.408,12.078-15.415" transform="translate(-137.123 -28.674)" fill="#455a64"/>
              <path id="Trazado_239614" data-name="Trazado 239614" d="M274.664,154.961a1.226,1.226,0,0,1,.293-.127l.851-.3,3.141-1.048,10.384-3.336,5.6-1.812.062-.02.047.057c.5.612.985,1.195,1.459,1.732a16.577,16.577,0,0,0,1.428,1.4,14.048,14.048,0,0,1,2.25,2.527,11.9,11.9,0,0,1,1.1,2.073c.106.258.18.462.227.6a.924.924,0,0,1,.06.218c-.014.008-.122-.273-.352-.771a13.088,13.088,0,0,0-1.145-2,14.336,14.336,0,0,0-2.257-2.441,16.19,16.19,0,0,1-1.457-1.4c-.483-.536-.974-1.114-1.478-1.725l.109.037-5.6,1.838-10.4,3.242-3.16.945-.862.241a1.132,1.132,0,0,1-.3.062" transform="translate(-140.877 -54.209)" fill="#263238"/>
              <path id="Trazado_239615" data-name="Trazado 239615" d="M320.563,76.8c-.8-.135-13.418,6.138-14.942,24.063-.473,5.567.012,17.86,5.343,19.828s16.057-4.075,16.057-4.075,4.991-23.545,3.864-27.784-5.7-11.257-10.322-12.032" transform="translate(-156.684 -28.068)" fill="#455a64"/>
              <path id="Trazado_239616" data-name="Trazado 239616" d="M316.61,101.159a1.412,1.412,0,0,1,.01.308c-.006.239-.013.528-.021.877-.028.813-.066,1.9-.112,3.223-.095,2.721-.208,6.479-.271,10.632s-.065,7.917-.062,10.641c0,1.322,0,2.412,0,3.226,0,.349-.007.638-.01.878a.154.154,0,1,1-.051,0c-.01-.239-.023-.528-.038-.876-.028-.761-.057-1.864-.081-3.226-.05-2.724-.075-6.49-.013-10.65s.205-7.92.346-10.639c.071-1.36.136-2.459.192-3.218.028-.348.051-.636.069-.874a1.366,1.366,0,0,1,.041-.3" transform="translate(-162.04 -36.973)" fill="#263238"/>
              <g id="Grupo_240899" data-name="Grupo 240899" transform="translate(151.248 66.069)" opacity="0.3">
                <g id="Grupo_240898" data-name="Grupo 240898">
                  <g id="Grupo_240897" data-name="Grupo 240897" clip-path="url(#clip-path-9)">
                    <path id="Trazado_239617" data-name="Trazado 239617" d="M310.52,118.869a37.127,37.127,0,0,0,2.746,13.491l.471-28.234c-2.119,2.294-3.078,9.191-3.217,14.743" transform="translate(-310.513 -104.127)"/>
                  </g>
                </g>
              </g>
              <path id="Trazado_239618" data-name="Trazado 239618" d="M313.445,74.5c-6.193,1.618-12.328,8.413-16.327,16.916S291.9,122.56,291.9,122.56l4.01.173a80.015,80.015,0,0,1,2.6-28.585c4.3-15.792,14.96-18.574,14.96-18.574Z" transform="translate(-149.72 -27.229)" fill="#e0e0e0"/>
              <path id="Trazado_239619" data-name="Trazado 239619" d="M352.5,96.141a1.818,1.818,0,0,1,.024.348c0,.266.011.6.019,1,.013.869.01,2.126-.01,3.679-.037,3.106-.183,7.393-.392,12.122s-.383,9.011-.466,12.111c-.037,1.515-.068,2.758-.09,3.673-.012.4-.021.733-.029,1a1.792,1.792,0,0,1-.027.348,1.809,1.809,0,0,1-.024-.348c0-.266-.011-.6-.019-1-.014-.869-.01-2.126.009-3.678.037-3.106.183-7.394.392-12.124s.383-9.008.466-12.109c.037-1.516.068-2.759.09-3.673.012-.4.021-.734.029-1a1.79,1.79,0,0,1,.027-.348" transform="translate(-180.278 -35.139)" fill="#263238"/>
              <path id="Trazado_239620" data-name="Trazado 239620" d="M330.54,81.975a14.873,14.873,0,0,0-1.89-.786,6.681,6.681,0,0,0-4.686.367,9.184,9.184,0,0,0-3.788,3.613c-.751,1.26-1.025,2.2-1.071,2.175a3,3,0,0,1,.183-.661,10.408,10.408,0,0,1,.744-1.655,8.986,8.986,0,0,1,3.845-3.783,6.464,6.464,0,0,1,4.813-.283,6.268,6.268,0,0,1,1.384.656,1.891,1.891,0,0,1,.465.357" transform="translate(-163.671 -29.469)" fill="#263238"/>
              <path id="Trazado_239621" data-name="Trazado 239621" d="M310.769,73.24l15.26-5.129.244,3.091-5.913,1.193-10.8,6.563Z" transform="translate(-158.776 -24.894)" fill="#455a64"/>
              <path id="Trazado_239622" data-name="Trazado 239622" d="M336.224,75.572S346.093,78,347.743,88.228c0,0-.6-5.513-2.8-8.355-4.446-5.733-8.813-5.377-8.813-5.377Z" transform="translate(-172.403 -27.226)" fill="#e0e0e0"/>
              <path id="Trazado_239623" data-name="Trazado 239623" d="M335.982,74.065c.069-.015.154.36.189.838s.008.868-.063.87-.154-.373-.19-.838-.006-.855.063-.87" transform="translate(-172.288 -27.07)" fill="#263238"/>
            </g>
          </g>
        </g>
        <path id="Trazado_239768" data-name="Trazado 239768" d="M4.646,263.8H190" fill="none" stroke="#707070" stroke-width="1"/>
      </g>
    </g>
  </g>
</svg>
