<svg xmlns="http://www.w3.org/2000/svg" xmlns:xlink="http://www.w3.org/1999/xlink" width="190" height="268.607" viewBox="0 0 190 268.607">
  <defs>
    <clipPath id="clip-path">
      <rect id="Rectángulo_315245" data-name="Rectángulo 315245" width="2.337" height="2.2" fill="none"/>
    </clipPath>
    <clipPath id="clip-path-2">
      <rect id="Rectángulo_315246" data-name="Rectángulo 315246" width="29.953" height="2.995" fill="none"/>
    </clipPath>
    <clipPath id="clip-path-3">
      <rect id="Rectángulo_315247" data-name="Rectángulo 315247" width="2.314" height="2.196" fill="none"/>
    </clipPath>
    <clipPath id="clip-path-4">
      <rect id="Rectángulo_315248" data-name="Rectángulo 315248" width="29.913" height="4.968" fill="none"/>
    </clipPath>
    <clipPath id="clip-path-5">
      <rect id="Rectángulo_315249" data-name="Rectángulo 315249" width="18.787" height="5.926" fill="none"/>
    </clipPath>
    <clipPath id="clip-path-6">
      <rect id="Rectángulo_315250" data-name="Rectángulo 315250" width="12.233" height="2.973" fill="none"/>
    </clipPath>
    <clipPath id="clip-path-7">
      <rect id="Rectángulo_315251" data-name="Rectángulo 315251" width="1.954" height="19.935" fill="none"/>
    </clipPath>
  </defs>
  <g id="Grupo_242678" data-name="Grupo 242678" transform="translate(-915 -2898)">
    <g id="Grupo_240927" data-name="Grupo 240927" transform="translate(-6.822)">
      <g id="Grupo_240926" data-name="Grupo 240926" transform="translate(-353 11697)">
        <path id="Trazado_239624" data-name="Trazado 239624" d="M68.226,236.927,12.2,236.894A12.2,12.2,0,0,1,0,224.687L.028,84.222a12.2,12.2,0,0,1,12.211-12.2l56.029.033a12.2,12.2,0,0,1,12.2,12.207l-.028,140.464a12.2,12.2,0,0,1-12.212,12.2" transform="translate(1375.876 -8823.948)" fill="#263238"/>
        <path id="Trazado_239625" data-name="Trazado 239625" d="M70.3,79.82l-10.863-.006A2.7,2.7,0,0,0,56.8,82.569v1.97A2.7,2.7,0,0,1,54.16,87.3l-21.174-.013a2.7,2.7,0,0,1-2.637-2.759v-1.97a2.7,2.7,0,0,0-2.638-2.759l-3.82,0-9.507-.005a8.547,8.547,0,0,0-8.552,8.546L5.8,225.436a8.547,8.547,0,0,0,8.542,8.549l55.917.033a8.547,8.547,0,0,0,8.552-8.545l.027-137.1A8.548,8.548,0,0,0,70.3,79.82" transform="translate(1373.785 -8826.746)" fill="#fff"/>
        <path id="Trazado_239626" data-name="Trazado 239626" d="M78.842,88.369A8.548,8.548,0,0,0,70.3,79.82l-10.862-.006A2.7,2.7,0,0,0,56.8,82.569v1.97A2.7,2.7,0,0,1,54.159,87.3l-21.174-.013a2.7,2.7,0,0,1-2.638-2.759v-1.97a2.7,2.7,0,0,0-2.638-2.759l-3.82,0-9.507-.005A8.549,8.549,0,0,0,5.83,88.333L5.8,101.443H78.84Z" transform="translate(1373.785 -8826.746)" fill="#f5f5f5"/>
        <path id="Trazado_239627" data-name="Trazado 239627" d="M107.395,100.7a28.546,28.546,0,0,1-2.923.1c-1.615.013-2.924-.009-2.924-.049a28.869,28.869,0,0,1,2.923-.1,28.769,28.769,0,0,1,2.924.049" transform="translate(1339.289 -8834.263)" fill="#263238"/>
        <path id="Trazado_239628" data-name="Trazado 239628" d="M107.414,103.041a28.768,28.768,0,0,1-2.923.1,29.22,29.22,0,0,1-2.924-.049,28.867,28.867,0,0,1,2.923-.1,28.877,28.877,0,0,1,2.924.05" transform="translate(1339.282 -8835.105)" fill="#263238"/>
        <path id="Trazado_239629" data-name="Trazado 239629" d="M107.433,105.38a28.791,28.791,0,0,1-2.923.1,29.224,29.224,0,0,1-2.924-.049,28.867,28.867,0,0,1,2.923-.1,28.87,28.87,0,0,1,2.924.05" transform="translate(1339.276 -8835.948)" fill="#263238"/>
        <path id="Trazado_239630" data-name="Trazado 239630" d="M31.158,259.757l.294-.621a2.868,2.868,0,0,0,1.839.645c.963,0,1.377-.374,1.377-.86,0-1.36-3.374-.5-3.374-2.57,0-.86.668-1.592,2.132-1.592a3.278,3.278,0,0,1,1.791.493l-.262.637a2.878,2.878,0,0,0-1.528-.454c-.947,0-1.352.4-1.352.883,0,1.361,3.374.509,3.374,2.554,0,.851-.684,1.583-2.156,1.583a3.31,3.31,0,0,1-2.133-.7" transform="translate(1364.65 -8889.788)" fill="#263238"/>
        <path id="Trazado_239631" data-name="Trazado 239631" d="M38.9,259.061a2.107,2.107,0,0,1,2.228-2.149,1.88,1.88,0,0,1,1.719.9l-.581.374a1.316,1.316,0,0,0-1.146-.6,1.485,1.485,0,0,0,0,2.968,1.314,1.314,0,0,0,1.146-.605l.581.367a1.887,1.887,0,0,1-1.719.907,2.114,2.114,0,0,1-2.228-2.156" transform="translate(1361.862 -8890.563)" fill="#263238"/>
        <path id="Trazado_239632" data-name="Trazado 239632" d="M49.766,258.623v2.546h-.724v-.557a1.567,1.567,0,0,1-1.384.6c-.955,0-1.56-.509-1.56-1.242,0-.676.438-1.233,1.695-1.233H49v-.151c0-.645-.374-1.018-1.13-1.018a2.134,2.134,0,0,0-1.337.454l-.319-.573a2.812,2.812,0,0,1,1.743-.541c1.153,0,1.806.557,1.806,1.711M49,259.88v-.589H47.825c-.756,0-.97.294-.97.652,0,.422.35.684.931.684A1.223,1.223,0,0,0,49,259.88" transform="translate(1359.267 -8890.563)" fill="#263238"/>
        <path id="Trazado_239633" data-name="Trazado 239633" d="M58.049,258.742v2.427h-.764V258.83c0-.827-.414-1.233-1.138-1.233A1.253,1.253,0,0,0,54.81,259v2.172h-.764v-4.218h.732v.637a1.808,1.808,0,0,1,1.52-.677,1.634,1.634,0,0,1,1.751,1.83" transform="translate(1356.404 -8890.563)" fill="#263238"/>
        <path id="Trazado_239634" data-name="Trazado 239634" d="M66.52,258.742v2.427h-.764V258.83c0-.827-.414-1.233-1.138-1.233a1.253,1.253,0,0,0-1.337,1.4v2.172h-.764v-4.218h.732v.637a1.808,1.808,0,0,1,1.52-.677,1.634,1.634,0,0,1,1.751,1.83" transform="translate(1353.352 -8890.563)" fill="#263238"/>
        <path id="Trazado_239635" data-name="Trazado 239635" d="M70.776,254.652a.5.5,0,0,1,.518-.5.5.5,0,1,1-.518.5m.136,1.305h.764v4.218h-.764Z" transform="translate(1350.376 -8889.568)" fill="#263238"/>
        <path id="Trazado_239636" data-name="Trazado 239636" d="M78.462,258.742v2.427H77.7V258.83c0-.827-.414-1.233-1.138-1.233a1.253,1.253,0,0,0-1.337,1.4v2.172h-.764v-4.218h.732v.637a1.808,1.808,0,0,1,1.52-.677,1.634,1.634,0,0,1,1.751,1.83" transform="translate(1349.049 -8890.563)" fill="#263238"/>
        <path id="Trazado_239637" data-name="Trazado 239637" d="M86.781,256.952V260.6a1.916,1.916,0,0,1-2.188,2.165,3.123,3.123,0,0,1-2.013-.629l.367-.589a2.571,2.571,0,0,0,1.623.55c.995,0,1.448-.462,1.448-1.417v-.334a1.93,1.93,0,0,1-1.52.652,2.043,2.043,0,1,1,0-4.082,1.923,1.923,0,0,1,1.56.692v-.652Zm-.748,2a1.455,1.455,0,1,0-1.448,1.377,1.346,1.346,0,0,0,1.448-1.377" transform="translate(1346.203 -8890.563)" fill="#263238"/>
        <path id="Trazado_239638" data-name="Trazado 239638" d="M90.989,262.479a.532.532,0,0,1,.541-.541.524.524,0,0,1,.525.541.53.53,0,0,1-.525.549.539.539,0,0,1-.541-.549" transform="translate(1343.094 -8892.374)" fill="#263238"/>
        <path id="Trazado_239639" data-name="Trazado 239639" d="M93.813,262.479a.532.532,0,0,1,.541-.541.524.524,0,0,1,.525.541.53.53,0,0,1-.525.549.539.539,0,0,1-.541-.549" transform="translate(1342.076 -8892.374)" fill="#263238"/>
        <path id="Trazado_239640" data-name="Trazado 239640" d="M96.636,262.479a.532.532,0,0,1,.541-.541.524.524,0,0,1,.525.541.53.53,0,0,1-.525.549.539.539,0,0,1-.541-.549" transform="translate(1341.059 -8892.374)" fill="#263238"/>
        <path id="Trazado_239641" data-name="Trazado 239641" d="M24.485,193.237v2.651h2.651v-5.3H24.485Z" transform="translate(1367.054 -8866.666)" fill="#263238"/>
        <rect id="Rectángulo_315228" data-name="Rectángulo 315228" width="2.651" height="2.651" transform="translate(1391.539 -8689.335)" fill="#263238"/>
        <rect id="Rectángulo_315229" data-name="Rectángulo 315229" width="2.651" height="2.651" transform="translate(1407.92 -8660.148)" fill="#263238"/>
        <path id="Trazado_239642" data-name="Trazado 239642" d="M27.135,176.661v2.651H24.485v2.651h2.651v2.651h5.3v2.651h2.651v-2.651h2.651v-5.3H35.088v2.651h-5.3V174.01H27.135Z" transform="translate(1367.054 -8860.694)" fill="#263238"/>
        <path id="Trazado_239643" data-name="Trazado 239643" d="M35.423,169.866H32.772v2.651h5.3v-2.651Z" transform="translate(1364.068 -8859.201)" fill="#263238"/>
        <path id="Trazado_239644" data-name="Trazado 239644" d="M54.762,201.686h1.424v-2.651H53.338v2.651Z" transform="translate(1356.659 -8869.71)" fill="#263238"/>
        <rect id="Rectángulo_315230" data-name="Rectángulo 315230" width="2.651" height="2.651" transform="translate(1402.142 -8686.685)" fill="#263238"/>
        <rect id="Rectángulo_315231" data-name="Rectángulo 315231" width="2.651" height="2.651" transform="translate(1420.698 -8676.08)" fill="#263238"/>
        <rect id="Rectángulo_315232" data-name="Rectángulo 315232" width="2.651" height="2.651" transform="translate(1423.349 -8705.24)" fill="#263238"/>
        <path id="Trazado_239645" data-name="Trazado 239645" d="M50.506,173.675v-2.651h2.651v-2.651H50.506v-2.651H47.855v2.651H45.2v2.651h2.651v10.6h2.651v-5.3h2.651v-2.651Z" transform="translate(1359.589 -8857.708)" fill="#263238"/>
        <path id="Trazado_239646" data-name="Trazado 239646" d="M72.718,218.1h2.651v-2.651h-5.3V218.1Z" transform="translate(1350.631 -8875.624)" fill="#263238"/>
        <rect id="Rectángulo_315233" data-name="Rectángulo 315233" width="2.651" height="2.651" transform="translate(1418.047 -8705.24)" fill="#263238"/>
        <path id="Trazado_239647" data-name="Trazado 239647" d="M64.552,175.168v-2.651H61.9v-2.651H59.25v5.3H56.6v2.651h5.3v-2.651Z" transform="translate(1355.484 -8859.201)" fill="#263238"/>
        <rect id="Rectángulo_315234" data-name="Rectángulo 315234" width="2.651" height="2.651" transform="translate(1432.348 -8689.335)" fill="#263238"/>
        <rect id="Rectángulo_315235" data-name="Rectángulo 315235" width="2.651" height="2.651" transform="translate(1404.87 -8676.08)" fill="#263238"/>
        <path id="Trazado_239648" data-name="Trazado 239648" d="M62.937,159.75V157.1h2.651v-2.651h5.3V151.8H68.239v-2.651H65.588V151.8H62.937v2.651H60.286V157.1H57.635v2.651h5.3Z" transform="translate(1355.11 -8851.736)" fill="#263238"/>
        <path id="Trazado_239649" data-name="Trazado 239649" d="M62.937,191.743v-2.651h2.651v-2.651h-5.3v2.651H57.635v2.651h5.3Z" transform="translate(1355.11 -8865.173)" fill="#263238"/>
        <path id="Trazado_239650" data-name="Trazado 239650" d="M69.4,208.317v-2.651H64.1v-2.651H61.444v2.651H58.793v2.651h-5.3v2.651h7.952v-2.651H64.1v2.651h2.651v-2.651Z" transform="translate(1356.603 -8871.145)" fill="#263238"/>
        <path id="Trazado_239651" data-name="Trazado 239651" d="M57.3,147.654V145H52v2.651H49.348V150.3h5.3v-2.651Z" transform="translate(1358.096 -8850.243)" fill="#263238"/>
        <rect id="Rectángulo_315236" data-name="Rectángulo 315236" width="2.651" height="2.651" transform="translate(1412.746 -8699.938)" fill="#263238"/>
        <path id="Trazado_239652" data-name="Trazado 239652" d="M70.646,166.88H68v7.953h5.3v-2.651H70.646v-2.651H73.3V166.88h2.651v-2.651H73.3v-2.651H70.646v5.3Z" transform="translate(1351.378 -8856.215)" fill="#263238"/>
        <rect id="Rectángulo_315237" data-name="Rectángulo 315237" width="2.651" height="2.651" transform="translate(1410.095 -8697.287)" fill="#263238"/>
        <path id="Trazado_239653" data-name="Trazado 239653" d="M70.067,197.381v2.651h5.3v-2.651h5.3V194.73H72.718v2.651Z" transform="translate(1350.631 -8868.159)" fill="#263238"/>
        <rect id="Rectángulo_315238" data-name="Rectángulo 315238" width="2.651" height="2.651" transform="translate(1432.348 -8681.382)" fill="#263238"/>
        <rect id="Rectángulo_315239" data-name="Rectángulo 315239" width="2.651" height="2.651" transform="translate(1423.349 -8678.731)" fill="#263238"/>
        <path id="Trazado_239654" data-name="Trazado 239654" d="M85.729,174.01h-5.3v2.651h2.651v2.651h2.651v-5.3Z" transform="translate(1346.899 -8860.694)" fill="#263238"/>
        <rect id="Rectángulo_315240" data-name="Rectángulo 315240" width="2.651" height="2.651" transform="translate(1428.651 -8678.731)" fill="#263238"/>
        <path id="Trazado_239655" data-name="Trazado 239655" d="M38.074,205.381h7.955V194.725H35.374v2.654h-2.6v2.65h2.6v2.651h-2.6v2.651h2.6v.05h.049v2.6H32.772v5.3h2.651v-2.651h2.651v-5.252Zm5.915-1.988H37.361v-6.627h6.627Z" transform="translate(1364.068 -8868.157)" fill="#263238"/>
        <path id="Trazado_239656" data-name="Trazado 239656" d="M91.945,193.237H94.6v-2.651H86.643v2.651h5.3Z" transform="translate(1344.659 -8866.666)" fill="#263238"/>
        <path id="Trazado_239657" data-name="Trazado 239657" d="M94.931,175.168h2.651v-5.3H94.931v5.3Z" transform="translate(1341.673 -8859.201)" fill="#263238"/>
        <path id="Trazado_239658" data-name="Trazado 239658" d="M60.441,199.035H57.79v5.3h2.651v-5.3Z" transform="translate(1355.055 -8869.711)" fill="#263238"/>
        <rect id="Rectángulo_315241" data-name="Rectángulo 315241" width="2.651" height="2.651" transform="translate(1439.255 -8673.43)" fill="#263238"/>
        <path id="Trazado_239659" data-name="Trazado 239659" d="M101.725,184.949V182.3H99.074v5.3h2.651Z" transform="translate(1340.18 -8863.681)" fill="#263238"/>
        <path id="Trazado_239660" data-name="Trazado 239660" d="M27.136,215.449H24.485v5.3h2.651v-5.3Z" transform="translate(1367.054 -8875.624)" fill="#263238"/>
        <path id="Trazado_239661" data-name="Trazado 239661" d="M95.753,145H82.5v13.254H95.753Zm-11.266,1.988h9.278v9.278H84.487Z" transform="translate(1346.152 -8850.243)" fill="#263238"/>
        <rect id="Rectángulo_315242" data-name="Rectángulo 315242" width="5.302" height="5.302" transform="translate(1432.628 -8701.264)" fill="#263238"/>
        <path id="Trazado_239662" data-name="Trazado 239662" d="M95.753,203.017H82.5v13.254H95.753Zm-11.266,1.988h9.278v9.278H84.487Z" transform="translate(1346.152 -8871.146)" fill="#263238"/>
        <rect id="Rectángulo_315243" data-name="Rectángulo 315243" width="5.302" height="5.302" transform="translate(1432.628 -8664.151)" fill="#263238"/>
        <path id="Trazado_239663" data-name="Trazado 239663" d="M24.433,158.258H37.687V145H24.433ZM35.7,156.27H26.421v-9.278H35.7Z" transform="translate(1367.073 -8850.243)" fill="#263238"/>
        <rect id="Rectángulo_315244" data-name="Rectángulo 315244" width="5.302" height="5.302" transform="translate(1395.482 -8701.264)" fill="#263238"/>
        <path id="Trazado_239664" data-name="Trazado 239664" d="M18.183,151.858v-9.413a3.467,3.467,0,0,1,.747-2.4,3.262,3.262,0,0,1,2.579-1.07h9.9a.3.3,0,0,0,0-.592H21.618a4.148,4.148,0,0,0-2.361.6,3.738,3.738,0,0,0-1.666,3.092c-.028,1.549,0,3.1,0,4.65v5.137a.3.3,0,0,0,.592,0" transform="translate(1369.542 -8847.858)" fill="#b3009d"/>
        <path id="Trazado_239665" data-name="Trazado 239665" d="M30.252,223.125H20.838a3.469,3.469,0,0,1-2.4-.747,3.261,3.261,0,0,1-1.07-2.579v-9.9a.3.3,0,0,0-.592,0v9.789a4.148,4.148,0,0,0,.6,2.361,3.737,3.737,0,0,0,3.092,1.666c1.549.027,3.1,0,4.65,0h5.137a.3.3,0,0,0,0-.592" transform="translate(1369.831 -8873.522)" fill="#b3009d"/>
        <path id="Trazado_239666" data-name="Trazado 239666" d="M101.073,209.753v9.414a3.473,3.473,0,0,1-.747,2.4,3.264,3.264,0,0,1-2.579,1.068h-9.9a.3.3,0,0,0,0,.593h9.789a4.142,4.142,0,0,0,2.361-.6,3.736,3.736,0,0,0,1.666-3.091c.028-1.549,0-3.1,0-4.65v-5.138a.3.3,0,0,0-.592,0" transform="translate(1344.328 -8873.47)" fill="#b3009d"/>
        <path id="Trazado_239667" data-name="Trazado 239667" d="M88.116,138.969H97.53a3.472,3.472,0,0,1,2.4.747A3.263,3.263,0,0,1,101,142.295v9.9a.3.3,0,0,0,.592,0V142.4a4.142,4.142,0,0,0-.6-2.361,3.735,3.735,0,0,0-3.091-1.666c-1.549-.028-3.1,0-4.65,0H88.116a.3.3,0,0,0,0,.592" transform="translate(1344.231 -8847.852)" fill="#b3009d"/>
        <path id="Trazado_239668" data-name="Trazado 239668" d="M67.525,290.418H22.869a7.116,7.116,0,0,1-7.116-7.116v-1.51a7.116,7.116,0,0,1,7.116-7.116H67.525a7.116,7.116,0,0,1,7.116,7.116v1.51a7.116,7.116,0,0,1-7.116,7.116" transform="translate(1370.2 -8896.963)" fill="#ebebeb"/>
        <path id="Trazado_239669" data-name="Trazado 239669" d="M31.03,284.757l-.988,2.646h-.459l-.763-2.007-.774,2.007h-.459l-.983-2.646h.454l.769,2.107.8-2.107h.4l.784,2.117.789-2.117Z" transform="translate(1366.291 -8900.596)" fill="#263238"/>
        <path id="Trazado_239670" data-name="Trazado 239670" d="M37.986,284.757,37,287.4h-.459l-.763-2.007L35,287.4h-.459l-.983-2.646h.454l.769,2.107.8-2.107h.4l.784,2.117.789-2.117Z" transform="translate(1363.785 -8900.596)" fill="#263238"/>
        <path id="Trazado_239671" data-name="Trazado 239671" d="M44.942,284.757l-.988,2.646h-.459l-.763-2.007-.774,2.007H41.5l-.983-2.646h.454l.769,2.107.8-2.107h.4l.784,2.117.789-2.117Z" transform="translate(1361.279 -8900.596)" fill="#263238"/>
        <path id="Trazado_239672" data-name="Trazado 239672" d="M47.588,288.21a.334.334,0,0,1,.34-.34.329.329,0,0,1,.329.34.333.333,0,0,1-.329.345.338.338,0,0,1-.34-.345" transform="translate(1358.73 -8901.717)" fill="#263238"/>
        <path id="Trazado_239673" data-name="Trazado 239673" d="M49.188,287.109l.2-.379a1.706,1.706,0,0,0,.929.274c.444,0,.629-.135.629-.359,0-.594-1.672-.08-1.672-1.133,0-.475.424-.794,1.1-.794a1.928,1.928,0,0,1,.963.239l-.205.38a1.38,1.38,0,0,0-.763-.21c-.42,0-.624.155-.624.365,0,.624,1.677.115,1.677,1.143,0,.479-.439.784-1.143.784a1.911,1.911,0,0,1-1.093-.31" transform="translate(1358.154 -8900.581)" fill="#263238"/>
        <path id="Trazado_239674" data-name="Trazado 239674" d="M53.49,283.3a.316.316,0,0,1,.324-.314.312.312,0,1,1-.324.314m.084.819h.479v2.646h-.479Z" transform="translate(1356.604 -8899.957)" fill="#263238"/>
        <path id="Trazado_239675" data-name="Trazado 239675" d="M57.075,286.922a.9.9,0,0,1-.579.185.755.755,0,0,1-.839-.829v-1.452h-.449v-.395h.449v-.579h.479v.579h.759v.395h-.759v1.432a.39.39,0,0,0,.414.445.6.6,0,0,0,.375-.125Z" transform="translate(1355.985 -8900.27)" fill="#263238"/>
        <path id="Trazado_239676" data-name="Trazado 239676" d="M61.134,286.226H58.988a.9.9,0,0,0,.958.773.987.987,0,0,0,.764-.32l.264.31a1.442,1.442,0,0,1-2.465-.923,1.3,1.3,0,0,1,1.328-1.348,1.276,1.276,0,0,1,1.308,1.363c0,.04-.005.1-.01.145m-2.146-.345h1.7a.854.854,0,0,0-1.7,0" transform="translate(1354.796 -8900.581)" fill="#263238"/>
        <path id="Trazado_239677" data-name="Trazado 239677" d="M67.356,284.757l-.988,2.646h-.459l-.763-2.007-.774,2.007h-.459l-.983-2.646h.454l.769,2.107.8-2.107h.4l.784,2.117.789-2.117Z" transform="translate(1353.203 -8900.596)" fill="#263238"/>
        <path id="Trazado_239678" data-name="Trazado 239678" d="M72.735,286.226H70.589a.9.9,0,0,0,.958.773.986.986,0,0,0,.764-.32l.264.31a1.442,1.442,0,0,1-2.465-.923,1.3,1.3,0,0,1,1.328-1.348,1.276,1.276,0,0,1,1.308,1.363c0,.04-.005.1-.01.145m-2.146-.345h1.7a.854.854,0,0,0-1.7,0" transform="translate(1350.616 -8900.581)" fill="#263238"/>
        <path id="Trazado_239679" data-name="Trazado 239679" d="M78.011,285.484a1.289,1.289,0,0,1-1.338,1.353,1.117,1.117,0,0,1-.944-.45v.419H75.27v-3.7h.479v1.457a1.127,1.127,0,0,1,.924-.424,1.284,1.284,0,0,1,1.338,1.348m-.484,0a.892.892,0,1,0-.894.933.872.872,0,0,0,.894-.933" transform="translate(1348.757 -8899.999)" fill="#263238"/>
        <path id="Trazado_239680" data-name="Trazado 239680" d="M80.15,288.21a.334.334,0,0,1,.34-.34.329.329,0,0,1,.329.34.333.333,0,0,1-.329.345.338.338,0,0,1-.34-.345" transform="translate(1346.999 -8901.717)" fill="#263238"/>
        <path id="Trazado_239681" data-name="Trazado 239681" d="M81.8,286.066a1.322,1.322,0,0,1,1.4-1.348,1.179,1.179,0,0,1,1.078.564l-.364.235a.826.826,0,0,0-.719-.379.931.931,0,0,0,0,1.862.826.826,0,0,0,.719-.379l.364.23a1.184,1.184,0,0,1-1.078.569,1.326,1.326,0,0,1-1.4-1.353" transform="translate(1346.405 -8900.581)" fill="#263238"/>
        <path id="Trazado_239682" data-name="Trazado 239682" d="M86.192,286.066a1.376,1.376,0,1,1,1.378,1.353,1.317,1.317,0,0,1-1.378-1.353m2.266,0a.892.892,0,1,0-.889.933.868.868,0,0,0,.889-.933" transform="translate(1344.822 -8900.581)" fill="#263238"/>
        <path id="Trazado_239683" data-name="Trazado 239683" d="M95.924,285.866v1.523h-.479v-1.467c0-.519-.249-.774-.684-.774a.768.768,0,0,0-.793.879v1.363h-.479v-1.467c0-.519-.25-.774-.684-.774a.768.768,0,0,0-.793.879v1.363h-.479v-2.646h.459v.395a1.072,1.072,0,0,1,.913-.42.98.98,0,0,1,.919.489,1.191,1.191,0,0,1,1.018-.489,1.014,1.014,0,0,1,1.083,1.148" transform="translate(1342.898 -8900.581)" fill="#263238"/>
        <path id="Trazado_239684" data-name="Trazado 239684" d="M72.742,291.546c0,.061-10.1.111-22.553.111s-22.556-.05-22.556-.111,10.1-.111,22.556-.111,22.553.05,22.553.111" transform="translate(1365.92 -8903.001)" fill="#263238"/>
      </g>
      <g id="Grupo_240925" data-name="Grupo 240925" transform="translate(-640 11696.056)">
        <path id="Trazado_239685" data-name="Trazado 239685" d="M194.742,380.874l-.477,22.744,29.938.7c-.1-2.707-15.449-8.5-15.449-8.5l.938-14.56Z" transform="translate(1430.349 -8935.28)" fill="#b3009d"/>
        <g id="Grupo_240906" data-name="Grupo 240906" transform="translate(1628.978 -8540.941)" opacity="0.6">
          <g id="Grupo_240905" data-name="Grupo 240905">
            <g id="Grupo_240904" data-name="Grupo 240904" clip-path="url(#clip-path)">
              <path id="Trazado_239686" data-name="Trazado 239686" d="M201.987,401.964a1.157,1.157,0,0,0-.88,1.3,1.178,1.178,0,0,0,1.354.836,1.219,1.219,0,0,0,.925-1.38,1.239,1.239,0,0,0-1.511-.722" transform="translate(-201.086 -401.922)" fill="#fff"/>
            </g>
          </g>
        </g>
        <g id="Grupo_240909" data-name="Grupo 240909" transform="translate(1624.614 -8533.953)" opacity="0.6">
          <g id="Grupo_240908" data-name="Grupo 240908">
            <g id="Grupo_240907" data-name="Grupo 240907" clip-path="url(#clip-path-2)">
              <path id="Trazado_239687" data-name="Trazado 239687" d="M194.265,415.137l.143-2.291,28.649,1.533s1.319.58,1.144,1.463Z" transform="translate(-194.265 -412.846)" fill="#fff"/>
            </g>
          </g>
        </g>
        <path id="Trazado_239688" data-name="Trazado 239688" d="M216.119,403.96c-.008.138-.741.184-1.472.611-.743.409-1.129,1-1.262.941-.134-.03.106-.851,1-1.354s1.769-.324,1.734-.2" transform="translate(1423.473 -8943.547)" fill="#263238"/>
        <path id="Trazado_239689" data-name="Trazado 239689" d="M221.391,406.038c.03.134-.61.354-1.121.928-.53.558-.672,1.187-.817,1.178-.138.019-.217-.793.433-1.494s1.506-.743,1.505-.612" transform="translate(1421.309 -8944.325)" fill="#263238"/>
        <path id="Trazado_239690" data-name="Trazado 239690" d="M225.087,410.362c-.134.026-.319-.669.077-1.416s1.087-1.033,1.146-.917c.079.116-.376.511-.69,1.13s-.386,1.193-.532,1.2" transform="translate(1419.303 -8945.055)" fill="#263238"/>
        <path id="Trazado_239691" data-name="Trazado 239691" d="M215.649,398.517c-.065.125-.731-.082-1.558-.049-.828.018-1.478.265-1.551.145-.083-.1.559-.6,1.535-.625s1.649.422,1.574.529" transform="translate(1423.768 -8941.445)" fill="#263238"/>
        <path id="Trazado_239692" data-name="Trazado 239692" d="M213.888,392.208a2.969,2.969,0,0,1-1.5-.043,7.02,7.02,0,0,1-1.556-.492,7.21,7.21,0,0,1-.85-.452,1.848,1.848,0,0,1-.444-.344.577.577,0,0,1-.047-.736.818.818,0,0,1,.648-.3,2.074,2.074,0,0,1,.561.086,5.62,5.62,0,0,1,.924.324,5.3,5.3,0,0,1,1.359.89c.679.624.9,1.146.852,1.171-.068.044-.395-.4-1.088-.915a6.062,6.062,0,0,0-1.318-.744,5.788,5.788,0,0,0-.855-.271c-.315-.086-.585-.095-.67.036-.031.051-.035.07.029.159a1.5,1.5,0,0,0,.326.251,8.1,8.1,0,0,0,.782.447,8.617,8.617,0,0,0,1.436.559,10.85,10.85,0,0,1,1.411.372" transform="translate(1424.904 -8938.511)" fill="#263238"/>
        <path id="Trazado_239693" data-name="Trazado 239693" d="M215.919,391.328a2.17,2.17,0,0,1-.359-1.378,4.384,4.384,0,0,1,.246-1.547,4.5,4.5,0,0,1,.4-.851,1.232,1.232,0,0,1,.976-.693.7.7,0,0,1,.615.41,1.854,1.854,0,0,1,.141.523,3,3,0,0,1-.024.954,3.174,3.174,0,0,1-.679,1.448c-.6.72-1.219.871-1.23.823-.047-.07.47-.325.936-1.019a3.154,3.154,0,0,0,.509-1.32,2.753,2.753,0,0,0-.006-.819c-.039-.3-.152-.547-.272-.519-.148-.006-.408.215-.537.452a4.681,4.681,0,0,0-.391.759,4.871,4.871,0,0,0-.328,1.407c-.063.83.079,1.35,0,1.37" transform="translate(1422.678 -8937.437)" fill="#263238"/>
        <path id="Trazado_239694" data-name="Trazado 239694" d="M141.193,382.812l-2.86,22.568-29.718-3.688c.5-2.663,16.526-6.143,16.526-6.143l1.206-14.541Z" transform="translate(1461.208 -8935.328)" fill="#b3009d"/>
        <g id="Grupo_240912" data-name="Grupo 240912" transform="translate(1594.112 -8539.944)" opacity="0.6">
          <g id="Grupo_240911" data-name="Grupo 240911">
            <g id="Grupo_240910" data-name="Grupo 240910" clip-path="url(#clip-path-3)">
              <path id="Trazado_239695" data-name="Trazado 239695" d="M148.158,403.568a1.156,1.156,0,0,1,.68,1.414,1.177,1.177,0,0,1-1.462.628,1.219,1.219,0,0,1-.713-1.5,1.238,1.238,0,0,1,1.6-.493" transform="translate(-146.583 -403.481)" fill="#fff"/>
            </g>
          </g>
        </g>
        <g id="Grupo_240915" data-name="Grupo 240915" transform="translate(1569.822 -8534.917)" opacity="0.6">
          <g id="Grupo_240914" data-name="Grupo 240914">
            <g id="Grupo_240913" data-name="Grupo 240913" clip-path="url(#clip-path-4)">
              <path id="Trazado_239696" data-name="Trazado 239696" d="M138.331,416.308l.194-2.287L109.96,411.34s-1.389.38-1.347,1.279Z" transform="translate(-108.613 -411.34)" fill="#fff"/>
            </g>
          </g>
        </g>
        <path id="Trazado_239697" data-name="Trazado 239697" d="M133.724,403.375c-.012.138.706.29,1.366.82.675.513.971,1.153,1.111,1.116.137-.01.02-.857-.791-1.485s-1.7-.58-1.686-.45" transform="translate(1452.162 -8943.357)" fill="#263238"/>
        <path id="Trazado_239698" data-name="Trazado 239698" d="M128.618,404.7c-.049.129.551.44.973,1.082.443.629.491,1.273.636,1.285.134.038.332-.752-.209-1.541s-1.381-.956-1.4-.825" transform="translate(1454.002 -8943.85)" fill="#263238"/>
        <path id="Trazado_239699" data-name="Trazado 239699" d="M124.687,408.481c.129.045.413-.615.132-1.412s-.924-1.181-1-1.074c-.1.1.3.56.517,1.219.237.653.208,1.237.351,1.268" transform="translate(1455.735 -8944.324)" fill="#263238"/>
        <path id="Trazado_239700" data-name="Trazado 239700" d="M134.758,398.1c.046.132.734.026,1.548.18.817.139,1.424.479,1.514.37.1-.089-.466-.674-1.427-.844s-1.693.177-1.635.293" transform="translate(1451.79 -8941.364)" fill="#263238"/>
        <path id="Trazado_239701" data-name="Trazado 239701" d="M136.5,392.2a2.968,2.968,0,0,0,1.489.177,7.136,7.136,0,0,0,2.519-.582,1.816,1.816,0,0,0,.489-.275.577.577,0,0,0,.155-.722.821.821,0,0,0-.6-.393,2.051,2.051,0,0,0-.567,0,5.575,5.575,0,0,0-.962.185,5.291,5.291,0,0,0-1.475.682c-.763.518-1.061,1-1.015,1.034.061.054.448-.335,1.21-.746a6.119,6.119,0,0,1,1.413-.542,5.886,5.886,0,0,1,.885-.143c.324-.039.592-.008.656.134.024.054.025.075-.051.154a1.517,1.517,0,0,1-.36.2,8.061,8.061,0,0,1-.838.327,8.55,8.55,0,0,1-1.5.343,10.688,10.688,0,0,0-1.45.162" transform="translate(1451.162 -8938.708)" fill="#263238"/>
        <path id="Trazado_239702" data-name="Trazado 239702" d="M135.856,390.967c.049.027.4-.429.557-1.311a4.376,4.376,0,0,0-.016-1.565,4.488,4.488,0,0,0-.276-.9,1.23,1.23,0,0,0-.863-.828.7.7,0,0,0-.669.315,1.837,1.837,0,0,0-.216.5,2.994,2.994,0,0,0-.116.947,3.179,3.179,0,0,0,.459,1.533c.493.8,1.078,1.039,1.1.994.057-.063-.417-.39-.777-1.145a3.165,3.165,0,0,1-.31-1.381,2.776,2.776,0,0,1,.126-.81c.083-.292.23-.519.345-.473.148.016.372.272.465.525a4.647,4.647,0,0,1,.276.809,4.859,4.859,0,0,1,.118,1.44c-.059.83-.276,1.324-.2,1.355" transform="translate(1451.97 -8937.254)" fill="#263238"/>
        <path id="Trazado_239703" data-name="Trazado 239703" d="M197.972,192.043l-49.359,1.578s-10.984,73.363-10.682,78.459l-6.775,53.214,19.713.691s3.1-17.256,5.264-29.066c1.439-7.859,4.064-19.388,4.776-25.95s10.535-51.726,10.535-51.726.854,52.533.874,54.718-2.279,51.982-2.279,51.982h19.574c1.012-8.987,3.413-44.953,3.931-52.221.933-13.121,5.523-50.874,5.952-60.347s-1.525-21.332-1.525-21.332" transform="translate(1453.087 -8867.246)" fill="#263238"/>
        <path id="Trazado_239704" data-name="Trazado 239704" d="M170.013,201.776a15.478,15.478,0,0,1-.139-4.576,15.478,15.478,0,0,1,.139,4.576" transform="translate(1439.179 -8869.104)" fill="#455a64"/>
        <path id="Trazado_239705" data-name="Trazado 239705" d="M172.931,201.341a11.182,11.182,0,0,1,.362-3.871,11.179,11.179,0,0,1-.362,3.871" transform="translate(1438.06 -8869.201)" fill="#455a64"/>
        <path id="Trazado_239706" data-name="Trazado 239706" d="M219.961,201.642a8.3,8.3,0,0,1,0-3.344,8.3,8.3,0,0,1,0,3.344" transform="translate(1421.152 -8869.5)" fill="#455a64"/>
        <path id="Trazado_239707" data-name="Trazado 239707" d="M222.96,202.522a6.287,6.287,0,0,1,.352-4.223,15.9,15.9,0,0,1-.2,2.109,15.923,15.923,0,0,1-.148,2.114" transform="translate(1420.09 -8869.5)" fill="#455a64"/>
        <path id="Trazado_239708" data-name="Trazado 239708" d="M198.5,220.422a4.239,4.239,0,0,1,.115-.858c.1-.615.237-1.392.4-2.32.324-1.959.7-4.677.951-7.7s.3-5.764.3-7.75c-.007-.941-.013-1.73-.017-2.353a4.255,4.255,0,0,1,.025-.866,4.179,4.179,0,0,1,.107.86c.049.555.093,1.36.126,2.355a70.869,70.869,0,0,1-1.255,15.493c-.192.977-.365,1.764-.5,2.3a4.2,4.2,0,0,1-.244.832" transform="translate(1428.826 -8869.601)" fill="#455a64"/>
        <path id="Trazado_239709" data-name="Trazado 239709" d="M194.946,199.414a1.792,1.792,0,0,0-.986.55,1.38,1.38,0,0,0-.322,1.1,1.281,1.281,0,0,0,2.233.424,1.381,1.381,0,0,0,.106-1.145,1.8,1.8,0,0,0-.716-.874c0-.015.131-.018.329.085a1.418,1.418,0,0,1,.612.7,1.583,1.583,0,0,1-.063,1.395,1.572,1.572,0,0,1-2.81-.534,1.584,1.584,0,0,1,.453-1.321,1.42,1.42,0,0,1,.827-.429c.223-.024.34.026.338.042" transform="translate(1430.693 -8869.885)" fill="#455a64"/>
        <path id="Trazado_239710" data-name="Trazado 239710" d="M156.724,323.689a41.76,41.76,0,0,1-4.992-1.866,41.838,41.838,0,0,1-4.863-2.181,41.892,41.892,0,0,1,4.992,1.866,41.8,41.8,0,0,1,4.862,2.181" transform="translate(1447.426 -8913.217)" fill="#455a64"/>
        <path id="Trazado_239711" data-name="Trazado 239711" d="M206.533,150.026c-.175-.63-4.105-33.2-4.105-33.2l2.04-42.267-17.588-6.168L184.1,66.268l-17.678.205-2,2.983-16.739,7.618,4.665,34.628,1.309,28.978,1.238,10.731,49.613,2.959Z" transform="translate(1447.135 -8821.931)" fill="#ffd947"/>
        <g id="Grupo_240918" data-name="Grupo 240918" transform="translate(1632.384 -8693.628)" opacity="0.3">
          <g id="Grupo_240917" data-name="Grupo 240917">
            <g id="Grupo_240916" data-name="Grupo 240916" clip-path="url(#clip-path-5)">
              <path id="Trazado_239712" data-name="Trazado 239712" d="M225,163.241l-18.564,2.231a3.281,3.281,0,0,0,2.144,3.218,7.783,7.783,0,0,0,4.1.259,18.122,18.122,0,0,1,4.13-.376c1.385.122,2.731.669,4.118.583A4.562,4.562,0,0,0,225,163.241" transform="translate(-206.411 -163.241)"/>
            </g>
          </g>
        </g>
        <path id="Trazado_239713" data-name="Trazado 239713" d="M234.575,79.231s4.117.576,6.521,7.79,8.054,33.418,8.415,35.221-1.205,7.558-7.481,10.134a21.768,21.768,0,0,1-10.791,1.692V120.8l2.645-2.885-1.036-4.679Z" transform="translate(1417.028 -8826.601)" fill="#ffd947"/>
        <path id="Trazado_239714" data-name="Trazado 239714" d="M245.755,139.617a5.331,5.331,0,0,1-.628-.264c-.4-.177-.981-.432-1.714-.7a16.567,16.567,0,0,0-2.633-.749,11.832,11.832,0,0,0-1.6-.2,6.488,6.488,0,0,0-1.714.1,8.971,8.971,0,0,0-5.136,3,6.047,6.047,0,0,0-.892,1.6,5.679,5.679,0,0,1-.2.649.6.6,0,0,1,.023-.175c.023-.113.052-.283.107-.5a5.615,5.615,0,0,1,.856-1.658,8.878,8.878,0,0,1,5.205-3.107,6.561,6.561,0,0,1,1.76-.1,11.67,11.67,0,0,1,1.623.216,15.64,15.64,0,0,1,2.647.8c.732.288,1.306.563,1.7.761.2.1.346.18.447.236a.615.615,0,0,1,.15.095" transform="translate(1417.029 -8847.593)" fill="#263238"/>
        <path id="Trazado_239715" data-name="Trazado 239715" d="M243.312,136.558c-.013.033-.5-.191-1.327-.361a7.312,7.312,0,0,0-6.185,1.549c-.652.541-.974.966-1,.943a1.28,1.28,0,0,1,.21-.308,6.012,6.012,0,0,1,.7-.736,6.983,6.983,0,0,1,6.3-1.578,6.035,6.035,0,0,1,.967.318,1.272,1.272,0,0,1,.331.173" transform="translate(1415.745 -8847.008)" fill="#263238"/>
        <path id="Trazado_239716" data-name="Trazado 239716" d="M190.948,86.443a.781.781,0,0,1-.147-.092l-.411-.286a18.81,18.81,0,0,0-1.622-.966c-.714-.384-1.606-.795-2.616-1.285a18.206,18.206,0,0,1-3.224-1.926l.126-.024-3.1,5.2-.111.187-.061-.21-.232-.808a82.934,82.934,0,0,0-3.928-10.684c-.6-1.331-1.109-2.394-1.467-3.126l-.415-.843c-.042-.088-.076-.161-.1-.221a.287.287,0,0,1-.03-.079s.019.022.047.069l.122.213c.1.188.258.465.446.827.38.723.912,1.778,1.524,3.1a76.972,76.972,0,0,1,3.987,10.687l.232.809-.172-.023,3.112-5.194.049-.083.077.059a18.458,18.458,0,0,0,3.182,1.934c1,.5,1.892.923,2.6,1.322a15.707,15.707,0,0,1,1.6,1.012c.177.13.308.237.4.308a.811.811,0,0,1,.13.114" transform="translate(1437.791 -8823.737)" fill="#263238"/>
        <path id="Trazado_239717" data-name="Trazado 239717" d="M207.454,70.463a1.872,1.872,0,0,1,.081.294c.049.21.115.494.2.85.167.757.4,1.823.691,3.131.284,1.324.635,2.9.993,4.652a18.918,18.918,0,0,1,.369,2.795,7.757,7.757,0,0,1-.4,3c-.059.179-.145.347-.214.518l-.07.173-.1-.166a40.656,40.656,0,0,1-2.923-6.158l.143.02-3.3,4.409-.937,1.23-.252.32a.607.607,0,0,1-.093.1.561.561,0,0,1,.072-.12l.232-.335.9-1.256,3.248-4.45.089-.122.054.142a42.244,42.244,0,0,0,2.932,6.121l-.167.006c.067-.165.15-.328.207-.5a7.624,7.624,0,0,0,.395-2.932,19.076,19.076,0,0,0-.355-2.77c-.358-1.749-.681-3.326-.953-4.658l-.632-3.143q-.1-.538-.162-.857a1.83,1.83,0,0,1-.044-.3" transform="translate(1427.693 -8823.441)" fill="#263238"/>
        <path id="Trazado_239718" data-name="Trazado 239718" d="M234.127,96.128c.052,0,.016,6.455-.081,14.416s-.217,14.415-.269,14.415-.017-6.454.08-14.417.217-14.414.27-14.413" transform="translate(1416.122 -8832.688)" fill="#263238"/>
        <path id="Trazado_239719" data-name="Trazado 239719" d="M175.694,46.894l6.719,9.124,8.676,6.969L195,56.177l-.667-6.363-.56-5.336s6.976-1.744,6.42-8.827c-.269-3.421-1.4-10.417-2.488-16.739a13.239,13.239,0,0,0-14.244-10.93l-.683.062c-7.321,1.1-10.478,7.932-9.176,15.221Z" transform="translate(1437.896 -8800.911)" fill="#aa7e72"/>
        <path id="Trazado_239720" data-name="Trazado 239720" d="M199.98,64.051a16.522,16.522,0,0,1-9.462-1.782s2.643,4.893,9.645,3.614Z" transform="translate(1431.699 -8820.489)" fill="#7f5d55"/>
        <path id="Trazado_239721" data-name="Trazado 239721" d="M207.374,33.679a1.014,1.014,0,0,1-.882,1.108.97.97,0,0,1-1.124-.816,1.015,1.015,0,0,1,.88-1.109.971.971,0,0,1,1.125.817" transform="translate(1426.351 -8809.891)" fill="#263238"/>
        <path id="Trazado_239722" data-name="Trazado 239722" d="M207.417,29.623c-.113.143-.93-.354-2.017-.252-1.088.086-1.834.718-1.965.6-.063-.054.043-.3.367-.587a2.778,2.778,0,0,1,1.558-.64,2.672,2.672,0,0,1,1.62.365c.358.226.493.454.436.519" transform="translate(1427.052 -8808.405)" fill="#263238"/>
        <path id="Trazado_239723" data-name="Trazado 239723" d="M191.106,35.2a1.015,1.015,0,0,1-.882,1.108.97.97,0,0,1-1.124-.816,1.015,1.015,0,0,1,.88-1.109.971.971,0,0,1,1.125.817" transform="translate(1432.213 -8810.438)" fill="#263238"/>
        <path id="Trazado_239724" data-name="Trazado 239724" d="M190.469,30.789c-.1.155-.964-.25-2.033-.031-1.072.2-1.746.912-1.888.8-.068-.047.009-.306.3-.624a2.776,2.776,0,0,1,1.479-.805,2.676,2.676,0,0,1,1.65.187c.379.186.539.4.49.468" transform="translate(1433.138 -8808.893)" fill="#263238"/>
        <path id="Trazado_239725" data-name="Trazado 239725" d="M199.446,39.524a7.2,7.2,0,0,1,1.737-.479c.275-.054.533-.133.562-.327a1.415,1.415,0,0,0-.26-.806l-1.013-2.039a36.6,36.6,0,0,1-2.347-5.361,36.455,36.455,0,0,1,2.773,5.16q.513,1.076.98,2.055a1.611,1.611,0,0,1,.243,1.077.7.7,0,0,1-.42.447,1.912,1.912,0,0,1-.466.109,7.108,7.108,0,0,1-1.789.165" transform="translate(1428.962 -8809.047)" fill="#263238"/>
        <path id="Trazado_239726" data-name="Trazado 239726" d="M189.487,23.473c-.081.305-1.178.264-2.44.534-1.267.245-2.262.712-2.455.462-.087-.12.067-.415.457-.738a4.341,4.341,0,0,1,3.73-.759c.486.146.742.357.709.5" transform="translate(1433.843 -8806.28)" fill="#263238"/>
        <path id="Trazado_239727" data-name="Trazado 239727" d="M206.9,26.274c-.17.264-.942.076-1.844.146-.9.038-1.647.317-1.846.075-.088-.118.008-.376.321-.64a2.676,2.676,0,0,1,2.973-.178c.342.225.469.47.4.6" transform="translate(1427.138 -8807.174)" fill="#263238"/>
        <path id="Trazado_239728" data-name="Trazado 239728" d="M172.908,39.952c-.125-.041-4.992-1-4.4,3.827s5.314,3.231,5.305,3.092-.908-6.919-.908-6.919" transform="translate(1439.646 -8812.412)" fill="#aa7e72"/>
        <path id="Trazado_239729" data-name="Trazado 239729" d="M172.828,46.165c-.024-.013-.077.069-.211.152a.845.845,0,0,1-.627.09A2.1,2.1,0,0,1,170.8,44.66a2.805,2.805,0,0,1,.087-1.231.979.979,0,0,1,.553-.723.43.43,0,0,1,.524.169c.081.127.063.227.09.232s.094-.094.029-.288a.536.536,0,0,0-.226-.279.637.637,0,0,0-.48-.065,1.188,1.188,0,0,0-.786.856,2.866,2.866,0,0,0-.125,1.38,2.2,2.2,0,0,0,1.482,1.931.907.907,0,0,0,.754-.222c.134-.138.146-.249.129-.255" transform="translate(1438.937 -8813.352)" fill="#7f5d55"/>
        <path id="Trazado_239730" data-name="Trazado 239730" d="M195.239,7.729A2.475,2.475,0,0,0,193.2,5.923a2.277,2.277,0,0,0-.94-2.59,2.278,2.278,0,0,0-2.735.341,2.272,2.272,0,0,0-3.266-1.741,1.914,1.914,0,0,0-3.665-.716,3.3,3.3,0,0,0-5.16.049,4.217,4.217,0,0,0-4.9,2.716,4.011,4.011,0,0,0-3.264,3.062,2.93,2.93,0,0,0-1.746,4.763,2.169,2.169,0,0,0-.136,3.452,2.131,2.131,0,0,0,.4,3.832c-.7.153-.9,1.119-.629,1.785a21.045,21.045,0,0,0,1.181,1.8c.281.523.4,1.116.652,1.656a3.848,3.848,0,0,0,2.487,2.072l-.113.157c-.07.631.832.979,1.393.681a3.159,3.159,0,0,0,1.126-1.5,6.951,6.951,0,0,0,.841-2A1.687,1.687,0,0,0,173.9,21.9a2.528,2.528,0,0,0,1.352-2.132,7.448,7.448,0,0,0-.389-2.607l-1.032-3.773a4.853,4.853,0,0,0,3.925-3.121,2.779,2.779,0,0,0,3.927-1.348,3.619,3.619,0,0,0,4.585,1.83c-.1,1.018,1.78,1.785,2.789,1.96a3.575,3.575,0,0,0,2.18-.632s1.784.848,2.678.393c.877-.445,2-1.723,1.313-2.626a4.509,4.509,0,0,0,.01-2.119" transform="translate(1440.398 -8798.055)" fill="#263238"/>
        <path id="Trazado_239731" data-name="Trazado 239731" d="M167.578,22.116c.045-.021.106.327.536.581a.932.932,0,0,0,.8.071.981.981,0,0,0,.61-.776l.031-.3.242.178a1.263,1.263,0,0,0,1.984-1.263l-.06-.282.272.086a1.271,1.271,0,0,0,1.526-.672,3.431,3.431,0,0,0,.182-.731c.022-.014.173.293.006.809a1.424,1.424,0,0,1-.594.742,1.544,1.544,0,0,1-1.215.175l.212-.2A1.588,1.588,0,0,1,169.6,22.15l.273-.117a1.265,1.265,0,0,1-.853,1.008A1.131,1.131,0,0,1,168,22.874c-.476-.367-.45-.773-.422-.758" transform="translate(1439.969 -8804.905)" fill="#455a64"/>
        <path id="Trazado_239732" data-name="Trazado 239732" d="M167.1,28.261a2.973,2.973,0,0,0,.536.157,1.164,1.164,0,0,0,1.169-.627l.08-.177.146.131a1.3,1.3,0,0,0,1.264.233,1.261,1.261,0,0,0,.8-1.212l-.015-.319.285.15a.84.84,0,0,0,.23.082.891.891,0,0,0,.948-.415.934.934,0,0,0-.047-.967l-.207-.284.347.022a1.522,1.522,0,0,0,1.569-1.16,3.36,3.36,0,0,0,.035-.854c.017-.017.234.292.157.892a1.668,1.668,0,0,1-.486.95,1.79,1.79,0,0,1-1.291.5l.139-.262a1.256,1.256,0,0,1,.1,1.333,1.239,1.239,0,0,1-1.331.6,1.221,1.221,0,0,1-.335-.12l.27-.169a1.555,1.555,0,0,1-2.625,1.2l.226-.047a1.237,1.237,0,0,1-.736.628,1.332,1.332,0,0,1-.718.041c-.395-.1-.526-.306-.51-.315" transform="translate(1440.137 -8806.349)" fill="#455a64"/>
        <path id="Trazado_239733" data-name="Trazado 239733" d="M189.278,2.651a1.817,1.817,0,0,0-.574-.265,1.027,1.027,0,0,0-.7.1,1.049,1.049,0,0,0-.525.753l-.04.281-.168-.234a1.775,1.775,0,0,0-1.566-.7,1.722,1.722,0,0,0-1.487,1.359l-.063.327-.226-.246a2.157,2.157,0,0,0-1.745-.653A2.111,2.111,0,0,0,180.318,5.3l-.015.2-.2-.03A2.075,2.075,0,0,0,177.9,6.758a2.117,2.117,0,0,0,.546,2.229l.2.182-.262.071a2.293,2.293,0,0,0-1.367,1.057,2.245,2.245,0,0,0-.288,1.319,3.456,3.456,0,0,0,.36,1.15c-.01.008-.095-.07-.21-.251a2.263,2.263,0,0,1-.316-.88,2.353,2.353,0,0,1,.247-1.452,2.513,2.513,0,0,1,1.5-1.227l-.058.253a2.412,2.412,0,0,1-.674-2.566,2.411,2.411,0,0,1,2.589-1.533l-.21.168a2.46,2.46,0,0,1,2.2-2.259,2.487,2.487,0,0,1,2.025.782l-.29.081a1.975,1.975,0,0,1,3.573-.724l-.208.047a1.231,1.231,0,0,1,.669-.876,1.133,1.133,0,0,1,.814-.065,1.087,1.087,0,0,1,.441.246c.083.08.111.134.1.139" transform="translate(1436.736 -8798.854)" fill="#455a64"/>
        <path id="Trazado_239734" data-name="Trazado 239734" d="M200.647,42.755a1.523,1.523,0,0,0-2.193.878,1.892,1.892,0,0,0-3.314.786,1.551,1.551,0,0,0-2.608-.277,1.22,1.22,0,0,0-1.348-.447,1.2,1.2,0,0,0-2.02-.942,1.953,1.953,0,0,0-2.911-.3,1.083,1.083,0,0,0-2.082.205,1.76,1.76,0,0,0-2.057-.4,1.173,1.173,0,0,0-1.523-.984c.131-.609-.764-.824-1.24-1.225-.213-.18-.358-.434-.585-.594s-.606-.176-.733.072a1,1,0,0,0-1.923-.536,3.037,3.037,0,0,0-.111.864c-.077.937-.53,2.073.185,2.685.126.108.286.194.347.348.1.264-.145.537-.147.82,0,.33.315.561.468.853A3.033,3.033,0,0,1,176.923,46c0,.489.31,1.088.791,1.009a1.71,1.71,0,0,0,.666,2.08,1.666,1.666,0,0,0,1.11,2.126.858.858,0,0,0,.007,1.128,2.5,2.5,0,0,0,1.038.657.71.71,0,0,0-.109,1,1.619,1.619,0,0,0,.986.523.712.712,0,0,1,.436.2c.189.241-.022.6.044.9.1.458.761.55.982.963.2.368,0,.914.324,1.18.209.173.518.119.779.193.464.131.7.63,1.01,1a4.067,4.067,0,0,0,2.428,1.12q.683.129,1.373.212c.917.113,1.84.166,2.762.22.458.026,1.018,0,1.232-.406a1.583,1.583,0,0,0,2.5-.452,3.833,3.833,0,0,0,2.417-.616l.784-.4c.779-.4,1.641-.9,1.824-1.756a1.763,1.763,0,0,0,1.116-2.488c.371.081.7-.309.736-.688a3.429,3.429,0,0,0-.212-1.113c-.371-1.5.339-3.1.035-4.615-.213-1.061-.916-2.08-.674-3.136a1.892,1.892,0,0,0,.111-.654c-.029-.221-.248-.438-.456-.36a.991.991,0,0,0-1.08-1.249" transform="translate(1437.007 -8811.873)" fill="#263238"/>
        <path id="Trazado_239735" data-name="Trazado 239735" d="M195.227,46.232c.176-.026.285,1.153,1.372,1.9s2.331.5,2.355.666c.024.072-.259.255-.789.317a2.952,2.952,0,0,1-1.96-.489,2.57,2.57,0,0,1-1.074-1.6c-.09-.489.015-.793.1-.794" transform="translate(1430.05 -8814.711)" fill="#fff"/>
        <path id="Trazado_239736" data-name="Trazado 239736" d="M184.835,57.091a10.575,10.575,0,0,1-.612-2.477,10.625,10.625,0,0,1,.194-2.544,2.123,2.123,0,0,0-.254.72,6.031,6.031,0,0,0,.3,3.634,2.127,2.127,0,0,0,.37.668" transform="translate(1434.043 -8816.814)" fill="#455a64"/>
        <path id="Trazado_239737" data-name="Trazado 239737" d="M182.995,55.092c.024-.024-.16-.181-.3-.521a3.493,3.493,0,0,1-.206-1.423c.017-1.151.278-2.059.222-2.075a4.759,4.759,0,0,0-.414,2.071,3.06,3.06,0,0,0,.276,1.485c.189.353.417.479.425.463" transform="translate(1434.663 -8816.456)" fill="#455a64"/>
        <path id="Trazado_239738" data-name="Trazado 239738" d="M180.953,53.543a7.189,7.189,0,0,1-.642-2.079,7.2,7.2,0,0,1,.2-2.167,1.561,1.561,0,0,0-.26.6,4.3,4.3,0,0,0,.324,3.106,1.553,1.553,0,0,0,.379.537" transform="translate(1435.453 -8815.815)" fill="#455a64"/>
        <path id="Trazado_239739" data-name="Trazado 239739" d="M212.966,62.561a1.254,1.254,0,0,0,.648-.473,3.874,3.874,0,0,0,.74-1.784,5.958,5.958,0,0,0,.042-1.929,2.206,2.206,0,0,0-.2-.772,9.762,9.762,0,0,1-.028,2.666A4.289,4.289,0,0,1,213.507,62a4.594,4.594,0,0,1-.541.556" transform="translate(1423.612 -8818.809)" fill="#455a64"/>
        <path id="Trazado_239740" data-name="Trazado 239740" d="M211.326,62.761a1.52,1.52,0,0,0,.522-.416,3.8,3.8,0,0,0,.97-3,1.51,1.51,0,0,0-.179-.643,4.751,4.751,0,0,0,.044.654,4.347,4.347,0,0,1-.938,2.9,4.9,4.9,0,0,0-.419.505" transform="translate(1424.203 -8819.204)" fill="#455a64"/>
        <path id="Trazado_239741" data-name="Trazado 239741" d="M203.294,49.551a1.179,1.179,0,0,0,.038-.923c-.135-.513-.46-.818-.493-.78s.187.364.308.83.091.865.147.873" transform="translate(1427.262 -8815.293)" fill="#455a64"/>
        <path id="Trazado_239742" data-name="Trazado 239742" d="M201.6,49.316c.034.038.322-.253.366-.731s-.178-.818-.219-.787.073.354.029.769-.221.716-.175.749" transform="translate(1427.707 -8815.275)" fill="#455a64"/>
        <path id="Trazado_239743" data-name="Trazado 239743" d="M199.645,48.885c.037.034.3-.236.388-.674a.929.929,0,0,0-.082-.773c-.054.012-.02.344-.106.734s-.246.681-.2.714" transform="translate(1428.414 -8815.146)" fill="#455a64"/>
        <path id="Trazado_239744" data-name="Trazado 239744" d="M198.164,47.7c.046.024.184-.156.256-.418s.049-.487,0-.491-.113.2-.182.439-.119.446-.071.47" transform="translate(1428.951 -8814.914)" fill="#455a64"/>
        <path id="Trazado_239745" data-name="Trazado 239745" d="M196.929,47.171c.051.022.2-.225.459-.454s.518-.355.5-.407-.336,0-.628.265-.379.58-.331.6" transform="translate(1429.394 -8814.733)" fill="#455a64"/>
        <path id="Trazado_239746" data-name="Trazado 239746" d="M195.073,46.032c.04.04.348-.244.821-.4s.888-.116.9-.173a1.154,1.154,0,0,0-.956-.01c-.527.172-.8.551-.761.578" transform="translate(1430.06 -8814.4)" fill="#455a64"/>
        <path id="Trazado_239747" data-name="Trazado 239747" d="M203.4,64.537a2.248,2.248,0,0,0,.473-.68,5.268,5.268,0,0,0,.37-3.911,2.237,2.237,0,0,0-.336-.756c-.03.013.09.3.205.791a5.98,5.98,0,0,1-.361,3.817c-.2.457-.377.72-.351.739" transform="translate(1427.059 -8819.38)" fill="#455a64"/>
        <path id="Trazado_239748" data-name="Trazado 239748" d="M201.443,65.361a4.126,4.126,0,0,0,.856-3.885,9.077,9.077,0,0,1-.116,2.011,9.063,9.063,0,0,1-.74,1.874" transform="translate(1427.764 -8820.204)" fill="#455a64"/>
        <path id="Trazado_239749" data-name="Trazado 239749" d="M197.982,65.312a1.161,1.161,0,0,0,.486-.274,3.364,3.364,0,0,0,1.253-2.329,1.153,1.153,0,0,0-.04-.557,4.443,4.443,0,0,1-1.7,3.159" transform="translate(1429.01 -8820.448)" fill="#455a64"/>
        <path id="Trazado_239750" data-name="Trazado 239750" d="M224.541,141.966l-9.885-.127a1.864,1.864,0,0,0-1.641.943l-6.762,14.638.255.988H218l6.719-15.1Z" transform="translate(1426.03 -8849.158)" fill="#263238"/>
        <path id="Trazado_239751" data-name="Trazado 239751" d="M224.881,145.071l-.365.825-2,4.05s-5.182-.464-6-.573-1.25.761-1.3,1.272a1.834,1.834,0,0,0,.434,1.1,23.88,23.88,0,0,1-4.291-1.772c-1.087-.761-1.63-.283-1.63-.283a1.5,1.5,0,0,0-2.281.283,18.669,18.669,0,0,0,1.576,3.816c.434.665,2.824,2.975,2.987,3.246s2.009.761,4.128,1.922a3.136,3.136,0,0,0,3.668-.377,2.672,2.672,0,0,0,.3-.024c.489-.054,1.792-1.3,2.118-1.264s.6-.04,1.25-.761a21.589,21.589,0,0,0,2.868-5.417c.379-1.293.157-1.627.049-1.711a6.125,6.125,0,0,0,1.917.57c1.358.217,2.064-.76,2.173-2.607s-4.076-1.8-5.6-2.293" transform="translate(1425.601 -8850.322)" fill="#aa7e72"/>
        <path id="Trazado_239752" data-name="Trazado 239752" d="M228.8,157.229a1.415,1.415,0,0,1-.344.083,8.051,8.051,0,0,1-.956.118,11.279,11.279,0,0,1-6.141-1.331,8.314,8.314,0,0,1-.821-.5,1.408,1.408,0,0,1-.278-.217c.016-.025.433.255,1.153.616a12.485,12.485,0,0,0,6.08,1.317c.8-.031,1.3-.112,1.305-.083" transform="translate(1420.985 -8854.035)" fill="#7f5d55"/>
        <path id="Trazado_239753" data-name="Trazado 239753" d="M232.382,152.475a3.466,3.466,0,0,1-2.438.109c.01-.049.552.033,1.222,0s1.2-.157,1.216-.11" transform="translate(1417.495 -8852.986)" fill="#7f5d55"/>
        <path id="Trazado_239754" data-name="Trazado 239754" d="M235.67,151.665c-.02.045-.754-.266-1.7-.525s-1.73-.376-1.725-.425a7.31,7.31,0,0,1,3.421.95" transform="translate(1416.664 -8852.351)" fill="#7f5d55"/>
        <path id="Trazado_239755" data-name="Trazado 239755" d="M236.676,146.756c.047.015-.141.58-.148,1.3a2.961,2.961,0,0,0,.091.9c.073.216.221.269.21.292s-.044.012-.111-.02a.492.492,0,0,1-.207-.224,2.25,2.25,0,0,1-.15-.948,2.384,2.384,0,0,1,.315-1.3" transform="translate(1415.182 -8850.93)" fill="#7f5d55"/>
        <path id="Trazado_239756" data-name="Trazado 239756" d="M221.947,159.344a.584.584,0,0,1-.161.006l-.46-.017c-.4-.02-.977-.051-1.688-.134a12.525,12.525,0,0,1-2.465-.516,8.32,8.32,0,0,1-1.37-.593c-.455-.247-.9-.538-1.363-.83-2.064-1.318-3.9-2.506-5.089-3.286l-.028-.019,0-.031a1.794,1.794,0,0,1,.656-1.179,1.605,1.605,0,0,1,.308-.194.4.4,0,0,1,.118-.042,3.8,3.8,0,0,0-.39.279,1.783,1.783,0,0,0-.588,1.146l-.024-.05c1.206.748,3.058,1.916,5.122,3.234.459.293.9.582,1.35.827a8.322,8.322,0,0,0,1.341.591,13.134,13.134,0,0,0,2.43.545c.706.1,1.281.145,1.678.186l.458.047a.572.572,0,0,1,.159.028" transform="translate(1424.924 -8853.002)" fill="#7f5d55"/>
        <path id="Trazado_239757" data-name="Trazado 239757" d="M220.331,162.772a2.594,2.594,0,0,1-.486-.053c-.31-.048-.759-.126-1.309-.246a24.877,24.877,0,0,1-4.2-1.3,8.628,8.628,0,0,1-2.084-1.247,12.261,12.261,0,0,1-1.418-1.383c-.373-.422-.656-.778-.851-1.024a2.763,2.763,0,0,1-.287-.4,2.766,2.766,0,0,1,.336.354c.209.234.506.578.888.986a13.4,13.4,0,0,0,1.427,1.343,8.826,8.826,0,0,0,2.055,1.214,28.751,28.751,0,0,0,4.159,1.334c.544.134.988.23,1.294.3a2.988,2.988,0,0,1,.474.117" transform="translate(1424.789 -8854.666)" fill="#7f5d55"/>
        <path id="Trazado_239758" data-name="Trazado 239758" d="M149.647,93a26.606,26.606,0,0,1-1.043-3,26.546,26.546,0,0,1-.862-3.055,26.658,26.658,0,0,1,1.043,3A26.711,26.711,0,0,1,149.647,93" transform="translate(1447.113 -8829.38)" fill="#263238"/>
        <path id="Trazado_239759" data-name="Trazado 239759" d="M235.776,82.386a4.553,4.553,0,0,1-.091.892c-.083.615-.18,1.338-.287,2.137s-.177,1.524-.248,2.142a4.582,4.582,0,0,1-.131.887,3.982,3.982,0,0,1,0-.9c.027-.553.089-1.316.193-2.155s.233-1.593.343-2.135a3.962,3.962,0,0,1,.223-.869" transform="translate(1415.673 -8827.737)" fill="#263238"/>
        <path id="Trazado_239760" data-name="Trazado 239760" d="M201.563,162.283a.633.633,0,0,1-.013-.177c0-.138,0-.308,0-.518.006-.486.014-1.151.024-1.992.038-1.762.091-4.256.157-7.325.163-6.211.387-14.74.634-24.162.226-9.436.106-17.983-.324-24.151-.191-3.085-.466-5.572-.644-7.291-.1-.835-.179-1.5-.237-1.977l-.052-.516A.634.634,0,0,1,201.1,94a.62.62,0,0,1,.042.172c.024.136.053.3.089.51q.112.72.306,1.97c.223,1.716.537,4.2.762,7.291.5,6.173.659,14.735.432,24.177s-.536,17.978-.741,24.162c-.115,3.068-.208,5.561-.274,7.321-.039.841-.07,1.506-.093,1.99-.013.209-.025.379-.033.518a.664.664,0,0,1-.024.176" transform="translate(1427.889 -8831.921)" fill="#263238"/>
        <path id="Trazado_239761" data-name="Trazado 239761" d="M197.178,160.033a4.645,4.645,0,0,1-.738.59c-.487.363-1.211.864-2.119,1.46a72.107,72.107,0,0,1-15.187,7.529c-1.024.362-1.86.635-2.444.8a4.638,4.638,0,0,1-.917.23,4.648,4.648,0,0,1,.871-.366l2.4-.91c2.02-.782,4.782-1.937,7.743-3.4s5.55-2.967,7.4-4.1l2.178-1.358a4.632,4.632,0,0,1,.818-.472" transform="translate(1437.011 -8855.713)" fill="#263238"/>
        <g id="Grupo_240921" data-name="Grupo 240921" transform="translate(1584.53 -8695.323)" opacity="0.3">
          <g id="Grupo_240920" data-name="Grupo 240920">
            <g id="Grupo_240919" data-name="Grupo 240919" clip-path="url(#clip-path-6)">
              <path id="Trazado_239762" data-name="Trazado 239762" d="M143.75,163.491a28.173,28.173,0,0,0-5.629-2.476,9.453,9.453,0,0,0-6.05.146c-.212.087-.45.226-.465.454-.021.318.379.468.693.518,3.772.6,7.76.877,11.539,1.431" transform="translate(-131.605 -160.591)"/>
            </g>
          </g>
        </g>
        <g id="Grupo_240924" data-name="Grupo 240924" transform="translate(1597.418 -8729.056)" opacity="0.3">
          <g id="Grupo_240923" data-name="Grupo 240923">
            <g id="Grupo_240922" data-name="Grupo 240922" clip-path="url(#clip-path-7)">
              <path id="Trazado_239763" data-name="Trazado 239763" d="M152.482,107.86A39.9,39.9,0,0,0,153.7,127.8Z" transform="translate(-151.751 -107.86)"/>
            </g>
          </g>
        </g>
        <path id="Trazado_239764" data-name="Trazado 239764" d="M170.112,207.635a49.675,49.675,0,0,1-4.99-4.57c-1.121-1.427-1.853-2.254-1.853-2.254s-4.634-1.388-6.338-3.347-4.5-4.789-4.5-4.789l-5.493,5.757s3.168,5.136,3.426,6.828a47.252,47.252,0,0,0,2.192,6.357l10.543-6.3s2.245,3.143,3.683,3.486c1.179.281,3.24,1.132,3.332-1.166" transform="translate(1447.401 -8867.474)" fill="#aa7e72"/>
        <path id="Trazado_239765" data-name="Trazado 239765" d="M138.984,83.16s-3.8.967-7.566,15.132c-3.4,12.789-8.023,37.475-7.865,39.958S138.4,163.008,138.4,163.008l3.172,1.127,6.822-5.671s2.227-3.693,1.593-4.6a21.081,21.081,0,0,0-3.466-2.791l-5.583-15.411,3.1-20.427Z" transform="translate(1455.828 -8828.017)" fill="#ffd947"/>
        <path id="Trazado_239766" data-name="Trazado 239766" d="M141.737,163.727a1.505,1.505,0,0,1,.411.026l1.159.155c1.064.161,2.489.379,4.205.641l.083.012.03.081,3.2,8.712,2.4,6.694-.051-.071c.459.388.914.717,1.32,1.12a4.6,4.6,0,0,1,1.288,3.836,6.448,6.448,0,0,1-.482,1.573,2.5,2.5,0,0,1-.242.527,2.487,2.487,0,0,1,.147-.562,7.52,7.52,0,0,0,.387-1.561,4.514,4.514,0,0,0-.434-2.391,4.459,4.459,0,0,0-.874-1.211c-.374-.36-.855-.7-1.314-1.078l-.035-.029-.015-.042-2.443-6.68c-1.178-3.3-2.262-6.327-3.124-8.738l.112.093-4.185-.765-1.146-.232a1.463,1.463,0,0,1-.4-.111" transform="translate(1449.275 -8857.042)" fill="#263238"/>
        <path id="Trazado_239767" data-name="Trazado 239767" d="M153.049,107.11c.1-.006.743,10.413,1.432,23.267s1.166,23.284,1.065,23.289-.743-10.411-1.433-23.269-1.166-23.281-1.064-23.287" transform="translate(1445.204 -8836.646)" fill="#263238"/>
      </g>
      <path id="Trazado_239769" data-name="Trazado 239769" d="M921.822,3166.107h190" fill="none" stroke="#707070" stroke-width="1"/>
    </g>
  </g>
</svg>
