<svg xmlns="http://www.w3.org/2000/svg" xmlns:xlink="http://www.w3.org/1999/xlink" width="820" height="411.577" viewBox="0 0 820 411.577">
  <defs>
    <clipPath id="clip-path">
      <path id="Trazado_237955" data-name="Trazado 237955" d="M93.04,27.853H24.271v20.77H156.6l7.388-10.385V27.853Z" fill="none"/>
    </clipPath>
    <linearGradient id="linear-gradient" x1="-0.174" y1="106.18" x2="-0.167" y2="106.18" gradientUnits="objectBoundingBox">
      <stop offset="0" stop-color="#b3009d"/>
      <stop offset="1" stop-color="#3c0061"/>
    </linearGradient>
    <clipPath id="clip-path-2">
      <path id="Trazado_237956" data-name="Trazado 237956" d="M10,38.238A28.236,28.236,0,1,0,38.236,10,28.237,28.237,0,0,0,10,38.238" fill="none"/>
    </clipPath>
    <linearGradient id="linear-gradient-2" x1="-0.177" y1="39.367" x2="-0.159" y2="39.367" gradientUnits="objectBoundingBox">
      <stop offset="0" stop-color="#c238b2"/>
      <stop offset="1" stop-color="#9c0088"/>
    </linearGradient>
  </defs>
  <g id="Grupo_242675" data-name="Grupo 242675" transform="translate(8714 7494)">
    <rect id="Rectángulo_314588" data-name="Rectángulo 314588" width="820" height="411.577" transform="translate(-8714 -7494)" fill="#f0f0f0"/>
    <path id="Trazado_237934" data-name="Trazado 237934" d="M340.418,237.017a3.522,3.522,0,0,1,1.835-.373q17.814,0,35.628.006a4.834,4.834,0,0,1,5.106,5.134q.018,24.182.006,48.362a4.2,4.2,0,0,1-.335,1.961q-20.092.006-40.185.009c-1.375,0-1.981-.654-1.982-2.1q-.009-7.256,0-14.511c0-.354,0-3.724,0-3.98q0-4.217,0-8.432c0-.257-.026-.525.23-.7.967,2.5,2.811,3.548,5.468,3.536,9.263-.044,18.526-.017,27.788-.019a9.624,9.624,0,0,0,1.114-.044,4.713,4.713,0,0,0,4.448-4.841q.074-8.091,0-16.182a4.716,4.716,0,0,0-3.771-4.656c-1.478-.372-2.12-.007-2.572,1.459l-3.392-.025c-.385-1.287-.759-1.566-2.163-1.567q-10.809,0-21.617,0a5.058,5.058,0,0,0-5.31,3.566c-.374-.326-.2-.763-.216-1.152-.055-1.817.078-3.637-.077-5.453" transform="translate(-8714 -7494.002)" fill="#857e87"/>
    <path id="Trazado_237935" data-name="Trazado 237935" d="M340.418,237.017c.155,1.816.022,3.636.077,5.453.011.389-.158.826.216,1.152-.082,6.258-.1,12.515.008,18.773-.256.174-.23.442-.23.7,0,2.811,0,22.086,0,26.923,0,1.445.607,2.1,1.982,2.1q20.093,0,40.185-.009a5.075,5.075,0,0,1-5.141,3.323q-4.8.006-9.606,0-12.567,0-25.133,0c-3.569,0-5.634-2.046-5.634-5.585q0-23.961,0-47.921a4.77,4.77,0,0,1,3.273-4.907" transform="translate(-8714 -7494.002)" fill="#6f6571"/>
    <path id="Trazado_237936" data-name="Trazado 237936" d="M353.662,300.508c0,.408.014.817,0,1.224a1.689,1.689,0,0,1-1.607,1.78,1.761,1.761,0,0,1-1.889-1.634c-.068-.96-.012-1.928-.023-2.893-.006-.443.227-.583.628-.567.259.01.519,0,.779,0,2.118,0,2.118,0,2.115,2.09" transform="translate(-8714 -7494.002)" fill="#6f6571"/>
    <path id="Trazado_237937" data-name="Trazado 237937" d="M369.966,300.491c0,.444.028.89-.006,1.331a1.687,1.687,0,0,1-1.584,1.69,1.662,1.662,0,0,1-1.834-1.413,18.375,18.375,0,0,1-.072-3.209c0-.317.181-.464.491-.465s.592-.006.888-.006c2.124,0,2.124,0,2.117,2.072" transform="translate(-8714 -7494.002)" fill="#6f6571"/>
    <path id="Trazado_237938" data-name="Trazado 237938" d="M340.718,262.395c-.1-6.257-.09-12.514-.008-18.772a5.057,5.057,0,0,1,5.311-3.566q10.808,0,21.616,0c1.4,0,1.779.279,2.163,1.566-.45,1.285-.751,1.512-2.1,1.513q-10.935.006-21.87.006c-1.553,0-2.168.616-2.18,2.155-.013,1.748,0,3.5,0,5.244,0,3.385-.009,6.77,0,10.155.005,1.406.613,2.126,1.852,2.146,2.009.032,4.018,0,6.026.018.441,0,.7-.12.788-.575a6.611,6.611,0,0,1,2.605-4.029c.531-.362.481-.691.248-1.2-.921-1.99-1.806-4-2.7-6a5.15,5.15,0,0,1-.389-1.04,1.387,1.387,0,0,1,.829-1.653,1.407,1.407,0,0,1,1.869.509,4.934,4.934,0,0,1,.46.887c.9,2,1.784,4.009,2.686,6.009.157.346.2.825.807.723a8.134,8.134,0,0,1,7.829,3.03,8.572,8.572,0,0,1,1.178,2.506c.134.72.519.846,1.161.834,1.783-.034,3.567-.007,5.35-.014,1.65-.006,2.224-.564,2.231-2.193.011-2.6,0-5.2,0-7.8,0-2.563.01-5.127-.006-7.691-.007-1.266-.445-1.85-1.616-2a1.776,1.776,0,0,1-1.669-1.516c.452-1.466,1.094-1.83,2.571-1.458a4.716,4.716,0,0,1,3.772,4.656q.069,8.091,0,16.181a4.714,4.714,0,0,1-4.448,4.842,9.632,9.632,0,0,1-1.114.043c-9.263,0-18.526-.025-27.787.019-2.659.013-4.5-1.033-5.47-3.536m19.371.434c1.264,0,2.53.014,3.794-.005.823-.012.916-.193.51-.917a4.986,4.986,0,0,0-8.605-.049c-.457.834-.379.964.616.97,1.228.007,2.456,0,3.685,0" transform="translate(-8714 -7494.002)" fill="#010101"/>
    <path id="Trazado_237939" data-name="Trazado 237939" d="M353.631,259.48a10.544,10.544,0,0,0-1.317,2.8c-.09.455-.347.579-.788.574-2.009-.017-4.018.015-6.026-.017-1.239-.02-1.847-.74-1.852-2.146-.013-3.385-.005-6.77-.005-10.155,0-1.749-.009-3.5,0-5.244.011-1.539.627-2.154,2.179-2.156q10.935-.009,21.871-.006c1.352,0,1.654-.228,2.1-1.511q1.7.011,3.393.025a1.776,1.776,0,0,0,1.669,1.515c1.17.149,1.609.732,1.616,2,.015,2.565.005,5.129.005,7.692,0,2.6.008,5.2,0,7.8-.007,1.63-.581,2.188-2.231,2.2-1.783.006-3.567-.021-5.35.013-.644.013-1.027-.114-1.161-.834a8.587,8.587,0,0,0-1.178-2.506c1.116-.01,2.232,0,3.347-.036a3.146,3.146,0,0,0,3.2-3.066q.092-3.4,0-6.8a3.138,3.138,0,0,0-3.163-3.086q-9.931-.012-19.861,0a2.872,2.872,0,0,0-2.883,2.3,29.173,29.173,0,0,0-.1,7.875c.173,1.874,1.51,2.777,3.413,2.783,1.041.005,2.083-.006,3.124-.01" transform="translate(-8714 -7494.002)" fill="#b3e59f"/>
    <path id="Trazado_237940" data-name="Trazado 237940" d="M353.631,259.48c-1.041,0-2.083.015-3.124.01-1.9-.006-3.24-.909-3.413-2.783a29.173,29.173,0,0,1,.1-7.875,2.872,2.872,0,0,1,2.883-2.3q9.93-.014,19.861,0a3.138,3.138,0,0,1,3.163,3.086q.085,3.4,0,6.8a3.146,3.146,0,0,1-3.2,3.066c-1.115.033-2.231.026-3.347.036a8.128,8.128,0,0,0-7.829-3.029c-.6.1-.65-.377-.807-.724-.9-2-1.788-4.007-2.686-6.008a4.877,4.877,0,0,0-.46-.888,1.408,1.408,0,0,0-1.869-.51,1.389,1.389,0,0,0-.829,1.654,5.151,5.151,0,0,0,.388,1.039c.892,2.005,1.777,4.013,2.7,6,.233.5.282.833-.248,1.194a10.611,10.611,0,0,0-1.288,1.225" transform="translate(-8714 -7494.002)" fill="#ccf49f"/>
    <path id="Trazado_237941" data-name="Trazado 237941" d="M360.089,262.829c-1.229,0-2.457.006-3.685,0-.995-.006-1.073-.136-.616-.97a4.986,4.986,0,0,1,8.605.049c.406.724.313.906-.51.918-1.264.018-2.53.005-3.794.005" transform="translate(-8714 -7494.002)" fill="#6f6571"/>
    <path id="Trazado_237942" data-name="Trazado 237942" d="M353.467,273.315a3.949,3.949,0,1,1-3.949-3.949,3.949,3.949,0,0,1,3.949,3.949" transform="translate(-8714 -7494.002)" fill="#010101"/>
    <path id="Trazado_237943" data-name="Trazado 237943" d="M350.46,273.315a.941.941,0,1,1-.942-.941.941.941,0,0,1,.942.941" transform="translate(-8714 -7494.002)" fill="#ccf49f"/>
    <path id="Trazado_237944" data-name="Trazado 237944" d="M374.68,273.315a3.949,3.949,0,1,1-3.949-3.949,3.949,3.949,0,0,1,3.949,3.949" transform="translate(-8714 -7494.002)" fill="#010101"/>
    <path id="Trazado_237945" data-name="Trazado 237945" d="M371.672,273.315a.941.941,0,1,1-.941-.941.941.941,0,0,1,.941.941" transform="translate(-8714 -7494.002)" fill="#ff8086"/>
    <path id="Trazado_237946" data-name="Trazado 237946" d="M369.78,284.729h-2.466a.917.917,0,0,1-.95-.915.936.936,0,0,1,.95-.9h2.466v-2.623a.94.94,0,0,1,.951-.916.929.929,0,0,1,.951.916v2.623h2.465a.948.948,0,0,1,.951.9.928.928,0,0,1-.951.915h-2.465v2.624a.914.914,0,0,1-.951.9.937.937,0,0,1-.951-.9Z" transform="translate(-8714 -7494.002)"/>
    <path id="Trazado_237947" data-name="Trazado 237947" d="M346.1,284.729a.918.918,0,0,1-.951-.915.937.937,0,0,1,.951-.9h6.833a.949.949,0,0,1,.951.9.929.929,0,0,1-.951.915Z" transform="translate(-8714 -7494.002)"/>
    <line id="Línea_295" data-name="Línea 295" y2="15.516" transform="translate(-8362.079 -7188.215)" fill="none" stroke="#000" stroke-miterlimit="10" stroke-width="3.082"/>
    <line id="Línea_296" data-name="Línea 296" x2="15.516" transform="translate(-8282.232 -7172.699)" fill="none" stroke="blue" stroke-miterlimit="10" stroke-width="3.082"/>
    <line id="Línea_297" data-name="Línea 297" x2="15.516" transform="translate(-8282.232 -7158.021)" fill="none" stroke="blue" stroke-miterlimit="10" stroke-width="3.082"/>
    <path id="Trazado_237948" data-name="Trazado 237948" d="M351.921,319.75v16.23h79.847" transform="translate(-8714 -7494.002)" fill="none" stroke="red" stroke-miterlimit="10" stroke-width="3.082"/>
    <rect id="Rectángulo_314589" data-name="Rectángulo 314589" width="3.082" height="13.962" transform="translate(-8347.336 -7188.214)"/>
    <path id="Trazado_237949" data-name="Trazado 237949" d="M477.476,298.449H447.283v60.385h45.289V298.449Z" transform="translate(-8714 -7494.002)" fill="none" stroke="blue" stroke-miterlimit="10" stroke-width="3.082"/>
    <path id="Trazado_237950" data-name="Trazado 237950" d="M346.184,298.428c.711-.03,1.03.147.966.919-.063.74-.012,1.489-.013,2.234a4.581,4.581,0,0,0,2.641,4.434.912.912,0,0,1,.589.786h3.091a.88.88,0,0,1,.575-.754,4.619,4.619,0,0,0,2.655-4.433c.006-.782.035-1.566-.008-2.346-.034-.624.167-.867.817-.837,1,.046,2.012-.01,3.017.018.923.026,2.118-.4,2.7.161.639.613.146,1.834.224,2.786.006.074,0,.149,0,.223a4.608,4.608,0,0,0,2.679,4.414.9.9,0,0,1,.574.768h3.052v0a.784.784,0,0,1,.552-.721,4.774,4.774,0,0,0,2.718-4.632c0-.745.03-1.492-.008-2.235-.03-.579.174-.789.761-.775,1.3.031,2.607.015,3.911.005a8.023,8.023,0,0,0,8.376-8.368q.024-24.081,0-48.162a8,8,0,0,0-8.4-8.343q-17.6-.013-35.2,0a8.583,8.583,0,0,0-1.554.112,8.038,8.038,0,0,0-6.832,8.267c-.017,8.008-.005,16.017-.005,24.025s-.011,16.016.005,24.025a8.1,8.1,0,0,0,8.432,8.443c1.229.009,2.46.04,3.687-.013m7.476,3.3a1.689,1.689,0,0,1-1.607,1.779,1.759,1.759,0,0,1-1.889-1.633c-.068-.961-.013-1.929-.024-2.894-.005-.442.228-.583.628-.567.26.01.52,0,.779,0,2.118,0,2.118,0,2.118,2.09,0,.409.012.817-.005,1.225m16.3.09a1.687,1.687,0,0,1-1.584,1.689,1.661,1.661,0,0,1-1.834-1.413,18.18,18.18,0,0,1-.072-3.209c0-.317.181-.464.491-.465s.592-.006.887-.006c2.125,0,2.125,0,2.118,2.072,0,.444.028.89-.006,1.332m-32.817-11.978q0-23.961,0-47.92a4.772,4.772,0,0,1,3.273-4.908,3.522,3.522,0,0,1,1.835-.373q17.814,0,35.629.006a4.834,4.834,0,0,1,5.105,5.135q.018,24.18.007,48.361a4.207,4.207,0,0,1-.336,1.962,5.074,5.074,0,0,1-5.141,3.322q-4.8.006-9.606,0-12.567,0-25.133,0c-3.568,0-5.633-2.045-5.634-5.585" transform="translate(-8714 -7494.002)" fill="#010101"/>
    <line id="Línea_298" data-name="Línea 298" x2="65.104" transform="translate(-8347.336 -7172.699)" fill="none" stroke="red" stroke-miterlimit="10" stroke-width="3.082"/>
    <text id="CIRCUITO" transform="translate(-8263.75 -7203.034)" fill="blue" font-size="8.806" font-family="Roboto-Bold, Roboto" font-weight="700"><tspan x="0" y="0">CIRCU</tspan><tspan y="0" letter-spacing="-0.014em">I</tspan><tspan y="0" letter-spacing="-0.013em">T</tspan><tspan y="0">O</tspan></text>
    <text id="IN" transform="translate(-8262.975 -7162.79)" font-size="8.806" font-family="Roboto-Bold, Roboto" font-weight="700"><tspan x="0" y="0">IN</tspan></text>
    <text id="Ohmetro" transform="translate(-8423.873 -7225.446)" font-size="8.806" font-family="Roboto-Medium, Roboto" font-weight="500"><tspan x="0" y="0">Ohmet</tspan><tspan y="0" letter-spacing="-0.017em">r</tspan><tspan y="0">o</tspan></text>
    <path id="Trazado_237951" data-name="Trazado 237951" d="M423.7,265.99a13.814,13.814,0,1,1-13.814-13.814A13.814,13.814,0,0,1,423.7,265.99" transform="translate(-8714 -7494.002)" fill="#010101"/>
    <path id="Trazado_237952" data-name="Trazado 237952" d="M410.457,270.943a2.644,2.644,0,0,0,1.849-1.455,6.987,6.987,0,0,0,.688-3.236V265.1a4.83,4.83,0,0,0-.834-3.047,2.754,2.754,0,0,0-2.288-1.059,2.715,2.715,0,0,0-2.279,1.076,4.916,4.916,0,0,0-.825,3.047v.972a7.131,7.131,0,0,0,.675,3.34,2.714,2.714,0,0,0,1.922,1.515v1.393h-4.231v-1.35h1.9a6.067,6.067,0,0,1-1.427-2.2,7.393,7.393,0,0,1-.516-2.713v-.955a6.488,6.488,0,0,1,.606-2.855,4.621,4.621,0,0,1,8.338-.06,6.347,6.347,0,0,1,.636,2.769v1.118a7.348,7.348,0,0,1-.516,2.7,6.056,6.056,0,0,1-1.428,2.2h1.892v1.35h-4.162Z" transform="translate(-8714 -7494.002)" fill="#fff"/>
    <path id="Trazado_237953" data-name="Trazado 237953" d="M790,198.5V373.831l-5.771,5.771-5.771,5.772h-291.9" transform="translate(-8714 -7494.002)" fill="none" stroke="#b3009d" stroke-miterlimit="10" stroke-width="0.847" stroke-dasharray="2.541 2.541"/>
    <path id="Trazado_237954" data-name="Trazado 237954" d="M38.236,211.5V50.533l6.179-6.179,6.178-6.178H414.965" transform="translate(-8714 -7494.002)" fill="none" stroke="#b3009d" stroke-miterlimit="10" stroke-width="0.847" stroke-dasharray="2.541 2.541"/>
    <g id="Grupo_240189" data-name="Grupo 240189" transform="translate(-8714 -7494.002)">
      <g id="Grupo_240188" data-name="Grupo 240188" clip-path="url(#clip-path)">
        <rect id="Rectángulo_314592" data-name="Rectángulo 314592" width="139.714" height="20.77" transform="translate(24.271 27.853)" fill="url(#linear-gradient)"/>
      </g>
    </g>
    <text id="Resistencia" transform="translate(-8638.471 -7452.257)" fill="#fff" font-size="12" font-family="Roboto-Bold, Roboto" font-weight="700"><tspan x="0" y="0">Resistencia</tspan></text>
    <g id="Grupo_240191" data-name="Grupo 240191" transform="translate(-8714 -7494.002)">
      <g id="Grupo_240190" data-name="Grupo 240190" clip-path="url(#clip-path-2)">
        <rect id="Rectángulo_314593" data-name="Rectángulo 314593" width="56.473" height="56.474" transform="translate(10 10.001)" fill="url(#linear-gradient-2)"/>
      </g>
    </g>
    <path id="Trazado_237957" data-name="Trazado 237957" d="M39.414,48.363a5.4,5.4,0,0,0,3.779-2.974A14.282,14.282,0,0,0,44.6,38.775V36.417a9.876,9.876,0,0,0-1.706-6.228,5.628,5.628,0,0,0-4.675-2.164,5.552,5.552,0,0,0-4.659,2.2,10.045,10.045,0,0,0-1.687,6.229V38.44a14.57,14.57,0,0,0,1.38,6.826,5.54,5.54,0,0,0,3.929,3.1v2.848H28.533v-2.76h3.885A12.369,12.369,0,0,1,29.5,43.96a15.11,15.11,0,0,1-1.055-5.546V36.463a13.244,13.244,0,0,1,1.24-5.836A9.442,9.442,0,0,1,46.726,30.5a12.961,12.961,0,0,1,1.3,5.66v2.285a15.021,15.021,0,0,1-1.054,5.511,12.382,12.382,0,0,1-2.918,4.491h3.867v2.76H39.414Z" transform="translate(-8714 -7494.002)" fill="#fff"/>
    <text id="Unidad:_" data-name="Unidad: " transform="translate(-8638.547 -7398.561)" font-size="14" font-family="Roboto-Bold, Roboto" font-weight="700"><tspan x="0" y="0">Unidad: </tspan></text>
    <text id="Ohmio_Ω_." data-name="Ohmio (Ω)." transform="translate(-8587.055 -7398.561)" font-size="14" font-family="Roboto-Regular, Roboto"><tspan x="0" y="0">Ohmio (Ω).</tspan></text>
    <text id="Medida:_" data-name="Medida: " transform="translate(-8638.547 -7381.761)" font-size="14" font-family="Roboto-Bold, Roboto" font-weight="700"><tspan x="0" y="0">Medida: </tspan></text>
    <text id="el_óhmetro_se_conecta_en_paralelo_con_el_elemento_o_circuito." data-name="el óhmetro se conecta en paralelo con el elemento o circuito." transform="translate(-8584.283 -7381.761)" font-size="14" font-family="Roboto-Regular, Roboto"><tspan x="0" y="0">el óhmet</tspan><tspan y="0" letter-spacing="-0.01em">r</tspan><tspan y="0">o se conecta en pa</tspan><tspan y="0" letter-spacing="-0.021em">r</tspan><tspan y="0">alelo con el elemen</tspan><tspan y="0" letter-spacing="-0.012em">t</tspan><tspan y="0">o o ci</tspan><tspan y="0" letter-spacing="-0.009em">r</tspan><tspan y="0">cui</tspan><tspan y="0" letter-spacing="-0.009em">t</tspan><tspan y="0">o.</tspan></text>
    <text id="Precauciones:_" data-name="Precauciones: " transform="translate(-8638.547 -7364.961)" font-size="14" font-family="Roboto-Bold, Roboto" font-weight="700"><tspan x="0" y="0">P</tspan><tspan y="0" letter-spacing="-0.009em">r</tspan><tspan y="0">ecauciones: </tspan></text>
    <text id="el_circuito_o_elemento_debe_estar_des_energizado." data-name="el circuito o elemento debe estar des energizado." transform="translate(-8545.363 -7364.961)" font-size="14" font-family="Roboto-Regular, Roboto"><tspan x="0" y="0">el ci</tspan><tspan y="0" letter-spacing="-0.01em">r</tspan><tspan y="0">cui</tspan><tspan y="0" letter-spacing="-0.009em">t</tspan><tspan y="0">o o elemen</tspan><tspan y="0" letter-spacing="-0.01em">t</tspan><tspan y="0">o debe estar des ene</tspan><tspan y="0" letter-spacing="-0.013em">r</tspan><tspan y="0">gizado.</tspan></text>
    <rect id="Rectángulo_314595" data-name="Rectángulo 314595" width="420.126" height="29.528" transform="translate(-8638.547 -7351.167)" fill="#75ffe6"/>
    <text id="Esquema_eléctrico_de_la_conexión_del_instrumento_o_pictograma" data-name="Esquema eléctrico de la conexión del instrumento o pictograma" transform="translate(-8626.659 -7332.312)" font-size="14" font-family="Roboto-Regular, Roboto"><tspan x="0" y="0">Esquema eléctrico de la conexión del instrumen</tspan><tspan y="0" letter-spacing="-0.013em">t</tspan><tspan y="0">o o pic</tspan><tspan y="0" letter-spacing="-0.009em">t</tspan><tspan y="0">og</tspan><tspan y="0" letter-spacing="-0.019em">r</tspan><tspan y="0">ama</tspan></text>
  </g>
</svg>
