<svg xmlns="http://www.w3.org/2000/svg" xmlns:xlink="http://www.w3.org/1999/xlink" width="399.483" height="432.902" viewBox="0 0 399.483 432.902">
  <defs>
    <clipPath id="clip-path">
      <rect id="Rectángulo_316033" data-name="Rectángulo 316033" width="399.483" height="432.902" fill="none"/>
    </clipPath>
    <clipPath id="clip-path-3">
      <rect id="Rectángulo_316008" data-name="Rectángulo 316008" width="217.807" height="289.307" transform="translate(14.993 52.445)" fill="none"/>
    </clipPath>
    <clipPath id="clip-path-5">
      <rect id="Rectángulo_316025" data-name="Rectángulo 316025" width="94.317" height="106.29" transform="translate(175.587 18.919)" fill="none"/>
    </clipPath>
    <clipPath id="clip-path-6">
      <rect id="Rectángulo_316026" data-name="Rectángulo 316026" width="68.554" height="100.624" transform="translate(213.323 18.919)" fill="none"/>
    </clipPath>
    <clipPath id="clip-path-7">
      <rect id="Rectángulo_316027" data-name="Rectángulo 316027" width="43.258" height="71.972" transform="translate(291.432 93.3)" fill="none"/>
    </clipPath>
    <clipPath id="clip-path-8">
      <rect id="Rectángulo_316028" data-name="Rectángulo 316028" width="21.521" height="3.081" transform="translate(317.518 139.463)" fill="none"/>
    </clipPath>
    <clipPath id="clip-path-9">
      <rect id="Rectángulo_316031" data-name="Rectángulo 316031" width="119.765" height="119.776" transform="translate(168.851 12.178)" fill="none"/>
    </clipPath>
  </defs>
  <g id="Grupo_242661" data-name="Grupo 242661" transform="translate(-915 -107)">
    <g id="Grupo_242618" data-name="Grupo 242618" transform="translate(915 107)">
      <g id="Grupo_242617" data-name="Grupo 242617" clip-path="url(#clip-path)">
        <rect id="Rectángulo_316006" data-name="Rectángulo 316006" width="217.808" height="289.307" transform="translate(14.993 52.445)" fill="#ffc800"/>
        <g id="Grupo_242599" data-name="Grupo 242599">
          <g id="Grupo_242598" data-name="Grupo 242598" clip-path="url(#clip-path)">
            <g id="Grupo_242597" data-name="Grupo 242597" opacity="0.1">
              <g id="Grupo_242596" data-name="Grupo 242596">
                <g id="Grupo_242595" data-name="Grupo 242595" clip-path="url(#clip-path-3)">
                  <rect id="Rectángulo_316007" data-name="Rectángulo 316007" width="217.808" height="289.307" transform="translate(14.993 52.445)"/>
                </g>
              </g>
            </g>
          </g>
        </g>
        <rect id="Rectángulo_316010" data-name="Rectángulo 316010" width="217.808" height="289.307" transform="translate(20.915 52.446)" fill="#ffc800"/>
        <rect id="Rectángulo_316011" data-name="Rectángulo 316011" width="192.28" height="260.649" transform="translate(31.117 66.444) rotate(-0.729)" fill="#ececec"/>
        <rect id="Rectángulo_316012" data-name="Rectángulo 316012" width="260.649" height="192.279" transform="translate(27.018 323.754) rotate(-88.764)" fill="#dcdcdc"/>
        <rect id="Rectángulo_316013" data-name="Rectángulo 316013" width="192.28" height="260.649" transform="translate(29.807 65.209)" fill="#fff"/>
        <g id="Grupo_242616" data-name="Grupo 242616">
          <g id="Grupo_242615" data-name="Grupo 242615" clip-path="url(#clip-path)">
            <path id="Trazado_241149" data-name="Trazado 241149" d="M222.087,325.858c-.2.043-192.319.2-192.508.23-.053-.2-.109-260.653-.146-260.879v-.374h.374l192.548.106c.239.131-.44,260.732-.268,260.917m0,0L221.819,65.21c1.8.544-192.467.277-192.011.374l.373-.374-.144,260.648c-1.518-.358,192.423.005,192.05,0" fill="#dcdcdc"/>
            <path id="Trazado_241150" data-name="Trazado 241150" d="M54.2,111.443c25.374-.672,50.911-.672,76.292,0-25.383.672-50.916.672-76.292,0" fill="#c8c8c8"/>
            <path id="Trazado_241151" data-name="Trazado 241151" d="M54.2,122.576c25.374-.672,50.911-.672,76.292,0-25.383.672-50.916.672-76.292,0" fill="#c8c8c8"/>
            <path id="Trazado_241152" data-name="Trazado 241152" d="M54.2,133.709c25.374-.672,50.911-.672,76.292,0-25.383.672-50.916.672-76.292,0" fill="#c8c8c8"/>
            <path id="Trazado_241153" data-name="Trazado 241153" d="M54.2,144.842c25.374-.672,50.911-.672,76.292,0-25.383.672-50.916.672-76.292,0" fill="#c8c8c8"/>
            <path id="Trazado_241154" data-name="Trazado 241154" d="M54.2,155.975c25.374-.672,50.911-.672,76.292,0-25.383.672-50.916.672-76.292,0" fill="#c8c8c8"/>
            <path id="Trazado_241155" data-name="Trazado 241155" d="M54.2,167.108c25.374-.672,50.911-.672,76.292,0-25.383.672-50.916.672-76.292,0" fill="#c8c8c8"/>
            <path id="Trazado_241156" data-name="Trazado 241156" d="M54.2,178.242c46.343-.665,97.86-.648,144.236,0-46.385.648-97.883.664-144.236,0" fill="#c8c8c8"/>
            <path id="Trazado_241157" data-name="Trazado 241157" d="M54.2,189.374c46.343-.664,97.86-.648,144.236,0-46.385.648-97.883.664-144.236,0" fill="#c8c8c8"/>
            <path id="Trazado_241158" data-name="Trazado 241158" d="M54.2,200.507c46.343-.664,97.86-.648,144.236,0-46.385.648-97.883.665-144.236,0" fill="#c8c8c8"/>
            <path id="Trazado_241159" data-name="Trazado 241159" d="M54.2,222.774c46.343-.665,97.86-.648,144.236,0-46.385.648-97.883.664-144.236,0" fill="#c8c8c8"/>
            <path id="Trazado_241160" data-name="Trazado 241160" d="M54.2,233.907c46.343-.664,97.86-.648,144.236,0-46.385.648-97.883.664-144.236,0" fill="#c8c8c8"/>
            <path id="Trazado_241161" data-name="Trazado 241161" d="M54.2,245.04c29.233-.665,61.741-.648,90.993,0-29.259.648-61.753.664-90.993,0" fill="#c8c8c8"/>
            <path id="Trazado_241162" data-name="Trazado 241162" d="M80.819,278.507c29.233-.664,61.74-.648,90.993,0-29.259.648-61.753.665-90.993,0" fill="#c8c8c8"/>
            <path id="Trazado_241163" data-name="Trazado 241163" d="M54.2,300.7c46.343-.664,97.86-.648,144.236,0-46.385.648-97.883.665-144.236,0" fill="#c8c8c8"/>
            <path id="Trazado_241164" data-name="Trazado 241164" d="M92.659,96.534a550.333,550.333,0,0,1,67.313,0,550.33,550.33,0,0,1-67.313,0" fill="#c8c8c8"/>
            <path id="Trazado_241165" data-name="Trazado 241165" d="M138.654,114.313l38.165-.1c12.721.037,9.324.014,22.045.1-12.721.09-9.324.067-22.045.1Z" fill="#dcdcdc"/>
            <path id="Trazado_241166" data-name="Trazado 241166" d="M138.654,117.5l38.165-.1c12.721.037,9.324.014,22.045.1-12.721.09-9.324.067-22.045.1Z" fill="#dcdcdc"/>
            <path id="Trazado_241167" data-name="Trazado 241167" d="M138.654,120.69l38.165-.1c12.721.037,9.324.014,22.045.1-12.721.09-9.324.067-22.045.1Z" fill="#dcdcdc"/>
            <path id="Trazado_241168" data-name="Trazado 241168" d="M138.654,123.879l38.165-.1c12.721.037,9.324.014,22.045.1-12.721.09-9.324.067-22.045.1Z" fill="#dcdcdc"/>
            <path id="Trazado_241169" data-name="Trazado 241169" d="M138.654,127.068l38.165-.1c12.721.037,9.324.014,22.045.1-12.721.09-9.324.067-22.045.1Z" fill="#dcdcdc"/>
            <path id="Trazado_241170" data-name="Trazado 241170" d="M138.654,130.256l38.165-.1c12.721.037,9.324.014,22.045.1-12.721.09-9.324.067-22.045.1Z" fill="#dcdcdc"/>
            <path id="Trazado_241171" data-name="Trazado 241171" d="M138.654,133.445l38.165-.1c12.721.037,9.324.014,22.045.1-12.721.09-9.324.067-22.045.1Z" fill="#dcdcdc"/>
            <path id="Trazado_241172" data-name="Trazado 241172" d="M138.654,136.633l38.165-.1c12.721.037,9.324.014,22.045.1-12.721.09-9.324.067-22.045.1Z" fill="#dcdcdc"/>
            <path id="Trazado_241173" data-name="Trazado 241173" d="M138.654,139.822l38.165-.1c12.721.037,9.324.014,22.045.1-12.721.09-9.324.067-22.045.1Z" fill="#dcdcdc"/>
            <path id="Trazado_241174" data-name="Trazado 241174" d="M138.654,143.01l38.165-.1c12.721.037,9.324.014,22.045.1-12.721.09-9.324.067-22.045.1Z" fill="#dcdcdc"/>
            <path id="Trazado_241175" data-name="Trazado 241175" d="M138.654,146.2l38.165-.1c12.721.037,9.324.014,22.045.1-12.721.09-9.324.067-22.045.1Z" fill="#dcdcdc"/>
            <path id="Trazado_241176" data-name="Trazado 241176" d="M138.654,149.388l38.165-.1c12.721.037,9.324.014,22.045.1-12.721.09-9.324.067-22.045.1Z" fill="#dcdcdc"/>
            <path id="Trazado_241177" data-name="Trazado 241177" d="M138.654,152.576l38.165-.1c12.721.037,9.324.014,22.045.1-12.721.09-9.324.067-22.045.1Z" fill="#dcdcdc"/>
            <path id="Trazado_241178" data-name="Trazado 241178" d="M138.654,155.765l38.165-.1c12.721.037,9.324.014,22.045.1-12.721.09-9.324.067-22.045.1Z" fill="#dcdcdc"/>
            <path id="Trazado_241179" data-name="Trazado 241179" d="M138.654,158.953l38.165-.1c12.721.037,9.324.014,22.045.1-12.721.09-9.324.067-22.045.1Z" fill="#dcdcdc"/>
            <rect id="Rectángulo_316014" data-name="Rectángulo 316014" width="5.788" height="26.037" transform="translate(146.726 136.633)" fill="#ffc800"/>
            <rect id="Rectángulo_316015" data-name="Rectángulo 316015" width="5.788" height="37.051" transform="translate(157.463 125.62)" fill="#1a2e35"/>
            <rect id="Rectángulo_316016" data-name="Rectángulo 316016" width="5.788" height="29.115" transform="translate(168.201 133.555)" fill="#dcdcdc"/>
            <rect id="Rectángulo_316017" data-name="Rectángulo 316017" width="5.788" height="38.792" transform="translate(178.939 123.879)" fill="#ffc800"/>
            <rect id="Rectángulo_316018" data-name="Rectángulo 316018" width="5.788" height="33.589" transform="translate(189.677 129.081)" fill="#1a2e35"/>
            <path id="Trazado_241180" data-name="Trazado 241180" d="M140.725,112.076l.158,12.649.108,12.648c.075,8.433.1,16.865.11,25.3l-.376-.385,18.565-.016,18.564.045,18.565.127,2.445.229-2.445.229-18.565.127-18.564.045-18.565-.016h-.377v-.385c.014-8.433.036-16.865.11-25.3l.108-12.648Z" fill="#dcdcdc"/>
            <rect id="Rectángulo_316019" data-name="Rectángulo 316019" width="5.788" height="0.536" transform="translate(146.726 165.344)" fill="#dcdcdc"/>
            <rect id="Rectángulo_316020" data-name="Rectángulo 316020" width="5.788" height="0.536" transform="translate(157.463 165.344)" fill="#dcdcdc"/>
            <rect id="Rectángulo_316021" data-name="Rectángulo 316021" width="5.788" height="0.536" transform="translate(168.201 165.344)" fill="#dcdcdc"/>
            <rect id="Rectángulo_316022" data-name="Rectángulo 316022" width="5.788" height="0.536" transform="translate(178.939 165.344)" fill="#dcdcdc"/>
            <rect id="Rectángulo_316023" data-name="Rectángulo 316023" width="5.788" height="0.536" transform="translate(189.677 165.344)" fill="#dcdcdc"/>
            <rect id="Rectángulo_316024" data-name="Rectángulo 316024" width="68.215" height="25.713" transform="translate(92.75 48.978)" fill="#c8c8c8"/>
            <path id="Trazado_241181" data-name="Trazado 241181" d="M147.713,37.607H105.379L103.5,48.977h46.712Zm-20.857,8.18a2.5,2.5,0,1,1,2.495-2.495,2.494,2.494,0,0,1-2.495,2.495" fill="#c8c8c8"/>
            <path id="Trazado_241182" data-name="Trazado 241182" d="M150.215,48.976H103.5l.419-2.545h45.73Z" fill="#a8a8a8"/>
            <g id="Grupo_242602" data-name="Grupo 242602" opacity="0.2">
              <g id="Grupo_242601" data-name="Grupo 242601">
                <g id="Grupo_242600" data-name="Grupo 242600" clip-path="url(#clip-path-5)">
                  <path id="Trazado_241183" data-name="Trazado 241183" d="M269.9,105.669a53.147,53.147,0,1,1-41.172-86.75q2.187,0,4.332.173.594.047,1.183.111A48.7,48.7,0,1,0,269.9,105.669" fill="#fff"/>
                </g>
              </g>
            </g>
            <g id="Grupo_242605" data-name="Grupo 242605" opacity="0.1">
              <g id="Grupo_242604" data-name="Grupo 242604">
                <g id="Grupo_242603" data-name="Grupo 242603" clip-path="url(#clip-path-6)">
                  <path id="Trazado_241184" data-name="Trazado 241184" d="M281.877,72.064a52.874,52.874,0,0,1-10.15,31.241l0,.009a53.4,53.4,0,0,1-19.089,16.228A53.718,53.718,0,0,0,269.4,104.526l.007-.01a53.448,53.448,0,0,0-38.892-84.7c-1.434-.117-2.889-.176-4.354-.176a53.607,53.607,0,0,0-12.835,1.551,53.065,53.065,0,0,1,15.409-2.271q2.188,0,4.332.173a52.836,52.836,0,0,1,23.251,7.536,53.382,53.382,0,0,1,14.2,12.585,53.011,53.011,0,0,1,11.367,32.851"/>
                </g>
              </g>
            </g>
            <path id="Trazado_241185" data-name="Trazado 241185" d="M0,431.988c127.967-.612,271.517-.617,399.483,0-127.966.617-271.517.612-399.483,0" fill="#1a2e35"/>
            <path id="Trazado_241186" data-name="Trazado 241186" d="M261.422,432.525c2.517.788,76-.8,78.684-2.591,1.032-.663-5.263-70.268-5.263-70.268l-46.606.891,5.3,46.559s-27.113,12.846-29.859,15.126c-2.722,2.271-4.774,9.507-2.256,10.283" fill="#ff9581"/>
            <path id="Trazado_241187" data-name="Trazado 241187" d="M261.421,432.526c2.513.783,76-.8,78.683-2.6.325-.2.422-7.27-.746-16.473-13.325,2.233-60.889,9.536-64.592,7.357-2.582-1.517-.3-3.891,1.819-5.487-6.073,3.027-11.739,5.939-12.909,6.918-2.723,2.269-4.768,9.508-2.255,10.281" fill="#1a2e35"/>
            <path id="Trazado_241188" data-name="Trazado 241188" d="M292.225,395.955l45.751-.646s-9.066-109.581-8.687-111.687c.48-2.7,32.943-129.98,32.943-129.98H318.566S284.131,272.274,282.9,283.7c-2,18.457,9.329,112.25,9.329,112.25" fill="#1a2e35"/>
            <path id="Trazado_241189" data-name="Trazado 241189" d="M333.863,384.98c-2.7-.2-5.436-.162-8.145-.2s-5.427-.044-8.141-.017c-5.426.053-10.85.135-16.274.288-1.484.042-2.967.087-4.45.156-1.589.073-3.169.344-4.752.4a.1.1,0,0,0,0,.192c1.331.012,2.665.211,4,.25,1.382.04,2.765.049,4.148.049q4.07,0,8.14-.031c5.423-.046,10.852-.119,16.272-.343,3.062-.126,6.154-.164,9.2-.471a.14.14,0,0,0-.007-.279" fill="#2b454e"/>
            <path id="Trazado_241190" data-name="Trazado 241190" d="M352.628,163.921c-3.908,13.836-7.479,27.794-10.982,41.737s-6.986,27.908-10.46,41.867q-2.605,10.47-5.209,20.939c-1.69,6.8-3.653,13.626-4.072,20.648-.426,7.141.482,14.337,1.085,21.443q.906,10.716,1.827,21.431c1.251,14.29,2.453,28.593,4.006,42.854q.293,2.676.568,5.355c.015.152.25.15.239-.006-.946-14.3-1.932-28.591-3.073-42.877q-.857-10.718-1.746-21.433c-.59-7.129-1.418-14.285-1.644-21.437-.228-7.22,1.092-14.131,2.834-21.1q2.559-10.246,5.133-20.489,5.241-20.931,10.455-41.869c3.877-15.63,7.748-31.291,11.169-47.027a.067.067,0,0,0-.13-.033" fill="#2b454e"/>
            <path id="Trazado_241191" data-name="Trazado 241191" d="M362.235,153.643s-13.928,54.606-23.673,93.043l-18.579-93.043Z" fill="#2b454e"/>
            <path id="Trazado_241192" data-name="Trazado 241192" d="M316.3,432.7c2.517.788,76-.8,78.684-2.591,1.032-.663-2.806-70.309-2.806-70.309l-45.989.892,2.226,46.6s-27.113,12.846-29.858,15.126c-2.723,2.271-4.774,9.507-2.257,10.283" fill="#ff9581"/>
            <path id="Trazado_241193" data-name="Trazado 241193" d="M316.3,432.7c2.513.783,76-.8,78.683-2.6.326-.2.249-7.087-.008-16.483-13.325,2.234-61.627,9.546-65.33,7.367-2.582-1.518-.3-3.891,1.819-5.487-6.072,3.027-11.738,5.939-12.908,6.918-2.724,2.269-4.77,9.508-2.256,10.281" fill="#1a2e35"/>
            <path id="Trazado_241194" data-name="Trazado 241194" d="M319.978,153.624s2.467,30.872,7.557,38.626a77.786,77.786,0,0,1,12.666,6.31s3.147,82.591,3.088,87.55c-.2,18.555,4.539,108.925,4.539,108.925l46.132-.438s-4.782-102.194-4.8-108.991c-.023-6.573-3.139-48.042-5.923-84,0,0,4.1-11.485,3.649-17.285-1.1-14.062-7.406-30.683-7.406-30.683Z" fill="#1a2e35"/>
            <path id="Trazado_241195" data-name="Trazado 241195" d="M336.213,182.984q-.26-1.734-.524-3.466c-.325-2.117-.756-4.218-1.127-6.327-.842-4.786-1.715-9.586-2.781-14.327a.106.106,0,0,0-.207.033c.189,1.914.409,3.827.68,5.731s.458,3.824.727,5.73c.534,3.779,1.06,7.565,1.7,11.328.248,1.449,1.152,4.048-.935,4.5-1.652.356-2.864-1.267-3.35-2.628a32.531,32.531,0,0,1-1.111-5.22c-.341-1.907-.64-3.822-.911-5.741-.589-4.181-1.237-8.342-1.917-12.509-.019-.119-.21-.083-.207.033a127.2,127.2,0,0,0,.925,12.8q.4,3.051.917,6.085a21.482,21.482,0,0,0,1.4,5.668,4.6,4.6,0,0,0,3.453,2.772c.032,0,.064,0,.1,0a.142.142,0,0,0-.061.12c.022.678.009,1.363.081,2.037s.2,1.337.331,2a13.61,13.61,0,0,0,.517,1.989,5.263,5.263,0,0,0,.906,1.754c.074.118.215.044.223-.07h.01c-.01-.112-.011-.222-.013-.331,0-.02,0-.039,0-.059v0a4.766,4.766,0,0,0-.038-.593c-.049-.326-.122-.648-.193-.969-.141-.643-.317-1.286-.49-1.921s-.31-1.281-.474-1.919c-.17-.658-.385-1.3-.538-1.964a.126.126,0,0,0-.045-.062,3.013,3.013,0,0,0,2.913-1.825,5.22,5.22,0,0,0,.042-2.648" fill="#2b454e"/>
            <path id="Trazado_241196" data-name="Trazado 241196" d="M343.932,199.57a36.289,36.289,0,0,0-4.34-2.86,42.417,42.417,0,0,0-4.947-2.563c-3.338-1.449-6.778-2.439-10.222-3.578-.1-.033-.171.137-.07.178,3.335,1.327,6.533,3.088,9.756,4.665,1.586.776,3.191,1.513,4.806,2.228s3.231,1.551,4.892,2.158c.126.046.226-.145.125-.228" fill="#2b454e"/>
            <path id="Trazado_241197" data-name="Trazado 241197" d="M369.978,173.791c-2.347-.01-10.466-.591-12.87-3.285a16.433,16.433,0,0,1-3-5.417,51.682,51.682,0,0,1-1.823-6.578c-.024-.11-.185-.073-.188.031a25.54,25.54,0,0,0,.946,7.467c.567,2.061,1.33,4.361,2.995,5.806a11.744,11.744,0,0,0,6.373,2.33,29.3,29.3,0,0,0,7.577-.1.125.125,0,0,0-.006-.25" fill="#2b454e"/>
            <path id="Trazado_241198" data-name="Trazado 241198" d="M314.461,174.424a7.878,7.878,0,0,0,3.106-1.877c1.772-2.675,2.205-11.169,2.355-13.4.008-.11.057-.073.058.031.024,2.5-.087,5.054-.292,7.467a26.58,26.58,0,0,1-.924,5.806c-.541,1.52-3.527,2.569-4.3,2.226-.048-.022-.049-.249,0-.25" fill="#2b454e"/>
            <path id="Trazado_241199" data-name="Trazado 241199" d="M391.922,385.657c-2.7-.2-5.436-.162-8.146-.2s-5.427-.044-8.14-.017c-5.426.053-10.85.135-16.274.288-1.484.042-2.968.087-4.451.156-1.588.073-3.168.345-4.751.4a.1.1,0,0,0,.005.192c1.331.012,2.665.211,4,.25,1.382.039,2.766.049,4.149.049q4.07,0,8.139-.031c5.424-.046,10.853-.119,16.273-.343,3.062-.126,6.154-.164,9.2-.471a.14.14,0,0,0-.007-.279" fill="#2b454e"/>
            <path id="Trazado_241200" data-name="Trazado 241200" d="M386.293,379.649h.028a.562.562,0,0,0,.534-.589l-10.414-178.83c.131-.784,3.067-10.772,3.329-15.875.277-5.4-5.3-26.417-5.538-27.309a.57.57,0,0,0-.688-.4.564.564,0,0,0-.4.689c.058.216,5.77,21.743,5.5,26.962-.27,5.275-3.311,15.719-3.325,15.8-.007.041,10.41,179.014,10.41,179.014a.562.562,0,0,0,.561.535" fill="#2b454e"/>
            <path id="Trazado_241201" data-name="Trazado 241201" d="M337.874,49.356c10.845,4.879,13.192,20.17,12.474,41.929-.109,3.306-28.092,9.053-41.623-1.148-2.188-1.649.913-28.263,6.285-35.93,6.665-9.513,16.147-7.873,22.864-4.851" fill="#1a2e35"/>
            <path id="Trazado_241202" data-name="Trazado 241202" d="M338.168,49.576c5.678,2.886,9.323,8.623,10.961,14.651a91.289,91.289,0,0,1,2.249,13.609,53.494,53.494,0,0,1,.207,13.138.12.12,0,0,1-.24-.02,112.914,112.914,0,0,0-2.554-24.517c-1.412-6.758-4.883-12.8-10.84-16.443-.225-.137-.025-.541.217-.418" fill="#1a2e35"/>
            <path id="Trazado_241203" data-name="Trazado 241203" d="M310.882,61.68c1.991-6.918,6.447-11.866,13.136-14.1.042-.013.065.06.024.077-7.236,2.85-11.315,8.572-13.166,16.156-2.014,8.25-2.839,16.625-3.521,25.072a.142.142,0,0,1-.283-.023,105.8,105.8,0,0,1,3.81-27.184" fill="#1a2e35"/>
            <path id="Trazado_241204" data-name="Trazado 241204" d="M333.88,102.734c-3.2,23.589-9.106,47.145-12.968,50.849-5.984,5.74-39.266,13.859-50.015,14.394-3.519.175-6.581-23.622-3.749-26.106s38.573-8.671,40.546-9.866c1.051-.638,9.745-18.791,16.435-30.945,6.219-11.3,10.723-5.488,9.751,1.674" fill="#ff9581"/>
            <path id="Trazado_241205" data-name="Trazado 241205" d="M283.019,167.318l-4.274-30.039s25.316-5.72,28.367-6.68c1.29-.4,12.161-22.824,17.393-32.432,3.441-6.32,10.5-8.367,10.176,5.529-.191,8.136-6.733,46.365-13.071,51.641-5.042,4.2-38.591,11.981-38.591,11.981" fill="#ffc800"/>
            <path id="Trazado_241206" data-name="Trazado 241206" d="M288.37,164.535c.033-2.192-1.333-11.149-1.7-13.377-.357-2.181-2.13-11.11-2.512-13.4-.02-.125-.2-.132-.185-.005.34,2.269,1.41,11.3,1.753,13.533s1.813,11.151,2.524,13.259a.059.059,0,0,0,.117-.013" fill="#1a2e35"/>
            <g id="Grupo_242608" data-name="Grupo 242608" opacity="0.1">
              <g id="Grupo_242607" data-name="Grupo 242607">
                <g id="Grupo_242606" data-name="Grupo 242606" clip-path="url(#clip-path-7)">
                  <path id="Trazado_241207" data-name="Trazado 241207" d="M334.659,101.4c.013.341.029.7.026,1.075.01.392,0,.807-.005,1.221-.034,1.4-.247,3.681-.628,6.542-.064.522-.137,1.056-.218,1.61-.047.339-.094.688-.15,1.038q-.16,1.108-.344,2.281c-.023.134-.046.268-.068.412-.133.854-.273,1.739-.43,2.636-.109.649-.217,1.308-.343,1.979s-.232,1.34-.367,2.023c-.057.34-.125.681-.191,1.032-.707,3.78-1.535,7.727-2.442,11.522-.242,1.029-.495,2.049-.76,3.051-.167.666-.344,1.334-.524,1.982s-.349,1.294-.531,1.922c-1.891,6.592-4,11.872-6.077,13.608-3.408,2.844-19.892,7.336-30.175,9.938l37.652-71.7a3.923,3.923,0,0,1,.445-.147,2.962,2.962,0,0,1,2.649.458,3.91,3.91,0,0,1,.913.993,6.749,6.749,0,0,1,.516.962,8.48,8.48,0,0,1,.435,1.195,19.043,19.043,0,0,1,.617,4.367"/>
                </g>
              </g>
            </g>
            <path id="Trazado_241208" data-name="Trazado 241208" d="M316.5,142.192l-2.044,18.034s2.464-.117,10.6-.565l1.916-6.574,3.77,6.352,51.412-4.035-7.877-14.117c-6.2-13.669-14.058-34.285-24.4-44.136-8.216-7.829-17.183-6.618-22.543-.419-1.357,1.569-14.571,23.74-15.826,32.61-1.088,7.825,4.992,12.85,4.992,12.85" fill="#ffc800"/>
            <g id="Grupo_242611" data-name="Grupo 242611" opacity="0.1">
              <g id="Grupo_242610" data-name="Grupo 242610">
                <g id="Grupo_242609" data-name="Grupo 242609" clip-path="url(#clip-path-8)">
                  <path id="Trazado_241209" data-name="Trazado 241209" d="M329.609,139.463a24.2,24.2,0,0,0-6,.871,30.957,30.957,0,0,0-3,1.082c-.5.205-.995.381-1.494.553a3.934,3.934,0,0,1-1.555.288c-.045,0-.063.117-.019.125a5.92,5.92,0,0,0,1.431.159,6.471,6.471,0,0,0,1.428-.266c1.016-.283,2.032-.648,3.048-.95a54.868,54.868,0,0,1,6.138-1.572c.094-.016.115-.294.021-.29"/>
                  <path id="Trazado_241210" data-name="Trazado 241210" d="M338.935,141.573a59.71,59.71,0,0,0-7.667-.344c-1.282.031-2.551.145-3.825.3-.608.073-1.216.159-1.822.253-.666.1-1.322.31-1.989.4-.07.01-.069.134,0,.126.632-.065,1.276-.012,1.91-.035s1.275-.054,1.912-.078c1.276-.048,2.552-.08,3.828-.142,2.555-.124,5.1-.218,7.655-.241.139,0,.126-.226-.005-.24"/>
                </g>
              </g>
            </g>
            <path id="Trazado_241211" data-name="Trazado 241211" d="M330.909,101.971c-2.642,6.418-5.187,12.887-7.392,19.467-2.475,7.458-4.329,13.127,3.49,18.033l.12.073c.006,2.278,0,4.557-.03,6.836-.011,2.235-.076,4.471-.125,6.707-.074-2.235-.164-4.47-.2-6.706-.057-2.235-.086-4.47-.105-6.706l.12.2c-8.1-5.032-6.314-10.886-3.683-18.578,2.25-6.58,4.954-12.991,7.8-19.328" fill="#1a2e35"/>
            <path id="Trazado_241212" data-name="Trazado 241212" d="M327.337,112.365a.843.843,0,1,0,.837-.849.843.843,0,0,0-.837.849" fill="#1a2e35"/>
            <path id="Trazado_241213" data-name="Trazado 241213" d="M325.139,121.877a.843.843,0,1,0,.837-.848.842.842,0,0,0-.837.848" fill="#1a2e35"/>
            <path id="Trazado_241214" data-name="Trazado 241214" d="M323.186,130.579a.843.843,0,1,0,.837-.849.843.843,0,0,0-.837.849" fill="#1a2e35"/>
            <path id="Trazado_241215" data-name="Trazado 241215" d="M328.54,138.374a.843.843,0,1,0,.837-.849.843.843,0,0,0-.837.849" fill="#1a2e35"/>
            <path id="Trazado_241216" data-name="Trazado 241216" d="M328.94,147.043a.843.843,0,1,0,.837-.849.843.843,0,0,0-.837.849" fill="#1a2e35"/>
            <path id="Trazado_241217" data-name="Trazado 241217" d="M340.167,94.162c-.126,1.164-4.627,9.164-9.826,9.554-1.694.123-2.783-9.09-2.783-9.09l-.236-.661L324.028,84.7l10.312-8.547,1.5-1.148s.735,2.6,1.616,5.834c.042.15.084.3.126.462.055.181.109.353.152.525.138.482.276.975.4,1.469.1.376.2.74.287,1.138s.189.785.289,1.182a63.285,63.285,0,0,1,1.452,8.548" fill="#ff9581"/>
            <path id="Trazado_241218" data-name="Trazado 241218" d="M337.457,80.838a19.725,19.725,0,0,1-10.135,13.127L324.028,84.7l10.312-8.547,1.5-1.148s.735,2.594,1.616,5.834" fill="#1a2e35"/>
            <path id="Trazado_241219" data-name="Trazado 241219" d="M310.8,66.75c-3.875,16.818,5.761,21.038,9.389,21.869,3.293.755,14.6,2.907,20.193-13.421s-1-23.446-8.444-25.57-17.264.3-21.138,17.122" fill="#ff9581"/>
            <path id="Trazado_241220" data-name="Trazado 241220" d="M313.743,65.893a11.249,11.249,0,0,0,1.19-.061,1.927,1.927,0,0,0,1.2-.294.614.614,0,0,0,.116-.741,1.522,1.522,0,0,0-1.427-.585,2.241,2.241,0,0,0-1.51.562.656.656,0,0,0,.429,1.119" fill="#1a2e35"/>
            <path id="Trazado_241221" data-name="Trazado 241221" d="M325.2,67.273a11.25,11.25,0,0,1-1.114-.425,1.927,1.927,0,0,1-1.053-.649.615.615,0,0,1,.118-.741,1.523,1.523,0,0,1,1.538-.117,2.232,2.232,0,0,1,1.263,1,.655.655,0,0,1-.752.932" fill="#1a2e35"/>
            <path id="Trazado_241222" data-name="Trazado 241222" d="M315.787,69.08c0-.046-.1.043-.1.091-.119,1.169-.453,2.489-1.558,2.735-.034.007-.039.066,0,.066,1.31-.009,1.735-1.765,1.66-2.892" fill="#1a2e35"/>
            <path id="Trazado_241223" data-name="Trazado 241223" d="M314.91,67.725c-1.854-.393-2.5,3.344-.786,3.709,1.69.358,2.34-3.38.786-3.709" fill="#1a2e35"/>
            <path id="Trazado_241224" data-name="Trazado 241224" d="M314.088,67.835c-.33.147-.685.456-1.041.418-.414-.044-.646-.5-.84-.934-.02-.045-.055-.019-.065.03-.144.711-.037,1.5.626,1.753.6.234,1.17-.3,1.464-.981.055-.127-.011-.345-.144-.286" fill="#1a2e35"/>
            <path id="Trazado_241225" data-name="Trazado 241225" d="M320.818,79.989c-.307.247-.623.6-1.051.592a3.1,3.1,0,0,1-1.229-.414.041.041,0,0,0-.057.055,1.583,1.583,0,0,0,1.425.777,1.248,1.248,0,0,0,1.018-.946c.025-.066-.063-.1-.106-.064" fill="#1a2e35"/>
            <path id="Trazado_241226" data-name="Trazado 241226" d="M316.607,75.044s-.506,1.7-.632,2.516c-.012.077.181.144.456.2.012.006.019.012.032,0a3.934,3.934,0,0,0,4-.871c.069-.072-.022-.172-.1-.133a5.924,5.924,0,0,1-3.709.472c-.023-.235.964-2.879.836-2.908a7.15,7.15,0,0,0-1.923.135c.953-3.568,2.469-6.953,3.364-10.519a.113.113,0,0,0-.205-.086,59.726,59.726,0,0,0-4.1,11.176c-.139.455,1.64.1,1.989.01" fill="#1a2e35"/>
            <path id="Trazado_241227" data-name="Trazado 241227" d="M316.56,77.473a4.768,4.768,0,0,0,1.553,1.847,2.145,2.145,0,0,0,1.256.354c.972-.044,1.178-.883,1.165-1.643a5.135,5.135,0,0,0-.174-1.195,6.175,6.175,0,0,1-3.8.637" fill="#1a2e35"/>
            <path id="Trazado_241228" data-name="Trazado 241228" d="M318.113,79.32a2.145,2.145,0,0,0,1.256.354c.972-.044,1.178-.884,1.165-1.643a2.216,2.216,0,0,0-2.421,1.289" fill="#ff9abd"/>
            <path id="Trazado_241229" data-name="Trazado 241229" d="M325.8,70.55a3.541,3.541,0,0,0-.951-.313,3.628,3.628,0,0,0-1.027-.033,2.9,2.9,0,0,0-1.023.332,2.475,2.475,0,0,0-.81.764l-.378.563.685-.007a6.961,6.961,0,0,1,1.442.132,2.988,2.988,0,0,1,1.353.611,2.186,2.186,0,0,0-1.185-1.117,4.177,4.177,0,0,0-1.63-.34l.307.555a2.448,2.448,0,0,1,1.357-.9,7.616,7.616,0,0,1,1.86-.245" fill="#1a2e35"/>
            <path id="Trazado_241230" data-name="Trazado 241230" d="M323.619,73.064a6.109,6.109,0,0,1-1.414-.688c-.1-.077-.485-.416-.454-.5a2.9,2.9,0,0,1,.329-.705,2.011,2.011,0,0,0-.48.67,1.012,1.012,0,0,0,.469.726,3.147,3.147,0,0,0,1.55.5" fill="#1a2e35"/>
            <path id="Trazado_241231" data-name="Trazado 241231" d="M340.24,76.129a7.134,7.134,0,0,1-3.527-6.1,18.62,18.62,0,0,1-7.087-6.68c.089.365.722,3,1.087,4.33-10.787-2.9-13.518-11.546-13.518-11.546a18.9,18.9,0,0,0-5.317,6.566s.446-6.722,4.252-10.949a10.86,10.86,0,0,1,10.342-3.679A15.519,15.519,0,0,1,341.218,53.9c6.5,8.3-.978,22.228-.978,22.228" fill="#1a2e35"/>
            <path id="Trazado_241232" data-name="Trazado 241232" d="M322.534,65.21a20.258,20.258,0,0,0,5.454,2.5c.016.005.022-.019.007-.025a17.2,17.2,0,0,1-7.656-5.487,16.346,16.346,0,0,1-2.1-3.487,11.291,11.291,0,0,1-1.127-4.288.086.086,0,0,0-.171,0,13.233,13.233,0,0,0,.531,4.382,12.052,12.052,0,0,0,2.148,3.815,13.835,13.835,0,0,0,2.918,2.587" fill="#1a2e35"/>
            <path id="Trazado_241233" data-name="Trazado 241233" d="M322.58,76.976a5.46,5.46,0,0,1-3.2-7.016h0a5.461,5.461,0,1,1,3.2,7.017m-2.521-6.762a4.722,4.722,0,1,0,4.936-3.046,4.732,4.732,0,0,0-4.936,3.046" fill="#ffc800"/>
            <path id="Trazado_241234" data-name="Trazado 241234" d="M311.618,74.43c-2.2-.393-3.568-3.121-3.041-6.082a6.512,6.512,0,0,1,1.8-3.552,3.4,3.4,0,0,1,5.727,1.019,6.517,6.517,0,0,1,.466,3.957c-.5,2.8-2.515,4.823-4.6,4.7a3.3,3.3,0,0,1-.355-.042m-.733-9.109a5.789,5.789,0,0,0-1.591,3.155c-.456,2.565.644,4.914,2.452,5.235s3.652-1.5,4.109-4.067a5.8,5.8,0,0,0-.4-3.51,2.911,2.911,0,0,0-2.049-1.726,2.316,2.316,0,0,0-.275-.032,3,3,0,0,0-2.242.945" fill="#ffc800"/>
            <path id="Trazado_241235" data-name="Trazado 241235" d="M319.414,70.616l.582-.44c-.652-.862-2.309-2.2-3.925-1.106l.409.6c1.446-.981,2.874.864,2.934.942" fill="#ffc800"/>
            <path id="Trazado_241236" data-name="Trazado 241236" d="M342.793,77.4l.706-.182c-.086-.33-.874-3.235-2.4-3.856-1.43-.576-11.163-1.86-11.576-1.914l-.1.723c2.791.365,10.293,1.419,11.4,1.867,1.009.41,1.765,2.566,1.971,3.362" fill="#ffc800"/>
            <path id="Trazado_241237" data-name="Trazado 241237" d="M337.406,75.874s4.481-4.81,6.714-3.139-1.66,9.009-4.651,9.667a2.918,2.918,0,0,1-3.653-2.1Z" fill="#ff9581"/>
            <path id="Trazado_241238" data-name="Trazado 241238" d="M342.952,74.811a.04.04,0,0,1,0,.078c-2.106.527-3.415,2.227-4.419,4.039a1.611,1.611,0,0,1,2.448-.1c.047.044-.014.118-.068.1a1.8,1.8,0,0,0-2.044.345,8.612,8.612,0,0,0-1.16,1.45c-.119.166-.427.025-.33-.171.007-.014.016-.029.023-.044.307-2.547,2.782-5.824,5.546-5.7" fill="#1a2e35"/>
            <path id="Trazado_241239" data-name="Trazado 241239" d="M327.288,94l3.42,7.711,9.369-10.243,2.868,3.078s-8.95,16.064-9.036,15.355l-3.463-6.628-4.488,4.856-.04-11.791Z" fill="#ececec"/>
            <path id="Trazado_241240" data-name="Trazado 241240" d="M325.609,102.3c.059-1.947.063-3.91.212-5.852,0-.069.112-.1.131-.023.456,1.862.193,9.307.264,11.087l.02-.021c.187-.21,4.167-4.281,4.21-4.221.737,1.046,3.278,5.872,3.455,6.314,1.415-2.552,7.448-12.626,9.144-15.052a.068.068,0,0,1,.119.064c-1.235,2.685-9.019,15.973-9.137,15.943a76.027,76.027,0,0,1-3.625-7.009c-.667.879-4.667,5.456-4.692,5.168a61.237,61.237,0,0,1-.1-6.4" fill="#1a2e35"/>
            <path id="Trazado_241241" data-name="Trazado 241241" d="M353.46,103.743c9.283,17.21,19.726,46.491,16.789,51.956-7.356,13.69-24.7,27.976-32.764,32.66-4.7,2.733-20.351-21.381-16.293-24.016,6.4-4.157,23.238-18.5,25.264-20.427,1.08-1.031-2.168-21.719-3.052-35.414-.96-14.888,5.531-13.148,10.056-4.759" fill="#ff9581"/>
            <path id="Trazado_241242" data-name="Trazado 241242" d="M309.389,178.061c1-1.585.173-2.12-2.963-1-3.176,1.125-14.6,8.206-16.737,4-2.15-4.22,14.186-13.976,19.552-15.438s14.558-1.946,14.558-1.946c-2.8,2.537-8.99,9.339-14.41,14.388" fill="#ff9581"/>
            <rect id="Rectángulo_316029" data-name="Rectángulo 316029" width="10.968" height="68.93" transform="translate(261.571 130.045) rotate(-37.621)" fill="#c8c8c8"/>
            <rect id="Rectángulo_316030" data-name="Rectángulo 316030" width="16.586" height="44.699" transform="translate(291.668 173.698) rotate(-37.618)" fill="#1a2e35"/>
            <g id="Grupo_242614" data-name="Grupo 242614" opacity="0.2">
              <g id="Grupo_242613" data-name="Grupo 242613">
                <g id="Grupo_242612" data-name="Grupo 242612" clip-path="url(#clip-path-9)">
                  <path id="Trazado_241243" data-name="Trazado 241243" d="M212.694,129.746a59.937,59.937,0,1,1,45.47-5.577,59.936,59.936,0,0,1-45.47,5.577" fill="#fff"/>
                </g>
              </g>
            </g>
            <path id="Trazado_241244" data-name="Trazado 241244" d="M210,139.484a69.974,69.974,0,1,1,86.158-48.677A70.053,70.053,0,0,1,210,139.484m2.148-7.729a61.952,61.952,0,1,0-43.1-76.28,62.022,62.022,0,0,0,43.1,76.28" fill="#2b454e"/>
            <path id="Trazado_241245" data-name="Trazado 241245" d="M291.922,61.574a64.348,64.348,0,0,0-7.451-20.989,63.643,63.643,0,1,0,7.451,20.989M286.416,88.1a59.937,59.937,0,1,1-5.577-45.47,59.936,59.936,0,0,1,5.577,45.47m5.506-26.528a64.348,64.348,0,0,0-7.451-20.989,63.643,63.643,0,1,0,7.451,20.989M286.416,88.1a59.937,59.937,0,1,1-5.577-45.47,59.936,59.936,0,0,1,5.577,45.47m13.419-27.839a72.034,72.034,0,1,0-1.674,31.1,71.958,71.958,0,0,0,1.674-31.1m-5.687,29.989a67.914,67.914,0,1,1,1.56-29.3,67.477,67.477,0,0,1-1.56,29.3m-9.677-49.667a63.643,63.643,0,1,0,7.451,20.989,64.348,64.348,0,0,0-7.451-20.989M286.416,88.1a59.937,59.937,0,1,1-5.577-45.47,59.936,59.936,0,0,1,5.577,45.47" fill="#2b454e"/>
            <path id="Trazado_241246" data-name="Trazado 241246" d="M184.406,94.084a45.916,45.916,0,0,1-5.134-18.325,49.2,49.2,0,0,1,.22-9.759,51.994,51.994,0,0,1,2.205-9.627,47.9,47.9,0,0,1,10.186-16.925,52.954,52.954,0,0,1,15.673-11.57,94.711,94.711,0,0,0-13.233,13.589,58.037,58.037,0,0,0-5.038,7.759,48.42,48.42,0,0,0-3.692,8.376,59,59,0,0,0-3.118,17.985,77.4,77.4,0,0,0,1.931,18.5" fill="#fff"/>
            <path id="Trazado_241247" data-name="Trazado 241247" d="M275.77,65.5a45.922,45.922,0,0,1-.068,19.03,49.174,49.174,0,0,1-2.878,9.328,52,52,0,0,1-4.751,8.658,47.881,47.881,0,0,1-14.422,13.5,52.959,52.959,0,0,1-18.238,6.848,94.567,94.567,0,0,0,16.442-9.457,58.012,58.012,0,0,0,6.966-6.086,48.55,48.55,0,0,0,5.84-7.049,59.016,59.016,0,0,0,7.913-16.449,77.368,77.368,0,0,0,3.2-18.321" fill="#fff"/>
            <path id="Trazado_241248" data-name="Trazado 241248" d="M340.115,186.181c-8.135,6.859-17.846,15.9-29.682,17.909a5.948,5.948,0,0,1-3.855-.541c-5.288,1-7.347-1.2-7.347-1.2-5.211-.58-7.008-3.118-7.008-3.118s-6.222,1.1-7.513-2.547c-1.46-4.089,7.564-4.837,12.275-8.284,10.793-7.9,23.927-22.14,26.813-24.726Z" fill="#ff9581"/>
            <path id="Trazado_241249" data-name="Trazado 241249" d="M314.112,188.073a86.223,86.223,0,0,1-9.841,6.378,86.429,86.429,0,0,1-11.978,4.648.1.1,0,0,0,.053.2,45.469,45.469,0,0,0,21.871-11.083c.14-.13.057-.259-.105-.145" fill="#1a2e35"/>
            <path id="Trazado_241250" data-name="Trazado 241250" d="M319.825,193.9c-3.258,2.026-9.006,5.549-20.625,8.328-.038.01-.034.077.009.072a40.807,40.807,0,0,0,20.712-8.245c.193-.144.121-.289-.1-.155" fill="#1a2e35"/>
            <path id="Trazado_241251" data-name="Trazado 241251" d="M322.836,197.081c-5.67,3.234-9.655,4.554-16.24,6.434-.037.011-.028.079.014.071,7.707-1.351,10.35-2.714,16.364-6.326.207-.124.083-.3-.138-.179" fill="#1a2e35"/>
            <path id="Trazado_241252" data-name="Trazado 241252" d="M343.624,189.679l-20.646-28.85,22.122-17.32c-1.351-11.207-4.044-33.616-3.813-41.505.27-9.256,6.714-9.672,11.72-1.677,11.45,18.288,22.541,51.434,21.674,56.758-1.242,7.628-31.057,32.594-31.057,32.594" fill="#ffc800"/>
            <path id="Trazado_241253" data-name="Trazado 241253" d="M345.776,182.747c-.941-2.014-6.152-9.576-7.471-11.446-1.291-1.832-6.861-9.189-8.222-11.1-.074-.1-.245-.03-.171.077,1.315,1.919,6.291,9.683,7.591,11.564s6.59,9.366,8.172,10.974a.06.06,0,0,0,.1-.064" fill="#1a2e35"/>
            <path id="Trazado_241254" data-name="Trazado 241254" d="M355.322,179.376c6.527-6.394,13.609-12.584,18.39-20.437,1.279-2.232.464-4.763,0-7.137q-.578-2.426-1.3-4.824c-4.044-12.772-9.309-25.111-14.3-37.541a295.22,295.22,0,0,1,11.987,27.712,114.511,114.511,0,0,1,4.415,14.479c.421,2.433,1.1,5.314-.267,7.586-4.9,7.856-12.178,13.945-18.919,20.162" fill="#1a2e35"/>
            <path id="Trazado_241255" data-name="Trazado 241255" d="M360.318,114.259a30.612,30.612,0,0,1-.833-3.4,7.688,7.688,0,0,1,.833,3.4" fill="#1a2e35"/>
            <path id="Trazado_241256" data-name="Trazado 241256" d="M342.334,116.738c.965,7.546,2.251,16.292,3.039,23.879.092.967.2,1.884.207,2.873a.7.7,0,0,1-.192.458c-5.1,4.566-11.277,8.785-16.779,12.889l-5.616,3.973.011-.067.5.815-.58-.76-.028-.036.039-.031,5.377-4.288c5.255-4.252,11.347-8.665,16.334-13.11.014-.016.015-.024.014-.015a.289.289,0,0,0-.042.138c-.007-.33-.038-.671-.07-1.039-.749-8.384-1.957-17.273-2.214-25.679" fill="#1a2e35"/>
            <path id="Trazado_241257" data-name="Trazado 241257" d="M341.625,118.277c.51,1.185.781,2.5,1.2,3.709a8.917,8.917,0,0,1-1.2-3.709" fill="#1a2e35"/>
            <path id="Trazado_241258" data-name="Trazado 241258" d="M290.912,160.379c.109-3.649-4.254-1.689-4.254-1.689s5.6-4.335,4.258-8.141c-1.3-3.665-6.491-1.111-6.865-.933.3-.232,5.337-4.35,3.594-8.035-1.815-3.829-6.582-.371-6.889-.147.209-.306,2.906-4.4.945-6.9-3.371-4.293-12.061,6.76-16.44,7.349l-5.832-5.809a10.964,10.964,0,0,1,.187,6.217c-.687,2.978-1.167,4.961-.7,6.818a4,4,0,0,0,3.59,3.149s-2.612,2.858-1.331,5.8c.661,1.51,3.665,1.795,3.665,1.795s-1.995,2.377-.693,4.925c1.033,2.037,3.885,2.007,3.885,2.007s-.857,3.17.874,4.908c3.484,3.514,21.769-3.5,22.009-11.317" fill="#ff9581"/>
            <path id="Trazado_241259" data-name="Trazado 241259" d="M263.719,140.753l-4.188-4.549c-.191-.131-.391-.269-.582-.386-6.715-4.171-16.272-.82-12.521,3.433,2.849,3.24,10.091,2.137,12.529,5.878l.007-.008Z" fill="#ff9581"/>
            <path id="Trazado_241260" data-name="Trazado 241260" d="M268.481,166.852a.051.051,0,0,0,.018.1,33.969,33.969,0,0,0,18.406-8.344c.159-.15-.015-.474-.222-.343a69.529,69.529,0,0,1-18.2,8.586" fill="#1a2e35"/>
            <path id="Trazado_241261" data-name="Trazado 241261" d="M264.76,159.928c-.073.021-.039.143.042.132,6.772-.9,14.529-4.428,19.513-10.35.172-.2.121-.557-.093-.338-3.613,3.686-13.38,8.8-19.462,10.556" fill="#1a2e35"/>
            <path id="Trazado_241262" data-name="Trazado 241262" d="M280.961,140.9c-5,5.494-11.256,8.832-18.176,11.337-.09.033-.034.157.048.15,3.719-.3,7.964-2.359,11.131-4.239a19.587,19.587,0,0,0,7.189-7.073c.069-.118-.085-.292-.192-.175" fill="#1a2e35"/>
            <path id="Trazado_241263" data-name="Trazado 241263" d="M397.017,32.161a22.952,22.952,0,0,1-36.64,18.433l-11.248,2.871,4.683-10.473a22.96,22.96,0,1,1,43.2-10.831" fill="#fff"/>
            <path id="Trazado_241264" data-name="Trazado 241264" d="M397.017,32.161c.163,13.278-11.75,24.248-24.958,23.111a23.185,23.185,0,0,1-11.894-4.392l.3.059-11.227,2.952-.879.231.37-.836,4.644-10.49.015.424c-5.3-9.417-2.722-22.149,5.647-28.9,15.062-12.443,37.974-1.688,37.982,17.84m0,0c.068-14.672-14.289-25.873-28.474-21.983-14.006,3.484-21.229,19.925-14.307,32.586l.112.211-.1.213L349.53,53.644l-.509-.6,11.268-2.791.168-.042.133.1A22.593,22.593,0,0,0,372.1,54.8a22.865,22.865,0,0,0,24.918-22.639" fill="#1a2e35"/>
            <path id="Trazado_241265" data-name="Trazado 241265" d="M370.336,45.824l-10.29-10.416,3.457-3.415,6.011,6.084L382,18.5l4.1,2.613Z" fill="#ffc800"/>
          </g>
        </g>
      </g>
    </g>
  </g>
</svg>
